<svg viewBox="0 0 274 273" xmlns="http://www.w3.org/2000/svg" xmlns:xlink="http://www.w3.org/1999/xlink" width="274.000000" height="273.000000" fill="none" customFrame="#000000">
	<mask id="mask_31" width="274.000000" height="273.000000" x="0.000000" y="0.000000" maskUnits="userSpaceOnUse">
		<g filter="url(#pixso_custom_mask_type_outline)">
			<g>
				<rect id="Rectangle 63" width="274.000000" height="273.000000" x="0.000000" y="0.000000" fill="rgb(255,255,255)" />
			</g>
		</g>
	</mask>
	<mask id="mask_30" width="274.000000" height="273.000000" x="0.000000" y="0.000000" maskUnits="userSpaceOnUse">
		<g filter="url(#pixso_custom_mask_type_outline)">
			<g>
				<rect id="Rectangle 64" width="274.000000" height="273.000000" x="0.000000" y="0.000000" fill="rgb(255,255,255)" />
			</g>
		</g>
	</mask>
	<defs>
		<filter id="pixso_custom_mask_type_outline">
			<feColorMatrix type="matrix" values="0 0 0 0 1 0 0 0 0 1 0 0 0 0 1 0 0 0 1 0 " />
		</filter>
	</defs>
	<mask id="mask_29" width="274.000000" height="273.000000" x="0.000000" y="0.000000" maskUnits="userSpaceOnUse">
		<g filter="url(#pixso_custom_mask_type_outline)">
			<g>
				<rect id="Rectangle 65" width="274.000000" height="273.000000" x="0.000000" y="0.000000" fill="rgb(255,255,255)" />
			</g>
		</g>
	</mask>
	<g id="Group 14">
		<g id="Group 84" mask="url(#mask_29)">
			<g id="Group 83">
				<g id="Group 82" mask="url(#mask_30)">
					<g id="Group 81" opacity="0">
						<g id="Group 80">
							<g id="Group 79" mask="url(#mask_31)">
								<g style="mix-blend-mode:normal">
									<path id="Path 1070" d="M-1.06802 273.508L-1.06802 -1.7793L274.219 -1.7793L-1.06802 273.508Z" fill="rgb(255,255,255)" fill-rule="nonzero" />
								</g>
							</g>
						</g>
					</g>
					<g style="mix-blend-mode:normal">
						<path id="Path 1071" d="M199.072 187.598C197.236 185.762 194.631 185.17 192.294 185.81L175.423 167.705L187.629 155.499L184.343 152.213L171.785 160.076L147.82 135.491L185.751 98.5191L197.311 71.4668L170.376 84.3182L135.179 122.522L99.3712 85.7851L72.3188 74.225L85.1701 101.16L122.865 135.888L100.31 160.37L87.4588 152.8L84.1138 156.145L96.4371 168.116L80.5189 186.486C78.2717 185.99 75.8271 186.613 74.0792 188.361C71.3569 191.084 71.3569 195.498 74.0792 198.22C76.8016 200.942 81.2154 200.942 83.9379 198.22C85.774 196.384 86.3665 193.779 85.7256 191.442L103.831 174.571L116.037 186.777L119.323 183.491L111.46 170.933L135.485 147.515L161.222 171.226L153.652 184.077L156.997 187.422L168.968 175.099L187.338 191.017C186.842 193.264 187.465 195.709 189.213 197.457C191.935 200.179 196.349 200.179 199.072 197.457C201.794 194.735 201.794 190.321 199.072 187.598Z" fill="rgb(255,255,255)" fill-rule="nonzero" />
					</g>
				</g>
			</g>
			<g style="mix-blend-mode:normal">
				<path id="PARTENER" d="M79.7572 238.047C80.9974 238.047 82.0733 238.254 82.9847 238.667C83.8995 239.08 84.6026 239.668 85.0941 240.43C85.5889 241.188 85.8363 242.087 85.8363 243.125C85.8363 244.154 85.5889 245.052 85.0941 245.82C84.6026 246.585 83.8995 247.171 82.9847 247.578C82.0733 247.982 80.9974 248.184 79.7572 248.184L76.9398 248.184L76.9398 252.046L73.6976 252.046L73.6976 238.047L79.7572 238.047ZM79.5765 245.547C80.5498 245.547 81.2888 245.337 81.7933 244.917C82.3011 244.497 82.5551 243.9 82.5551 243.125C82.5551 242.34 82.3011 241.738 81.7933 241.318C81.2888 240.895 80.5498 240.684 79.5765 240.684L76.9398 240.684L76.9398 245.547L79.5765 245.547ZM96.6564 249.048L90.1574 249.048L88.9171 252.046L85.5968 252.046L91.837 238.047L95.0353 238.047L101.295 252.046L97.8966 252.046L96.6564 249.048ZM95.6359 246.587L93.4191 241.226L91.1974 246.587L95.6359 246.587ZM111.679 252.046L108.978 248.145L108.817 248.145L106 248.145L106 252.046L102.758 252.046L102.758 238.047L108.817 238.047C110.057 238.047 111.133 238.254 112.045 238.667C112.959 239.08 113.663 239.668 114.154 240.43C114.649 241.188 114.896 242.087 114.896 243.125C114.896 244.167 114.646 245.065 114.144 245.82C113.646 246.572 112.937 247.147 112.015 247.544L115.155 252.046L111.679 252.046ZM111.615 243.125C111.615 242.34 111.361 241.738 110.853 241.318C110.349 240.895 109.61 240.684 108.637 240.684L106 240.684L106 245.566L108.637 245.566C109.61 245.566 110.349 245.353 110.853 244.927C111.361 244.5 111.615 243.9 111.615 243.125ZM120.158 240.684L115.676 240.684L115.676 238.047L127.878 238.047L127.878 240.684L123.395 240.684L123.395 252.046L120.158 252.046L120.158 240.684ZM140.457 249.448L140.457 252.046L129.618 252.046L129.618 238.047L140.199 238.047L140.199 240.645L132.835 240.645L132.835 243.687L139.339 243.687L139.339 246.206L132.835 246.206L132.835 249.448L140.457 249.448ZM155.879 238.047L155.879 252.046L153.218 252.046L146.236 243.545L146.236 252.046L143.038 252.046L143.038 238.047L145.718 238.047L152.676 246.548L152.676 238.047L155.879 238.047ZM170.037 249.448L170.037 252.046L159.198 252.046L159.198 238.047L169.779 238.047L169.779 240.645L162.415 240.645L162.415 243.687L168.919 243.687L168.919 246.206L162.415 246.206L162.415 249.448L170.037 249.448ZM181.539 252.046L178.838 248.145L178.677 248.145L175.86 248.145L175.86 252.046L172.618 252.046L172.618 238.047L178.677 238.047C179.917 238.047 180.993 238.254 181.905 238.667C182.819 239.08 183.523 239.668 184.014 240.43C184.509 241.188 184.756 242.087 184.756 243.125C184.756 244.167 184.506 245.065 184.004 245.82C183.506 246.572 182.797 247.147 181.875 247.544L185.015 252.046L181.539 252.046ZM181.475 243.125C181.475 242.34 181.221 241.738 180.713 241.318C180.209 240.895 179.47 240.684 178.497 240.684L175.86 240.684L175.86 245.566L178.497 245.566C179.47 245.566 180.209 245.353 180.713 244.927C181.221 244.5 181.475 243.9 181.475 243.125Z" fill="rgb(255,255,255)" fill-rule="nonzero" />
			</g>
		</g>
	</g>
</svg>
