<svg viewBox="0 0 36.1012 64.8704" xmlns="http://www.w3.org/2000/svg" xmlns:xlink="http://www.w3.org/1999/xlink" width="36.101242" height="64.870361" fill="none" customFrame="#000000">
	<defs>
		<filter id="pixso_custom_mask_type_outline">
			<feColorMatrix type="matrix" values="0 0 0 0 1 0 0 0 0 1 0 0 0 0 1 0 0 0 1 0 " />
		</filter>
	</defs>
	<mask id="mask_11" width="36.101234" height="64.870308" x="0.000015" y="0.000000" maskUnits="userSpaceOnUse">
		<g filter="url(#pixso_custom_mask_type_outline)">
			<g>
				<rect id="Rectangle 31" width="36.101234" height="64.870308" x="0.000015" y="0.000000" fill="rgb(255,255,255)" />
			</g>
		</g>
	</mask>
	<g id="Group 30">
		<g id="Group 29" mask="url(#mask_11)">
			<g style="mix-blend-mode:normal">
				<path id="Path 894" d="M2.28349 0.0388722L33.4677 -0.000976562C34.7793 0.0527326 36.0406 0.995242 36.103 2.36396L36.103 62.6413C36.0492 63.7796 35.0184 64.8174 33.8732 64.8711L2.1085 64.8693C1.16079 64.6874 0.462575 64.0949 0.122995 63.2061C-0.124761 42.9508 0.0952739 22.64 0.0121112 2.36396C0.0883436 1.1633 1.11575 0.203465 2.28349 0.0388722ZM31.0976 5.00437L5.01746 5.00437L5.01746 44.0562L16.3657 32.6334C17.2528 31.8902 18.6977 31.7204 19.6142 32.5L31.0976 43.921L31.0976 5.00437ZM31.0976 57.1629L31.0976 51.0141L18.3997 38.3093L18.0757 38.1204L5.01746 51.1492L5.01746 57.2981L16.3657 45.8771C17.2302 45.1355 18.5972 45.0108 19.5449 45.6761L31.0976 57.1629ZM9.6122 60.0009L26.638 60.0009L18.0584 51.3554L9.6122 60.0009Z" fill="rgb(255,255,255)" fill-rule="nonzero" />
			</g>
			<g style="mix-blend-mode:normal">
				<path id="Path 895" d="M9.57581 8.54953C10.3208 8.42825 10.9636 8.62923 11.57 9.0589L17.7812 15.2822L18.0567 15.4139C18.4881 15.4139 23.3115 10.114 24.2038 9.39329C25.1775 8.60844 26.1182 8.28618 27.2998 8.86832C28.6599 9.53709 29.0411 11.2211 28.2372 12.4824C27.0919 14.2774 23.8365 16.6302 22.3101 18.4459C21.8198 19.0298 21.6119 19.0887 22.1091 19.7349C23.6667 21.7585 26.8892 23.8774 28.2372 25.9028C29.845 28.3232 27.0694 31.1005 24.6196 29.3852C22.5908 27.9663 20.5637 24.8771 18.5331 23.3109C18.3755 23.1896 18.2369 23.0458 18.0324 22.9938C17.8626 22.98 16.4211 24.3504 16.1613 24.593C15.0056 25.6758 12.2994 28.8897 11.1923 29.4892C8.92957 30.7141 6.40351 28.1863 7.79648 25.9582C9.98643 23.647 12.386 21.5281 14.4703 19.125L7.69253 12.2607C6.90075 10.7308 7.92469 8.81635 9.57581 8.54953Z" fill="rgb(255,255,255)" fill-rule="nonzero" />
			</g>
		</g>
	</g>
</svg>
