<svg viewBox="0 0 109.251 109.25" xmlns="http://www.w3.org/2000/svg" xmlns:xlink="http://www.w3.org/1999/xlink" width="109.250702" height="109.250488" fill="none" customFrame="#000000">
	<defs>
		<filter id="pixso_custom_mask_type_outline">
			<feColorMatrix type="matrix" values="0 0 0 0 1 0 0 0 0 1 0 0 0 0 1 0 0 0 1 0 " />
		</filter>
	</defs>
	<mask id="mask_13" width="109.250702" height="109.250702" x="0.000000" y="0.000000" maskUnits="userSpaceOnUse">
		<g filter="url(#pixso_custom_mask_type_outline)">
			<g>
				<rect id="Rectangle 38" width="109.250702" height="109.250702" x="0.000000" y="0.000000" fill="rgb(255,255,255)" />
			</g>
		</g>
	</mask>
	<g id="Group 11">
		<g id="Group 36" mask="url(#mask_13)">
			<g style="mix-blend-mode:normal">
				<path id="Path 900" d="M109.251 54.6254C109.251 84.7941 84.7942 109.251 54.6255 109.251C24.4566 109.251 0.000152588 84.7941 0.000152588 54.6254C0.000152588 24.4566 24.4566 0 54.6255 0C84.7942 0 109.251 24.4566 109.251 54.6254Z" fill="rgb(255,211,52)" fill-rule="nonzero" />
			</g>
			<g style="mix-blend-mode:normal">
				<path id="Path 901" d="M29.1498 92.8502C27.4121 94.4791 25.2845 92.8254 25.1315 90.7877C24.8688 87.2894 27.358 82.653 29.8297 80.2863C39.6741 70.861 58.2335 78.6578 70.1159 72.1416C74.4682 69.7548 77.2178 65.3111 73.0978 61.1593C65.3099 53.3109 49.3689 55.6323 39.4437 51.2411C28.0674 46.2078 21.8614 32.0482 38.1371 28.5641C47.5227 26.5551 67.838 31.8258 70.6363 18.9016C70.9415 17.4924 70.7313 15.0026 71.5241 13.9903C72.909 12.2217 75.891 13.3003 75.9114 15.557C75.9537 20.2605 73.5792 25.5993 69.871 28.4808C59.5517 36.4992 46.3206 29.6254 35.9497 34.3703C32.5981 35.9038 31.9986 37.3874 33.8799 40.6611C39.3787 50.23 55.9679 48.9681 65.4443 51.7287C73.6025 54.1054 83.7988 60.78 78.4464 70.5976C73.9108 78.9167 61.168 79.8402 52.7999 80.0596C44.4159 80.2795 32.0056 78.5694 30.0066 89.5539C29.8079 90.6453 30.0932 91.9659 29.1498 92.8502Z" fill="rgb(3,2,0)" fill-rule="nonzero" />
			</g>
			<g style="mix-blend-mode:normal">
				<path id="Path 902" d="M20.741 31.1519C20.7865 31.0504 20.9605 30.8726 21.0545 30.6817C21.2819 30.22 21.7581 29.1553 21.9949 28.8009C25.2859 23.875 31.1962 20.9251 36.7664 19.2299C39.0496 18.5349 41.918 17.9896 44.6447 17.6743C47.7855 17.3108 56.6497 17.7398 56.1508 12.7515C56.0549 11.7926 55.6181 12.313 54.9858 12.3426C51.2252 12.5185 48.1221 12.5522 44.3789 13.3333C34.9626 15.2983 23.8466 22.0013 18.7035 30.2115C18.6137 30.3549 18.4275 30.4769 18.39 30.6817C17.6541 31.2662 16.9824 32.8409 16.5092 33.6597C14.7691 36.6712 13.5875 39.2802 12.5494 42.6306C12.2715 43.5271 11.8684 46.0913 11.4059 46.6593C10.737 47.4811 8.19093 47.3239 7.49362 46.672C6.36843 45.6202 7.43187 42.9867 7.81054 41.6534C13.866 20.3312 35.2157 5.39956 57.5028 7.47755C59.4943 7.66328 60.5496 10.5264 60.706 12.2678C61.6958 23.2837 47.0321 21.6803 40.0179 23.2353C27.5526 25.9988 20.1639 34.3461 26.0428 47.2446C30.398 56.7998 39.2565 59.542 48.8557 60.7942C50.9485 61.0672 52.0583 62.8985 50.8077 64.7452C50.0239 65.9026 48.902 65.703 47.6227 65.6323C40.8484 65.2578 32.5155 61.9604 27.5549 57.3308C21.0044 51.2173 16.9206 39.6896 20.741 31.1519Z" fill="rgb(3,2,0)" fill-rule="nonzero" />
			</g>
			<g style="mix-blend-mode:normal">
				<path id="Path 903" d="M51.1023 39.0218C51.7546 38.8743 53.3043 38.9592 54.0537 38.9823C67.5159 39.3956 85.5534 45.4721 88.5611 60.4295C91.2981 74.0421 82.6133 84.4311 70.1121 88.2814C63.6985 90.2568 58.7972 90.1116 52.3246 90.7128C50.3941 90.8924 46.6392 92.2902 45.575 90.0937C44.3445 87.5537 48.0928 86.5215 49.8611 86.2117C53.0392 85.6552 56.453 85.8807 59.6888 85.5383C70.9033 84.3514 83.7888 79.0856 84.3741 66.0241C85.0789 50.291 67.3397 44.7656 54.6807 43.8411C53.0251 43.7202 50.5443 44.3171 49.7524 42.3429C49.295 41.2027 49.8031 39.3156 51.1023 39.0218Z" fill="rgb(3,2,0)" fill-rule="nonzero" />
			</g>
			<g style="mix-blend-mode:normal">
				<path id="Path 904" d="M98.1297 42.6281C100.513 42.2795 101.102 45.8767 101.414 47.5762C105.123 67.776 94.7815 87.7806 76.9576 97.3209C75.9669 97.8511 72.9351 99.4359 71.9955 99.5818C70.0777 99.8792 68.7733 98.5195 69.5262 96.6292C70.4422 94.3297 73.5941 93.4725 75.6017 92.3601C90.5351 84.0853 99.2586 67.1333 96.892 50.0606C96.6878 48.5876 95.9833 46.56 96.1306 45.1784C96.2422 44.1333 97.0047 42.7927 98.1297 42.6281Z" fill="rgb(3,2,0)" fill-rule="nonzero" />
			</g>
			<g style="mix-blend-mode:normal">
				<path id="Path 905" d="M85.2811 18.9707C92.2543 18.2977 93.1879 28.8908 86.3326 29.4246C79.2219 29.9785 78.7325 19.6026 85.2811 18.9707Z" fill="rgb(3,2,0)" fill-rule="nonzero" />
			</g>
			<g style="mix-blend-mode:normal">
				<path id="Path 906" d="M8.95114 52.1984C15.3046 51.5866 16.862 60.8666 10.8758 62.4298C3.54566 64.3442 1.61264 52.9048 8.95114 52.1984Z" fill="rgb(3,2,0)" fill-rule="nonzero" />
			</g>
			<g style="mix-blend-mode:normal">
				<path id="Path 907" d="M61.6166 97.3398C62.5934 97.2609 63.4189 97.1237 64.2341 97.765C65.5118 98.7699 65.4121 100.773 64.0527 101.657C62.9524 102.372 57.8766 102.919 56.4004 102.947C54.0079 102.992 53.5592 101.523 53.8085 99.4062C54.0146 97.6567 56.3402 98.084 57.6513 97.9199C58.932 97.7598 60.3598 97.4415 61.6166 97.3398Z" fill="rgb(3,2,0)" fill-rule="nonzero" />
			</g>
			<g style="mix-blend-mode:normal">
				<path id="Path 908" d="M43.2017 102.418C42.8363 102.09 41.7971 99.9744 41.5832 99.4134C40.9284 97.6948 40.2898 94.249 42.7976 93.7255C45.7325 93.1129 45.6552 96.1637 46.3705 97.9177C46.8351 99.0573 48.407 100.608 48.3358 101.602C48.1978 103.522 44.2075 103.321 43.2017 102.418Z" fill="rgb(3,2,0)" fill-rule="nonzero" />
			</g>
			<g style="mix-blend-mode:normal">
				<path id="Path 909" d="M10.5107 66.2967C11.3936 66.1159 12.3321 66.2315 12.9885 66.8819C13.514 67.4026 15.125 71.3932 15.0888 72.1166C14.9701 74.4847 12.0246 75.469 10.5538 73.5482C9.97134 72.7878 8.75477 69.465 8.81996 68.5271C8.88015 67.6588 9.61054 66.4811 10.5107 66.2967Z" fill="rgb(3,2,0)" fill-rule="nonzero" />
			</g>
			<g style="mix-blend-mode:normal">
				<path id="Path 910" d="M78.7005 32.7529C82.2686 32.3941 82.9438 37.8152 79.586 38.3517C75.3627 39.0263 74.976 33.1273 78.7005 32.7529Z" fill="rgb(3,2,0)" fill-rule="nonzero" />
			</g>
			<g style="mix-blend-mode:normal">
				<path id="Path 911" d="M24.7616 69.6544C22.2924 72.2894 17.9891 68.4153 20.5856 65.7132C23.2342 62.9559 27.2543 66.9943 24.7616 69.6544Z" fill="rgb(3,2,0)" fill-rule="nonzero" />
			</g>
			<g style="mix-blend-mode:normal">
				<path id="Path 912" d="M59.8837 64.8876C64.4573 64.1028 64.3564 71.0486 60.1987 70.455C56.9779 69.9955 56.9796 65.3858 59.8837 64.8876Z" fill="rgb(3,2,0)" fill-rule="nonzero" />
			</g>
			<g style="mix-blend-mode:normal">
				<path id="Path 913" d="M16.6246 77.5836C20.7978 76.8819 21.2657 82.918 17.505 83.1772C13.8611 83.4283 13.4691 78.1141 16.6246 77.5836Z" fill="rgb(3,2,0)" fill-rule="nonzero" />
			</g>
			<g style="mix-blend-mode:normal">
				<path id="Path 914" d="M92.6425 31.0313C94.9975 30.6545 96.7402 33.3806 95.4146 35.373C94.498 36.7506 92.7913 37.0444 91.439 36.0785C89.4442 34.6538 90.2639 31.4117 92.6425 31.0313Z" fill="rgb(3,2,0)" fill-rule="nonzero" />
			</g>
		</g>
	</g>
</svg>
