<svg viewBox="0 0 109.357 109.027" xmlns="http://www.w3.org/2000/svg" xmlns:xlink="http://www.w3.org/1999/xlink" width="109.357117" height="109.027344" fill="none" customFrame="#000000">
	<defs>
		<filter id="pixso_custom_mask_type_outline">
			<feColorMatrix type="matrix" values="0 0 0 0 1 0 0 0 0 1 0 0 0 0 1 0 0 0 1 0 " />
		</filter>
	</defs>
	<mask id="mask_16" width="109.357132" height="109.027542" x="0.000000" y="0.000000" maskUnits="userSpaceOnUse">
		<g filter="url(#pixso_custom_mask_type_outline)">
			<g>
				<rect id="Rectangle 39" width="109.357132" height="109.027542" x="0.000000" y="0.000000" fill="rgb(255,255,255)" />
			</g>
		</g>
	</mask>
	<g id="Group 9">
		<g id="Group 38" mask="url(#mask_16)">
			<g style="mix-blend-mode:normal">
				<path id="Path 915" d="M51.5881 0.0684557C95.4434 -2.0479 124.249 45.3334 101.228 83.0481C80.2155 117.471 29.7966 117.719 8.35444 83.5964C-13.6762 48.5373 10.3235 2.05974 51.5881 0.0684557ZM36.8049 25.0412L36.8049 19.064C36.8049 18.7921 36.0708 18.5574 35.7784 18.578C35.3579 18.6077 33.4283 19.2288 32.999 19.4257C32.3989 19.701 32.2556 19.9371 32.1946 20.5952C32.0269 22.4042 32.3279 24.4654 32.1992 26.3029C32.2007 26.3993 32.1502 26.4561 32.0905 26.5231C31.9864 26.6403 30.3202 27.4439 30.2252 27.3438C30.2393 26.0464 30.2061 24.745 30.2203 23.4464C30.2233 23.1537 30.35 22.8856 30.3438 22.5741C30.3226 21.5141 29.6482 21.1403 28.6981 21.5953C28.2174 22.3842 26.1894 23.4638 25.852 24.1231C25.7457 24.3308 25.7433 24.43 25.723 24.6522C25.5443 26.601 25.8857 28.7997 25.7055 30.7762C25.0115 31.9638 23.5395 31.0151 22.5093 31.6379C21.3904 32.3144 22.138 35.0631 21.8381 36.2309C21.6911 36.8033 21.0284 37.647 20.8852 38.2935C20.2596 38.239 19.7407 38.5222 19.6116 39.159C19.5087 39.6675 19.5236 41.6477 19.6129 42.1783C19.6717 42.5284 19.9327 43.027 20.2729 43.1635C20.6051 43.2967 22.4045 43.3064 22.8274 43.2522C23.0315 43.2261 23.1316 43.1975 23.27 43.0367C23.4952 42.7751 24.1485 40.4704 24.3928 39.8824C26.68 34.3745 31.2665 30.2371 37.154 28.9545C43.8494 27.4959 50.2798 29.9986 54.5322 35.2324C54.7652 35.273 56.0326 33.7077 56.3249 33.4294C65.7645 24.4465 80.7382 28.4016 85.2522 40.3677C85.4116 40.7905 86.0435 42.9688 86.1582 43.0809C86.4018 43.3186 88.6367 43.314 89.0145 43.1978C89.3571 43.0924 89.6875 42.6349 89.7503 42.2885C89.8399 41.7933 89.8565 39.4007 89.7527 38.9381C89.5753 38.1465 88.8381 38.4448 88.5872 38.2937C88.4835 38.2312 87.5632 36.2715 87.5246 36.1212C87.2645 35.1087 87.6225 33.5114 87.4779 32.4392C87.2406 30.6807 84.0066 31.9726 83.6573 30.7762C83.4956 30.2227 83.6113 27.6135 83.6301 26.8462C83.6716 25.1461 84.3246 24.6464 82.8682 23.34C82.151 22.6966 81.2069 22.1223 80.4858 21.4461C79.9771 21.1847 79.138 21.7479 79.138 22.2445L79.138 27.3443L77.0493 26.3947L76.9503 19.8262C76.8047 19.6538 76.6608 19.542 76.457 19.4421C76.1158 19.2747 73.9259 18.5998 73.5874 18.5742C73.2505 18.5486 72.5577 18.8161 72.5577 19.1738L72.5577 25.0412L70.3652 24.7111L70.3412 18.8677C70.0258 18.0553 69.5295 18.0984 68.7694 18.1276C68.2314 18.1483 67.19 18.182 66.7163 18.2675C66.2247 18.3562 65.9229 18.6777 65.8654 19.1713C65.6677 20.8657 66.0303 22.9086 65.8528 24.6423C65.7564 24.929 63.8229 25.2187 63.4592 25.2149C63.3686 25.2138 63.2357 25.1764 63.2357 25.096L63.2357 20.2705C63.2357 19.9522 62.569 19.5352 62.207 19.561C61.9068 19.5823 59.9913 20.2286 59.6191 20.3826C59.0969 20.5987 58.8082 20.8808 58.7366 21.4744C58.5336 23.1624 58.9378 25.1833 58.685 26.9061C57.2901 27.7255 55.925 28.5737 54.6096 29.5153C54.3561 29.54 53.3173 28.6252 53.0058 28.4167C52.1673 27.8557 51.298 27.3538 50.4583 26.7966C50.2086 25.1083 50.6058 23.1287 50.4066 21.4744C50.335 20.8784 50.0467 20.6011 49.5245 20.3826C49.1969 20.2456 47.2771 19.5759 47.0454 19.5608C46.6275 19.5333 45.9077 19.9684 45.9077 20.3802L45.9077 25.1509C45.0777 25.2419 44.2971 24.9621 43.4948 24.8219L43.4948 18.8447C43.4948 18.6303 42.9275 18.267 42.6767 18.2368C42.0706 18.164 40.4964 18.0623 39.9281 18.1294C39.3988 18.1917 39.0568 18.5475 38.9959 19.0616C38.9006 19.8674 39.189 24.5041 38.9929 24.707L36.8049 25.0412ZM54.4639 39.4075C54.4165 39.3746 54.003 38.6285 53.8474 38.4324C50.1002 33.7069 45.8502 30.6758 39.4867 31.0678C30.9423 31.5942 24.6539 40.879 25.2907 49.0031C25.3687 49.9977 25.4796 50.7993 26.6609 50.8233C27.0584 50.8314 28.119 50.752 28.5173 50.6971C29.0501 50.6239 29.3972 50.1818 29.46 49.6653C29.5857 48.6299 29.3836 47.3433 29.4581 46.2637C30.096 37.0255 39.7088 31.2304 47.5438 37.1688C50.5071 39.4147 51.6637 42.7382 53.8689 45.43C54.1767 45.8057 54.3552 46.0247 54.8736 45.796C55.2467 45.6314 57.2253 42.4034 57.6627 41.7863C58.2825 40.9116 58.9742 39.8772 59.6702 39.0778C67.0446 30.6068 79.2397 35.5195 79.9104 46.3677C80.0728 48.9949 78.9344 51.193 82.7007 50.8124C83.6002 50.7215 83.8898 50.3323 83.9681 49.4476C85.345 33.8912 67.9159 24.3559 56.7086 36.7744C56.0518 37.5024 55.3637 38.6638 54.729 39.2912C54.6581 39.3615 54.5796 39.4873 54.4639 39.4075ZM49.0895 59.4771L42.9658 44.8175C42.1829 43.4028 40.7313 43.0639 39.675 44.4167L36.0198 52.77L22.7065 52.7822L22.3772 52.8917L14.6593 60.3156L17.6823 63.3085C20.1501 61.3295 22.1599 58.8679 24.6254 56.8948L38.2355 56.7959C39.4533 56.4347 40.3118 53.2507 41.0277 52.2401C42.5507 55.7377 44.1725 59.1998 45.708 62.6936C46.1674 63.739 46.5634 65.1037 47.055 66.0625C47.7684 67.4535 49.7595 67.4686 50.6051 66.2044C51.818 63.4905 53.0856 60.8042 54.3755 58.1267C54.4823 57.9052 54.4436 57.4591 54.7077 57.8645C54.8784 58.1263 55.0653 58.5863 55.2142 58.8903C56.4248 61.3598 57.4411 63.9301 58.6885 66.3832C59.6369 67.3284 61.4428 67.3879 62.1609 66.1349C64.129 61.4493 66.1971 56.7905 68.4456 52.2401C69.3013 53.4934 70.004 56.6842 71.7298 56.8514L85.0927 56.8684L92.1492 63.1989C92.5432 62.8785 95.105 60.491 95.1417 60.2854C95.1644 60.1576 95.0596 60.1005 94.9914 60.0208L86.9562 52.8114L73.5435 52.7345L69.6886 44.5256C68.75 43.1937 67.1689 43.2692 66.3973 44.7082L60.1631 59.2581L59.9203 59.1187L56.4177 51.4355C55.5797 50.1794 53.7284 50.3162 53.0581 51.6582L49.0895 59.4771ZM14.7292 45.2438C13.5008 45.7153 14.282 47.09 14.8739 47.7948C16.6695 49.9332 19.9562 50.0532 21.8887 48.0163C22.5317 47.3388 23.5831 45.6179 22.1574 45.2272L14.7292 45.2438ZM95.3386 45.4709C95.2174 45.3493 94.8407 45.238 94.6591 45.2177C92.4167 44.968 89.7171 45.4044 87.4248 45.2272C86.2151 45.6126 86.7969 46.775 87.3183 47.5141C88.826 49.6516 91.9092 50.1358 93.9959 48.5082C94.6734 47.9796 96.1793 46.3136 95.3386 45.4709ZM96.2297 51.2732C96.1316 51.2171 96.005 51.2375 95.9165 51.3063L93.0624 54.3782C93.0625 54.6046 96.046 57.5074 96.3015 57.5081L99.3241 54.5918C99.2962 54.3899 99.1634 54.2529 99.0452 54.1022C98.488 53.392 97.093 52.0799 96.3648 51.5126C96.2858 51.4511 96.257 51.2888 96.2297 51.2732ZM15.3475 52.8596C14.841 52.3634 14.3337 51.8635 13.8288 51.3643C13.4515 51.9305 10.9323 53.9911 10.8246 54.4003C10.7912 54.5267 10.825 54.6231 10.9161 54.7123L13.8439 57.6056C14.2693 57.2331 16.8747 54.8564 16.9338 54.5809C16.9569 54.4731 16.882 54.3301 16.8098 54.2465C16.2495 53.8649 15.8266 53.3289 15.3475 52.8596ZM82.9766 59.478L78.6446 59.478C77.9855 60.7677 77.5707 62.2088 77.0269 63.5631C76.4443 65.0136 76.0694 66.3922 74.8637 67.432L54.7361 87.8808C47.6934 80.7727 40.7866 73.5416 33.8424 66.3337C32.8441 64.0796 32.0792 61.6983 31.0471 59.478L26.6054 59.478C27.5655 62.3477 28.5244 65.2229 29.7866 67.977L54.6416 93.7971C55.9469 92.6591 57.1881 91.3777 58.4131 90.134C64.1824 84.2763 70.0245 78.4968 75.7411 72.5865C76.9953 71.2899 78.8617 69.568 79.9029 68.1941C80.3927 67.5479 80.8248 66.1577 81.1142 65.3475C81.8036 63.4174 82.3177 61.418 82.9766 59.478ZM19.1477 65.6216L21.9411 68.4776L22.2178 68.5324L25.9246 64.7747C26.2139 63.8187 24.7411 61.7891 24.4155 60.8452C24.2747 60.7343 23.8056 61.1337 23.6999 61.2333C22.2933 62.5603 20.9348 64.18 19.4802 65.4605C19.3848 65.5444 19.2819 65.6218 19.1477 65.6216ZM90.4335 65.4023L84.9472 60.8452C84.6996 61.903 83.4597 63.6152 83.7672 64.6648L87.0881 67.8136C87.4712 68.0873 87.7752 68.1995 88.1867 67.9238C88.4085 67.775 90.1524 65.9283 90.3269 65.6768C90.3909 65.5844 90.4769 65.5625 90.4335 65.4023ZM83.1009 67.8279C83.0411 67.8623 82.473 68.7735 82.3155 68.9615C81.8742 69.4882 80.9197 70.2086 81.135 70.9162C81.3179 71.5176 84.3152 73.7093 84.7861 74.5028C85.0308 74.7245 85.2964 74.7761 85.6138 74.6751C85.8915 74.5865 88.0114 72.271 87.9753 72.0834C87.9391 71.8946 85.7188 69.6924 85.3909 69.4017C84.9655 69.0246 83.9384 68.1429 83.4786 67.9144C83.3641 67.8573 83.2337 67.7518 83.1009 67.8279ZM26.771 68.0523L22.2303 72.3864L22.3219 72.6984C23.3134 73.2971 23.854 75.3125 25.1861 74.8925C25.7824 74.7045 27.2345 72.8556 27.7556 72.3079C28.0465 72.002 28.8847 71.3978 28.9729 71.1066C29.1674 70.4651 28.4316 70.1002 28.0845 69.6789C27.8964 69.4505 26.8756 68.0525 26.771 68.0523ZM61.6885 76.4682C62.4111 75.4013 63.1596 74.337 64.1112 73.4611L59.2433 69.9975C58.8562 70.5204 58.4525 71.0488 58.0279 71.5434C57.7958 71.8137 57.0371 72.367 57.0863 72.6849L61.6885 76.4682ZM48.6354 70.7893L48.2598 70.8784C47.9642 71.3409 45.4653 73.6688 45.4651 73.8997L48.3904 76.9077L51.493 73.8847L48.6354 70.7893ZM31.0759 73.0944C30.8843 73.1243 30.6022 73.3342 30.4415 73.4585L26.1824 77.7621C26.0972 78.0669 26.6499 78.6279 26.8782 78.8912C27.1531 79.2084 28.5978 80.6861 28.8799 80.7374C29.211 80.7978 29.3352 80.6578 29.5689 80.482C30.2999 79.9322 33.0275 77.2084 33.5718 76.4791C33.9502 75.9723 33.9502 75.7753 33.5718 75.2685C33.2792 74.8764 32.1998 73.7654 31.8138 73.4073C31.607 73.2155 31.3632 73.0494 31.0759 73.0944ZM78.6706 73.0939C78.4405 73.1361 76.6264 74.8952 76.4562 75.1658C75.8423 76.1416 77.1517 76.8156 77.7117 77.4098C78.4591 78.2028 79.6156 79.6676 80.4494 80.2651C80.6737 80.4256 80.9354 80.583 81.2215 80.4887C82.2418 79.7988 83.1106 78.6741 83.9557 77.7534C82.8771 76.7483 81.9872 75.5444 80.8944 74.5562C80.4944 74.1946 79.1514 73.0057 78.6706 73.0939ZM50.2948 78.6719L54.8475 83.2834L59.1757 78.6155L55.3901 75.9253C53.4945 76.4581 52.0319 77.8551 50.2948 78.6719ZM73.9467 77.928C73.8223 77.9385 73.4838 78.137 73.3786 78.2301C73.0467 78.5238 72.0063 79.6315 71.7326 79.984C71.3397 80.4898 71.2231 80.6673 71.6237 81.1953C72.6955 82.6079 74.5679 84.0219 75.7333 85.4194C76.2525 85.8938 76.6806 85.5297 77.1115 85.1434C77.8309 84.498 78.461 83.5189 79.2458 82.8927C78.3237 82.2164 74.8332 77.8535 73.9467 77.928ZM35.9993 78.1445C35.8175 78.1626 35.3787 78.5308 35.2122 78.668C34.7115 79.0799 30.8922 82.8565 30.8159 83.1613C31.3992 84.0333 32.4064 84.6719 33.0197 85.5814C33.5517 85.9537 33.7594 86.0322 34.2847 85.6367C35.1408 84.9921 37.3517 82.7176 38.0675 81.8523C38.3043 81.566 38.7413 81.0982 38.6493 80.7282C38.5843 80.4668 36.7318 78.5651 36.4208 78.3422C36.2943 78.2516 36.1733 78.1272 35.9993 78.1445ZM67.5844 87.0436C68.507 88.0189 69.896 89.7039 70.9105 90.4623C71.2225 90.6954 71.3809 90.8189 71.7952 90.687C72.7195 89.8795 73.503 88.8828 74.4203 88.0473C72.9525 86.7844 71.6244 84.9714 70.1462 83.7689C69.6587 83.3722 69.2715 82.9552 68.6645 83.3871C68.4116 83.5669 66.6298 85.3841 66.5694 85.5774C66.3854 86.1656 67.2633 86.7038 67.5844 87.0436ZM40.5031 83.4073C39.53 83.6258 36.5072 87.4091 35.5004 88.1726C35.4572 88.424 37.855 90.8628 38.2015 90.9346C38.3404 90.9635 38.45 90.9635 38.5889 90.9346C39.3878 90.7689 42.0866 87.1783 43.0036 86.5689C43.313 86.255 43.3602 85.9364 43.1514 85.5386C43.0649 85.3738 41.3066 83.5286 41.1641 83.4698C40.9346 83.3749 40.7474 83.3525 40.5031 83.4073Z" fill="rgb(255,211,52)" fill-rule="nonzero" />
			</g>
			<g style="mix-blend-mode:normal">
				<path id="Path 916" d="M36.805 25.0411L38.9929 24.7071C39.1891 24.504 38.9005 19.8674 38.9959 19.0615C39.0567 18.5474 39.3989 18.1916 39.9281 18.1293C40.4966 18.0622 42.0707 18.1641 42.6767 18.2367C42.9275 18.2669 43.4949 18.6304 43.4949 18.8446L43.4949 24.8218C44.297 24.962 45.0778 25.2418 45.9077 25.1508L45.9077 20.3801C45.9077 19.9683 46.6276 19.5334 47.0456 19.5607C47.2773 19.576 49.1969 20.2455 49.5244 20.3825C50.0467 20.601 50.3351 20.8783 50.4068 21.4743C50.6059 23.1287 50.2086 25.1082 50.4584 26.7966C51.2981 27.3537 52.1674 27.8558 53.0058 28.4166C53.3173 28.6251 54.3561 29.5399 54.6098 29.5154C55.925 28.5736 57.2903 27.7254 58.6852 26.9062C58.938 25.1832 58.5337 23.1624 58.7368 21.4743C58.8081 20.8807 59.0969 20.5988 59.6191 20.3827C59.9913 20.2285 61.907 19.5822 62.2071 19.5609C62.569 19.5351 63.2359 19.9521 63.2359 20.2705L63.2359 25.096C63.2359 25.1764 63.3687 25.2139 63.4593 25.2148C63.8231 25.2186 65.7565 24.9291 65.8528 24.6422C66.0305 22.9085 65.6677 20.8656 65.8654 19.1712C65.9231 18.6776 66.2249 18.3563 66.7164 18.2674C67.1901 18.1819 68.2316 18.1482 68.7693 18.1276C69.5295 18.0985 70.0258 18.0554 70.3414 18.8678L70.3654 24.7112L72.5579 25.0411L72.5579 19.1737C72.5579 18.816 73.2506 18.5487 73.5874 18.5741C73.926 18.5999 76.1158 19.2747 76.457 19.442C76.6607 19.542 76.8049 19.6537 76.9503 19.8261L77.0493 26.3947L79.1382 27.3442L79.1382 22.2446C79.1382 21.7479 79.9773 21.1846 80.486 21.4462C81.207 22.1222 82.1512 22.6966 82.8682 23.3399C84.3247 24.6464 83.6716 25.146 83.6301 26.8462C83.6115 27.6136 83.4958 30.2226 83.6574 30.7761C84.0067 31.9725 87.2408 30.6806 87.478 32.4391C87.6227 33.5113 87.2645 35.1086 87.5247 36.1213C87.5634 36.2714 88.4837 38.2311 88.5873 38.2936C88.8381 38.4447 89.5755 38.1464 89.7528 38.938C89.8564 39.4006 89.8399 41.7932 89.7503 42.2884C89.6875 42.6348 89.3571 43.0924 89.0145 43.1977C88.6367 43.3139 86.402 43.3185 86.1584 43.0807C86.0435 42.9687 85.4118 40.7904 85.2524 40.3677C80.7382 28.4017 65.7646 24.4464 56.325 33.4295C56.0326 33.7076 54.7654 35.2731 54.5322 35.2323C50.2798 29.9985 43.8493 27.496 37.154 28.9546C31.2666 30.2371 26.68 34.3744 24.3928 39.8823C24.1487 40.4705 23.4954 42.775 23.27 43.0367C23.1316 43.1974 23.0314 43.226 22.8275 43.2522C22.4047 43.3063 20.6052 43.2966 20.2729 43.1634C19.9328 43.0269 19.6719 42.5283 19.6129 42.1784C19.5237 41.6476 19.5088 39.6675 19.6118 39.159C19.7407 38.5223 20.2596 38.2389 20.8852 38.2934C21.0284 37.6469 21.6911 36.8032 21.8381 36.2309C22.1381 35.063 21.3906 32.3143 22.5094 31.6379C23.5397 31.0151 25.0116 31.9637 25.7055 30.7761C25.8858 28.7998 25.5443 26.6009 25.7231 24.6521C25.7434 24.4301 25.7458 24.3309 25.852 24.123C26.1895 23.4637 28.2174 22.3843 28.6983 21.5954C29.6481 21.1404 30.3226 21.514 30.3439 22.574C30.3501 22.8857 30.2234 23.1538 30.2203 23.4463C30.2061 24.7449 30.2395 26.0465 30.2254 27.3437C30.3202 27.4439 31.9865 26.6403 32.0906 26.5232C32.1502 26.4561 32.2007 26.3994 32.1993 26.3028C32.328 24.4655 32.0269 22.4042 32.1945 20.5953C32.2555 19.937 32.3989 19.701 32.9991 19.4256C33.4282 19.2289 35.3579 18.6077 35.7785 18.5779C36.071 18.5573 36.805 18.792 36.805 19.0641L36.805 25.0411Z" fill="rgb(2,1,0)" fill-rule="nonzero" />
			</g>
			<g style="mix-blend-mode:normal">
				<path id="Path 917" d="M49.0896 59.4772L53.058 51.6583C53.7283 50.3163 55.5798 50.1794 56.4178 51.4354L59.9204 59.1189L60.1632 59.2581L66.3974 44.7083C67.1689 43.2692 68.7501 43.1936 69.6887 44.5255L73.5436 52.7346L86.9563 52.8116L94.9915 60.0209C95.0597 60.1006 95.1646 60.1575 95.1418 60.2853C95.1051 60.4909 92.5431 62.8786 92.1493 63.1988L85.0927 56.8683L71.7299 56.8513C70.0041 56.6843 69.3014 53.4935 68.4457 52.2402C66.1971 56.7906 64.1291 61.4492 62.161 66.135C61.4429 67.3879 59.6369 67.3284 58.6886 66.3831C57.4412 63.93 56.4249 61.3598 55.2143 58.8903C55.0654 58.5865 54.8785 58.1263 54.7078 57.8646C54.4435 57.4593 54.4824 57.9053 54.3756 58.1268C53.0857 60.8042 51.8181 63.4905 50.6052 66.2044C49.7596 67.4688 47.7685 67.4536 47.0551 66.0624C46.5635 65.1036 46.1675 63.739 45.7081 62.6937C44.1725 59.1998 42.5508 55.7375 41.0278 52.2402C40.3119 53.2508 39.4534 56.4346 38.2356 56.7959L24.6255 56.8949C22.16 58.8681 20.1502 61.3296 17.6824 63.3087L14.6594 60.3156L22.3773 52.8918L22.7066 52.7823L36.0199 52.7701L39.6751 44.4168C40.7314 43.064 42.183 43.403 42.9659 44.8176L49.0896 59.4772Z" fill="rgb(2,1,0)" fill-rule="nonzero" />
			</g>
			<g style="mix-blend-mode:normal">
				<path id="Path 918" d="M82.9767 59.478C82.3178 61.4182 81.8037 63.4175 81.1143 65.3476C80.825 66.1578 80.3928 67.548 79.9032 68.194C78.8618 69.5681 76.9954 71.2902 75.7413 72.5866C70.0246 78.497 64.1825 84.2763 58.4132 90.1341C57.1882 91.3779 55.9472 92.659 54.6416 93.7974L29.7867 67.9771C28.5247 65.2231 27.5656 62.3479 26.6057 59.478L31.0474 59.478C32.0793 61.6984 32.8442 64.0799 33.8425 66.334C40.7869 73.5417 47.6936 80.7729 54.7364 87.881L74.8639 67.4321C76.0695 66.3924 76.4446 65.0138 77.027 63.5634C77.571 62.2089 77.9856 60.768 78.6447 59.478L82.9767 59.478Z" fill="rgb(2,1,0)" fill-rule="nonzero" />
			</g>
			<g style="mix-blend-mode:normal">
				<path id="Path 919" d="M54.4641 39.4074C54.5798 39.4872 54.6583 39.3613 54.7292 39.2912C55.3639 38.6637 56.0518 37.5023 56.7088 36.7744C67.916 24.356 85.3452 33.8911 83.9681 49.4474C83.8898 50.3323 83.6002 50.7215 82.7009 50.8123C78.9346 51.1929 80.073 48.995 79.9106 46.3676C79.2398 35.5196 67.0448 30.6067 59.6702 39.0778C58.9743 39.8772 58.2825 40.9116 57.6628 41.7862C57.2255 42.4034 55.2469 45.6313 54.8738 45.7959C54.3554 46.0247 54.1768 45.8057 53.8689 45.43C51.6637 42.7381 50.5071 39.4146 47.544 37.1687C39.7088 31.2303 30.0962 37.0253 29.4582 46.2636C29.3837 47.3432 29.5859 48.6299 29.4602 49.6653C29.3974 50.1816 29.0503 50.6237 28.5174 50.697C28.119 50.7518 27.0584 50.8315 26.6609 50.8234C25.4798 50.7992 25.3689 49.9976 25.2909 49.0029C24.6539 40.879 30.9424 31.5942 39.4867 31.0677C45.8502 30.6756 50.1002 33.7068 53.8476 38.4323C54.003 38.6284 54.4165 39.3747 54.4641 39.4074Z" fill="rgb(2,1,0)" fill-rule="nonzero" />
			</g>
			<g style="mix-blend-mode:normal">
				<path id="Path 920" d="M50.2948 78.6725C52.032 77.8555 53.4945 76.4587 55.3901 75.9258L59.1758 78.616L54.8476 83.2838L50.2948 78.6725Z" fill="rgb(2,1,0)" fill-rule="nonzero" />
			</g>
			<g style="mix-blend-mode:normal">
				<path id="Path 921" d="M35.9994 78.1447C36.1734 78.1273 36.2945 78.2518 36.421 78.3424C36.732 78.5654 38.5844 80.4669 38.6496 80.7284C38.7416 81.0984 38.3044 81.5663 38.0678 81.8524C37.352 82.7178 35.1411 84.9923 34.2849 85.6369C33.7596 86.0324 33.552 85.9539 33.0199 85.5816C32.4067 84.6721 31.3994 84.0335 30.8162 83.1617C30.8923 82.8567 34.7118 79.0801 35.2123 78.6682C35.379 78.5311 35.8176 78.1628 35.9994 78.1447Z" fill="rgb(2,1,0)" fill-rule="nonzero" />
			</g>
			<g style="mix-blend-mode:normal">
				<path id="Path 922" d="M31.0761 73.0948C31.3634 73.0498 31.6072 73.2159 31.8139 73.4078C32.1998 73.7657 33.2794 74.8768 33.572 75.2689C33.9504 75.7757 33.9504 75.9729 33.572 76.4797C33.0275 77.2089 30.2999 79.9326 29.569 80.4824C29.3353 80.6584 29.211 80.7982 28.88 80.7379C28.5978 80.6865 27.1531 79.2089 26.8783 78.8918C26.65 78.6285 26.0972 78.0673 26.1824 77.7625L30.4415 73.4589C30.6024 73.3346 30.8843 73.1249 31.0761 73.0948Z" fill="rgb(2,1,0)" fill-rule="nonzero" />
			</g>
			<g style="mix-blend-mode:normal">
				<path id="Path 923" d="M73.9467 77.9287C74.8332 77.8542 78.3238 82.217 79.2459 82.8933C78.4611 83.5195 77.8311 84.4985 77.1115 85.1441C76.6807 85.5304 76.2527 85.8943 75.7334 85.4201C74.5681 84.0226 72.6956 82.6084 71.6239 81.196C71.2231 80.6678 71.3399 80.4905 71.7328 79.9845C72.0063 79.6322 73.0468 78.5243 73.3787 78.2308C73.4838 78.1377 73.8224 77.9392 73.9467 77.9287Z" fill="rgb(2,1,0)" fill-rule="nonzero" />
			</g>
			<g style="mix-blend-mode:normal">
				<path id="Path 924" d="M40.5031 83.4073C40.7474 83.3526 40.9346 83.3749 41.1641 83.4697C41.3066 83.5285 43.0649 85.3738 43.1514 85.5386C43.3602 85.9365 43.313 86.2551 43.0036 86.5689C42.0866 87.1784 39.3878 90.7689 38.5889 90.9346C38.45 90.9636 38.3404 90.9636 38.2015 90.9346C37.855 90.8628 35.4572 88.424 35.5005 88.1726C36.5072 87.4091 39.53 83.6258 40.5031 83.4073Z" fill="rgb(2,1,0)" fill-rule="nonzero" />
			</g>
			<g style="mix-blend-mode:normal">
				<path id="Path 925" d="M67.5847 87.0435C67.2634 86.7038 66.3855 86.1655 66.5695 85.5776C66.6299 85.3841 68.4117 83.5668 68.6644 83.387C69.2715 82.9553 69.6588 83.3721 70.1465 83.7686C71.6245 84.9714 72.9526 86.7842 74.4203 88.0472C73.5031 88.8826 72.7196 89.8795 71.7953 90.6871C71.3809 90.8189 71.2224 90.6955 70.9106 90.4622C69.8959 89.7039 68.507 88.019 67.5847 87.0435Z" fill="rgb(2,1,0)" fill-rule="nonzero" />
			</g>
			<g style="mix-blend-mode:normal">
				<path id="Path 926" d="M78.6708 73.094C79.1515 73.0058 80.4944 74.1947 80.8943 74.5564C81.9873 75.5445 82.8772 76.7484 83.9557 77.7534C83.1105 78.6742 82.2417 79.7989 81.2216 80.4888C80.9355 80.583 80.6738 80.4259 80.4496 80.2652C79.6155 79.6679 78.459 78.2029 77.7119 77.4101C77.1518 76.8158 75.8424 76.1416 76.4561 75.166C76.6266 74.8953 78.4406 73.1363 78.6708 73.094Z" fill="rgb(2,1,0)" fill-rule="nonzero" />
			</g>
			<g style="mix-blend-mode:normal">
				<path id="Path 927" d="M95.3386 45.4715C96.1793 46.3142 94.6733 47.9802 93.9958 48.5087C91.9091 50.1364 88.8259 49.6522 87.3181 47.5147C86.7967 46.7755 86.215 45.6133 87.4246 45.2278C89.7171 45.405 92.4166 44.9688 94.6589 45.2183C94.8405 45.2386 95.2173 45.3499 95.3386 45.4715Z" fill="rgb(2,1,0)" fill-rule="nonzero" />
			</g>
			<g style="mix-blend-mode:normal">
				<path id="Path 928" d="M14.7293 45.2446L22.1575 45.228C23.5832 45.6187 22.5318 47.3396 21.8887 48.0171C19.9563 50.054 16.6696 49.9341 14.874 47.7956C14.2821 47.0907 13.5009 45.7161 14.7293 45.2446Z" fill="rgb(2,1,0)" fill-rule="nonzero" />
			</g>
			<g style="mix-blend-mode:normal">
				<path id="Path 929" d="M19.1478 65.6219C19.282 65.622 19.3849 65.5446 19.4803 65.4609C20.9349 64.1803 22.2932 62.5606 23.7 61.2338C23.8055 61.1341 24.2748 60.7346 24.4156 60.8455C24.7411 61.7893 26.2139 63.819 25.9247 64.7752L22.2177 68.5327L21.9412 68.4779L19.1478 65.6219Z" fill="rgb(2,1,0)" fill-rule="nonzero" />
			</g>
			<g style="mix-blend-mode:normal">
				<path id="Path 930" d="M83.1011 67.8284C83.2339 67.7522 83.3643 67.8578 83.4788 67.9147C83.9385 68.1434 84.9656 69.0251 85.3912 69.4021C85.719 69.6928 87.9392 71.895 87.9753 72.0839C88.0114 72.2716 85.8917 74.5869 85.6139 74.6756C85.2966 74.7767 85.031 74.7249 84.7863 74.5034C84.3154 73.7098 81.3181 71.5182 81.1352 70.9168C80.9198 70.2089 81.8744 69.4888 82.3157 68.9621C82.4732 68.774 83.0414 67.8628 83.1011 67.8284Z" fill="rgb(2,1,0)" fill-rule="nonzero" />
			</g>
			<g style="mix-blend-mode:normal">
				<path id="Path 931" d="M90.4336 65.4023C90.477 65.5627 90.391 65.5846 90.3268 65.6769C90.1525 65.9285 88.4086 67.7751 88.1868 67.9239C87.7751 68.1998 87.4711 68.0876 87.0881 67.8138L83.7674 64.6649C83.4597 63.6154 84.6996 61.9033 84.9471 60.8452L90.4336 65.4023Z" fill="rgb(2,1,0)" fill-rule="nonzero" />
			</g>
			<g style="mix-blend-mode:normal">
				<path id="Path 932" d="M26.7709 68.0522C26.8755 68.0524 27.8963 69.4505 28.0844 69.6789C28.4315 70.1002 29.1673 70.465 28.9728 71.1066C28.8846 71.3978 28.0466 72.002 27.7555 72.3079C27.2343 72.8554 25.7823 74.7045 25.1862 74.8925C23.8541 75.3124 23.3133 73.297 22.3218 72.6984L22.2302 72.3864L26.7709 68.0522Z" fill="rgb(2,1,0)" fill-rule="nonzero" />
			</g>
			<g style="mix-blend-mode:normal">
				<path id="Path 933" d="M61.6886 76.4684L57.0861 72.6851C57.0371 72.3673 57.7958 71.8139 58.0279 71.5436C58.4523 71.049 58.8561 70.5206 59.2433 69.9976L64.1112 73.4613C63.1595 74.3371 62.411 75.4014 61.6886 76.4684Z" fill="rgb(2,1,0)" fill-rule="nonzero" />
			</g>
			<g style="mix-blend-mode:normal">
				<path id="Path 934" d="M96.2297 51.2732C96.2569 51.2888 96.2859 51.451 96.3649 51.5124C97.093 52.0798 98.488 53.3919 99.0451 54.1021C99.1635 54.2528 99.2963 54.3899 99.3241 54.5918L96.3014 57.508C96.0458 57.5075 93.0625 54.6045 93.0625 54.3781L95.9164 51.3062C96.0049 51.2374 96.1315 51.217 96.2297 51.2732Z" fill="rgb(2,1,0)" fill-rule="nonzero" />
			</g>
			<g style="mix-blend-mode:normal">
				<path id="Path 935" d="M15.3476 52.8595C15.8267 53.3288 16.2495 53.8651 16.8098 54.2464C16.882 54.3302 16.957 54.4731 16.9336 54.5808C16.8745 54.8564 14.2693 57.233 13.8437 57.6055L10.9159 54.7122C10.8251 54.623 10.7911 54.5266 10.8244 54.4003C10.9321 53.991 13.4517 51.9306 13.8289 51.3643C14.3336 51.8636 14.841 52.3634 15.3476 52.8595Z" fill="rgb(2,1,0)" fill-rule="nonzero" />
			</g>
			<g style="mix-blend-mode:normal">
				<path id="Path 936" d="M48.6355 70.7896L51.4931 73.885L48.3904 76.9081L45.4652 73.8999C45.4655 73.6691 47.9642 71.3412 48.2598 70.8788L48.6355 70.7896Z" fill="rgb(2,1,0)" fill-rule="nonzero" />
			</g>
		</g>
	</g>
</svg>
