<svg viewBox="0 0 120.483 120.267" xmlns="http://www.w3.org/2000/svg" xmlns:xlink="http://www.w3.org/1999/xlink" width="120.483307" height="120.266602" fill="none" customFrame="#000000">
	<defs>
		<filter id="pixso_custom_mask_type_outline">
			<feColorMatrix type="matrix" values="0 0 0 0 1 0 0 0 0 1 0 0 0 0 1 0 0 0 1 0 " />
		</filter>
	</defs>
	<mask id="mask_15" width="120.483299" height="120.266457" x="0.000000" y="0.000000" maskUnits="userSpaceOnUse">
		<g filter="url(#pixso_custom_mask_type_outline)">
			<g>
				<rect id="Rectangle 68" width="120.483299" height="120.266457" x="0.000000" y="0.000000" fill="rgb(255,255,255)" />
			</g>
		</g>
	</mask>
	<g id="Group 21">
		<g id="Group 95" mask="url(#mask_15)">
			<g style="mix-blend-mode:normal">
				<path id="Path 1076" d="M57.0178 0.087635C104.295 -2.4061 136.176 48.8195 112.443 90.1065C89.9226 129.284 33.5348 130.575 9.33542 92.3292C-15.2229 53.5158 11.4421 2.49142 57.0178 0.087635ZM58.588 27.7519C56.7521 28.0453 55.735 29.6532 54.7229 31.003C42.3699 47.4776 31.5426 65.1627 19.8119 82.0825C17.0481 86.7639 22.7701 91.0823 26.3841 86.6781C30.1648 82.071 33.109 75.8129 36.8975 71.0976C38.7935 69.4754 40.4666 69.5743 42.1357 71.3898C46.0438 75.6405 51.394 85.6957 56.3314 87.8344C66.8901 92.4081 72.7503 77.7258 78.5038 71.5867C80.2584 69.7144 81.8314 69.2651 83.8299 71.2083C87.652 75.8575 90.5061 82.0993 94.2561 86.6781C97.7831 90.9848 103.437 86.7444 100.781 82.1297C92.8362 70.982 85.8785 58.7624 77.8956 47.6884C76.9959 46.4402 75.8144 44.7097 74.1628 44.5035C71.5281 44.1748 70.4191 45.773 68.9246 47.5769C66.8213 50.1159 64.142 54.7137 61.8797 56.7415C61.2576 57.2992 60.6229 57.5729 59.7669 57.315C58.6311 56.9726 54.1295 49.6329 52.891 48.3755C52.6024 47.9979 52.6765 47.5747 52.9361 47.2034C55.7368 42.9227 59.4354 38.7293 62.0452 34.3717C62.9699 32.8276 63.5195 31.9696 62.8278 30.1391C62.1646 28.3843 60.4378 27.4562 58.588 27.7519Z" fill="rgb(255,211,52)" fill-rule="nonzero" />
			</g>
			<g style="mix-blend-mode:normal">
				<path id="Path 1077" d="M58.5882 27.7516C60.438 27.4559 62.1648 28.384 62.8278 30.1388C63.5197 31.9693 62.9699 32.8272 62.0454 34.3711C59.4356 38.7287 55.737 42.9222 52.9361 47.2031C52.6767 47.5741 52.6024 47.9975 52.891 48.3751C54.1297 49.6326 58.6312 56.9722 59.7669 57.3144C60.6231 57.5724 61.2576 57.2988 61.8797 56.7411C64.142 54.7133 66.8215 50.1155 68.9248 47.5765C70.4191 45.7727 71.5283 44.1742 74.163 44.5032C75.8144 44.7093 76.9959 46.4396 77.8957 47.688C85.8784 58.7618 92.8362 70.9814 100.782 82.1293C103.437 86.744 97.7834 90.9844 94.2563 86.6778C90.5063 82.0987 87.6522 75.8572 83.8301 71.2079C81.8314 69.2645 80.2586 69.7141 78.504 71.5863C72.7505 77.7254 66.8903 92.4077 56.3316 87.834C51.3942 85.6953 46.044 75.6399 42.1358 71.3894C40.4666 69.5739 38.7937 69.4749 36.8975 71.0972C33.1092 75.8125 30.1649 82.0706 26.3843 86.6776C22.7701 91.0817 17.0481 86.7635 19.8119 82.0821C31.5428 65.1623 42.3701 47.4772 54.7231 31.0026C55.7352 29.6527 56.7521 28.045 58.5882 27.7516ZM72.8764 54.9852C72.2639 56.1754 71.4008 57.2778 70.5828 58.3277C66.7929 63.1916 62.4836 70.7837 55.5771 65.0645L47.8624 54.9853C47.5831 54.9246 46.4996 56.5846 46.259 56.9348C45.8845 57.4804 43.0497 61.6636 43.2211 61.9002C44.4786 62.1503 45.5271 62.8443 46.3775 63.787C50.4746 68.3293 53.8207 75.0419 57.9461 79.4984C59.4295 81.101 60.7345 81.4274 62.3943 79.7912C66.5849 74.9848 70.0874 68.4916 74.3535 63.8775C75.244 62.9143 76.304 62.1538 77.6172 61.9002L73.3562 55.1927L72.8764 54.9852Z" fill="rgb(11,11,12)" fill-rule="nonzero" />
			</g>
			<g style="mix-blend-mode:normal">
				<path id="Path 1078" d="M72.8764 54.9858L73.3562 55.1933L77.6172 61.9008C76.304 62.1544 75.2441 62.9149 74.3535 63.8782C70.0874 68.4922 66.5849 74.9854 62.3943 79.7919C60.7345 81.428 59.4295 81.1016 57.9461 79.4991C53.8207 75.0426 50.4746 68.33 46.3775 63.7877C45.5271 62.8449 44.4786 62.1508 43.2211 61.9008C43.0497 61.6642 45.8845 57.4811 46.2591 56.9355C46.4996 56.5852 47.5831 54.9253 47.8624 54.986L55.5771 65.0651C62.4836 70.7843 66.7929 63.1923 70.5828 58.3283C71.4007 57.2785 72.2638 56.176 72.8764 54.9858Z" fill="rgb(255,211,52)" fill-rule="nonzero" />
			</g>
		</g>
	</g>
</svg>
