<svg viewBox="0 0 32.8371 63.4409" xmlns="http://www.w3.org/2000/svg" xmlns:xlink="http://www.w3.org/1999/xlink" width="32.837097" height="63.440918" fill="none" customFrame="#000000">
	<defs>
		<filter id="pixso_custom_mask_type_outline">
			<feColorMatrix type="matrix" values="0 0 0 0 1 0 0 0 0 1 0 0 0 0 1 0 0 0 1 0 " />
		</filter>
	</defs>
	<mask id="mask_12" width="32.837105" height="63.440948" x="0.000000" y="0.000000" maskUnits="userSpaceOnUse">
		<g filter="url(#pixso_custom_mask_type_outline)">
			<g>
				<rect id="Rectangle 37" width="32.837105" height="63.440948" x="0.000000" y="0.000000" fill="rgb(255,255,255)" />
			</g>
		</g>
	</mask>
	<g id="Group 34" mask="url(#mask_12)">
		<g style="mix-blend-mode:normal">
			<path id="Path 898" d="M21.3381 44.4656L11.4608 44.4656L11.4608 61.7184C11.4608 61.831 10.9151 62.6765 10.7574 62.8116C9.09241 64.2341 6.99602 63.0854 6.83663 60.9543C6.39656 55.0394 7.18487 48.5874 6.8349 42.6135C2.91586 32.4296 -2.87261 21.3793 1.65109 10.3481C7.30788 -3.44472 25.3715 -3.4118 31.1461 10.2217C35.7686 21.1316 29.8675 32.6357 25.964 42.7417L25.9242 61.5607C25.5673 63.2448 23.438 63.9984 22.1143 62.8653C21.9566 62.7302 21.3381 61.8379 21.3381 61.7184L21.3381 44.4656ZM10.7054 39.7045L22.1126 39.6612C25.3247 31.3484 30.4739 21.2407 26.787 12.2713C22.6947 2.31602 9.58792 2.64694 5.84561 12.7477C2.49658 21.7934 7.59722 31.3692 10.7054 39.7045Z" fill="rgb(227,227,227)" fill-rule="nonzero" />
		</g>
		<g style="mix-blend-mode:normal">
			<path id="Path 899" d="M21.0367 22.8697C14.7804 29.1329 5.32761 19.1326 11.972 13.1016C18.3391 7.32178 27.0954 16.8058 21.0367 22.8697ZM16.0487 15.8927C13.2644 16.2358 13.7444 20.4753 16.5095 20.3419C19.4566 20.1981 19.2418 15.4994 16.0487 15.8927Z" fill="rgb(227,227,227)" fill-rule="nonzero" />
		</g>
	</g>
</svg>
