<svg width="135" height="135" viewBox="0 0 135 135" fill="none" xmlns="http://www.w3.org/2000/svg">
<mask id="mask0_2117_1962" style="mask-type:alpha" maskUnits="userSpaceOnUse" x="0" y="0" width="135" height="135">
<path d="M67.3996 0.5C30.3969 0.5 0.400391 30.498 0.400391 67.4992C0.400391 104.502 30.3969 134.5 67.3996 134.5C104.402 134.5 134.399 104.502 134.399 67.4992C134.399 30.498 104.402 0.5 67.3996 0.5Z" fill="black"/>
</mask>
<g mask="url(#mask0_2117_1962)">
<rect x="0.400391" y="0.5" width="133.999" height="134" fill="#D76225"/>
</g>
<mask id="mask1_2117_1962" style="mask-type:alpha" maskUnits="userSpaceOnUse" x="8" y="43" width="119" height="45">
<rect x="8.69922" y="43.4619" width="117.793" height="43.7517" fill="#D9D9D9"/>
</mask>
<g mask="url(#mask1_2117_1962)">
<path d="M59.2324 68.1468V66.678C59.2324 66.5389 59.21 66.3983 59.1397 66.2816C59.0694 66.1649 59.0005 66.0707 59.0005 65.9331C58.9766 65.7925 58.8839 65.6758 58.7433 65.6983C58.6505 65.6983 58.5339 65.7685 58.4411 65.8389C58.3933 65.8628 58.3933 65.9331 58.3708 65.978C57.9281 67.0056 57.4614 68.0302 57.0186 69.0563C56.9259 69.2896 56.902 69.5215 56.9259 69.7788C56.9947 70.2215 57.0426 70.6403 57.1114 71.0831C57.1577 71.5019 57.228 71.9237 57.2744 72.3425C57.2983 72.5295 57.3911 72.691 57.602 72.7389C57.7875 72.7853 57.9281 72.6686 58.0447 72.5295C58.3469 72.1556 58.6042 71.7592 58.7433 71.3164C58.836 71.0367 58.9527 70.757 59.0469 70.4773C59.1636 70.1512 59.2324 69.8251 59.2324 69.4751V68.1468ZM67.368 54.7207C67.368 54.3004 67.3919 53.8815 67.368 53.4612C67.368 53.3221 67.2977 53.1815 67.2513 53.0424C67.2289 52.9482 67.1586 52.8554 67.1346 52.7612C67.0883 52.5293 66.9252 52.4127 66.6919 52.459C66.5991 52.483 66.5064 52.5293 66.4361 52.5757C65.4803 53.1591 64.7803 53.9503 64.4078 54.9989C64.1984 55.5822 63.8948 56.0953 63.5223 56.5859C62.8687 57.4236 62.1941 58.2642 61.4701 59.0315C61.3549 59.1497 61.2382 59.2888 61.1679 59.4279C61.0273 59.7091 61.0752 60.104 61.2846 60.291C61.4701 60.4555 61.7498 60.5707 62.1237 60.3613C62.2868 60.2685 62.4738 60.1504 62.6832 60.104C63.265 59.9873 63.6853 59.6613 64.0578 59.2185C64.6172 58.5424 65.247 57.8902 65.9934 57.4011C66.1564 57.2845 66.3419 57.1902 66.5288 57.1214C66.7622 57.0511 66.9492 56.9105 67.1122 56.7475C67.3455 56.4917 67.3919 56.188 67.3919 55.8859C67.368 55.5359 67.368 55.1156 67.368 54.7207ZM29.0699 69.7085C28.9532 69.7324 28.9068 69.7548 28.8605 69.7548C28.5344 69.8476 28.2771 70.0809 27.9974 70.2679C27.6952 70.4534 27.438 70.7106 27.2525 71.0591C27.1583 71.2237 27.0655 71.3867 26.9728 71.5258C26.53 72.1316 26.18 72.7853 25.83 73.4614C25.7597 73.6244 25.7373 73.7635 25.7836 73.9266C25.8539 74.1838 25.9227 74.4636 25.9706 74.7418C26.0858 75.2803 26.18 75.8157 26.2967 76.3527C26.4822 77.2846 26.53 78.1926 26.18 79.102C26.0394 79.4281 25.9706 79.802 25.9003 80.152C25.83 80.4302 25.8061 80.7115 25.8764 81.0136C26.017 81.6194 26.1336 82.2491 26.2728 82.8549C26.2728 82.8789 26.2967 82.8789 26.3191 82.9013C26.367 82.8085 26.3894 82.7143 26.4358 82.6216C26.7394 81.7361 27.0416 80.8506 27.3692 79.9651C27.5083 79.615 27.6489 79.2411 27.8344 78.915C28.4641 77.8665 28.9068 76.7252 29.3735 75.6063C29.4438 75.4418 29.4902 75.2803 29.4438 75.0694C29.3271 74.486 29.3496 73.9041 29.5829 73.3447C29.6757 73.1338 29.746 72.902 29.7699 72.6686C29.8163 72.4128 29.8387 72.1316 29.7699 71.8998C29.559 71.1294 29.3032 70.4309 29.0699 69.7085ZM25.9467 83.7404C25.5039 83.881 25.0836 84.0441 24.6648 84.1847C24.3611 84.2998 24.0814 84.2071 23.872 83.9738C23.709 83.8107 23.5923 83.6013 23.4532 83.4143C23.359 83.2737 23.3126 83.1346 23.2423 82.9716C23.0792 82.5752 22.7532 82.4361 22.3568 82.4361C22.1698 82.4361 21.9604 82.46 21.7974 82.5273C21.1676 82.7846 20.5394 83.0194 19.9321 83.2977C19.28 83.6013 18.6278 83.9513 17.9741 84.2759C17.7887 84.3701 17.5777 84.4405 17.3683 84.4165C16.9959 84.3941 16.7386 84.1847 16.7386 83.8332C16.7386 83.5774 16.6234 83.3919 16.4589 83.2274C16.2031 82.9716 15.9234 82.7622 15.6198 82.5976C15.364 82.481 15.1306 82.3419 14.8749 82.2028C14.3154 81.923 13.9894 81.5027 14.0582 80.7803C13.9191 80.873 13.8024 80.9433 13.7096 81.0136C12.706 81.8303 11.7277 82.5976 10.7959 83.3919C10.2364 83.8571 9.88642 84.4868 9.58277 85.1405C9.56033 85.2093 9.5364 85.2796 9.49003 85.3484C9.39729 85.5129 9.21032 85.6057 9.02335 85.5593C8.83787 85.5129 8.69727 85.3484 8.69727 85.1629C8.69727 85.0462 8.7212 84.9056 8.76757 84.789C9.04728 84.0904 9.41973 83.4143 9.95672 82.8549C10.3052 82.481 10.7256 82.1549 11.098 81.8303C12.0074 81.06 12.9393 80.3375 13.9191 79.6614C14.6879 79.1244 15.4567 78.5665 16.2271 78.0295C16.8553 77.5868 17.5314 77.1664 18.2314 76.8419C18.6502 76.6309 19.0705 76.3991 19.4669 76.1658C20.0967 75.7933 20.7713 75.4882 21.4952 75.3027C21.6807 75.2563 21.8677 75.1636 22.0546 75.0933C22.4271 74.9527 22.7771 74.7672 23.1496 74.6505C23.5459 74.5099 23.8481 74.299 24.0814 73.9505C24.1981 73.7635 24.3611 73.602 24.6184 73.578C24.6872 73.5541 24.7815 73.4853 24.8278 73.3911C24.9669 73.1338 25.1075 72.8556 25.2242 72.5983C25.4576 72.0853 25.7133 71.5961 26.0394 71.1534C26.2024 70.9215 26.367 70.6643 26.5061 70.4309C26.6691 70.1512 26.8561 69.9179 27.1119 69.7324C27.6489 69.3345 28.1604 68.9157 28.8365 68.7512C29.4902 68.6135 29.9554 68.1932 30.4221 67.7729C30.8888 67.3302 31.3539 66.865 31.8206 66.3983C31.8909 66.328 31.9837 66.2352 32.03 66.1649C32.3337 65.6758 32.7301 65.3034 33.2431 65.0461C33.4989 64.9055 33.7083 64.6976 33.8713 64.4627C34.2453 63.9033 34.6177 63.3439 34.9678 62.762C35.2699 62.2714 35.6199 61.8062 36.0402 61.4098C36.6924 60.7577 37.3221 60.104 37.9519 59.4279C38.3467 59.0091 38.8374 58.683 39.3265 58.3794C39.8859 58.0533 40.4214 58.1236 40.8881 58.5663C41.3548 59.0091 41.7736 59.4982 42.2163 59.9649C42.333 60.104 42.4497 60.2446 42.5439 60.3852C42.9164 60.8983 43.4294 61.2468 44.0577 61.4098C44.2686 61.4801 44.478 61.5504 44.7113 61.5953C45.7838 61.8062 46.6917 62.3193 47.5548 62.9954C48.0439 63.3918 48.4179 63.8809 48.72 64.4164C48.9294 64.7664 49.1628 65.1388 49.3961 65.5113C49.4664 65.42 49.5128 65.3737 49.5592 65.3034C49.6758 65.07 49.7925 64.8127 49.8628 64.557C50.0483 63.9512 50.3519 63.4142 50.7483 62.9251C51.0041 62.6214 51.2374 62.3193 51.4947 61.9932C51.7505 61.6656 51.9838 61.3395 52.2172 61.0149C52.4969 60.5931 52.8693 60.5243 53.2896 60.828C53.4048 60.9207 53.5215 61.0374 53.6382 61.1526C53.9882 61.5504 54.3382 61.9468 54.7106 62.3417C54.8512 62.5062 55.0143 62.6453 55.2701 62.7142C55.5273 62.3896 55.7592 62.0859 56.0165 61.7598C56.1331 61.6192 56.2259 61.4577 56.3425 61.3171C56.902 60.6171 57.4614 59.9185 58.0208 59.1961C58.2302 58.9149 58.4411 58.5903 58.6042 58.2851C58.9063 57.6584 59.2803 57.0511 59.7918 56.562C60.4216 55.9562 61.0513 55.3265 61.681 54.7207C62.6129 53.8352 63.3353 52.8076 63.8948 51.6438C64.1745 51.0844 64.5006 50.5489 64.8266 50.0119C65.1063 49.5213 65.4803 49.1249 65.923 48.7525C66.0622 48.6358 66.1788 48.5191 66.2955 48.3785C67.1346 47.4242 67.9738 46.4684 68.8368 45.5126C69.2796 45.022 69.7223 44.5583 70.1651 44.0901C70.4687 43.764 70.8876 43.601 71.3303 43.5083C71.4709 43.4843 71.61 43.4843 71.7267 43.5307C72.147 43.6952 72.4492 43.9974 72.6361 44.3938C72.7528 44.6735 72.8919 44.9308 73.0565 45.1865C73.3362 45.6068 73.568 46.072 73.755 46.5627C74.0347 47.33 74.4311 48.054 74.8499 48.7764C75.0369 49.1025 75.3166 49.3119 75.689 49.451C76.063 49.5916 76.4354 49.6844 76.8318 49.7083C77.647 49.7786 78.2304 50.1974 78.7195 50.8032C78.8601 50.9902 78.9768 51.2699 78.9992 51.5032C79.0935 52.2033 79.442 52.7612 79.7695 53.3445C79.955 53.6482 80.2347 53.8815 80.5384 54.0431C80.9348 54.2779 81.3311 54.5098 81.7036 54.767C81.913 54.9076 82.1 55.0931 82.2869 55.2801C82.5891 55.5598 82.8688 55.8859 83.1725 56.1417C83.6616 56.562 84.1507 56.9808 84.6637 57.4011C84.7341 57.3069 84.8268 57.2366 84.8971 57.1438C85.4565 56.3989 86.0399 55.6526 86.5754 54.8837C86.9478 54.3482 87.4384 53.9503 87.9979 53.6482C88.3464 53.4612 88.674 53.2294 88.9537 52.9721C89.1167 52.8076 89.3022 52.6699 89.4892 52.5293C89.908 52.2033 90.2819 51.8533 90.6319 51.4569C90.8174 51.2699 91.0268 51.1083 91.2377 50.9438C91.4935 50.7568 91.7732 50.7808 92.0529 50.9677C92.1696 51.0605 92.2863 51.1308 92.379 51.246C93.7551 52.7866 95.2704 54.1613 96.832 55.4895C97.2747 55.8859 97.6711 56.3047 97.9733 56.8178C98.0675 56.9808 98.1842 57.1438 98.2769 57.3069C98.6494 57.983 99.2088 58.4721 99.8849 58.8461C100.724 59.3127 101.541 59.7779 102.38 60.2446C103.847 61.0613 105.177 62.1099 106.412 63.2287C106.831 63.6012 107.111 64.0903 107.437 64.533C107.741 64.9758 108.044 65.42 108.347 65.8628C108.743 66.3983 109.256 66.7707 109.862 67.0729C110.258 67.2599 110.608 67.5171 110.981 67.7505C111.168 67.8671 111.331 68.0541 111.447 68.2157C111.89 68.8214 112.357 69.4512 112.776 70.0809C113.009 70.4309 113.196 70.8273 113.381 71.1997C113.544 71.5498 113.778 71.8295 114.035 72.1092C114.361 72.4353 114.687 72.7614 114.967 73.1129C115.48 73.7172 116.039 74.2541 116.692 74.7418C117.555 75.3954 118.44 76.0252 119.35 76.5846C120.189 77.0976 120.887 77.7498 121.424 78.5904C122.052 79.5687 122.706 80.5245 123.334 81.4788C123.708 82.0382 124.127 82.5513 124.616 82.9955C124.71 83.0643 124.827 83.1346 124.944 83.181C125.246 83.2977 125.387 83.5086 125.34 83.7644C125.292 84.0201 125.06 84.1592 124.757 84.1383C124.034 84.0904 123.429 83.7868 122.823 83.4383C122.286 83.1107 121.867 82.6455 121.587 82.0621C121.26 81.3636 120.748 80.873 120.118 80.4542C119.022 79.7317 117.973 78.9853 116.879 78.2389C116.784 78.1686 116.692 78.1222 116.575 78.0998C116.621 78.2165 116.668 78.3556 116.715 78.4738C116.855 78.8926 117.018 79.3114 117.158 79.7317C117.205 79.8948 117.181 80.0578 117.205 80.2448C117.227 80.3375 117.227 80.4302 117.275 80.5005C117.74 81.1063 117.951 81.8303 118.09 82.5752C118.231 83.3216 118.696 83.881 119.255 84.3701C119.513 84.5811 119.792 84.7665 120.072 84.9296C120.515 85.2093 120.911 85.5129 121.26 85.9078C121.354 86.002 121.424 86.1412 121.471 86.2593C121.539 86.4448 121.447 86.6542 121.284 86.7709C121.121 86.8876 120.934 86.8636 120.771 86.7709C120.678 86.7245 120.607 86.6318 120.537 86.5615C120.211 86.2354 119.839 85.9317 119.418 85.6999C118.557 85.2093 117.881 84.5108 117.414 83.6237C117.275 83.344 117.181 83.0419 117.134 82.7382C117.018 82.0861 116.784 81.5027 116.388 80.9433C115.782 80.0817 115.293 79.1499 114.897 78.1462C114.71 77.6571 114.478 77.1664 114.198 76.7476C113.87 76.2824 113.452 75.8846 113.055 75.4418C112.659 74.999 112.216 74.5802 111.844 74.1375C110.957 73.1129 110.397 71.9237 110.165 70.594C110.095 70.1512 109.886 69.873 109.536 69.6157C108.976 69.1954 108.347 68.9381 107.67 68.7766C107.089 68.636 106.692 68.3099 106.412 67.7968C106.155 67.3302 105.853 66.9113 105.503 66.5149C104.966 65.9092 104.455 65.2794 103.918 64.6497C103.708 64.3939 103.499 64.1142 103.312 63.833C103.008 63.3918 102.682 63.0178 102.239 62.7142C101.261 62.0396 100.281 61.4098 99.1863 60.991C98.8603 60.8743 98.5103 60.7577 98.1842 60.6874C97.4841 60.5243 96.9247 60.1279 96.5523 59.5221C96.2726 59.0794 96.0392 58.6127 95.8059 58.1475C95.4558 57.4714 95.0834 56.8417 94.6167 56.2344C93.6848 55.0453 92.753 53.8352 91.8196 52.6221C91.7508 52.5293 91.6566 52.4351 91.5638 52.3184C91.3544 52.8779 91.1914 53.4148 91.1674 53.9743C91.1435 54.3946 91.1435 54.8134 91.1435 55.2322C91.1435 55.6047 91.1674 55.9786 91.3065 56.3286C91.3768 56.5156 91.3544 56.7235 91.3305 56.9344C91.2377 57.6105 91.0971 58.3091 91.0044 58.9852C90.9341 59.4982 90.9341 60.0128 91.2138 60.4765C91.3544 60.7337 91.4471 61.0149 91.4471 61.2932C91.4471 61.5953 91.3544 61.8526 91.0971 62.0171C90.8174 62.2041 90.5377 62.3896 90.2116 62.5526C89.8152 62.7381 89.5131 62.599 89.3486 62.1787C89.1391 61.6192 88.9297 61.0613 88.7203 60.5004C88.5797 60.1504 88.3942 59.8258 88.2073 59.4982C88.137 59.3591 88.0203 59.2185 87.8573 59.2185C87.4145 59.1961 87.1348 58.9388 86.9015 58.5903C86.8311 58.4721 86.7384 58.3554 86.6681 58.2388C86.5514 58.0309 86.4123 57.8663 86.179 57.7511C86.0399 57.6808 85.9456 57.5402 85.8065 57.4236C85.6196 57.6345 85.4326 57.8663 85.2471 58.0772C85.8065 58.9852 86.3884 59.8722 86.9478 60.7801C87.1348 61.1077 87.3442 61.4338 87.4848 61.7598C87.787 62.4359 88.1145 63.112 88.5797 63.7163C88.8834 64.1142 89.2094 64.4627 89.5595 64.8591C89.6522 64.7439 89.6986 64.6736 89.7449 64.6033C89.9319 64.3012 90.1413 63.9975 90.3283 63.6954C90.4674 63.4845 90.6783 63.3918 90.9341 63.4142C91.7269 63.4381 92.4493 63.6475 93.1254 64.0678C93.5218 64.3012 93.9406 64.5106 94.3849 64.6976C94.9907 64.9519 95.5725 65.3034 96.1095 65.6758C96.295 65.7925 96.4356 65.978 96.6226 66.1186C97.1117 66.5149 97.6008 66.9113 98.1139 67.2838C98.5103 67.565 98.79 67.9135 98.953 68.3563C99.303 69.2433 99.6994 70.1273 100.281 70.8737C100.935 71.7128 101.633 72.5295 102.333 73.3447C102.613 73.6932 102.939 73.9969 103.241 74.3469C103.708 74.8599 104.081 75.4418 104.384 76.0715C104.734 76.8179 105.083 77.5643 105.433 78.3092C105.503 78.4498 105.549 78.5904 105.69 78.6607C105.759 78.7071 105.805 78.7759 105.853 78.8462C106.505 79.7317 107.157 80.6172 107.928 81.4085C108.067 81.5491 108.207 81.6658 108.37 81.76C108.952 82.1085 109.536 82.4361 110.118 82.7846C110.212 82.8325 110.328 82.8789 110.445 82.9252C110.747 83.0194 110.888 83.2737 110.794 83.5774C110.701 83.8332 110.421 83.9738 110.141 83.9035C110.049 83.881 109.954 83.8332 109.886 83.7868C109.675 83.6701 109.465 83.531 109.232 83.4383C109.093 83.368 108.952 83.368 108.813 83.2977C108.626 83.2274 108.439 83.181 108.3 83.0643C107.485 82.481 106.668 81.9006 105.853 81.3172C105.362 80.9897 104.966 80.5708 104.71 80.0339C104.571 79.7556 104.431 79.452 104.291 79.1708C104.268 79.102 104.221 79.0332 104.221 78.9629C104.221 78.6368 104.012 78.4259 103.847 78.2165C103.754 78.0998 103.662 77.9831 103.567 77.8665C102.613 76.8419 101.704 75.7694 100.935 74.6042C100.678 74.2317 100.422 73.8338 100.165 73.4614C99.9552 73.1338 99.7218 72.8317 99.4885 72.5295C99.0457 71.9461 98.5806 71.3867 98.1363 70.8049C97.9508 70.5476 97.7638 70.2918 97.6247 70.0345C97.0653 69.0084 96.3653 68.1005 95.4798 67.3541C95.0834 67.028 94.6646 66.7244 94.2203 66.4925C93.7551 66.2577 93.3348 65.9555 92.8696 65.6758C92.566 65.4903 92.2863 65.3258 91.9826 65.1388C91.7029 64.9758 91.6102 64.9997 91.4935 65.3034C91.3768 65.5591 91.3065 65.8389 91.2138 66.1186C91.1674 66.2816 91.2138 66.3983 91.3305 66.5149C92.0305 67.1432 92.2623 68.0063 92.5196 68.8454C92.566 68.986 92.5421 69.149 92.5196 69.2896C92.379 70.1048 92.3102 70.9425 92.0769 71.7592C91.9363 72.2259 91.7972 72.6686 91.6805 73.1592C91.5863 73.578 91.5399 74.0208 91.4935 74.486C91.6566 74.5339 91.8196 74.5802 91.9602 74.6266C92.5899 74.7418 93.079 75.0694 93.5218 75.5585C94.2203 76.3527 94.8501 77.1664 95.6428 77.8665C95.9225 78.0998 96.1095 78.4259 96.2486 78.7759C96.3892 79.1708 96.5747 79.5447 96.7377 79.9172C96.832 80.152 96.9247 80.3839 96.9023 80.6172C96.8544 81.1542 96.832 81.7136 96.7617 82.2491C96.7377 82.5064 96.6226 82.7382 96.5059 82.9716C96.2726 83.3919 95.8522 83.4143 95.5262 83.0643C95.3392 82.8325 95.1537 82.5976 95.0131 82.3419C94.7109 81.7361 94.3146 81.223 93.8254 80.7578C93.4515 80.4063 93.1493 80.0114 92.9624 79.5447C92.729 79.0092 92.3326 78.6368 91.7972 78.4035C91.4471 78.2628 91.1211 78.0759 90.7471 77.8904C90.7247 78.0295 90.7007 78.1462 90.6783 78.2628C90.6319 78.728 90.608 79.1947 90.5153 79.6614C90.445 80.0114 90.3522 80.3599 90.1877 80.6636C89.8392 81.3861 89.4189 82.0621 89.0464 82.7622C88.8131 83.2049 88.487 83.5774 88.0667 83.8332C87.8812 83.9513 87.7181 84.068 87.6015 84.2759C87.5551 84.3462 87.4848 84.4165 87.4145 84.4405C87.0884 84.6499 86.692 84.4165 86.692 84.0201C86.692 83.9274 86.7384 83.8107 86.7623 83.7165C86.8087 83.5086 86.8551 83.2737 86.9015 83.0643C86.9254 82.9252 86.9717 82.7846 87.0181 82.6679C87.2754 81.8303 87.5312 80.9897 87.7645 80.152C87.95 79.4744 87.9276 78.7759 87.7645 78.0998C87.6478 77.5643 87.4848 77.0273 87.3442 76.4903C87.2754 76.2121 87.2515 75.9085 87.3218 75.6288C87.5312 74.8121 87.7406 74.0208 87.95 73.2041C88.1609 72.3889 88.3703 71.5498 88.5797 70.7106C88.6261 70.5476 88.6261 70.3606 88.6261 70.1976C88.5797 69.7548 88.674 69.3345 88.7891 68.8918C88.9537 68.3323 89.1167 67.7968 89.2797 67.2374C89.3725 66.9577 89.3022 66.678 89.3022 66.3758C89.3022 65.978 89.0928 65.7461 88.837 65.5113C88.0203 64.7439 87.3442 63.8106 86.9015 62.7845C86.5514 62.0171 86.1326 61.2932 85.6435 60.5931C85.4326 60.2685 85.2471 59.9425 85.0601 59.591C84.8732 59.2424 84.6877 58.9149 84.408 58.6591C83.9174 58.1939 83.4522 57.7511 82.963 57.3069C82.4964 56.8881 82.0536 56.4453 81.5869 56.0265C81.3536 55.8156 81.1202 55.5822 80.8405 55.4192C80.5144 55.2098 80.1659 55.0228 79.7695 54.791C79.7456 54.9525 79.7217 55.0931 79.7217 55.2098C79.6992 55.9098 79.6992 56.6084 79.8159 57.2845C79.8623 57.6105 79.9086 57.9605 79.7695 58.2642C79.5826 58.7294 79.6065 59.1961 79.6992 59.6613C79.8862 60.4765 79.792 61.2707 79.6529 62.0859C79.5826 62.4823 79.5123 62.8548 79.442 63.2526C79.3956 63.5787 79.4195 63.9033 79.5362 64.2309C79.8383 64.9758 80.1884 65.6983 80.6087 66.3758C80.9108 66.8874 81.1442 67.4244 81.3775 67.9599C81.5645 68.4026 81.6109 68.8693 81.3999 69.3345C81.1442 69.873 80.6775 69.9642 80.305 69.499C79.8623 68.9621 79.4195 68.4026 78.9768 67.8432C78.3231 66.9816 77.6949 66.1186 77.0652 65.2794C76.7615 64.8591 76.5057 64.4164 76.2963 63.9512C76.1557 63.6251 76.1094 63.3214 76.2021 62.9714C76.3188 62.599 76.4354 62.225 76.576 61.8526C76.9485 60.828 76.9949 61.1077 76.4354 60.2685C76.1333 59.7779 75.876 59.2888 75.6666 58.7533C75.5499 58.4721 75.526 58.1939 75.5739 57.9127C75.6202 57.6808 75.6666 57.4475 75.713 57.2142C75.7593 56.9105 75.7833 56.6084 75.8057 56.2823C75.8296 55.5822 75.8296 54.8598 75.876 54.1613C75.9224 53.3685 75.689 52.6699 75.4093 51.946C75.1296 51.2699 74.8275 50.6162 74.5238 49.9656C74.5014 49.9192 74.4774 49.8713 74.4311 49.825C74.0347 49.4301 73.7789 48.9395 73.5456 48.4488C73.2419 47.8445 73.0086 47.1909 72.7064 46.5851C72.4955 46.1423 72.2397 45.722 71.984 45.3032C71.96 45.2553 71.9361 45.209 71.9137 45.209C71.8209 45.1626 71.7043 45.0923 71.5876 45.1162C71.5173 45.1387 71.447 45.2553 71.4245 45.3496C71.3303 45.8387 71.2376 46.3278 71.1673 46.8409C71.0506 47.6336 70.9579 48.4025 70.8651 49.1952C70.8173 49.6844 70.8173 50.175 70.7709 50.6641C70.6542 52.0866 70.2818 53.4612 69.6057 54.7431C69.1868 55.5134 68.9296 56.3047 68.7441 57.1438C68.6962 57.4236 68.6499 57.7048 68.6499 57.9605C68.6499 58.7772 68.6738 59.591 68.6962 60.4077C68.7202 60.7577 68.6499 61.0837 68.4868 61.3874C68.231 61.899 67.8571 62.3193 67.4607 62.7381C67.1122 63.112 66.7382 63.4381 66.4361 63.833C65.947 64.4403 65.5267 65.0925 65.06 65.7222C64.8969 65.9555 64.8266 66.2577 64.8042 66.5389C64.7578 67.0983 64.6875 67.6338 64.6636 68.1932C64.6172 68.8918 64.8042 69.5454 65.223 70.1273C65.573 70.6403 65.8527 71.1773 65.9694 71.7831C66.0158 72.0389 66.0397 72.3186 65.9934 72.5759C65.8767 73.1338 65.6433 73.6723 65.3173 74.1614C65.0375 74.5802 64.7578 74.999 64.4781 75.4209C64.0578 76.0476 63.9411 76.7252 64.1281 77.4716C64.4317 78.728 64.8266 79.9411 65.2933 81.1303C65.7361 82.2252 66.2028 83.3216 66.6216 84.4405C66.8325 84.9999 66.9955 85.6057 67.1586 86.189C67.2289 86.4912 67.0658 86.7485 66.8086 86.8188C66.6455 86.8636 66.4825 86.8412 66.3419 86.7245C66.1325 86.5375 65.8991 86.3506 65.7136 86.1412C65.597 86.002 65.5027 85.8375 65.4339 85.676C65.06 84.8832 64.5469 84.1847 64.0578 83.4846C63.8245 83.1571 63.639 82.7846 63.4281 82.46C63.102 81.947 62.7999 81.4324 62.4498 80.9672C62.1941 80.6172 61.9607 80.2448 61.7737 79.8469C61.6571 79.5926 61.518 79.3353 61.3549 79.0796C61.2382 78.8926 61.0752 78.728 60.8882 78.5904C60.631 78.4035 60.3288 78.3332 60.0027 78.4738C59.6527 78.6607 59.3027 78.8223 59.023 79.0556C58.4636 79.4984 57.9281 79.9875 57.3686 80.4302C56.8556 80.873 56.3186 81.2933 55.807 81.7136C55.1773 82.2252 54.5476 82.7382 53.9179 83.2737C52.9157 84.1144 51.7744 84.7187 50.515 85.0926C50.1649 85.2093 49.7686 85.2332 49.42 85.2557C48.907 85.2796 48.6033 84.8832 48.72 84.3941C48.907 83.5549 49.2091 82.7622 49.6758 82.0158C50.515 80.6875 51.378 79.3578 52.4026 78.1686C52.8469 77.6795 53.2418 77.144 53.6621 76.6309C53.7548 76.4903 53.8251 76.3288 53.8954 76.1882C53.9418 76.0715 53.9179 75.9788 53.8251 75.9085C53.6621 75.7933 53.499 75.6991 53.3121 75.5824C53.2193 75.536 53.1266 75.536 53.0324 75.5121C51.8671 75.0469 50.6077 74.9063 49.3961 74.5802C48.8831 74.4396 48.4867 74.1838 48.0678 73.8802C47.8345 73.6932 47.7881 73.415 47.9512 73.1592C48.2309 72.7614 48.5106 72.3665 48.7903 71.9925C49.0237 71.7128 49.3497 71.5258 49.6758 71.3867C50.3519 71.107 50.9577 70.7106 51.5171 70.2215C51.6114 70.1512 51.7041 70.0585 51.7505 69.9642C51.8911 69.5215 52.2172 69.1954 52.5432 68.8918C52.986 68.5193 53.2657 68.0302 53.5215 67.5171C53.686 67.191 53.7085 66.8186 53.5215 66.4925C53.0787 65.7222 52.8469 64.883 52.636 64.02C52.5193 63.6012 52.4026 63.1823 52.286 62.7142C52.2172 62.762 52.1469 62.8084 52.1229 62.8548C51.9375 63.0881 51.7505 63.299 51.5874 63.5309C51.3077 63.9033 51.0744 64.2773 50.9113 64.72C50.7019 65.3258 50.3983 65.8628 50.0258 66.3758C49.9092 66.5389 49.8389 66.7004 49.7222 66.865C49.6534 66.9577 49.5592 67.0519 49.4664 67.1432C49.3497 67.2374 49.2331 67.3302 49.257 67.5171C49.257 67.6114 49.2091 67.7026 49.1403 67.7729C48.557 68.4266 47.9975 69.0787 47.4157 69.7085C46.9954 70.1751 46.4599 70.5476 45.9693 70.9425C45.6207 71.2237 45.2932 71.481 44.9671 71.7831C44.5019 72.2019 44.0577 72.6447 43.5925 73.0889C43.4758 73.2041 43.3591 73.3208 43.2664 73.4374C42.5903 74.3693 41.8439 75.2563 41.2605 76.2585C40.9344 76.8179 40.4693 77.2367 40.0026 77.6571C39.7229 77.9368 39.4431 78.2165 39.1171 78.4498C38.791 78.728 38.441 78.9629 38.067 79.1947C37.7185 79.4281 37.3924 79.6614 37.0888 79.9651C36.9257 80.1281 36.7388 80.2672 36.5757 80.4063C36.1569 80.8042 35.7366 81.2006 35.2938 81.573C35.1772 81.6658 35.1308 81.7824 35.1547 81.947C35.1772 82.0621 35.1547 82.2028 35.1772 82.3194C35.2235 82.7382 35.1308 83.1571 34.9438 83.531C34.5011 84.4868 33.8713 85.2796 32.9395 85.8151C32.567 86.0245 32.217 86.2593 31.8446 86.4912C31.704 86.5839 31.5648 86.6781 31.4945 86.8412C31.3539 87.097 31.0982 87.1912 30.8184 87.1673C30.609 87.1433 30.446 87.0506 30.3757 86.8412C30.3054 86.6318 30.3293 86.4448 30.4684 86.2818C30.5387 86.2115 30.6315 86.1412 30.7018 86.0723C30.9815 85.8854 31.2612 85.6999 31.5409 85.5354C31.867 85.326 32.1931 85.1165 32.5207 84.9296C33.2895 84.4868 33.7562 83.7868 34.1047 82.9955C34.175 82.8549 34.1989 82.6919 34.1989 82.5273C34.1989 82.2491 34.175 81.947 34.1511 81.6658C34.1286 81.3412 34.1989 81.036 34.362 80.7803C34.5011 80.5469 34.6417 80.3375 34.8272 80.1281C35.2011 79.6614 35.5975 79.2187 35.9939 78.7759C36.133 78.6129 36.2496 78.4498 36.2736 78.2165C36.3199 77.9128 36.483 77.6571 36.7163 77.4477C36.8794 77.307 37.0185 77.1904 37.2055 77.0737C38.1837 76.4694 38.9301 75.6288 39.5598 74.6969C39.9786 74.0447 40.399 73.3911 40.725 72.6686C40.9584 72.1092 41.3308 71.6186 41.7511 71.1773C42.1236 70.757 42.52 70.3846 42.9164 69.9642C43.1497 69.7324 43.383 69.4751 43.5461 69.1954C43.9185 68.5896 44.478 68.3099 45.1541 68.2157C45.5265 68.1693 45.9005 68.1005 46.2729 68.1932C46.4599 68.2396 46.6229 68.1468 46.786 68.0302C47.3678 67.5874 47.9751 67.1432 48.557 66.7004C48.8606 66.4686 48.8831 66.3758 48.6976 66.0707C48.3236 65.4649 47.9512 64.8591 47.6012 64.2773C47.5548 64.2069 47.5084 64.1381 47.4381 64.0678C46.6693 63.3918 45.8765 62.762 44.8504 62.5526C44.5946 62.5062 44.3374 62.412 44.0816 62.3417C43.1258 62.0859 42.3794 61.5953 41.7975 60.804C41.5178 60.4077 41.1678 60.0576 40.8656 59.6852C40.8417 59.7091 40.8178 59.7091 40.7953 59.7316C40.8178 59.8482 40.8417 59.9649 40.8881 60.0816C41.2381 60.8983 41.1214 61.6432 40.6787 62.3896C40.3287 62.949 40.1192 63.5548 39.9098 64.1845C39.5823 65.1628 39.1634 66.1186 38.791 67.0983C38.417 68.1005 37.6243 68.7063 36.7851 69.2642C36.5997 69.3809 36.3888 69.4048 36.1793 69.2896C35.9699 69.173 35.8996 68.9621 35.9236 68.7302C35.9699 68.3787 36.0402 68.0302 36.133 67.7026C36.3663 66.8874 36.483 66.0243 36.5997 65.1867C36.6221 64.9758 36.6221 64.7664 36.5294 64.557C36.4366 64.3476 36.3663 64.1142 36.2736 63.8569C35.6663 64.8591 35.1308 65.8389 34.9902 67.0056C34.9214 67.5171 34.8511 68.0302 34.8047 68.5432C34.7344 69.0563 34.5714 69.5454 34.2917 69.9642C34.2214 70.0809 34.1511 70.1751 34.0583 70.2679C32.8467 71.7128 32.0764 73.415 31.2851 75.0933C31.1685 75.3506 31.0742 75.6288 31.0518 75.9309C30.9815 76.4455 30.8424 76.9122 30.6315 77.3773C30.2351 78.3332 29.8387 79.2875 29.4199 80.2448C28.9771 81.2709 28.4177 82.2491 27.7655 83.1571C27.5083 83.5086 27.2525 83.881 26.9952 84.2295C26.9249 84.3238 26.8561 84.3941 26.7858 84.4629C26.6228 84.5811 26.4597 84.6035 26.2728 84.5108C26.0858 84.4165 25.993 84.2759 25.993 84.068C25.9003 83.9513 25.9227 83.8332 25.9467 83.7404Z" fill="white"/>
<path d="M71.4953 81.1064C71.1229 81.1064 70.8656 81.0361 70.6562 80.8506C69.9338 80.2897 69.304 79.6614 69.0483 78.752C68.954 78.4498 68.7685 78.1926 68.5352 78.0071C68.2315 77.7723 67.9982 77.4701 67.9055 77.0962C67.7664 76.4904 67.37 76.094 66.9033 75.7455C66.5997 75.5121 66.5308 75.2563 66.5997 74.8824C66.6939 74.3693 66.8106 73.8563 66.9736 73.3672C67.0439 73.1593 67.183 73.065 67.3924 73.0186C67.9982 72.878 68.4185 73.1593 68.7685 73.6005C68.8149 73.6484 68.8373 73.7172 68.8852 73.7411C69.654 74.4636 69.9562 75.3954 70.2135 76.3513C70.3301 76.794 70.5156 77.1665 70.8193 77.494C71.0526 77.7259 71.2396 78.0295 71.4026 78.3332C71.6823 78.8447 71.962 79.3578 72.1251 79.9411C72.1475 80.0339 72.1715 80.1042 72.1939 80.1984C72.2642 80.6636 71.9157 81.1064 71.4953 81.1064Z" fill="white"/>
<path d="M85.4574 75.768C85.4335 76.3977 85.3168 76.9317 85.1313 77.4462C85.061 77.6556 84.898 77.7948 84.6646 77.8187C84.4313 77.8426 84.2683 77.726 84.1755 77.515C84.0588 77.3056 83.9661 77.0723 83.8958 76.8404C83.7791 76.5368 83.6864 76.2107 83.5922 75.9071C83.5458 75.744 83.4755 75.6049 83.4291 75.4643C83.1494 74.5085 82.6139 73.6694 82.0081 72.9005C81.8212 72.6672 81.6581 72.4339 81.5175 72.1781C81.332 71.8744 81.3784 71.7578 81.5878 71.4541C81.8212 71.1056 82.1009 71.0592 82.4733 71.1056C83.0567 71.1759 83.6161 71.3838 84.1516 71.5947C84.3849 71.6875 84.5255 71.8744 84.6183 72.1078C84.874 72.7839 85.085 73.46 85.1777 74.1824C85.2241 74.4621 85.2944 74.7179 85.3407 74.9976C85.3647 75.3013 85.4335 75.581 85.4574 75.768Z" fill="white"/>
</g>
</svg>
