<svg viewBox="0 0 112.992 112.992" xmlns="http://www.w3.org/2000/svg" xmlns:xlink="http://www.w3.org/1999/xlink" width="112.992188" height="112.992188" fill="none" customFrame="#000000">
	<defs>
		<filter id="pixso_custom_mask_type_outline">
			<feColorMatrix type="matrix" values="0 0 0 0 1 0 0 0 0 1 0 0 0 0 1 0 0 0 1 0 " />
		</filter>
	</defs>
	<mask id="mask_14" width="112.992180" height="112.992180" x="0.000000" y="0.000000" maskUnits="userSpaceOnUse">
		<g filter="url(#pixso_custom_mask_type_outline)">
			<g>
				<rect id="Rectangle 41" width="112.992180" height="112.992180" x="0.000000" y="0.000000" fill="rgb(255,255,255)" />
			</g>
		</g>
	</mask>
	<g id="Group 10">
		<g id="Group 42" mask="url(#mask_14)">
			<g style="mix-blend-mode:normal">
				<path id="Path 941" d="M112.992 56.4961C112.992 87.698 87.6981 112.992 56.4962 112.992C25.2942 112.992 0.000126434 87.698 0.000126434 56.4961C0.000126434 25.2942 25.2942 0 56.4962 0C87.6981 0 112.992 25.2942 112.992 56.4961Z" fill="rgb(255,211,52)" fill-rule="nonzero" />
			</g>
			<g style="mix-blend-mode:normal">
				<path id="Path 942" d="M71.898 79.2605C72.0837 76.4995 72.6695 73.7651 72.8886 71.0092C73.0735 68.6838 73.265 65.0521 72.4596 62.8787C71.8181 61.147 69.6749 59.9101 68.2968 58.7287C68.0039 58.4773 66.3805 56.8401 66.2432 56.8092C66.0519 56.7666 65.9859 56.9652 65.9159 57.0887C63.598 61.1802 64.6742 71.1737 65.3388 75.8309C65.7192 78.4971 66.5535 81.4414 66.7938 84.0531C66.8155 84.2882 66.875 84.6404 66.7484 84.8432C65.6771 83.0707 64.7229 81.2026 63.5113 79.5193C62.6557 78.3312 61.5807 77.283 60.7532 76.0739C59.4021 74.0997 59.3426 72.9751 59.1181 70.637C58.6109 65.3521 58.8262 60.2216 60.1087 55.0668C57.8334 56.137 55.0196 56.385 52.7912 55.0668C53.2059 57.9752 54.1073 60.8696 54.2775 63.815C54.4769 67.2673 54.0686 72.9689 52.7258 76.1567C51.918 78.0742 50.4268 79.7228 49.5652 81.6178C49.6751 81.7355 51.7935 79.7017 51.9867 79.5119C53.4652 78.0606 54.9666 76.403 56.0375 74.6298L56.7585 72.8098C57.6196 74.9041 58.8663 77.126 60.2947 78.8897C62.5352 81.6567 65.3328 84.1072 66.877 87.4441C67.4675 88.7205 67.2429 92.3725 66.6528 93.6817C66.4217 94.1944 66.0475 94.5948 65.8146 95.2009C64.7421 97.9918 65.7177 99.6522 62.1207 100.564C61.5856 100.7 57.9495 101.316 57.7469 101.169C57.179 100.758 58.3807 98.0369 58.6388 97.4543C60.1139 94.1248 62.5745 91.8779 60.5465 88.0674C59.9969 87.0344 57.8634 84.3232 56.763 84.031C55.6243 83.7287 54.2341 85.4566 53.7181 86.3303C52.3871 88.5837 51.7295 91.1469 50.7734 93.5592C49.8626 95.8571 48.9048 98.1407 47.9564 100.423C47.8059 100.529 45.4912 100.018 45.0962 99.9197C44.3217 99.7274 43.4528 99.5261 42.7348 99.179C42.4058 99.02 40.8635 98.0564 40.8966 97.7064C40.9198 97.4608 42.1569 95.8333 42.3911 95.3506C42.9464 94.2053 43.2949 92.7543 43.7964 91.5451C44.4624 89.9403 45.4107 88.3914 45.8027 86.7274C47.5203 79.4359 50.0297 64.5934 47.3327 57.7324C47.188 57.3641 47.0867 56.9409 46.7725 56.682C46.049 57.4484 45.3755 58.2558 44.6029 58.9768C43.5555 59.9542 41.4745 61.2368 40.8578 62.4277C40.4323 63.2494 40.1981 64.7445 40.136 65.6761C39.8147 70.5006 40.9622 75.233 41.314 80.0044C40.4016 78.6205 39.7139 77.099 38.747 75.7474C36.346 72.3916 34.2561 71.9902 34.2989 67.158C34.3126 65.603 34.639 60.5007 35.2293 59.2806C36.4081 56.8447 40.7955 56.2424 43.0466 54.4427C45.2747 52.6617 47.1009 50.1711 48.7623 47.8706C51.1786 49.55 54.4325 50.8466 57.4266 50.5843C59.7879 50.3773 62.0563 49.1761 64.0825 48.051C65.1527 49.252 66.1402 50.5476 67.2423 51.7186C68.48 53.0337 70.3765 55.0247 71.9764 55.7936C74.0027 56.7669 76.998 57.0087 77.8446 59.4789C78.6024 61.6909 79.0177 67.9651 78.383 70.1761C77.8713 71.9586 75.9711 73.8038 74.8252 75.3032C73.8289 76.607 72.9059 77.9674 71.898 79.2605Z" fill="rgb(2,1,0)" fill-rule="nonzero" />
			</g>
			<g style="mix-blend-mode:normal">
				<path id="Path 943" d="M21.4002 86.4566C21.608 85.0045 22.2518 83.1304 22.58 81.6192C24.3736 73.3576 26.5208 60.2125 22.1656 52.6262C20.5679 49.8432 18.1657 48.2162 16.1255 45.8873C15.1391 44.7617 14.9097 44.6779 15.2325 43.1301C15.5974 41.3805 16.4641 39.5384 16.9953 37.8211C18.2057 37.4142 19.2059 38.9928 19.7276 39.9279C21.0814 42.3564 20.6477 42.9296 23.0784 44.8896C30.8663 51.1698 38.1481 49.9102 42.8854 41.1302C43.346 40.2766 43.6439 39.2622 44.0759 38.4758C44.3643 37.9513 44.3539 38.6481 44.4405 38.9115C44.9184 40.3661 45.4496 41.7749 46.193 43.1155C46.4199 43.525 47.6576 45.2662 47.6772 45.4704C47.7385 46.1084 45.809 48.2579 45.2868 48.7426C41.3088 52.4345 34.082 55.114 28.7209 53.5786C29.1367 55.1747 29.6621 56.754 29.9248 58.3908C30.8003 63.8423 30.0723 69.363 29.464 74.7946C29.7812 75.1161 32.4672 74.3085 33.0041 74.3188C33.9062 74.3364 36.0544 76.6642 36.7246 77.3979C41.2006 82.2992 43.1957 85.1946 40.9126 91.8874C40.711 92.4786 39.2297 96.3995 38.9348 96.4937C38.3371 96.6842 34.9756 95.1055 34.3195 94.6257C34.7603 92.6083 36.4653 90.447 36.6592 88.3787C36.9166 85.6323 34.2025 82.0067 32.0255 80.5104C31.51 80.5974 28.8379 84.9144 28.4507 85.6288C27.4978 87.3862 25.692 91.2676 25.9985 93.2105C26.1657 94.2687 28.0884 95.722 28.9289 96.3596C35.099 101.04 43.5538 103.918 51.2399 104.694C52.7463 104.846 54.3393 104.793 55.8282 104.945C57.4535 105.111 58.2507 106.553 57.6287 108.045C57.6016 108.11 57.5407 108.229 57.5045 108.293L56.8841 108.913C56.8532 108.93 56.7974 108.898 56.76 108.913C56.6635 108.952 56.6444 109.035 56.636 109.037C56.5989 109.047 56.553 109.03 56.512 109.037C55.1346 109.29 53.6881 109.138 52.2935 109.037C52.1298 109.026 51.9607 109.051 51.7974 109.037C51.5297 109.015 51.1446 108.945 50.8046 108.913C50.7234 108.906 50.6381 108.921 50.5565 108.913C49.6719 108.829 48.775 108.568 47.8271 108.541C47.786 108.54 47.7441 108.541 47.703 108.541C46.2257 108.233 44.7256 107.782 43.2366 107.549C43.1586 107.536 43.0688 107.557 42.9882 107.549C42.925 107.386 42.753 107.432 42.6162 107.424C42.5752 107.422 42.533 107.424 42.492 107.424C42.2137 107.221 41.7105 107.093 41.3755 107.052C41.3349 107.047 41.2923 107.055 41.2514 107.052C40.1621 106.706 39.0932 106.346 38.0254 105.936C37.8436 105.866 37.5934 105.764 37.4051 105.688C37.3697 105.673 37.3164 105.702 37.2811 105.688L37.1571 105.564C37.1217 105.549 37.0682 105.578 37.033 105.564C36.6553 105.405 36.2571 105.221 35.9162 105.067C35.7617 104.998 35.6213 104.978 35.544 104.943C35.0126 104.702 34.3753 104.346 33.807 104.075C33.6487 103.999 33.5044 103.984 33.4348 103.951C32.9702 103.727 32.3774 103.352 31.8219 103.082C31.7391 103.042 31.6595 102.999 31.5739 102.958C31.2291 102.602 30.7595 102.437 30.333 102.214C30.249 102.17 30.168 102.132 30.085 102.09C29.8897 101.845 29.594 101.75 29.3404 101.593C29.3106 101.575 29.2461 101.612 29.2164 101.593L29.0924 101.469C28.8426 101.309 28.6047 101.133 28.3479 100.973C27.8534 100.663 27.3719 100.461 26.9833 100.228C26.2913 99.8152 24.6271 98.343 23.8816 97.7471L23.7573 97.6229C23.6591 97.5428 23.5399 97.5245 23.5091 97.4989L23.3851 97.3748C23.2402 97.2504 23.0911 97.0518 22.8891 96.8785L22.5166 96.6304C22.328 96.4622 22.1217 96.2164 21.8963 96.0101C21.6337 95.7699 21.3715 95.5923 21.1518 95.3897C21.0784 95.3217 21.0014 95.2313 20.9036 95.1416L20.5316 94.7692C20.4873 94.7155 20.3692 94.6884 20.3017 94.5701C19.5232 93.2034 20.6366 89.4046 21.0278 87.8213C21.0811 87.6058 21.2213 87.3695 21.276 87.077C21.2962 86.9679 21.2653 86.8251 21.276 86.7048C21.4023 86.6753 21.3854 86.5591 21.4002 86.4566Z" fill="rgb(2,1,0)" fill-rule="nonzero" />
			</g>
			<g style="mix-blend-mode:normal">
				<path id="Path 944" d="M61.4748 106.308C61.7026 105.509 62.0667 104.881 62.8772 104.547C64.163 104.017 66.8981 103.799 68.4485 103.418C72.7541 102.36 77.2495 100.573 81.0185 98.2458C82.4823 97.342 86.2708 94.8799 86.4146 93.0932C86.5324 91.6293 85.4296 88.1479 84.86 86.7067C84.4938 85.7799 81.8787 80.5182 81.1221 80.3907C80.3103 80.2535 77.2667 84.5607 76.923 85.4656C75.6514 88.815 78.01 90.2973 78.9079 93.2791C79.5683 95.4721 78.9135 95.5865 77.1102 96.5709C76.7198 96.7842 74.5123 97.9112 74.2653 97.7359C73.0505 93.928 70.3981 89.7137 71.2072 85.581C71.704 83.0432 74.3711 79.6255 76.1118 77.7064C76.7764 76.9737 79.2079 74.4267 80.0317 74.3053C81.254 74.125 82.4486 75.7134 83.6683 74.9704C83.5231 73.8558 83.3188 72.7325 83.2025 71.6147C82.7817 67.5706 82.4257 63.285 82.9566 59.2408C83.2289 57.1658 83.8374 55.2388 84.9241 53.4552C79.4214 55.212 72.1276 52.6325 67.9246 48.9271C67.3881 48.4541 65.3738 46.462 65.4409 45.8282C65.4536 45.7086 66.5241 44.1903 66.7069 43.8596C67.6653 42.1261 68.2425 40.2114 68.7964 38.3175C69.4077 39.2136 69.8289 40.2867 70.3863 41.2543C71.488 43.1663 73.8412 46.6154 75.7386 47.6888C80.9398 50.631 89.2288 47.7419 92.0603 42.6619C92.7569 41.4122 93.8512 38.0719 95.0968 37.5097C95.3124 37.4125 95.9385 37.1872 96.1035 37.4016C96.5931 39.0119 98.4828 43.1252 98.0189 44.651C97.6052 46.0119 95.058 48.0737 94.0414 49.2336C90.4045 53.3835 88.6508 55.8533 88.3929 61.5754C88.101 68.0524 89.1188 74.5345 90.259 80.8734C90.4344 82.9213 90.9348 84.9248 91.2516 86.9529C91.5925 89.1355 92.4446 92.8339 92.2441 94.8933C92.2402 94.9341 92.2472 94.9763 92.2441 95.0174L92.1201 95.2655C91.7009 95.7623 90.6808 96.5268 90.135 97.0025C89.3159 97.7162 88.4255 98.3517 87.6535 99.1118C87.6113 99.1124 87.558 99.1018 87.5295 99.1118C87.3396 99.1777 87.0855 99.4772 86.9092 99.6079C85.7911 100.241 84.7825 101.063 83.6833 101.717C83.3508 101.915 82.9985 102.161 82.6907 102.338C82.0576 102.7 81.2409 103.115 80.5816 103.454C79.9533 103.777 79.1603 103.976 78.5964 104.447C78.5557 104.449 78.5118 104.44 78.4724 104.447L78.2242 104.571C77.4719 104.79 76.5679 105.204 75.8669 105.563C75.7966 105.599 75.6741 105.582 75.6187 105.687C75.5787 105.695 75.5338 105.679 75.4948 105.687C74.9508 105.812 74.3604 106.018 73.8817 106.308C73.8406 106.31 73.7986 106.304 73.7578 106.308C73.6513 106.318 73.5484 106.311 73.5096 106.432C73.4687 106.437 73.424 106.424 73.3856 106.432C73.1996 106.472 73.1142 106.529 73.0132 106.556C72.8983 106.587 72.8143 106.666 72.7653 106.68C70.1522 107.426 67.4921 108.022 64.8246 108.541C64.7421 108.539 64.6591 108.543 64.5764 108.541C63.3209 108.507 62.1873 108.804 61.5988 107.424L61.4748 107.052C61.4685 107.012 61.4774 106.969 61.4748 106.928C61.4615 106.723 61.4838 106.514 61.4748 106.308Z" fill="rgb(2,1,0)" fill-rule="nonzero" />
			</g>
			<g style="mix-blend-mode:normal">
				<path id="Path 945" d="M86.0408 17.2255C85.7309 17.3294 85.1901 17.3746 84.8584 17.356C83.5945 17.2853 80.8792 15.0256 79.6274 14.2717C76.5432 12.4141 71.8036 10.1426 68.2353 10.1525C66.0675 10.1585 64.9781 9.29056 62.9922 8.94642C60.9238 8.58784 58.9056 8.54976 58.6365 11.0991C58.4503 12.8631 58.4509 16.6349 58.6166 18.409C58.7047 19.3544 59.0358 19.5882 59.9059 19.849C61.9967 20.476 64.6873 20.2717 66.7149 20.8564C67.6076 21.1139 68.463 22.359 68.5416 23.2577C68.5893 23.8007 68.1158 25.542 67.4996 25.5446C60.2853 24.0202 52.7523 24.0189 45.5366 25.529C44.878 25.5073 44.454 24.0617 44.4673 23.4911C44.4934 22.37 45.4416 21.1087 46.5585 20.8577C48.082 20.5154 53.1406 20.3474 54.0628 19.4635C54.3108 19.2257 54.3795 18.8616 54.4095 18.5345C54.5736 16.7413 54.5982 12.6075 54.3891 10.8497C54.291 10.0246 53.8694 9.25036 53.0858 8.92648C51.8214 8.40354 51.184 8.93426 49.964 9.12667C46.4605 9.6788 43.3053 10.1648 39.9465 11.3921C35.8902 12.874 32.4165 15.0992 28.7718 17.3455C28.0422 17.5896 26.2467 17.1304 25.9908 16.357C25.8958 16.07 25.8306 15.0202 25.8955 14.7098C26.1367 13.556 28.5912 12.1959 29.5992 11.5906C46.1272 1.66492 67.2171 1.54837 83.673 11.7148C84.6798 12.3368 86.9332 13.5916 87.2258 14.7424C87.4213 15.5111 86.8718 16.9468 86.0408 17.2255Z" fill="rgb(2,1,0)" fill-rule="nonzero" />
			</g>
			<g style="mix-blend-mode:normal">
				<path id="Path 946" d="M31.7965 25.5749C35.4386 25.2035 39.3778 27.3371 40.3216 30.9969C41.3357 34.9302 40.0358 41.396 36.2029 43.5053C33.8063 44.8242 29.4387 45.0619 27.4158 43.034C22.0562 37.6603 23.1176 26.4603 31.7965 25.5749ZM34.0135 38.5242C34.5916 37.9469 34.7119 36.6842 34.7988 35.8976C34.9176 34.8224 35.0657 33.2714 34.7101 32.2657C33.944 30.0974 30.7715 30.4837 30.145 32.6084C29.8247 33.6937 29.7914 37.1178 30.4011 38.0638C31.1323 39.1984 33.0597 39.4765 34.0135 38.5242Z" fill="rgb(2,1,0)" fill-rule="nonzero" />
			</g>
			<g style="mix-blend-mode:normal">
				<path id="Path 947" d="M79.5614 25.5729C82.8223 25.2022 86.1017 26.9269 87.7535 29.719C89.683 32.9803 88.8834 39.1537 86.5344 42.0992C85.6629 43.1918 84.8873 43.7911 83.532 44.1837C71.2839 47.7328 67.877 26.901 79.5614 25.5729ZM79.804 30.9024C78.853 31.0776 78.2981 31.9518 78.1559 32.8523C78.0149 33.7461 78.17 36.0927 78.3608 37.0025C78.8752 39.4557 82.0439 40.038 82.8733 37.5698C83.3201 36.2402 83.341 33.1066 82.5906 31.9044C82.0068 30.9694 80.8456 30.7103 79.804 30.9024Z" fill="rgb(2,1,0)" fill-rule="nonzero" />
			</g>
			<g style="mix-blend-mode:normal">
				<path id="Path 948" d="M55.3696 29.669C60.3461 29.1971 64.868 32.9981 64.5746 38.1301C64.2823 43.243 60.7635 47.4299 55.3485 46.8631C47.0855 45.9983 45.2957 30.6241 55.3696 29.669ZM55.8591 34.7495C54.2644 35.0221 54.0886 36.8153 54.1559 38.1301C54.2274 39.5276 54.7014 41.8658 56.5429 41.7612C58.6453 41.6419 58.8888 38.7195 58.7431 37.1408C58.5839 35.4144 57.6796 34.4383 55.8591 34.7495Z" fill="rgb(2,1,0)" fill-rule="nonzero" />
			</g>
			<g style="mix-blend-mode:normal">
				<path id="Path 949" d="M108.621 50.7248C108.643 50.8838 108.602 51.061 108.621 51.2211C108.648 51.4413 108.738 51.6474 108.746 51.7173C108.767 51.9203 108.726 52.1345 108.746 52.3377C108.757 52.4598 108.735 52.5875 108.746 52.7099C108.775 53.0458 108.847 53.3435 108.87 53.7025C108.905 54.2598 108.977 54.9259 108.994 55.4394C109.03 56.5851 108.931 57.6658 108.87 58.7894C108.84 59.3227 108.89 59.8679 108.87 60.4024C108.841 60.6723 108.772 60.91 108.746 61.1468C108.646 62.0244 108.514 63.1346 108.497 64.0004C108.495 64.1657 108.5 64.3313 108.497 64.4966C108.464 64.6099 108.415 64.6714 108.373 64.8688C108.35 64.9768 108.392 65.1254 108.373 65.2409C108.352 65.3737 108.282 65.5502 108.249 65.7373C108.236 65.8151 108.262 65.907 108.249 65.9855C108.048 66.0915 108.132 66.407 108.125 66.6059C108.108 66.6802 108.147 66.7922 108.125 66.8539C108.059 67.0448 107.971 67.3073 107.753 67.2262C107.467 66.9819 107.26 66.5781 106.885 66.2337L106.76 66.1095C106.57 65.9526 106.528 65.956 106.388 65.8613C106.334 65.6834 106.197 65.6151 106.016 65.6133C105.608 65.383 105.539 65.3898 105.147 65.2409L105.023 65.1169C104.986 65.1044 104.937 65.1294 104.899 65.1169L104.651 64.9929C104.521 64.9513 104.243 64.9246 104.031 64.8688L103.659 64.7448C103.585 64.7277 103.485 64.761 103.411 64.7448C102.012 64.4403 100.765 64.238 99.3162 64.1245C99.2343 64.1179 99.1501 64.1299 99.0681 64.1245C98.6276 63.9296 97.9678 63.9386 97.4553 63.8762C96.4714 63.7567 93.8345 63.531 93.119 63.0636C92.5097 62.6653 92.4131 62.0162 92.363 61.3382C92.2857 60.2958 92.2409 57.0719 92.5908 56.2204C92.8301 55.6383 93.4449 55.2851 94.0541 55.2021C95.3203 55.0296 98.5613 55.0685 99.8797 55.1863C102.307 55.4031 102.238 58.2012 100.338 58.7565C99.3925 59.0327 98.1562 58.7275 97.4194 58.9397C96.8009 59.1178 96.8409 59.983 97.334 60.3373C97.6882 60.5918 100.2 60.7092 100.864 60.7776C101.794 60.8736 103.607 61.5809 104.04 60.473C104.255 59.9204 104.23 56.3868 104.153 55.6269C103.826 52.3589 99.9081 53.9777 97.9877 52.8599C96.9229 52.24 96.7531 50.6122 97.6978 49.7885C98.8287 48.8021 101.235 50.1553 102.51 49.6385C102.739 49.546 103.336 48.8977 103.531 48.6738C103.849 48.3085 104.414 47.2529 104.652 47.065C104.975 46.8098 106.621 46.3979 107.133 46.2583C107.251 46.2259 107.347 46.1425 107.381 46.1342C107.42 46.1247 107.465 46.1427 107.505 46.1342C107.882 46.127 107.818 46.3099 107.88 46.566C108.171 47.7626 108.459 49.4973 108.621 50.7248Z" fill="rgb(2,1,0)" fill-rule="nonzero" />
			</g>
			<g style="mix-blend-mode:normal">
				<path id="Path 950" d="M5.14687 46.258C5.21349 46.0408 5.42974 45.7777 5.4547 45.5161C5.95495 45.7767 6.74553 45.8649 7.22632 46.0979C7.56901 46.2638 7.89759 46.72 8.12453 47.0024C8.55541 47.5383 9.79014 49.5868 10.2358 49.791C10.8733 50.0831 13.5851 49.2999 14.6101 49.5127C15.4658 49.6904 16.1749 50.7434 16.0129 51.5983C15.5271 54.1649 11.7686 52.776 10.1662 53.5727C9.34939 53.9788 9.05533 55.0226 8.98854 55.8689C8.93132 56.5948 8.89307 60.0066 9.08727 60.4939C9.35863 61.1748 10.1839 61.0599 10.7905 61.0207C12.0886 60.9369 13.9435 60.7043 15.2477 60.5153C16.5965 60.3196 16.462 58.8148 15.1296 58.7836C14.3237 58.7648 13.6062 58.9813 12.6814 58.7608C10.8328 58.3202 10.8034 55.3927 13.1444 55.186C14.4942 55.0668 17.7985 55.0255 19.0939 55.202C19.9195 55.3146 20.5322 55.9269 20.6447 56.7528C20.7854 57.7859 20.7843 60.9105 20.6585 61.9557C20.5249 63.0657 19.7363 63.265 18.8167 63.4639C16.2109 64.0274 12.7912 64.4406 10.1096 64.7446C9.91091 64.7518 9.5953 64.6673 9.48928 64.8685C9.32653 64.8804 9.15697 64.8683 8.99308 64.8685C8.66271 64.869 8.3309 64.8683 8.00053 64.8685C7.70955 64.8277 7.4215 64.7864 7.13199 64.7446C6.76141 64.6909 6.38825 64.6583 6.01542 64.6204C5.97441 64.6164 5.93226 64.6246 5.89125 64.6204L5.51906 64.4963C5.35647 64.4871 5.18593 64.4916 5.02286 64.4963C4.69233 64.423 4.56119 63.7825 4.5265 63.752L4.5265 63.5038C4.5265 63.3796 4.52601 63.2556 4.5265 63.1317C4.52682 63.0491 4.52942 62.9658 4.5265 62.8834C4.47236 61.3501 4.21591 59.8294 4.27832 58.2928C4.28789 58.0587 4.15448 57.9403 4.15431 57.9207C4.15318 57.7966 4.15431 57.6725 4.15431 57.5485C4.15383 56.6188 4.30588 55.5396 4.27832 54.6949L4.27832 53.0819L4.27832 52.4615C4.38304 51.9577 4.35678 51.6952 4.4025 51.2208C4.42211 51.0172 4.53428 50.8475 4.5265 50.4764C4.52472 50.3937 4.52763 50.311 4.5265 50.2282C4.65456 49.924 4.62716 49.9316 4.65051 49.6078C4.65943 49.4853 4.64841 49.359 4.65051 49.2357C4.87097 49.0968 4.75539 48.7252 4.77468 48.4913C4.77809 48.4501 4.77047 48.4081 4.77468 48.3671L4.89869 47.9949C4.90906 47.9152 4.88734 47.826 4.89869 47.7469L5.02286 47.2505C5.04393 47.1378 4.99822 46.9844 5.02286 46.8784L5.14687 46.5062C5.16632 46.4352 5.12628 46.3251 5.14687 46.258Z" fill="rgb(2,1,0)" fill-rule="nonzero" />
			</g>
			<g style="mix-blend-mode:normal">
				<path id="Path 951" d="M101.674 66.7299L101.798 66.8539C101.836 66.8688 101.892 66.8374 101.922 66.8539C102.081 66.9422 102.87 67.7318 102.915 67.8464C102.927 67.8776 102.907 67.9272 102.915 67.9706C103.058 68.8286 102.585 69.6929 101.922 70.2039C101.9 70.2207 101.461 70.4383 101.426 70.4519C100.51 70.4226 99.6166 70.3239 98.6961 70.3279C98.3751 70.3293 98.0145 70.2992 97.7036 70.3279C96.9854 70.3944 96.7639 70.7582 96.7083 71.5086C96.6597 72.1628 96.8757 72.6651 97.4554 72.9333C97.4895 72.9491 97.5452 72.9178 97.5793 72.9333L98.0757 73.1815C98.1125 73.194 98.1617 73.1698 98.1998 73.1815C98.4454 73.256 98.6507 73.3642 98.9442 73.4297C98.9836 73.4384 99.0284 73.4218 99.0684 73.4297C99.2923 73.6906 99.6428 73.635 99.9368 73.6776C99.9772 73.6837 100.02 73.6721 100.061 73.6776L100.557 73.802C100.598 73.8056 100.64 73.7984 100.681 73.802C100.916 73.9892 101.608 73.9743 101.922 73.9259C102.092 73.8998 102.117 73.8222 102.17 73.802L102.666 73.5537C102.703 73.5404 102.755 73.5679 102.79 73.5537C103.133 73.4168 103.52 73.3526 103.783 73.0574C103.817 73.0433 103.869 73.0706 103.907 73.0574L104.031 72.9333C104.069 72.9228 104.115 72.9425 104.155 72.9333L104.279 72.8093C104.319 72.8031 104.363 72.814 104.403 72.8093C104.715 72.7727 105.075 72.8347 105.396 72.8093C105.428 72.8576 105.507 72.9003 105.52 72.9333L105.52 73.0574C105.623 73.5632 105.702 74.0235 105.644 74.5463L105.52 74.9185C105.477 75.1067 105.434 75.4173 105.396 75.5388C105.232 76.0567 104.87 76.979 104.651 77.524C104.343 78.2926 103.896 79.2464 103.535 80.0055C103.272 80.5597 102.952 81.1981 102.666 81.7423C102.411 82.2294 102.063 82.892 101.798 83.3553L101.674 83.4793C101.564 83.6684 101.497 83.8564 101.426 83.9757C100.519 85.5004 99.4025 86.9419 98.4479 88.4422C98.2734 88.7167 98.0391 88.7939 97.9517 89.1866L97.7036 89.4348C97.66 89.4012 96.9129 89.4298 96.6093 89.3502C95.3341 89.0168 94.874 87.9152 94.8499 86.7051C94.8482 86.6238 94.8433 86.5378 94.8499 86.4569C94.9702 86.4239 94.9667 86.3138 94.9739 86.209C94.985 86.0511 94.9462 85.8514 94.9739 85.7126C94.9766 85.699 95.0563 85.6405 95.098 85.4644C95.1074 85.4253 95.0876 85.3787 95.098 85.3404C95.4057 85.2325 95.3766 84.9369 95.4702 84.7201C95.4854 84.6852 95.4549 84.6303 95.4702 84.596C95.4792 84.5761 95.5652 84.5418 95.5942 84.4719C95.609 84.4367 95.58 84.3833 95.5942 84.3479C95.6063 84.3183 95.6943 84.2799 95.7184 84.2238C95.7743 84.094 95.7971 83.9539 95.8423 83.8514C96.2041 83.7085 96.1992 83.2329 96.3387 82.9831C96.3889 82.8936 96.4241 82.8028 96.4628 82.735C97.1616 81.5062 98.4169 79.9646 98.8471 78.6067C99.5619 76.3518 96.5325 76.9945 95.2858 76.9019C94.3765 76.8345 93.1738 76.6546 92.6885 75.7771C92.2284 74.9452 92.2794 70.3047 92.3636 69.1444C92.4613 67.7987 92.8392 66.9218 94.3055 66.7437C96.5894 66.466 99.3398 66.9218 101.674 66.7299Z" fill="rgb(2,1,0)" fill-rule="nonzero" />
			</g>
			<g style="mix-blend-mode:normal">
				<path id="Path 952" d="M16.1891 86.8294C16.0307 87.3706 15.8046 87.1905 15.3206 87.2014C14.9348 87.2104 14.292 87.2492 13.9558 87.0775L13.8318 86.9534C13.8114 86.9291 13.8524 86.852 13.8318 86.8294C13.6363 86.6145 13.5011 86.3366 13.2114 86.209C13.0985 86.0457 12.9748 85.7966 12.8392 85.5887L12.7151 85.4647C12.6963 85.4354 12.7339 85.3698 12.7151 85.3404L12.5912 85.2165C11.8102 83.9953 11.0678 82.753 10.3578 81.4944L10.2339 81.3701C10.2161 81.3387 10.2513 81.2778 10.2339 81.2462L10.1096 80.998C9.20166 79.3299 8.47998 77.8379 7.7523 76.0353L7.62829 75.6631C7.58858 75.5631 7.52989 75.4809 7.50413 75.4149L7.38027 75.0427C6.98036 73.98 6.48903 72.9448 6.26355 71.8168C6.33147 71.8038 6.43376 71.8143 6.51156 71.8168C8.00729 71.864 9.30865 72.3711 10.606 73.0575L10.73 73.1816C10.7711 73.2033 10.8065 73.2801 10.8541 73.3057C10.9258 73.344 11.0375 73.4153 11.1022 73.4297C11.1967 73.5287 11.3388 73.6595 11.4745 73.6779C11.5131 73.6831 11.559 73.6794 11.5985 73.6779C12.3664 73.9914 13.1993 73.7177 13.9558 73.5537C14.5807 73.4186 14.8847 73.3183 15.4447 73.0575C15.5107 73.0268 15.6775 73.0746 15.8077 72.9909C16.3024 72.6728 16.2154 72.5238 16.3131 72.065L16.4373 71.9408C16.4507 71.5936 16.3078 71.3653 16.1891 71.0725C16.0458 70.7186 16.1324 70.7456 15.8169 70.4521C15.7766 70.4145 15.7307 70.3458 15.6927 70.3279C15.2505 70.12 14.5945 70.1873 14.08 70.2038C13.2022 70.2323 12.3927 70.376 11.4745 70.3279L11.3503 70.3279C11.2724 70.3147 11.1458 70.3504 11.1022 70.3279C10.971 69.9862 10.5427 69.5837 10.2339 69.3354C9.91216 68.6606 9.9154 67.8893 10.482 67.3503C10.6167 67.2221 11.4528 66.757 11.5985 66.7299C12.6143 66.5415 17.8466 66.6012 18.9483 66.7624C19.8468 66.8939 20.4754 67.5331 20.6262 68.4344C20.834 69.6771 20.7784 73.4029 20.6607 74.7376C20.5975 75.4533 20.3143 75.9991 19.7051 76.3875C18.4435 77.1917 16.1755 76.6091 14.8206 76.962C14.2014 77.1235 13.6054 77.9046 13.7307 78.5475C13.9471 79.6584 15.9098 81.453 16.306 82.9284C16.6897 84.3581 16.2327 85.4769 16.1891 86.8294Z" fill="rgb(2,1,0)" fill-rule="nonzero" />
			</g>
			<g style="mix-blend-mode:normal">
				<path id="Path 953" d="M102.79 32.2382C102.902 32.4582 102.891 32.8107 103.162 32.9826C103.598 34.6987 105.073 36.9677 105.644 38.8139C105.792 39.2941 105.919 39.7906 105.892 40.3028C105.89 40.3432 105.9 40.3882 105.892 40.4268L105.768 40.675C105.524 41.0816 105.052 41.4239 104.651 41.6675L104.527 41.7915C104.495 41.8068 104.441 41.7778 104.403 41.7915L104.155 41.9157C104.115 41.9208 104.072 41.9126 104.031 41.9157C102.712 42.0149 101.616 41.8215 100.991 40.5508C100.452 39.4542 100.136 37.9744 99.6575 36.7978C98.4166 33.7456 96.3358 30.9354 94.7758 28.0318C94.1189 27.3416 93.013 27.3633 92.2267 27.8162C91.8267 28.0467 91.3306 28.8104 90.9477 28.771C90.4048 28.715 89.2128 27.0593 89.0775 26.5348C88.7954 25.4417 89.376 25.3961 89.884 24.7289C91.0245 23.2309 90.0989 22.3023 89.3906 20.9477C89.2817 20.7396 89.0944 20.489 89.0184 20.3274C88.7629 19.3938 88.9017 19.1974 89.5146 18.5904C90.4957 17.6194 91.1323 17.381 92.2459 18.2787C95.8812 21.2092 100.67 28.0485 102.79 32.2382Z" fill="rgb(2,1,0)" fill-rule="nonzero" />
			</g>
			<g style="mix-blend-mode:normal">
				<path id="Path 954" d="M21.7723 17.722C22.1964 17.6828 22.6412 17.7627 23.0131 17.9702C23.2397 18.0967 23.637 18.4955 23.7575 18.7146C24.0552 19.2565 24.2389 20.3836 24.1034 20.9839C23.8865 21.9453 22.1922 22.5902 22.2679 23.3598C22.3287 23.9766 24.341 25.6147 24.3801 26.3552C24.4067 26.8561 22.5936 28.5607 22.1834 28.6233C21.698 28.6976 21.3818 26.9584 20.2102 26.7906C17.3093 26.3749 15.4038 29.2737 15.0885 31.82C15.0055 32.4906 15.1287 33.0186 14.9485 33.7271C14.7108 34.6613 13.9485 35.5469 13.5497 36.366C13.1392 37.2093 12.8423 38.3232 12.467 39.0621C12.4286 39.1378 11.8842 40.0088 11.8468 40.0546C11.0463 41.0323 9.81402 41.2623 8.62094 40.9232C8.54379 40.8708 8.02457 40.5781 8.00058 40.551C7.83134 40.3605 7.64655 39.894 7.49936 39.6505C7.44943 39.5677 7.27241 39.5662 7.25409 39.472C7.13852 38.8765 7.86344 37.7418 8.09476 37.1092C8.28961 36.577 8.44312 36.0048 8.62094 35.4641L8.74496 35.34C8.76749 35.2752 8.72274 35.1575 8.74496 35.0919L8.86896 34.9678C8.88015 34.9306 8.8594 34.8834 8.86896 34.8437L8.99313 34.7197C8.99718 34.6799 8.99443 34.6359 8.99313 34.5957C9.38655 34.3857 9.43811 33.8226 9.6135 33.4789C10.8659 31.0239 12.3874 28.4087 13.9559 26.1589L14.0799 26.0347C14.1107 25.9913 14.1705 25.9577 14.2041 25.9107C14.271 25.8171 14.2942 25.7092 14.3281 25.6625C14.4357 25.5145 14.5886 25.3154 14.7003 25.1663C15.6128 23.9486 16.7819 22.5822 17.8021 21.4441C17.8796 21.3577 17.8976 21.2275 17.9261 21.1961C19.0344 19.9772 20.3927 18.9243 21.5242 17.722C21.6062 17.717 21.6908 17.7295 21.7723 17.722Z" fill="rgb(2,1,0)" fill-rule="nonzero" />
			</g>
			<g style="mix-blend-mode:normal">
				<path id="Path 955" d="M35.462 19.1286C35.9088 18.6727 38.4407 17.4517 39.1821 17.0795C40.0249 16.6566 40.9263 16.2196 41.7879 15.8391C43.5454 15.0631 47.4128 13.2852 48.8529 15.2695C49.9974 16.8466 48.7658 17.62 47.4585 18.2839C44.1536 19.9623 40.1941 20.9518 36.8144 22.5391C35.4491 22.479 34.462 20.1494 35.462 19.1286Z" fill="rgb(2,1,0)" fill-rule="nonzero" />
			</g>
			<g style="mix-blend-mode:normal">
				<path id="Path 956" d="M65.7873 14.405C68.8092 13.9916 74.4273 17.9762 77.3738 19.0066C78.8505 19.7372 77.6269 22.7857 76.2088 22.5364C73.0907 21.2686 69.8854 20.1484 66.8139 18.7723C66.2018 18.498 64.036 17.6138 63.8583 17.014C63.4896 15.7679 64.6096 14.5661 65.7873 14.405Z" fill="rgb(2,1,0)" fill-rule="nonzero" />
			</g>
		</g>
	</g>
</svg>
