<svg width="130" height="130" viewBox="0 0 130 130" fill="none" xmlns="http://www.w3.org/2000/svg">
<mask id="mask0_2117_1954" style="mask-type:alpha" maskUnits="userSpaceOnUse" x="0" y="0" width="130" height="130">
<circle cx="65" cy="65" r="65" fill="#D9D9D9"/>
</mask>
<g mask="url(#mask0_2117_1954)">
<rect width="130" height="130" fill="#D76225"/>
</g>
<mask id="mask1_2117_1954" style="mask-type:alpha" maskUnits="userSpaceOnUse" x="25" y="17" width="79" height="95">
<rect x="25.1182" y="17.958" width="78.3622" height="93.5993" fill="#D9D9D9"/>
</mask>
<g mask="url(#mask1_2117_1954)">
<path fill-rule="evenodd" clip-rule="evenodd" d="M97.6424 100.27C96.6092 99.8103 95.3699 99.7072 94.0276 99.7595C93.2527 100.219 91.8581 100.679 91.8581 101.142C91.8581 103.139 91.9089 105.339 92.6838 107.03C93.0974 107.799 95.3699 108.105 96.6092 107.747C98.262 107.337 99.8119 106.211 100.122 104.008C100.381 101.91 99.1922 100.835 97.6424 100.27ZM92.1164 99.2472C92.0119 98.7857 92.0119 98.1211 91.7028 97.8643C89.9977 96.3275 88.2926 94.7922 86.4337 93.4107C86.0201 93.0508 85.0899 93.4615 84.4195 93.563C84.1612 93.6138 84.0059 93.7677 83.7476 93.8707C83.9537 93.9215 84.212 93.9215 84.3672 94.0753C85.814 95.2014 87.2086 96.3783 88.8615 97.7627C89.3258 98.2735 89.7394 98.9903 90.3591 99.298C90.8249 99.5026 91.5475 99.2472 92.1164 99.2472ZM90.2038 106.313C89.6872 105.033 89.1198 103.752 88.3971 102.729C88.1896 103.701 87.8282 104.725 88.0343 105.647C88.0866 106.159 89.0675 106.519 89.7394 106.876C89.7916 106.927 90.256 106.414 90.2038 106.313ZM87.3116 99.1442C86.6398 97.9151 84.9869 97.352 83.6954 96.5336C83.231 96.2767 82.5591 96.2259 81.5781 96.0721C80.5449 96.789 79.0473 97.3012 78.6337 98.3243C77.9619 99.9626 79.9761 103.548 81.9917 104.215C82.9727 104.622 84.7808 104.316 85.5035 103.548C86.589 102.473 88.2926 100.936 87.3116 99.1442ZM81.6289 93.4107C83.1788 92.5385 84.9869 91.054 85.5035 89.4664C87.0011 85.3191 84.8839 81.4793 80.648 79.2765C77.6005 79.6349 75.5341 81.5301 73.8812 83.9869C72.1761 86.2913 72.7958 88.6973 74.2948 90.8494C76.206 93.4615 79.2534 94.6891 81.6289 93.4107ZM76.206 96.5844C75.7402 95.7137 75.4311 94.7414 74.9144 93.9723C73.6752 92.3339 72.3314 90.9002 70.9891 89.3634C70.8338 89.1588 70.2142 88.9034 70.1097 89.005C69.3348 90.0817 68.5091 91.2078 67.7864 92.8462C67.9402 96.2767 69.5931 97.6582 73.6229 97.5058C74.4486 97.455 75.328 96.8905 76.206 96.5844ZM69.9036 86.139C71.1429 82.7084 68.5091 78.355 65.3572 78.8164C64.4284 78.9688 63.5505 79.6349 62.6203 79.9933C58.5904 81.4793 57.92 84.4992 61.2257 87.9297C62.3097 88.2881 63.446 88.9034 64.6867 89.108C67.4758 89.6203 68.9734 88.6973 69.9036 86.139ZM60.0895 77.7411C60.5016 77.3827 61.0182 76.4612 60.9674 76.4104C60.1403 75.6936 59.2101 74.9752 58.2813 74.3614C58.1783 74.566 57.92 74.7706 57.92 75.0275C57.8678 76.4104 57.92 77.8427 57.7125 79.2765C57.6617 79.4303 57.6617 79.5841 57.6617 79.7379C57.7647 79.5841 57.8155 79.4303 58.1783 79.2765C58.798 78.7657 59.5206 78.355 60.0895 77.7411ZM59.985 72.8246C60.9674 73.4399 62.0514 73.8999 63.1877 74.3092C65.926 75.3337 68.1985 74.566 70.0589 72.1078C71.4534 70.3156 71.4534 67.6542 69.9036 64.9913C65.8738 61.6101 62.7756 62.8901 59.3654 67.0897C57.6095 69.2403 58.023 71.5955 59.985 72.8246ZM65.5124 59.5626C67.5281 59.6134 70.5755 57.515 70.9891 55.8244C71.7118 52.9584 68.4568 48.7079 65.5124 48.6572C64.9958 48.6572 64.3254 48.8095 64.0148 49.168C62.8263 50.4987 61.7931 51.9324 60.7599 53.8784C60.5538 54.4414 60.1403 55.1075 60.2955 55.569C60.8644 57.6688 62.8786 59.4102 65.5124 59.5626ZM61.6393 48.4003C60.7091 48.1434 59.7789 47.8373 58.798 47.6834C58.1783 47.5804 57.4542 47.6834 56.2657 47.6834C55.7505 47.7342 55.2339 47.785 54.7173 47.8373C54.9756 48.1942 55.2339 48.5527 55.543 48.9111C55.8536 49.3218 56.1119 49.9879 56.524 50.1417C57.3512 50.5495 58.4874 51.1647 59.2101 50.8571C60.1925 50.3971 60.8121 49.2188 61.6393 48.4003ZM82.4038 52.0862C82.5591 52.1893 82.9727 51.9324 83.231 51.8816C82.5083 51.2678 81.7334 50.6032 80.9585 50.0387C80.751 49.834 80.4419 49.7818 79.7178 49.6802C79.4595 49.7818 79.2534 49.9371 78.9951 50.0387C80.1313 50.7555 81.2676 51.4216 82.4038 52.0862ZM66.8562 45.9435C67.1145 46.1975 67.4236 46.6589 67.7341 46.6589C69.9559 46.6589 70.8846 48.5019 71.9178 50.0387C72.5897 51.0124 72.7958 52.3939 73.1586 53.5708C73.9335 52.3431 74.6039 51.0632 75.328 49.834C75.4311 49.6802 75.5341 49.6294 75.6371 49.4756C77.3422 46.9666 79.8222 46.1975 82.5083 48.1942C83.0757 48.6064 83.5923 49.0141 84.4195 49.6802C84.7808 49.6294 85.1422 49.5264 85.5557 49.4756C85.1944 48.2465 85.0899 46.762 84.4195 45.839C82.0947 42.87 76.1029 43.5868 73.829 46.9143C73.5199 47.3758 72.951 47.6834 72.5375 48.0419C72.6927 47.4774 72.745 46.9143 72.9002 46.3527C73.0541 45.9435 73.4169 45.5836 73.6229 45.1729C73.9843 44.6114 74.3978 44.0483 74.7592 43.433C74.0365 43.5346 73.3646 43.4838 72.6927 43.7407C71.0399 44.3545 69.4393 45.0206 67.8372 45.7374C67.5281 45.839 67.1653 45.8898 66.8562 45.9435ZM84.0059 55.2614C82.5083 52.8031 77.2392 52.3431 75.0175 54.5953C73.2616 58.5888 74.8622 61.3039 79.2534 62.5331C80.9062 63.0453 82.6114 62.9423 83.0757 61.6624C83.7476 59.6656 85.5035 57.6166 84.0059 55.2614ZM76.309 64.4268H76.9286C76.7226 64.1888 76.4817 63.9494 76.206 63.71C76.0507 62.7885 75.4311 62.0208 74.3978 61.867C73.4676 60.9978 72.5375 60.024 71.8148 58.9995C71.2459 58.2304 71.1429 57.9765 70.5233 58.7441C70.368 59.1026 70.0066 59.358 69.6976 59.5626C69.2317 59.7164 68.7151 59.8702 68.2508 60.0748C68.6121 60.5856 68.9226 61.3039 69.4393 61.4578C70.6263 61.8162 71.4012 62.4823 71.9701 63.3007C71.4534 64.5806 71.9178 66.2698 73.3124 66.6805C73.3472 66.7472 73.382 66.8169 73.4169 66.8851C73.5707 67.5497 73.9335 68.165 74.1903 68.8311C74.6039 68.0126 75.2758 67.2943 75.4311 66.3743V66.322C75.9477 65.8606 76.2568 65.1437 76.309 64.4268ZM68.8704 75.8459C68.3538 75.7952 67.8372 75.9475 67.3728 75.9475C67.7341 76.2552 68.1477 76.5628 68.5091 76.8705C69.5423 77.7411 70.5233 78.7657 71.6087 79.5841C72.2791 80.0456 73.1063 80.1979 73.8812 80.5056C74.1903 78.9688 76.412 78.458 75.4818 76.2552C74.9144 74.8214 74.7069 73.1831 74.0873 71.3909C73.9335 70.7263 73.7782 70.0602 73.5707 69.3941C73.0541 70.1618 72.4344 70.8786 71.9701 71.6985C71.867 71.8524 71.9178 72.3124 71.9701 72.62C72.0731 75.3859 72.3836 76.052 68.8704 75.8459ZM78.789 66.4251C76.9809 67.8066 76.1029 69.7526 76.7226 71.9032C77.3422 74.2076 79.1503 75.2814 81.3198 75.8459C83.1788 76.306 85.3482 75.0783 86.0201 73.0307C87.1564 69.5479 86.8473 67.8066 84.4195 66.9881C82.7666 66.4251 80.9585 66.5774 78.789 66.4251ZM87.4669 79.0211C88.3449 81.1717 90.1007 81.5301 92.1164 81.7347C94.8025 82.0424 96.4553 80.864 96.7644 77.8935C97.075 75.4367 94.8025 75.7952 93.614 75.3859C90.5143 74.4122 87.9313 75.8967 87.4669 79.0211ZM89.1706 93.5123C90.7204 94.7922 92.5808 95.7659 94.5442 96.4828C95.4221 96.789 96.0418 96.4305 96.4031 95.8675C97.0227 95.6106 97.5916 95.0998 97.9529 94.4337C98.1242 94.0579 98.262 93.682 98.3665 93.3062C98.4347 93.103 98.5044 92.897 98.5726 92.6924C98.8831 91.6678 98.6248 90.5925 97.9529 89.8249C97.6424 89.5172 97.3333 89.3126 97.0228 89.2111C96.2478 88.5958 95.2669 88.2881 94.2336 88.2373C93.0974 88.1865 91.5475 88.2881 90.5666 89.0572C90.2038 89.3126 89.9455 89.6203 89.7394 89.9787C89.5333 90.0469 89.3099 90.0977 89.0675 90.1325C89.0675 91.2586 88.6032 93.0508 89.1706 93.5123ZM56.524 63.3007C55.9566 60.0748 53.9424 57.6688 51.7207 58.1288C50.9458 58.2304 50.3261 59.2041 49.5512 59.5118C47.2265 60.4333 46.1932 62.1746 46.1932 65.1945C48.2074 68.165 50.8935 68.3711 54.0962 67.4989C56.3179 66.8343 56.9898 65.6574 56.524 63.3007ZM52.5478 71.3909C50.8427 70.7771 44.3851 73.6431 44.3343 75.4367C44.2821 75.6936 44.3343 75.9475 44.2821 76.1536C43.973 78.918 45.2123 81.0178 47.1742 82.5024C49.2929 84.0391 51.3593 82.81 53.4766 81.2732C54.2007 80.1979 55.0787 79.3273 55.543 78.2012C56.524 75.6413 54.8711 72.2108 52.5478 71.3909ZM45.4706 70.2648C45.8319 69.5987 45.3153 68.165 44.8509 67.3465C43.5594 65.0421 40.6658 65.4513 39.1682 68.6787V68.8819C38.4455 70.1618 38.8577 72.1586 40.3567 72.62C40.718 72.977 41.2347 73.2339 41.9065 73.2339C42.2853 73.2339 42.6292 73.1497 42.9398 72.977C43.8685 72.62 44.9017 71.2879 45.4706 70.2648ZM39.4265 37.3396C38.8577 39.0302 39.0652 40.4117 40.9241 40.7194C41.3899 40.7701 42.3187 40.1563 42.3709 39.7456C42.6292 37.8011 41.5438 37.1858 39.4265 37.3396ZM102.808 104.265C102.602 105.545 101.775 106.774 101 107.85C98.8831 110.766 94.6472 111.536 91.7536 109.743C90.153 108.77 88.6554 107.694 87.0011 106.979C86.4337 106.722 85.5035 107.184 84.7808 107.388C81.3706 108.719 76.5151 106.159 76.2568 101.653C76.1029 99.298 75.2758 99.6564 73.9843 100.169C73.9161 100.134 73.8638 100.1 73.829 100.066C72.4867 99.5548 70.9891 99.2472 69.5931 98.7857C68.9226 98.3751 68.406 97.9659 68.0447 97.6582C67.2175 96.8905 66.5979 95.9691 65.9783 95.0998C65.9783 94.8938 65.926 94.6891 65.823 94.4845C65.3064 93.4107 65.8738 91.514 63.446 91.514C58.6427 91.4632 55.2339 86.3944 56.8345 81.5809C56.9898 81.2225 56.7823 80.7116 56.7315 80.2487C56.4732 80.658 56.1627 81.0178 56.0596 81.4271C55.1817 85.0637 52.7539 86.599 49.1899 85.6775C45.16 84.6022 43.1458 81.6317 41.9573 77.6381C41.6482 76.8182 41.0271 76.052 40.4597 75.3337C39.2712 73.6431 37.6184 72.2108 36.9465 70.3678C35.9655 67.6019 37.8259 65.0421 41.1824 63.9654C42.7845 63.5053 43.7655 62.8901 44.4373 60.8933C45.7289 56.8489 50.998 54.1861 54.9234 55.1075C57.0928 55.5182 57.0928 57.7196 57.8678 59.2041C58.3844 60.1779 58.4874 61.407 58.8487 62.4823C59.004 62.8393 59.5729 63.353 59.6759 63.3007C60.3652 62.7551 61.0182 62.1572 61.6393 61.5086C61.6901 61.407 61.3288 60.7917 61.0705 60.5348C59.4684 59.3072 57.5572 58.3349 57.7125 55.672C57.7647 55.2106 56.8868 54.1353 56.5762 54.1353C54.8203 54.3907 54.562 53.3168 54.1485 51.9847C53.2183 49.271 51.101 48.5019 48.5702 48.4003C48.518 48.4003 48.4657 48.5527 48.415 48.5527C47.537 48.0927 46.6591 47.5804 45.7289 47.1712C46.6068 46.8127 47.4325 46.4543 48.3119 46.1975C48.8793 46.0959 49.5512 46.1975 50.2739 46.3019C50.5844 46.4543 50.7397 46.4543 50.8427 46.5051C50.7049 46.4035 50.567 46.3019 50.4292 46.1975C49.2929 44.3037 48.2074 42.3577 47.1234 40.4625C46.8651 40.2071 46.5038 39.9517 46.1932 39.6948C45.6418 39.2508 45.0918 38.8082 44.5404 38.3641C44.4373 39.0302 44.2821 39.6441 44.3343 40.2593C44.4881 42.2561 43.1458 42.973 41.7513 43.1762C39.5295 43.5868 37.8767 42.4607 37.1018 40.3101C36.4299 38.4149 36.5852 36.675 38.6516 35.5474C39.9431 34.8814 40.1492 33.9613 39.116 32.4246C36.4821 28.7372 33.59 25.6651 29.1466 24.436C28.3716 24.2314 27.5459 23.6683 26.9263 23.1053C26.2544 22.593 25.7378 21.8761 25.1182 21.2623C26.0469 21.2101 27.0293 20.8008 27.855 21.107C32.0402 22.593 35.7072 24.9482 38.7038 28.5326C41.493 31.8093 43.3519 35.9059 47.1742 38.1073C47.6908 38.4149 48.2074 38.5702 48.7763 38.8242C48.6733 38.2089 48.6733 37.6473 48.518 37.135C47.1742 33.5507 46.9682 29.9663 49.1376 26.6374C49.8095 25.4605 50.6875 24.999 51.5654 26.4328C52.2373 27.5603 53.0122 28.5848 53.7349 29.7109C54.3545 30.734 54.7173 30.1709 54.8711 29.4033C55.1817 28.1219 55.2339 26.7912 55.5953 25.5113C55.8013 24.6406 56.2149 23.7191 56.7315 23.053C59.1593 20.1348 60.4508 20.2378 62.0006 23.7699C62.9816 25.8712 63.5505 24.6406 64.3762 23.8744C65.9783 22.2854 67.6311 20.6978 69.3348 19.161C70.6263 17.9842 71.6087 18.8026 71.867 20.187C72.2284 22.49 72.3836 24.7944 72.3836 27.0988C72.3836 27.5603 71.2982 28.0203 70.7308 28.4295C70.4725 27.9695 70.1619 27.4573 70.1097 26.945C69.9036 25.4097 69.8514 23.8207 69.5931 22.2346C69.387 21.0562 69.0765 20.6978 68.1985 21.9269C66.9592 23.5667 65.5647 25.0498 64.1701 26.5358C62.6711 28.1727 61.7931 28.0203 60.7599 26.1759C60.1403 25.2051 59.6237 24.0775 59.0563 23.0022C58.3844 24.1791 57.4542 25.3575 57.1451 26.6374C56.5762 28.6864 56.3702 30.8892 56.0074 33.0892C55.9044 33.6537 55.646 34.2167 55.3877 34.7798C55.0264 34.4214 54.6128 34.1137 54.2515 33.7045C53.1675 32.2707 52.082 30.734 50.8935 29.2494C50.7397 28.994 50.2739 28.891 49.9648 28.6864C49.7573 29.0448 49.4482 29.4033 49.499 29.6587C49.9125 34.5752 50.2231 39.541 53.063 43.6391C53.7871 44.7129 55.543 45.4298 56.8868 45.6359C59.0563 45.9435 61.381 46.0959 63.4982 45.6359C66.0813 44.9698 68.4568 43.6391 70.9368 42.5623C70.9368 42.5115 70.8846 41.8455 70.7308 41.7439C70.1619 41.2302 69.387 40.8717 68.9734 40.3101C68.3538 39.3886 67.8372 38.3641 67.3206 37.3904C68.1985 36.8782 69.0257 36.1613 70.0066 35.9059C71.7118 35.3936 73.5199 35.2413 75.2235 34.8306C75.7924 34.6782 76.1537 34.0121 76.6196 33.6537C76.1029 33.3968 75.6371 33.0892 75.0697 32.886C73.6229 32.3215 72.1761 31.9123 70.7816 31.3493C70.4725 31.2462 70.3172 30.94 70.1097 30.734C70.368 30.6324 70.6263 30.4263 70.8846 30.4263C72.5897 30.5816 74.3456 30.8892 76.0507 30.8892C77.4453 30.8892 78.789 30.4263 80.0805 30.4771C80.8032 30.5294 81.4751 31.194 82.1978 31.5539C81.6812 31.8601 81.0093 32.0661 80.5957 32.4754C79.5117 33.4476 78.5307 34.4721 77.6005 35.4967C76.1537 37.0334 74.9144 38.8242 72.3836 37.8519C71.5565 37.5965 70.5755 37.9549 69.6453 38.0057C70.3172 38.5702 70.8846 39.1318 71.5565 39.5933C72.951 40.4625 74.3978 41.4362 75.9477 42.1531C76.4643 42.41 77.393 42.3577 77.9619 42.0501C81.1123 40.3101 83.8506 42.2561 86.6398 43.2806C87.9313 43.7407 88.7062 46.9666 87.3639 49.0664C86.0201 51.1647 86.3815 52.9061 87.0011 55.0059C87.776 57.3612 88.0343 59.8702 85.9693 61.8162C85.5557 62.1746 84.9869 62.2762 84.5733 62.4823C84.2642 62.6361 84.0059 62.7885 83.6954 62.9423C84.0059 63.1977 84.2642 63.5561 84.5733 63.6592C88.6032 65.7082 90.05 67.9604 89.1706 72.3646C88.9645 73.6953 89.3781 73.3383 89.9977 73.3383C92.1672 73.3383 94.4397 73.0815 96.6092 73.4399C98.9339 73.8999 99.9163 77.6904 98.7278 80.4548C97.0228 84.3976 94.4397 85.6775 90.2038 83.9869C89.6364 83.7315 89.0675 83.5777 88.5001 83.3745C88.4479 84.4992 88.2418 85.6253 88.5001 86.7528C88.5509 87.0082 89.7394 87.1112 90.4621 87.1112C92.4777 87.162 94.5442 86.7006 96.4553 87.1112C100.587 88.1357 101.517 91.157 99.1414 94.843C98.7278 95.4075 98.159 95.9183 97.6424 96.4305C97.4363 96.5336 97.1258 96.5844 96.8167 96.7382C97.1258 96.8398 97.5394 96.8905 97.7977 97.0444C101.206 99.0934 103.48 100.629 102.808 104.265Z" fill="white"/>
<path d="M64.0153 32.3738C64.1706 32.7816 64.5319 33.2445 64.4289 33.5507C64.0675 34.626 63.6017 35.6505 62.9821 36.572C61.9489 38.2089 60.8126 39.7456 59.5733 41.1794C58.8492 41.9993 58.0235 42.7161 57.1455 43.2284C56.6289 43.5868 55.854 43.5346 55.2344 43.6391C55.4927 43.1762 55.854 42.6146 55.9048 42.1009C56.0093 40.4117 55.9571 38.621 56.0601 36.8782C56.0601 36.3673 56.2676 35.8536 56.3184 35.3428C56.732 35.7521 57.0933 36.1613 57.4546 36.8274C57.5577 37.6473 57.7129 38.2089 57.7652 38.8242C58.2818 38.4657 58.9014 38.1581 59.315 37.7488C60.6065 36.2135 61.7936 34.5752 63.0851 32.9876C63.3434 32.68 63.7047 32.5784 64.0153 32.3738Z" fill="white"/>
</g>
</svg>
