<svg viewBox="0 0 216.57 241.97" xmlns="http://www.w3.org/2000/svg" xmlns:xlink="http://www.w3.org/1999/xlink" width="216.570312" height="241.969971" fill="none" customFrame="#000000">
	<defs>
		<filter id="pixso_custom_mask_type_outline">
			<feColorMatrix type="matrix" values="0 0 0 0 1 0 0 0 0 1 0 0 0 0 1 0 0 0 1 0 " />
		</filter>
	</defs>
	<mask id="mask_0" width="216.570007" height="241.970001" x="0.000000" y="0.000000" maskUnits="userSpaceOnUse">
		<g filter="url(#pixso_custom_mask_type_outline)">
			<g>
				<rect id="Rectangle 158" width="216.570007" height="241.970001" x="0.000000" y="0.000000" fill="rgb(255,255,255)" />
			</g>
		</g>
	</mask>
	<g id="Group 324">
		<g id="Group 323" mask="url(#mask_0)">
			<g style="mix-blend-mode:normal">
				<path id="Path 1975" d="M78.4282 13.253L78.4412 13.496C78.4532 13.639 78.4662 13.784 78.4782 13.93C78.5072 14.246 78.5362 14.568 78.5672 14.9C79.0992 14.803 79.6532 14.698 80.2192 14.594C80.5542 14.54 80.8992 14.486 81.2532 14.43C81.9582 14.315 82.6982 14.221 83.4652 14.119C88.5202 13.474 92.6992 13.591 92.7332 13.215C92.7842 12.866 88.5202 12.149 83.2772 12.816C82.4902 12.921 81.7272 13.034 81.0032 13.173C80.6422 13.239 80.2912 13.315 79.9502 13.389L79.8202 13.417L79.6562 13.477C79.6502 13.457 79.6212 13.439 79.6082 13.376L79.5702 13.135C79.5132 12.819 79.4592 12.519 79.4092 12.233C79.3012 11.668 79.1932 11.175 79.0922 10.77C78.8902 9.95604 78.7072 9.49404 78.5582 9.50704C78.4342 9.52004 78.3682 10.01 78.3582 10.845C78.3522 11.26 78.3622 11.766 78.3832 12.338C78.3962 12.626 78.4122 12.933 78.4282 13.253Z" fill="rgb(215,98,37)" fill-rule="nonzero" />
			</g>
			<g style="mix-blend-mode:normal">
				<path id="Path 1976" d="M86.2446 7.65108C89.8546 7.43508 92.8086 7.48308 92.8526 7.07208C92.8976 6.75808 89.9016 6.11608 86.1596 6.33808C82.4136 6.54408 79.5156 7.48608 79.6076 7.82808C79.6956 8.19508 82.6316 7.84608 86.2446 7.65108Z" fill="rgb(215,98,37)" fill-rule="nonzero" />
			</g>
			<g style="mix-blend-mode:normal">
				<path id="Path 1977" d="M15.7868 162.991C15.0049 162.255 13.6989 161.02 12.2969 159.227C10.9968 157.582 9.78885 155.573 8.79485 153.422C7.69485 151.024 6.83385 148.291 6.30285 145.51C5.87285 143.181 5.63885 140.739 5.58085 138.05L8.43185 138.322C16.0458 139.233 23.3758 139.701 30.2188 139.708L30.7438 139.708C36.7919 139.708 42.6068 139.394 48.0269 138.778C50.7819 138.465 53.2119 138.101 55.2649 137.743C56.2549 137.572 57.1529 137.405 57.9599 137.243C58.6719 137.1 59.3239 136.965 59.8829 136.845C60.1169 136.788 60.3159 136.74 60.5349 136.687C61.2439 136.516 61.8889 136.357 62.4239 136.213C62.4589 136.203 62.4999 136.193 62.5349 136.183C62.5989 137.091 62.7269 137.921 62.7369 138.642C62.7429 140.964 62.5569 143.384 62.1828 145.839L62.0499 146.573C61.9678 147.041 61.8669 147.462 61.7749 147.898C61.7049 148.24 61.6488 148.606 61.5629 148.929C61.5159 149.113 61.4748 149.297 61.4328 149.477C61.3669 149.768 61.3039 150.05 61.2149 150.353L60.8539 151.591C60.4338 152.975 60.0219 154.137 59.7248 154.984C59.6939 155.073 59.6688 155.148 59.6389 155.234C59.3619 156.019 59.1359 156.671 59.1488 156.76C59.2089 156.733 59.3799 156.525 59.6138 156.171C60.0819 155.459 60.8288 154.101 61.6269 152.128C61.6579 152.046 61.6898 151.973 61.7248 151.89L62.1989 150.616C62.3059 150.319 62.3949 150.012 62.4869 149.695L62.6329 149.208C62.9019 148.373 63.0979 147.468 63.3099 146.509L63.4079 146.054C63.8729 143.567 64.1028 141.071 64.0968 138.633C64.0849 137.781 64.0368 136.88 63.9419 135.795C63.9199 135.783 63.9319 135.693 63.9289 135.668C63.7899 134.124 63.5749 132.632 63.2899 131.223L63.1799 130.755C63.1229 130.502 63.0499 130.287 62.9899 130.04C62.8288 129.366 62.6739 128.686 62.4649 128.079L62.3189 127.608C62.2209 127.288 62.1229 126.974 62.0119 126.68L61.7219 125.93L61.5189 125.412C60.7559 123.56 60.0349 122.248 59.5378 121.461C59.1968 120.91 58.9569 120.606 58.8959 120.575C58.8489 120.682 59.1149 121.397 59.4249 122.229C59.7479 123.093 60.1929 124.292 60.6549 125.724L61.0409 126.987C61.1259 127.26 61.1959 127.544 61.2659 127.835C61.3069 128.003 61.3479 128.174 61.3929 128.345C61.6019 129.085 61.7629 129.901 61.9268 130.733L62.0718 131.46C62.2659 132.625 62.3988 133.852 62.5089 135.089C62.5308 135.327 62.5749 135.545 62.5949 135.782L62.4489 135.874C61.9429 135.94 61.2999 136.028 60.5829 136.134C60.3129 136.171 60.0729 136.206 59.7749 136.25C59.2639 136.316 58.6649 136.399 58.0168 136.484C57.2199 136.589 56.3249 136.702 55.3369 136.82C53.2209 137.076 50.7189 137.345 47.9089 137.563C43.3669 137.924 38.5829 138.106 33.6889 138.106C32.5599 138.106 31.4079 138.097 30.2379 138.075C23.4708 137.97 16.2078 137.459 8.64385 136.551L6.60585 136.298C6.60585 136.259 6.57185 136.148 6.60985 136.146C9.48185 135.928 12.4328 135.747 15.3918 135.605C20.9368 135.345 26.7328 135.187 33.1138 135.114L45.0779 135.019C48.0928 134.998 49.0289 134.909 49.3109 134.848C49.0259 134.776 48.0899 134.639 45.0969 134.419C41.2309 134.159 37.2009 133.985 33.1199 133.896C30.6649 133.84 28.1658 133.811 25.6888 133.811C22.2408 133.811 18.7538 133.868 15.3249 133.975C12.0978 134.083 8.85485 134.251 5.69185 134.475C5.74185 133.194 5.73985 131.773 5.85985 130.29C5.93285 129.452 6.00185 128.68 6.06485 127.981C6.26085 125.801 6.41985 124.08 6.28985 123.94C6.07485 124.039 5.34085 126.196 4.65085 130.138C3.69885 135.583 3.66385 141.011 4.54985 145.835C5.10985 148.771 6.06885 151.64 7.32785 154.131C8.46985 156.389 9.86785 158.423 11.3708 160.02C13.0219 161.78 14.3788 162.713 15.0399 163.109C15.9009 163.634 16.3979 163.82 16.5618 163.82C16.5618 163.731 16.1948 163.374 15.7868 162.991Z" fill="rgb(215,98,37)" fill-rule="nonzero" />
			</g>
			<g style="mix-blend-mode:normal">
				<path id="Path 1978" d="M47.2418 164.374C46.6058 164.602 45.8908 164.861 45.1228 165.076C44.5338 165.275 43.9108 165.434 43.2528 165.604L42.5818 165.774C40.5608 166.24 38.5638 166.56 36.6508 166.733C35.5868 166.816 34.4828 166.86 33.3728 166.86C32.4808 166.86 31.5608 166.832 30.6398 166.778L29.9528 166.719C29.2758 166.661 28.6338 166.607 28.0258 166.513C27.2358 166.424 26.4888 166.288 25.8338 166.171C24.9098 165.997 24.0248 165.81 23.3578 165.668C22.4268 165.469 21.7528 165.326 21.4278 165.326C21.2978 165.326 21.2628 165.349 21.2598 165.349C21.2948 165.557 22.7498 166.481 25.4578 167.338C26.1188 167.54 26.9068 167.774 27.7768 167.942C28.5198 168.126 29.3238 168.237 30.1718 168.356L30.4878 168.404C31.7318 168.541 32.9898 168.609 34.2308 168.609C35.0908 168.609 35.9568 168.574 36.7988 168.508C38.8678 168.325 40.9558 167.934 43.0028 167.354L43.3128 167.253C44.1288 166.996 44.9008 166.75 45.6058 166.446C46.4318 166.14 47.1718 165.778 47.7888 165.469C50.3738 164.146 51.6228 162.991 51.5438 162.786C51.3038 162.786 50.6328 163.055 49.7028 163.425C49.0458 163.687 48.2408 164.011 47.2418 164.374Z" fill="rgb(215,98,37)" fill-rule="nonzero" />
			</g>
			<g style="mix-blend-mode:normal">
				<path id="Path 1979" d="M12.9624 151.913C11.2034 148.718 10.2704 145.684 9.6534 143.675C9.3274 142.621 9.0204 141.622 8.8434 141.622C8.7074 141.657 8.4834 142.742 8.7804 144.973C8.9194 146.035 9.2034 147.281 9.6084 148.579C10.0864 150.03 10.6874 151.438 11.3964 152.761C12.1174 154.08 12.9654 155.354 13.9184 156.548C14.7844 157.603 15.6674 158.531 16.4774 159.224C17.8244 160.392 18.9004 161.002 19.2644 161.002C19.3564 160.892 18.7544 160.068 18.1094 159.29C16.8344 157.756 14.7054 155.187 12.9624 151.913Z" fill="rgb(215,98,37)" fill-rule="nonzero" />
			</g>
			<g style="mix-blend-mode:normal">
				<path id="Path 1980" d="M30.8929 228.739C28.0579 228.65 25.5149 228.359 23.6609 228.144C22.5189 228.014 21.6209 227.91 21.1179 227.91C20.7699 227.91 20.7159 227.964 20.7129 227.964C20.7379 228.093 21.5889 228.555 23.5159 229.081C24.7619 229.419 27.3749 230.013 30.8449 230.137C31.2699 230.153 31.6869 230.159 32.0979 230.159C34.2589 230.159 36.4389 229.964 38.2329 229.615C40.2319 229.223 41.0889 228.815 41.1079 228.691C41.0859 228.666 40.9659 228.606 40.2629 228.606C39.7629 228.606 39.0769 228.635 38.2449 228.669C36.9419 228.72 35.3189 228.787 33.4839 228.787C32.6549 228.787 31.7879 228.773 30.8929 228.739Z" fill="rgb(215,98,37)" fill-rule="nonzero" />
			</g>
			<g style="mix-blend-mode:normal">
				<path id="Path 1981" d="M211.391 203.735C211.483 203.068 211.511 202.39 211.474 201.713C211.401 200.363 211.078 199.015 210.515 197.752C209.955 196.488 209.158 195.311 208.142 194.298C207.636 193.792 207.073 193.329 206.456 192.915C205.226 192.093 203.783 191.476 202.148 191.147C202.03 190.654 201.882 190.169 201.708 189.699C201.534 189.227 201.331 188.769 201.104 188.323C200.644 187.427 200.085 186.585 199.427 185.807C200.515 185.304 201.686 184.709 202.875 184.068C204.064 183.422 205.27 182.723 206.415 182.004C207.563 181.287 208.652 180.546 209.61 179.816C210.572 179.088 211.398 178.37 212.024 177.696C212.523 177.424 212.885 177.076 212.992 176.618C213.435 174.773 210.183 174.906 207.02 175.55C206.317 175.694 205.621 175.865 204.966 176.041C203.988 176.307 203.112 176.595 202.48 176.848C202.059 177.019 201.746 177.173 201.581 177.294C199.856 177.934 196.431 179.864 193.046 181.407C192.104 181.062 191.103 180.793 190.056 180.609C189.006 180.426 187.912 180.329 186.779 180.325C187.209 180.246 187.658 180.129 188.07 179.993C188.893 179.721 189.671 179.337 190.345 178.853C190.68 178.611 190.993 178.345 191.268 178.053C191.603 177.737 191.999 177.32 192.265 176.974C192.534 176.626 192.761 176.273 192.939 175.921C192.97 175.861 192.967 175.785 192.935 175.7C192.837 175.447 192.486 175.105 191.989 174.859C193.546 174.646 194.786 173.526 195.64 172.28C195.805 172.042 195.959 171.799 196.095 171.556C196.412 170.992 196.649 170.429 196.798 169.945C196.899 169.62 196.963 169.329 196.985 169.091C197.016 168.734 196.96 168.495 196.807 168.449C196.301 168.296 195.836 168.24 195.431 168.246C195.491 168.196 195.546 168.142 195.609 168.088C196.416 167.487 197.143 166.557 197.602 165.586C197.611 165.569 197.652 165.482 197.662 165.465C197.813 165.171 197.946 164.874 198.042 164.578C198.14 164.279 198.203 163.982 198.218 163.698C198.266 163.398 198.291 163.08 198.291 162.808C198.288 162.656 198.127 162.495 197.981 162.486C197.526 162.442 197.092 162.445 196.674 162.492C196.905 162.359 197.124 162.204 197.33 162.03C197.738 161.679 198.095 161.251 198.402 160.777C198.557 160.54 198.696 160.292 198.822 160.037C199.028 159.632 199.199 159.208 199.341 158.787C199.835 157.324 199.946 155.886 199.715 155.298C199.648 155.13 199.554 155.033 199.433 155.02C198.689 154.947 197.962 155 197.317 155.247C197.548 154.891 197.766 154.489 197.965 154.045C198.165 153.599 198.339 153.119 198.472 152.606C198.671 151.819 198.756 151.049 198.759 150.347C198.762 149.996 198.744 149.663 198.709 149.354C198.674 149.044 198.623 148.759 198.56 148.503C198.551 148.461 198.538 148.423 198.528 148.38C198.493 147.858 198.452 147.348 198.421 146.87C198.405 146.586 198.143 146.454 197.896 146.45C197.481 146.441 197.07 146.462 196.665 146.51C195.45 146.664 194.305 147.099 193.378 147.94C193.372 147.642 193.331 147.341 193.287 147.041C193.242 146.744 193.195 146.45 193.173 146.165C193.166 145.979 192.989 145.88 192.821 145.88C190.75 145.909 189.266 147.159 188.424 148.345C188.395 148.193 188.355 148.047 188.307 147.906C188.019 147.054 187.469 146.39 187.07 146.387C187.004 146.387 186.941 146.402 186.887 146.441C186.808 146.494 186.7 146.558 186.571 146.636C186.048 146.953 185.162 147.491 184.378 148.281C183.793 148.873 183.262 149.607 182.983 150.495C182.683 149.952 182.214 149.436 181.929 149.066C181.901 149.031 181.853 149.012 181.813 148.988C181.695 148.905 181.553 148.857 181.423 148.917C180.199 149.471 179.383 150.259 178.579 151.195C178.544 151.161 178.497 151.145 178.446 151.148C178.396 151.148 178.345 151.166 178.304 151.204C178.082 151.426 177.817 151.587 177.535 151.688C177.251 151.789 176.954 151.83 176.659 151.812C176.074 151.777 175.514 151.502 175.163 150.986C174.969 150.702 174.85 150.402 174.78 150.088C174.564 149.149 174.79 148.117 174.767 147.156C174.764 147.064 174.717 147.009 174.654 146.971C174.676 146.747 174.692 146.52 174.697 146.317C174.707 145.909 174.685 145.551 174.631 145.254C174.606 145.106 174.571 144.973 174.533 144.855C174.451 144.624 174.347 144.46 174.217 144.377C174.087 144.298 173.938 144.298 173.771 144.397C173.303 144.66 172.831 144.915 172.369 145.175C172.546 144.653 172.591 144.033 172.546 143.41C172.499 142.787 172.36 142.157 172.17 141.613C172.075 141.34 171.964 141.093 171.851 140.875C171.502 140.227 171.088 139.878 170.74 140.145C169.939 140.755 169.139 141.363 168.342 141.98C168.377 141.689 168.389 141.388 168.38 141.079C168.339 139.847 167.962 138.509 167.45 137.323C167.323 137.026 167.187 136.741 167.045 136.469C166.764 135.918 166.46 135.424 166.165 135.017C166.109 134.935 166.014 134.881 165.919 134.865C165.82 134.852 165.717 134.871 165.637 134.935C165.236 135.232 164.894 135.523 164.603 135.798C164.312 136.074 164.071 136.335 163.872 136.582C163.862 136.298 163.825 135.997 163.767 135.697C163.537 134.495 162.967 133.248 162.398 132.487C162.113 132.103 161.829 131.844 161.585 131.768C161.462 131.73 161.354 131.74 161.256 131.803C160.734 132.157 160.269 132.584 159.914 133.084C159.972 131.964 159.75 130.806 159.301 129.753C158.855 128.7 158.184 127.757 157.343 127.074C157.216 126.969 157.007 126.985 156.9 127.118C156.384 127.772 155.891 128.443 155.41 129.123C155.473 129.032 155.501 128.911 155.501 128.766C155.475 128.428 155.302 127.905 155.087 127.447C154.872 126.988 154.6 126.513 154.344 126.102C154.072 125.662 153.821 125.299 153.695 125.133C153.493 124.877 153.161 124.425 152.768 123.973C152.113 123.223 151.297 122.476 150.658 122.658C150.405 122.73 150.215 122.945 150.048 123.141C149.617 123.641 149.256 124.103 148.934 124.587C148.611 125.067 148.327 125.574 148.048 126.162C148.013 126.239 147.915 126.453 147.792 126.735C147.668 127.02 147.52 127.37 147.39 127.722C147.258 128.073 147.14 128.424 147.077 128.7C147.045 128.839 147.026 128.958 147.026 129.053C147.026 129.146 147.045 129.212 147.087 129.244C146.302 128.658 145.46 128.139 144.651 127.598C144.591 127.558 144.508 127.548 144.432 127.535C144.321 127.538 144.119 127.558 144.05 127.662C142.442 130.081 141.929 132.207 141.892 133.73C141.882 134.236 141.924 134.672 141.993 135.033C141.816 134.812 141.62 134.606 141.427 134.428C140.842 133.904 140.256 133.657 140.06 134.055C139.662 134.836 139.307 135.899 139.111 137.026C138.915 138.152 138.877 139.344 139.118 140.388C138.811 140.145 138.488 139.984 138.219 139.926C137.947 139.873 137.729 139.92 137.634 140.094C137.4 140.521 137.184 141.037 137.01 141.603C136.833 142.169 136.695 142.78 136.618 143.4C136.542 144.024 136.524 144.653 136.59 145.25C136.653 145.852 136.801 146.421 137.048 146.918C136.738 146.719 136.406 146.538 136.074 146.339C136.001 146.298 135.922 146.286 135.847 146.294C135.638 146.323 135.464 146.532 135.467 146.75C135.505 147.049 135.508 147.383 135.508 147.68C135.505 147.975 135.492 148.269 135.48 148.563C135.451 149.173 135.422 149.781 135.495 150.398C135.54 150.748 135.558 151.062 135.565 151.344C135.476 151.467 135.407 151.617 135.34 151.743C135.08 152.229 134.707 152.713 134.094 152.625C133.613 152.556 133.334 152.271 133.037 151.963C132.939 151.863 132.838 151.758 132.727 151.66C132.667 151.603 132.581 151.587 132.499 151.59C132.36 151.369 132.211 151.128 132.088 150.885C131.993 150.699 131.816 150.591 131.639 150.581C131.55 150.578 131.459 150.597 131.379 150.642C131.3 150.689 131.231 150.758 131.18 150.86C131.069 151.09 130.959 151.318 130.842 151.55C130.722 151.302 130.589 151.066 130.443 150.841C130.01 150.164 129.481 149.597 128.991 149.221C128.662 148.971 128.352 148.81 128.095 148.759C127.839 148.708 127.64 148.772 127.536 148.974C127.403 149.221 127.298 149.461 127.213 149.704C126.935 149.205 126.536 148.712 126.093 148.266C125.65 147.823 125.163 147.424 124.695 147.118C124.164 146.769 123.673 146.558 123.294 146.5C122.831 138.383 122.177 130.249 121.199 122.144C119.555 108.513 112.914 97.197 108.191 84.521C106.046 78.763 104.828 72.743 103.404 66.808C102.778 64.204 101.997 61.639 101.368 59.036C101.206 58.365 99.7148 53.546 100.482 53.069L101.149 52.755C101.649 52.022 101.013 49.592 100.827 48.738C98.7788 39.286 98.8238 16.743 99.3138 16.695C100.576 16.578 101.955 15.261 102.025 13.24C102.193 8.311 102.503 6.907 100.656 5.562L100.656 4.227C100.656 0.915004 96.7458 0.652004 97.5008 0.798004C87.7958 -1.075 79.6458 0.956004 80.4028 0.811004C76.9698 1.475 77.1728 5.129 77.2798 5.584C76.0118 6.521 75.5308 7.654 75.7328 12.461C75.8028 14.114 76.7488 14.793 77.0368 16.293C78.6528 24.705 77.6438 43.085 76.1948 49.832C75.9768 50.858 76.3498 51.917 76.8778 52.841C75.4328 64.714 72.1328 76.286 68.0358 87.579C65.2298 95.318 61.8008 102.759 59.3908 110.496C59.3578 110.443 59.3298 110.382 59.3018 110.326C59.1908 110.122 59.0008 109.975 58.7698 109.905L58.7828 109.326C54.8278 108.848 50.8328 108.481 46.8468 108.241C42.8568 108 38.8688 107.877 34.9048 107.877C33.3128 107.877 31.7448 107.899 30.2008 107.937C28.6598 107.978 27.1478 108.038 25.6768 108.118C24.7338 108.167 23.8068 108.225 22.9118 108.291C20.2158 108.481 17.7738 108.728 15.8508 109C15.1168 109.102 14.4618 109.203 13.9148 109.301C13.6418 109.345 13.3958 109.392 13.1808 109.437C12.9688 109.477 12.7858 109.519 12.6398 109.557C11.6528 109.468 10.6688 109.373 9.68581 109.275C9.64081 109.269 9.58681 109.269 9.54281 109.269C9.04581 109.269 8.58681 109.519 8.31181 109.943C7.88481 110.604 7.47081 111.303 7.06581 112.049C6.66081 112.799 6.26181 113.596 5.86981 114.454C5.52481 115.21 5.19281 115.982 4.87981 116.766C4.56581 117.551 4.26881 118.345 3.99381 119.142C3.46581 120.67 2.97481 122.287 2.53181 123.945C2.02881 125.89 1.67781 127.392 1.39981 128.82C1.07681 130.411 0.79581 132.024 0.54481 133.748C0.30181 135.466 0.13681 137.159 0.0588102 138.779C0.0138102 139.683 -0.00418985 140.576 0.000810152 141.452C0.0138102 143.121 0.12781 144.738 0.32081 146.301C0.34881 146.517 0.38081 146.731 0.41281 146.947C0.51081 147.623 0.61181 148.297 0.74481 148.954C0.92181 149.837 1.13381 150.708 1.37781 151.555C2.10781 154.096 3.12981 156.459 4.43381 158.61C4.87981 159.35 5.36681 160.072 5.88581 160.774C6.40481 161.474 6.96081 162.15 7.54281 162.798C8.07481 163.397 8.65381 163.979 9.28881 164.558C9.92781 165.137 10.6248 165.712 11.3898 166.295C12.7378 167.316 14.1998 168.246 15.7368 169.06L16.1608 169.287L16.3758 169.395L16.9358 169.651C17.2048 169.775 17.4768 169.888 17.7488 170.002L20.3238 171.093C20.8578 171.315 21.3938 171.542 21.9278 171.771C22.8828 172.178 23.8698 172.6 24.8568 172.982L26.0588 173.454C27.0208 173.833 27.9788 174.209 28.9478 174.57C29.1318 176.503 29.3558 178.537 29.5208 180.534C29.6818 182.531 29.8328 184.551 29.9758 186.581C30.2988 191.372 30.5068 195.361 30.6238 199.132C30.6528 200.132 30.6778 201.151 30.6968 202.181C30.7158 203.213 30.7288 204.257 30.7288 205.308C30.7258 207.408 30.6778 209.534 30.5418 211.644C30.4668 212.685 30.3868 213.704 30.2378 214.709C30.1978 215.07 30.1348 215.412 30.0708 215.756L29.9888 216.211L29.8148 216.926L29.6148 217.692C29.3468 218.699 29.0678 219.698 28.7668 220.695C28.7198 220.849 28.6658 221.027 28.6098 221.216C28.4888 221.596 28.3458 222.033 28.1818 222.488C28.0998 222.713 28.0108 222.944 27.9198 223.175L12.5288 226.079C12.1938 226.139 11.8358 226.202 11.4948 226.3C11.1528 226.399 10.8268 226.529 10.5548 226.724C10.1368 227.025 9.86881 227.556 9.74881 228.122C9.68781 228.404 9.66281 228.698 9.67881 228.97C9.69081 229.246 9.74181 229.504 9.82981 229.72C10.0488 230.251 10.4568 230.619 10.9318 230.907C11.0898 231.004 11.2568 231.093 11.4218 231.172C11.6458 231.28 11.8748 231.378 12.0918 231.476L12.2128 231.533C12.4908 231.533 12.8708 231.742 13.2088 231.925C13.3488 232.003 13.4748 232.074 13.5788 232.118L15.0348 232.75C15.8758 233.115 16.7718 233.494 17.7018 233.769C19.1438 234.203 20.6748 234.56 22.3768 234.861C25.7048 235.453 29.2948 235.749 33.0568 235.749C33.3158 235.749 33.5788 235.749 33.8388 235.746C38.5588 235.696 43.3198 235.193 47.4358 234.329C48.1218 234.187 48.7898 234.032 49.4378 233.87C50.0828 233.706 50.7098 233.532 51.3108 233.351C52.1998 233.082 53.0728 232.757 53.9298 232.428C54.0658 232.377 54.2048 232.327 54.3378 232.276C54.9418 232.045 55.5458 231.814 56.1538 231.599C56.3688 231.524 56.6278 231.422 56.8848 231.283C57.1408 231.144 57.3908 230.963 57.5838 230.736C57.8178 230.456 57.8908 229.992 57.8658 229.483C57.8498 229.142 57.7858 228.771 57.6948 228.429C57.5618 227.919 57.3658 227.461 57.1688 227.196C56.9508 226.895 56.5718 226.638 56.1418 226.436C55.7078 226.23 55.2238 226.082 54.7908 225.999L45.9488 224.294L39.9908 223.121C39.9438 223.029 39.9058 222.934 39.8588 222.839C39.7608 222.644 39.6588 222.448 39.5778 222.247C39.4128 221.865 39.2958 221.527 39.1758 221.185C39.1308 221.055 39.0648 220.91 39.0238 220.784C38.7008 219.85 38.4448 218.878 38.1978 217.939L38.1538 217.771C38.0268 217.3 37.9158 216.835 37.8018 216.354L37.7768 216.246L37.6978 215.794C37.6378 215.453 37.5778 215.115 37.5368 214.756C37.3908 213.744 37.3158 212.713 37.2458 211.662C37.1218 209.546 37.0818 207.417 37.0898 205.313C37.0938 204.26 37.1098 203.216 37.1348 202.181C37.1568 201.151 37.1878 200.128 37.2228 199.125C37.2898 197.246 37.3788 195.311 37.4948 193.242C37.6128 191.172 37.7548 188.974 37.9288 186.573C38.0838 184.517 38.2798 182.429 38.4698 180.41L38.4788 180.305C38.6628 178.392 38.8588 176.478 39.1088 174.513L41.7978 173.194L45.0118 171.682C45.7298 171.337 46.4578 171.008 47.1848 170.679L51.5288 168.708C51.7438 168.594 51.9558 168.487 52.1708 168.382C52.4178 168.259 52.6748 168.117 52.9268 167.981C53.0598 167.908 53.1898 167.848 53.3258 167.769C53.5218 167.658 53.7118 167.541 53.9078 167.43C53.6958 179.603 53.8228 191.621 54.0658 203.257C54.0888 204.317 54.0718 205.376 54.0538 206.496C53.9998 209.948 53.9458 213.516 55.0938 216.914C58.1218 225.858 68.5578 227.591 78.5288 227.591L83.8248 227.591C84.0438 228.515 84.4448 229.407 85.0368 230.213C85.4678 230.798 85.9918 231.343 86.6028 231.828C88.7478 233.526 91.9778 234.495 96.0588 233.975C96.8868 233.87 97.7228 233.725 98.5578 233.536C101.057 232.962 103.525 232 105.701 230.624C105.929 232.611 106.707 234.478 108.055 235.955C108.592 236.544 109.222 237.072 109.943 237.518C110.301 237.743 110.687 237.945 111.092 238.125C112.183 238.616 113.325 238.922 114.483 239.072C115.638 239.22 116.812 239.207 117.966 239.055C118.735 238.954 119.497 238.789 120.241 238.565C120.984 238.343 121.706 238.066 122.401 237.736C123.445 237.24 124.423 236.629 125.302 235.92C126.178 235.211 126.96 234.409 127.602 233.526C127.536 234.981 127.811 236.275 128.352 237.388C128.532 237.759 128.744 238.11 128.981 238.439C129.456 239.097 130.038 239.672 130.709 240.154C131.379 240.638 132.136 241.03 132.955 241.324C134.05 241.719 135.261 241.938 136.533 241.966C138.444 242.014 140.5 241.634 142.525 240.777C145.223 239.637 147.871 237.645 150.054 234.684C150.601 233.944 151.12 233.14 151.601 232.276C151.87 233.061 152.316 233.832 152.977 234.557C153.609 235.263 154.366 235.819 155.214 236.24C155.529 236.398 155.859 236.535 156.201 236.655C157.225 237.009 158.345 237.193 159.522 237.214C160.569 237.237 161.658 237.126 162.758 236.895C163.86 236.667 164.97 236.313 166.064 235.847C167.159 235.382 168.235 234.8 169.257 234.111C170.794 233.077 172.217 231.801 173.423 230.302C174.226 229.305 174.935 228.208 175.514 227.022C176.444 228.784 178.529 229.932 180.645 230.413C181.493 230.603 182.344 230.688 183.129 230.662C183.521 230.65 183.897 230.609 184.248 230.539C184.83 230.425 185.387 230.264 185.925 230.058C186.997 229.647 187.972 229.065 188.845 228.351C190.158 227.278 191.243 225.914 192.084 224.414C192.645 223.412 193.097 222.349 193.435 221.264C194.321 218.435 194.713 215.076 194.258 211.928C193.983 210.037 193.403 208.224 192.442 206.642C191.537 205.159 190.247 203.941 188.702 203.253C187.545 202.736 186.241 202.52 184.85 202.71C184.387 202.777 183.913 202.884 183.432 203.042C183.78 200.815 183.707 198.6 183.109 196.576C182.812 195.563 182.382 194.599 181.813 193.703C181.243 192.805 180.528 191.976 179.661 191.236C180.914 191.206 183.748 190.796 187.152 189.998C189.421 189.464 191.938 188.759 194.406 187.879C194.817 187.734 195.229 187.582 195.637 187.423C196.561 188.173 197.352 189.021 197.978 189.932C198.186 190.236 198.377 190.543 198.548 190.86C197.889 190.878 197.257 190.933 196.653 191.017C195.444 191.192 194.346 191.498 193.362 191.907C191.891 192.52 190.68 193.359 189.749 194.314C189.127 194.953 188.63 195.639 188.266 196.348C186.798 199.186 187.409 202.33 190.439 203.709C195.906 206.203 202.192 200.743 202.467 194.222C203.422 194.589 204.318 195.077 205.131 195.662C206.756 196.829 208.047 198.401 208.797 200.23C209.174 201.147 209.414 202.128 209.493 203.156C207.968 202.821 206.409 202.754 205.017 203.016C204.09 203.191 203.239 203.51 202.524 203.997C201.449 204.725 200.683 205.823 200.427 207.351C200.063 209.501 201.044 210.891 202.552 211.407C203.055 211.578 203.618 211.653 204.21 211.624C204.801 211.599 205.422 211.47 206.039 211.236C206.965 210.887 207.889 210.299 208.711 209.458C209.259 208.898 209.759 208.227 210.183 207.439C210.395 207.044 210.588 206.62 210.759 206.167C211.619 206.712 212.366 207.389 212.983 208.148C213.805 209.16 214.39 210.322 214.691 211.527C214.84 212.127 214.918 212.742 214.921 213.352C214.921 213.962 214.846 214.574 214.684 215.164C214.501 215.845 214.197 216.494 213.786 217.111C213.296 217.844 212.654 218.521 211.818 219.107C211.366 219.211 211.011 219.166 210.727 218.996C210.585 218.91 210.455 218.803 210.354 218.648C210.053 218.186 209.946 217.414 210.022 216.332C210.148 216.221 210.135 216.057 210.059 215.949C210.019 215.896 209.964 215.854 209.901 215.841C209.854 215.845 209.746 215.854 209.699 215.896C209.069 216.405 208.801 217.094 208.857 217.749C208.877 217.97 208.933 218.183 209.025 218.385C209.098 218.549 209.196 218.704 209.313 218.847C209.547 219.132 209.876 219.372 210.284 219.531C216.111 221.78 220.385 207.499 211.391 203.735ZM205.893 176.708C207.304 176.427 208.731 176.266 210.164 176.234C211.211 176.219 211.983 176.136 210.67 176.831C209.724 177.332 204.277 178.376 202.676 177.604C203.751 177.351 204.805 176.924 205.893 176.708ZM194.846 182.192C197.329 181.044 200.005 179.898 202.1 178.12C202.395 178.591 202.916 178.841 203.603 178.949C204.931 179.161 206.867 178.841 208.993 178.531C206.592 180.337 204.005 182.381 198.583 184.884C198.354 184.659 198.123 184.444 197.88 184.235C200.003 182.992 201.373 181.761 201.205 181.527C201.049 181.312 199.265 182.274 196.931 183.482C196.283 183.004 195.592 182.572 194.846 182.192ZM123.347 147.474C124.318 147.721 125.03 148.395 125.581 149.234C126.17 150.126 126.416 151.179 127.381 151.764C127.529 151.593 128.184 149.837 128.14 149.806C131.029 151.707 130.038 155.029 131.636 152.091C132.654 153.818 133.645 154.472 134.284 154.605C134.919 154.962 135.935 154.697 136.422 154.014C137.184 152.954 136.929 151.792 136.431 147.564C140.162 149.737 137.377 146.184 137.44 143.798C137.545 140.192 138.326 140.252 140.085 142.381C141.375 143.654 138.668 139.145 140.579 134.792C140.993 135.083 141.37 135.466 141.695 135.856C144.214 138.829 141.335 133.678 144.511 128.526C144.609 128.379 146.956 130.984 147.058 131.018C147.748 131.277 148.229 128.693 148.336 128.329C148.877 126.45 149.573 125.233 150.823 123.733C151.183 123.296 153.549 126.453 153.702 126.82C154.201 127.978 154.546 129.31 154.552 130.579C154.568 132.757 156.833 128.522 157.149 127.95C158.453 130.196 158.833 132.034 158.886 134.704C158.893 135.054 159.452 135.137 159.573 134.815C159.595 134.754 159.61 134.688 159.633 134.627C160.164 133.877 160.68 133.21 161.42 132.698C163.666 135.441 162.708 137.79 162.499 139.354C162.486 139.446 162.496 139.528 162.553 139.601C163.252 139.57 164.274 137.409 164.843 136.868C166.393 135.396 167.01 138.614 167.187 139.613C167.365 140.585 167.184 143.546 167.652 143.874C167.494 143.76 168.915 142.464 169.038 142.36C169.589 141.871 170.215 141.546 170.857 141.179C171.195 140.99 171.391 143.891 171.366 144.124C171.287 145.146 171.104 146.159 171.322 147.18C171.414 146.782 173.091 145.745 173.429 145.571C173.799 146.311 173.786 147.057 173.67 147.839C173.303 148.547 173.16 149.386 173.243 150.186C173.188 150.669 173.188 151.166 173.318 151.657C173.815 153.624 176.026 154.96 177.734 153.552C179.282 152.274 180.344 149.74 181.506 149.97C182.521 150.169 182.812 152.407 182.97 152.236C183.201 151.998 183.287 151.726 183.287 151.452C184.09 149.917 185.15 147.902 186.921 147.32C187.364 148.183 187.479 148.968 187.649 149.904C187.554 150.316 187.64 150.521 187.915 150.354C188.139 150.388 188.199 150.204 188.285 150.012C189.177 148.999 189.661 147.035 192.534 146.582C192.53 147.519 192.559 148.484 192.594 149.411C192.615 149.272 194.6 148.281 194.805 148.203C195.652 147.861 196.653 147.488 197.551 147.338C197.813 149.439 197.431 151.837 196.795 153.976C196.51 154.665 196.197 155.273 195.909 155.75C195.415 156.582 195.043 157.088 195.159 157.212C195.239 157.304 195.659 157.101 196.206 156.592C197.003 156.232 197.778 155.931 198.633 155.893C197.943 156.883 197.785 158.358 197.156 159.416C196.193 161.039 194.849 162.185 193.362 163.298C193.113 163.486 193.331 163.856 193.616 163.764C193.885 163.678 194.144 163.571 194.4 163.451C194.444 163.533 194.536 163.593 194.634 163.558C195.529 163.27 196.399 163.134 197.313 163.178C197.152 163.435 197.079 163.701 196.94 164.055C196.611 164.88 196.112 165.624 195.558 166.314C194.511 167.614 193.249 168.443 191.888 169.357C191.702 169.484 191.832 169.775 192.043 169.755C192.666 169.696 193.284 169.511 193.865 169.24C194.58 169.018 195.38 168.917 196.115 169.072C195.574 169.465 195.242 170.037 194.84 170.562C194.299 171.271 193.692 171.91 193.005 172.476C192.356 173.004 191.704 173.526 190.939 173.884C190.307 174.181 189.608 174.332 189.022 174.709C188.901 174.786 188.962 174.962 189.089 174.988C189.455 175.061 189.854 175.051 190.268 174.985C190.797 175.115 191.55 175.444 192.084 175.839C190.54 176.832 189.357 178.053 187.557 178.705C185.485 179.452 183.679 179.097 181.632 178.946C181.493 178.905 181.363 178.86 181.23 178.806C180.547 178.556 180.281 179.569 180.642 180.71C179.475 180.508 178.232 180.063 177.349 179.768C178.56 177.455 178.832 175.57 178.734 173.384C180.826 173.827 182.913 173.951 184.767 173.795C184.963 173.773 187.678 173.448 187.709 173.254C187.709 173.254 183.837 173.858 178.662 172.619C178.507 171.442 178.099 170.22 177.497 169.091C178.889 168.249 180.268 167.313 181.601 166.295C194.451 167.496 195.485 167.335 182.417 165.668C183.195 165.042 191.857 156.839 191.027 156.242C191.027 156.242 187.64 159.648 186.564 160.651C187.232 151.125 186.976 150.495 185.798 161.353C182.771 164.065 180.092 165.814 177.355 167.427C178.073 165.045 178.399 162.656 178.361 160.48C178.355 160.255 178.174 156.899 177.95 156.934C177.867 156.94 178.054 158.291 177.956 160.484C177.845 163.162 177.333 165.346 176.542 167.598C175.83 166.646 174.979 165.804 174.011 165.165C174.138 162.938 173.771 162.78 173.401 164.801C169.665 162.669 164.998 163.182 161.079 165.602C161.832 162.951 163.062 160.631 165.118 158.585C166.757 156.927 169.658 155.115 167.194 156.529C166.599 156.877 165.757 157.456 164.827 158.3C162.682 160.214 160.99 162.954 160.158 166.212C160.06 166.279 159.968 166.348 159.877 166.418C159.009 164.089 158.181 161.74 157.425 159.372C159.605 153.28 161.739 148.988 164.112 145.074C164.584 144.296 164.837 143.869 164.811 143.843C164.793 143.839 164.707 143.941 164.565 144.124C164.419 144.311 164.198 144.589 163.942 144.966C161.139 148.892 158.81 153.795 157.071 158.249C155.925 154.564 154.957 150.829 154.144 146.791C158.017 135.491 158.213 134.106 153.881 145.45C152.24 136.725 151.436 124.692 151.765 133.333C151.876 137.693 152.348 142.394 153.195 147.272C153.344 148.142 153.515 149.079 153.689 149.955C147.668 145.02 143.518 138.231 145.643 141.724C147.5 144.776 150.414 148.187 153.919 151.072C154.369 153.239 154.89 155.387 155.466 157.523C155.761 158.614 156.07 159.695 156.4 160.777C156.542 161.255 156.722 161.733 156.845 162.214C156.938 162.578 156.897 163.321 157.118 163.619C156.15 162.39 154.986 161.859 153.66 161.163C152.246 160.411 150.743 159.81 149.2 159.348C148.621 158.952 148.08 158.547 147.605 158.155C145.23 156.159 144.198 154.517 144.113 154.59C144.11 154.602 144.16 154.709 144.28 154.899C144.407 155.086 144.581 155.38 144.85 155.722C145.362 156.434 146.181 157.405 147.349 158.471C147.552 158.652 147.766 158.835 147.982 159.018C141.857 157.535 133.113 158.107 130.225 163.574C129.858 162.698 129.627 161.818 129.662 160.658C129.684 159.714 129.842 159.139 129.766 159.113C129.519 159.015 128.747 161.505 129.567 163.862C128.055 163.011 126.713 162.093 125.483 160.957C124.116 157.794 124.683 154.359 124.683 154.359C124.489 154.295 123.73 156.996 124.379 159.844C124.205 159.648 124.031 159.433 123.857 159.221C122.695 157.794 121.629 156.057 121.07 155.102C120.82 154.671 120.662 154.384 120.662 154.384C120.453 154.435 120.602 155.232 121.114 156.396C121.646 157.608 122.575 159.221 123.91 160.847C125.271 162.501 127.043 164.165 129.263 165.418C127.362 165.513 125.539 165.451 124.027 165.342C122.958 165.27 122.053 165.175 121.377 165.099C120 164.944 119.586 164.868 120.836 165.219C121.003 165.263 121.206 165.298 121.379 165.339C122.187 165.538 123.078 165.706 124.034 165.839C125.758 166.077 127.634 166.205 129.481 166.143C129.443 166.782 129.51 167.389 129.675 167.958C127.839 167.443 125.951 167.101 124.053 166.924C123.17 166.845 122.285 166.788 121.402 166.788C121.364 166.788 121.323 166.785 121.281 166.785C120.466 166.788 119.621 166.841 118.801 166.81C118.137 166.785 117.495 166.69 116.888 166.488C116.233 166.269 115.619 165.918 115.094 165.323C115.609 164.871 116.454 164.877 116.83 164.848C117.049 164.829 117.09 164.795 116.821 164.653C116.814 164.615 116.748 164.548 116.72 164.497C116.239 163.799 114.556 163.472 113.971 160.777C113.914 160.518 115.919 161.042 116.685 161.23C116.818 161.261 116.923 161.287 116.963 161.293C116.925 161.248 116.812 161.025 116.666 160.724C116.264 159.894 115.612 158.455 115.59 158.408C115.141 157.187 115.249 155.918 115.764 154.742C115.761 154.773 116.084 154.989 116.448 155.216C116.868 155.482 117.343 155.77 117.422 155.807C117.849 156.007 116.833 152.701 116.774 152.261C116.637 151.296 116.672 150.211 116.976 149.278C117.365 149.389 117.668 149.629 118.039 149.768C118.153 149.809 118.27 149.844 118.4 149.861C118.725 149.898 119.074 146.965 119.108 146.671C119.789 146.691 120.272 146.88 120.68 147.149C121.57 147.74 122.041 148.762 123.047 149.543C123.423 148.755 123.11 148.158 123.047 147.386C123.154 147.403 123.246 147.446 123.347 147.474ZM184.195 180.467C183.429 180.559 182.657 180.679 181.869 180.853C181.799 180.542 181.714 180.236 181.645 179.926C182.597 180.227 183.445 180.398 184.195 180.467ZM111.876 214.033C111.952 213.981 112.025 213.918 112.095 213.855C112.034 213.931 111.929 213.954 111.876 214.033ZM111.234 210.621C109.624 214.175 106.451 217.334 103.557 219.056C98.6278 221.992 88.8238 223.883 87.5798 216.443C86.9798 212.824 87.9408 209.299 89.9248 206.402C90.2598 205.917 90.6238 205.45 91.0158 205C91.3608 204.601 91.7208 204.212 92.1078 203.849C92.8038 203.197 93.5658 202.596 94.3728 202.068C95.1318 201.574 95.9668 201.128 96.8658 200.74C100.88 199.015 106.002 198.585 109.649 200.939C109.899 201.099 110.165 201.239 110.402 201.428C110.674 201.647 110.921 201.891 111.152 202.153C111.313 202.337 111.471 202.523 111.604 202.736C113.072 205.016 112.275 208.329 111.234 210.621ZM87.0778 219.638C85.9418 220.46 84.8468 221.328 83.5408 221.925C81.5628 222.829 79.3588 223.276 77.1978 222.915C68.6218 221.495 68.3078 211.254 76.0998 205.909C76.8048 205.424 77.5898 204.994 78.4278 204.601C78.8178 204.418 79.1878 204.226 79.6018 204.067C79.7538 204.01 79.8998 203.959 80.0508 203.912C81.2888 203.491 82.4938 203.257 83.6958 203.159C85.8808 202.973 88.0518 203.229 90.3358 203.538C90.1178 203.773 89.9118 204.01 89.7098 204.257C89.5198 204.488 89.3428 204.734 89.1648 204.975C88.8328 205.424 88.5168 205.886 88.2288 206.37C87.7098 207.244 87.2578 208.163 86.9068 209.138C85.7298 212.359 85.2798 216.636 87.0778 219.638ZM101.313 197.854C100.124 198.002 98.9438 198.278 97.7978 198.673C97.8298 198.54 97.8558 198.411 97.8748 198.29C98.0638 197.186 97.8708 196.263 97.6218 195.7C97.3748 195.13 97.1158 194.889 97.0518 194.927C96.9758 194.965 97.0998 195.273 97.1908 195.827C97.2918 196.37 97.3338 197.183 97.0778 198.122C96.9978 198.433 96.8778 198.755 96.7228 199.075C94.6168 199.96 92.6638 201.236 91.0128 202.849C90.3328 202.485 89.6148 202.21 88.8678 202.011C89.3868 201.971 89.9088 201.868 90.4468 201.678C92.4808 200.956 93.7588 199.35 94.2588 198.111C94.7808 196.844 94.6698 195.981 94.5188 195.971C94.3568 195.947 94.1738 196.721 93.5348 197.74C92.9168 198.752 91.7368 200.008 90.0668 200.596C88.3938 201.179 86.6908 200.929 85.5808 200.521C84.4488 200.119 83.8248 199.628 83.7018 199.761C83.6008 199.853 84.0498 200.596 85.2458 201.261C85.4578 201.378 85.7018 201.489 85.9608 201.587C84.8498 201.555 83.7208 201.647 82.6168 201.836C81.5228 201.34 80.9208 200.932 80.8388 201.042C80.7878 201.096 81.0858 201.495 81.7568 202.004C80.8958 202.195 80.0508 202.441 79.2568 202.732C75.8278 196.44 83.6068 186.159 94.0178 187.756C96.4888 188.135 98.0548 189.006 99.3798 189.787C98.8458 192.78 99.6368 195.662 101.313 197.854ZM105.388 182.906C106.786 181.932 108.362 181.274 110.007 180.875C110.25 180.818 110.491 180.748 110.738 180.699C111 180.651 111.262 180.622 111.525 180.584C111.75 180.552 111.971 180.508 112.196 180.486C113.512 180.363 114.84 180.398 116.141 180.578C116.543 180.635 116.913 180.73 117.295 180.815C117.912 180.951 118.513 181.119 119.092 181.318C119.304 181.391 119.522 181.445 119.731 181.527C120.33 181.752 120.914 182.011 121.48 182.295C121.968 182.535 122.493 182.815 122.971 183.083C123.332 183.64 123.759 184.127 124.164 184.63C124.648 185.231 125.103 185.855 125.372 186.646C125.692 187.582 125.818 188.575 125.727 189.552C125.679 190.037 125.556 190.467 125.486 190.916C125.024 191.007 124.562 191.122 124.1 191.255C123.208 191.514 122.316 191.849 121.443 192.261C121.012 192.463 120.589 192.682 120.171 192.919C119.763 193.15 119.368 193.418 118.976 193.685C118.46 194.036 117.96 194.414 117.479 194.823C116.394 195.738 115.394 196.775 114.559 197.93C113.746 198.135 112.927 198.202 112.161 198.142C111.816 198.121 111.506 198.047 111.193 197.987C110.64 197.879 110.13 197.74 109.684 197.563C109.634 197.544 109.567 197.528 109.516 197.506C108.064 196.899 107.343 196.174 107.22 196.291C107.15 196.341 107.663 197.31 109.143 198.246C109.298 198.344 109.501 198.426 109.674 198.515C110.117 198.752 110.62 198.945 111.181 199.11C111.456 199.189 111.709 199.29 112.009 199.34C111.727 199.34 111.453 199.312 111.177 199.29C110.658 199.249 110.149 199.176 109.669 199.06C109.624 199.046 109.576 199.043 109.533 199.031C108.979 198.781 108.346 198.56 107.774 198.379C107.002 198.015 106.337 197.573 105.784 197.123C104.841 196.365 104.202 195.589 103.791 195.045C103.379 194.491 103.161 194.172 103.094 194.204C103.047 194.222 103.129 194.609 103.446 195.263C103.756 195.905 104.309 196.816 105.243 197.749C105.281 197.787 105.321 197.831 105.363 197.863C104.737 197.775 104.11 197.734 103.48 197.727C100.886 195.311 100.175 192.052 100.95 189.211C100.95 189.211 101.708 185.468 105.388 182.906ZM111.782 170.524C113.405 169.724 115.179 169.196 116.966 168.876C117.599 168.762 118.229 168.673 118.858 168.607C119.105 168.581 119.358 168.547 119.605 168.528C120.184 168.481 120.801 168.453 121.43 168.433C122.294 168.405 123.186 168.421 124.075 168.495C126.207 168.67 128.311 169.199 129.871 170.48C130.225 170.771 130.566 171.131 130.639 171.587C130.759 172.353 128.956 173.748 127.868 174.701C127.887 174.377 127.878 174.089 127.856 173.843C127.783 173.15 127.618 172.799 127.549 172.814C127.387 172.814 127.571 173.941 127.036 175.579C126.404 176.433 125.888 177.361 125.511 178.345C125.176 178.755 124.784 179.155 124.338 179.527C124.287 179.569 124.22 179.603 124.167 179.645C123.563 180.12 122.873 180.539 122.094 180.856C121.908 180.761 121.709 180.695 121.522 180.609C121.082 180.407 120.642 180.196 120.177 180.031C120.67 179.836 121.101 179.591 121.522 179.331C122.635 178.639 123.483 177.762 123.986 176.974C124.062 176.864 124.1 176.769 124.16 176.664C124.847 175.491 124.948 174.627 124.815 174.593C124.72 174.554 124.517 174.906 124.16 175.424C123.948 175.732 123.695 176.083 123.341 176.485C122.889 177.009 122.272 177.576 121.519 178.073C120.82 178.535 119.991 178.914 119.077 179.163C118.944 179.199 118.827 179.258 118.69 179.287C118.447 179.337 118.204 179.372 117.966 179.401C117.735 179.354 117.492 179.328 117.261 179.287C116.289 179.122 115.303 179.009 114.309 179.002C113.942 178.886 113.607 178.749 113.31 178.607C112.493 178.231 111.946 177.861 111.598 177.652C111.386 177.525 111.231 177.443 111.184 177.491C111.13 177.535 111.269 177.81 111.582 178.177C111.81 178.44 112.11 178.74 112.55 179.062C112.218 179.088 111.889 179.166 111.557 179.211C111.048 179.278 110.535 179.328 110.039 179.439C108.78 178.772 108.036 178.3 107.95 178.413C107.897 178.481 108.308 178.974 109.194 179.651C108.225 179.916 107.296 180.268 106.41 180.702C105.474 177.746 106.318 174.804 108.557 172.695C109.077 172.206 109.649 171.787 110.244 171.397C110.738 171.075 111.247 170.784 111.782 170.524ZM153.543 179.755C153.468 180.733 153.559 182.109 154.17 183.435C154.78 184.759 155.761 185.728 156.555 186.313C157.349 186.905 157.944 187.17 157.899 187.322C157.864 187.478 157.156 187.488 156.14 187.009C155.137 186.547 153.863 185.506 153.126 183.915C152.395 182.322 152.442 180.675 152.746 179.617C153.043 178.537 153.511 178.009 153.638 178.073C153.796 178.145 153.613 178.768 153.543 179.755ZM153.543 179.755C153.527 179.783 153.597 179.888 153.591 179.935C153.609 179.9 153.524 179.79 153.543 179.755ZM153.904 174.776C153.357 170.325 148.624 168.234 145.542 167.75C144.85 167.639 144.151 167.585 143.474 167.579C140.693 167.557 137.47 168.341 134.489 169.749C133.05 169.066 131.835 168.904 131.209 167.297C130.775 166.174 130.873 165.029 131.452 163.979C132.569 161.954 135.027 160.686 137.163 160.081C142.164 158.662 147.716 159.581 152.341 161.796C154.527 162.846 156.172 164.716 156.45 167.18C156.748 169.872 155.189 172.565 153.904 174.776ZM134.28 171.562C138.842 169.088 145.982 167.133 150.117 171.609C152.781 174.495 152.623 179.183 150.107 182.35C148.823 183.969 147.197 185.092 145.34 185.959C142.18 187.443 139.323 189.483 135.736 189.733C132.689 189.945 129.396 188.977 127.748 186.228C127.248 185.393 126.922 184.456 126.767 183.497C125.906 178.252 129.987 173.877 134.28 171.562ZM138.323 190.916C138.216 191.08 138.112 191.246 138.014 191.415C137.976 191.476 137.921 191.596 137.887 191.657C138.001 191.435 138.105 191.213 138.21 190.99C138.036 191.132 137.798 191.289 137.491 191.448C136.732 191.843 135.555 192.175 134.23 192.156C132.908 192.131 131.743 191.754 131 191.328C130.25 190.904 129.902 190.486 129.984 190.363C130.165 190.079 131.917 190.998 134.249 191.011C136.58 191.078 138.381 190.243 138.535 190.505C138.58 190.581 138.531 190.726 138.323 190.916ZM136.229 195.779C136.216 195.826 136.207 195.873 136.194 195.921C136.182 195.88 136.245 195.813 136.229 195.779ZM124.856 182.688C124.641 182.507 124.398 182.359 124.17 182.189C123.875 181.97 123.594 181.733 123.278 181.537C123.606 181.363 123.873 181.128 124.17 180.922C124.429 180.742 124.72 180.587 124.952 180.385C124.824 181.138 124.793 181.907 124.856 182.688ZM112.392 211.343C112.718 211.34 112.993 212.178 113.683 212.912C114.341 213.675 115.141 214.07 115.112 214.361C115.087 214.529 114.799 214.64 114.344 214.567C113.894 214.494 113.303 214.2 112.832 213.681C112.364 213.16 112.142 212.536 112.12 212.08C112.098 211.621 112.24 211.349 112.392 211.343ZM114.414 201.613C114.594 201.217 114.793 200.83 115.002 200.46C115.262 200.002 115.568 199.521 115.869 199.11C116.343 198.451 116.913 197.797 117.472 197.238C117.925 196.785 118.4 196.358 118.896 195.968C119.693 195.335 120.541 194.794 121.414 194.329C122.285 193.869 123.18 193.489 124.081 193.191C131.281 190.818 138.744 193.792 135.191 202.757C134.395 204.744 132.68 207.114 131.316 208.537C129.048 210.904 126.555 212.527 123.695 213.197C122.728 213.425 121.721 213.554 120.662 213.548C120.041 213.544 119.406 213.501 118.747 213.412C112.797 212.612 112.497 205.82 114.414 201.613ZM135.777 204.544C136.106 204.526 136.394 206.088 137.656 207.439C138.867 208.825 140.392 209.302 140.348 209.596C140.323 209.758 139.87 209.853 139.168 209.682C138.469 209.515 137.551 209.031 136.805 208.205C136.061 207.382 135.676 206.417 135.584 205.706C135.489 204.988 135.628 204.548 135.777 204.544ZM137.311 201.619C136.46 188.731 148.646 184.171 154.517 187.338C158.254 189.35 161.047 194.239 157.232 200.549C156.963 200.515 156.691 200.489 156.419 200.47C156.659 199.781 156.808 199.11 156.893 198.493C157.086 197.108 156.985 195.975 156.843 195.216C156.694 194.456 156.52 194.061 156.447 194.083C156.251 194.108 156.634 195.782 156.093 198.347C155.951 199.011 155.73 199.733 155.416 200.47C155.027 200.477 154.635 200.515 154.239 200.572C154.419 199.993 154.447 199.449 154.482 198.949C154.606 197.133 154.03 196.114 153.916 196.164C153.733 196.208 153.989 197.249 153.676 198.841C153.562 199.442 153.35 200.119 153.012 200.799C152.24 200.98 151.471 201.232 150.718 201.537C151.063 201.114 151.291 200.676 151.414 200.289C151.686 199.473 151.566 198.935 151.405 198.917C151.253 198.898 151.078 199.35 150.68 199.942C150.291 200.531 149.626 201.261 148.703 201.698C147.779 202.131 146.792 202.166 146.093 202.086C145.388 202.011 144.929 201.856 144.84 202.001C144.758 202.121 145.094 202.555 145.894 202.871C146.362 203.061 147.014 203.182 147.726 203.12C147.045 203.561 146.39 204.048 145.771 204.57C145.248 204.492 144.762 204.368 144.337 204.216C142.809 203.697 142.04 202.95 141.898 203.102C141.81 203.156 142.398 204.168 144.024 204.966C144.296 205.105 144.594 205.225 144.916 205.327C144.83 205.399 144.749 205.481 144.666 205.56C144.201 206.019 143.765 206.494 143.36 206.978C142.369 206.67 141.547 206.149 140.965 205.538C140.085 204.633 139.706 203.637 139.554 202.938C139.408 202.236 139.437 201.815 139.332 201.799C139.279 201.783 139.098 202.191 139.108 202.992C139.133 203.776 139.433 204.966 140.361 206.079C140.908 206.765 141.73 207.376 142.717 207.794C142.449 208.154 142.202 208.528 141.977 208.898C138.962 207.711 137.548 205.212 137.311 201.619ZM158.098 188.098C158.219 188.183 158.345 188.271 158.468 188.354C158.434 188.408 158.409 188.47 158.399 188.543C158.304 188.396 158.206 188.246 158.098 188.098ZM158.971 200.954C158.926 200.935 158.886 200.922 158.839 200.91C158.864 200.948 158.946 200.916 158.971 200.954ZM141.835 212.688C142.578 211.02 143.471 209.553 144.47 208.281C144.736 207.936 145.011 207.607 145.299 207.287C145.729 206.807 146.176 206.354 146.647 205.94C146.742 205.858 146.836 205.773 146.931 205.687C147.321 205.355 147.713 205.044 148.111 204.763C148.257 204.655 148.412 204.554 148.561 204.454C149.475 203.843 150.418 203.355 151.354 202.992C151.468 202.947 151.588 202.903 151.705 202.859C152.239 202.669 152.784 202.513 153.312 202.404C153.36 202.39 153.398 202.377 153.442 202.371C153.793 202.295 154.141 202.245 154.486 202.213C154.897 202.166 155.308 202.143 155.71 202.15C159.092 202.191 161.936 203.982 162.929 207.499C165.533 216.737 156.087 228.525 147.017 225.098C143.224 223.656 142.287 221.747 141.392 219.799C142.683 216.883 142.762 214.399 141.835 212.688ZM162.053 196.491C161.638 198.015 161.547 199.454 161.575 200.505C161.598 201.555 161.689 202.229 161.54 202.276C161.389 202.324 161.012 201.716 160.768 200.603C160.645 200.049 160.582 199.37 160.591 198.613C160.614 197.86 160.721 197.032 160.949 196.187C161.183 195.345 161.515 194.579 161.882 193.918C162.262 193.267 162.664 192.716 163.056 192.305C163.834 191.473 164.464 191.144 164.559 191.251C164.675 191.381 164.255 191.912 163.698 192.802C163.138 193.688 162.474 194.969 162.053 196.491ZM160.44 188.085C154.875 186.221 154.258 178.943 156.023 174.232C158.105 168.677 163.676 163.935 169.911 165.048C173.882 165.757 176.969 168.796 177.611 172.795C178.791 180.189 167.703 190.515 160.44 188.085ZM176.982 180.413C177.687 180.942 178.567 181.33 179.399 181.562C177.779 182.099 176.175 182.777 174.533 183.653C175.472 182.634 176.311 181.555 176.982 180.413ZM85.4578 1.595C89.6648 1.209 93.9358 1.526 98.0328 2.503C98.6778 2.655 99.1458 3.31 99.1458 4.059L99.1458 4.664C96.7038 4.107 93.2278 3.547 88.9818 3.494C87.8838 3.509 81.9328 4.693 81.2438 4.006C81.0858 3.848 80.9908 3.699 80.9498 3.56C80.5538 2.241 84.8568 1.649 85.4578 1.595ZM77.7988 7.846C77.7858 7.192 78.1818 6.61 78.7378 6.464C80.8888 5.898 84.4418 5.207 88.9818 5.148C93.5248 5.207 97.0778 5.898 99.2288 6.464C99.7848 6.61 100.181 7.192 100.168 7.846L100.045 14.021C100.039 14.417 99.8928 14.778 99.6338 15.037C99.3708 15.296 99.0328 15.42 98.6908 15.378C96.5768 15.135 93.1168 14.825 88.9818 14.758C84.8498 14.825 81.3898 15.135 79.2728 15.378C78.9308 15.42 78.5958 15.296 78.3328 15.037C78.0738 14.778 77.9288 14.417 77.9218 14.021L77.7988 7.846ZM81.3918 45.91C81.6638 45.916 82.3728 33.06 82.9898 16.631C84.8408 16.448 86.9948 16.255 88.9818 16.23C90.8798 16.255 92.6228 16.318 94.1568 16.404C94.5558 30.26 95.0618 40.969 95.3788 40.962C95.6468 40.959 95.8628 30.244 95.8558 16.505C96.3118 16.534 96.7508 16.565 97.1468 16.597C97.4028 22.29 98.1048 44.29 98.9378 50.741C96.9218 50.036 83.7178 50.219 82.5438 50.181C82.2628 50.171 78.7168 50.503 78.7348 50.355C79.3898 45.258 79.3738 40.051 79.5008 34.923C79.5798 31.803 79.6398 28.681 79.6998 25.559C79.7348 23.781 79.4948 20.7 80.8958 19.378C81.7818 20.788 80.5158 45.901 81.3918 45.91ZM65.9038 100.173C69.1908 92.233 72.6428 84.625 74.5978 76.277C76.0678 69.991 77.4918 63.689 78.7758 57.366C78.8268 57.115 79.6018 52.819 79.5478 52.822C80.1338 52.813 80.7348 52.797 81.3448 52.782C80.6998 57.859 79.8268 62.344 79.2188 65.638C78.5578 69.162 78.2098 71.326 78.3678 71.357C78.4978 71.382 79.1748 69.283 80.1368 65.802C81.0378 62.499 82.1998 57.938 83.0438 52.727C84.6578 52.67 86.3338 52.601 88.0648 52.525C88.3678 52.512 88.6788 52.499 88.9818 52.487C89.2878 52.499 89.5988 52.512 89.9018 52.525C91.6898 52.604 93.4168 52.677 95.0808 52.73C95.7668 56.103 96.6978 58.969 97.2858 61.088C97.9568 63.379 98.3138 64.787 98.4788 64.767C98.6078 64.752 98.5738 63.275 98.1968 60.899C97.8878 58.773 97.2388 55.945 96.7678 52.785C97.3268 52.797 97.8808 52.813 98.4188 52.822C98.5698 52.819 99.9818 61.259 100.089 61.803C101.124 67.127 102.032 72.502 103.424 77.745C106.859 90.699 114.097 102.522 117.302 115.586C117.856 117.842 118.292 120.123 118.567 122.423C119.517 130.29 120.162 138.19 120.624 146.077C119.741 145.582 118.855 145.162 118.763 145.352C118.722 145.435 118.672 145.545 118.621 145.671C118.463 146.057 118.273 146.611 118.149 147.167C118.108 147.355 118.071 147.54 118.048 147.721C118.023 147.899 118.01 148.077 118.01 148.238C118.013 148.475 118.058 148.67 118.131 148.838C118.159 148.898 118.175 148.971 118.213 149.019C118.143 148.936 118.071 148.851 117.985 148.769C117.856 148.642 117.71 148.525 117.558 148.42C117.71 148.525 117.856 148.642 117.985 148.769C117.64 142.745 117.267 137.317 116.913 132.837C116.581 128.687 116.267 125.33 116.005 123.011C115.739 120.689 115.54 119.427 115.41 119.424C115.277 119.424 115.227 120.727 115.262 123.052C115.296 125.38 115.406 128.749 115.565 132.907C115.736 137.288 115.945 142.565 116.179 148.42C116.04 148.87 115.947 149.291 115.869 149.702C115.743 150.364 115.666 150.99 115.666 151.546C115.666 152.011 115.708 152.441 115.774 152.83C115.841 153.22 115.935 153.568 116.043 153.881C115.853 153.805 115.673 153.802 115.511 153.862C115.287 153.941 115.103 154.162 114.938 154.435C114.768 154.716 114.631 155.089 114.543 155.517C114.274 156.794 114.41 158.563 115.202 159.929C115.068 159.904 114.926 159.885 114.78 159.876C113.765 159.803 112.557 160.09 112.613 160.511C112.885 162.584 114.518 163.859 115.483 164.441C115.071 164.516 114.717 164.706 114.499 164.918C114.278 165.127 114.189 165.361 114.306 165.523C114.623 165.95 114.938 166.314 115.252 166.62C115.565 166.931 115.875 167.183 116.176 167.389C115.708 167.491 115.265 167.601 114.834 167.721C114.404 167.841 113.992 167.968 113.588 168.104C112.965 168.31 112.376 168.535 111.823 168.775C111.279 169.015 110.769 169.269 110.291 169.537C108.637 170.47 107.365 171.559 106.466 172.723C105.967 173.371 105.575 174.042 105.283 174.719C104.698 176.07 104.511 177.436 104.639 178.683C104.733 179.62 105.005 180.486 105.419 181.233C104.971 181.498 104.537 181.789 104.123 182.106C103.711 182.419 103.319 182.757 102.946 183.119C102.626 183.435 102.322 183.773 102.035 184.12C101.69 184.541 101.364 184.982 101.073 185.443C100.538 186.291 100.105 187.203 99.7948 188.155C98.3708 187.184 96.3368 186.595 94.6758 186.287C94.1258 186.187 93.6128 186.114 93.1798 186.07C80.8548 184.849 73.6348 198.785 77.7738 203.355C77.0898 203.63 76.3948 204.026 75.6978 204.475C71.4278 204.269 68.0268 204.058 66.6628 203.931C66.9538 201.407 66.9608 193.195 66.7388 165.143C66.6978 160.233 66.6598 155.247 66.6318 150.553C66.6848 150.329 66.7548 150.11 66.8088 149.885C67.2578 147.988 67.5458 145.991 67.6788 143.839C67.7228 143.121 67.7488 142.384 67.7578 141.629C67.7698 140.733 67.7388 139.807 67.6888 138.858C74.1288 138.649 80.6368 138.526 87.0648 138.509L88.7418 138.506C96.0868 138.506 103.525 138.636 110.87 138.886C110.811 149.167 110.55 159.493 110.291 169.537C110.765 169.269 111.279 169.015 111.823 168.775C112.082 158.752 112.335 148.458 112.386 138.208L112.392 137.526L111.658 137.5C104.059 137.232 96.3458 137.092 88.7418 137.092L87.0588 137.095C80.6018 137.111 74.0698 137.242 67.5958 137.45C67.4918 136.168 67.3338 134.833 67.1178 133.422C66.7078 130.826 66.1158 128.139 65.3538 125.437C65.0018 124.179 64.5938 122.888 64.1358 121.559C64.9458 116.7 65.9448 112.284 67.1408 108.481C68.7858 103.128 70.3868 98.851 71.3858 95.862C72.4048 92.875 72.8828 91.196 72.7468 91.155C72.6328 91.117 71.9178 92.717 70.6878 95.628C69.4728 98.547 67.6758 102.759 65.8468 108.12C64.7678 111.214 63.8258 114.739 63.0248 118.573C62.9108 118.287 62.8288 118.026 62.7118 117.735C62.1708 116.393 61.6488 115.169 61.1118 113.995C62.3648 109.316 64.0438 104.669 65.9038 100.173ZM14.4898 109.56L15.9108 109.506C17.9868 109.414 21.3808 109.301 25.7518 109.294L25.9898 109.294C32.9748 109.294 40.4508 109.648 47.6098 110.317C47.6098 110.358 47.6478 110.468 47.6058 110.468C44.2308 110.594 40.8968 110.658 37.6978 110.658C36.4768 110.658 35.2558 110.649 34.0348 110.629L30.9848 110.569L27.9358 110.493C25.9898 110.43 23.9398 110.341 21.8418 110.227C19.4788 110.098 17.0758 109.93 14.4868 109.714C14.4458 109.711 14.4858 109.601 14.4898 109.56ZM56.7168 228.484C56.7388 228.497 56.8278 228.512 56.8308 228.537C56.9318 229.207 57.0398 229.863 57.2618 230.496C50.8678 232.856 42.7308 234.25 33.8258 234.345C33.4968 234.348 33.1738 234.352 32.8518 234.352C26.8628 234.352 20.9558 233.653 16.6408 232.431C13.8678 231.685 11.9248 230.736 10.8808 230.226C10.6648 230.119 10.4858 230.031 10.3428 229.967C10.3358 229.946 10.2988 229.874 10.3118 229.853C10.3648 229.473 10.3878 228.993 10.3748 228.613L10.3678 228.432C10.3808 228.432 10.4688 228.356 10.4858 228.363L10.7508 228.525C10.9948 228.654 11.2358 228.774 11.4728 228.882C11.9468 229.097 12.4338 229.296 12.9178 229.47C13.8508 229.812 14.8008 230.112 15.8258 230.387C16.7488 230.644 17.6628 230.865 18.7548 231.116C23.6838 232.206 28.4138 232.735 33.2088 232.735C35.3438 232.735 37.5398 232.627 39.7348 232.415C44.0818 231.985 50.5538 230.833 54.5088 229.457C54.8818 229.325 56.1418 228.853 56.7168 228.484ZM39.0928 224.773C39.1178 224.773 39.1848 224.773 39.2008 224.779L53.9708 227.632C53.9738 227.664 53.9558 227.79 53.9238 227.8C53.0818 228.094 52.1708 228.363 51.1458 228.628C50.2818 228.85 49.3458 229.068 48.2868 229.29C47.3208 229.486 46.3788 229.679 45.3918 229.846C44.4108 230.024 43.4588 230.178 42.4848 230.318C41.5288 230.451 40.5488 230.568 39.5678 230.662C37.6158 230.852 35.6448 230.956 33.7028 230.97L33.2178 230.973C31.4248 230.973 29.6118 230.897 27.8378 230.748C26.8788 230.665 25.8978 230.558 24.9168 230.432C23.9748 230.306 23.0038 230.157 22.0288 229.986C21.0708 229.808 20.1248 229.616 19.1368 229.398C18.0718 229.154 17.1788 228.939 16.2908 228.693C15.3418 228.436 14.4138 228.142 13.5448 227.825C13.5488 227.791 13.5228 227.686 13.5538 227.68C13.5538 227.68 28.5838 224.842 28.5898 224.842C28.7538 224.928 28.9668 225.015 29.1718 225.098C30.3708 225.591 31.9468 225.895 33.4908 225.94C33.6168 225.943 33.7458 225.946 33.8738 225.946C35.2998 225.946 36.7458 225.731 37.8498 225.354C38.3808 225.174 38.8078 224.972 39.0928 224.773ZM37.6188 221.204C37.8968 222.115 38.1318 222.843 38.5078 223.855C38.4948 223.874 38.4698 223.953 38.4478 223.956C37.5498 224.108 36.5278 224.168 34.9138 224.168C34.4878 224.168 34.0278 224.165 33.5378 224.159C32.4118 224.142 31.3738 224.061 30.4598 223.988C30.1778 223.966 29.9058 223.943 29.6568 223.925C29.6448 223.905 29.5838 223.845 29.5898 223.824C29.6688 223.608 29.7448 223.393 29.8178 223.178C30.3968 223.283 31.0708 223.288 31.6548 223.288C32.6678 223.288 33.4458 223.13 33.9168 222.997C34.9988 222.694 35.4898 222.324 35.5058 222.242C35.4868 222.222 35.3948 222.201 35.0818 222.201L34.6988 222.204C34.5188 222.206 34.3098 222.21 34.0828 222.21L33.8038 222.21C32.9878 222.204 31.7318 222.106 30.3808 221.688L30.4538 221.204L30.5548 220.843C31.0608 220.866 31.6148 220.822 32.0508 220.822C33.9968 220.822 34.4458 220.625 34.4548 220.552C34.4238 220.4 33.3128 219.925 31.0478 219.388L31.1308 218.809C31.1938 218.587 31.2568 218.364 31.3168 218.141L31.5138 217.386L31.6808 216.686C31.6968 216.686 31.7858 216.632 31.7978 216.639C32.1268 216.857 32.8298 217.23 33.8448 217.293C33.9428 217.3 34.0408 217.303 34.1358 217.303C34.8918 217.303 35.6508 217.12 36.1738 216.81C36.1988 216.794 36.2168 216.779 36.2938 216.724C36.3158 216.733 36.4038 216.746 36.4108 216.769L36.5528 217.363L36.7548 218.145C37.0268 219.166 37.3118 220.185 37.6188 221.204ZM35.7708 211.76C35.8508 212.833 35.9328 213.886 36.0908 214.962C36.1098 215.139 36.1408 215.324 36.1828 215.57C36.1708 215.586 36.1068 215.652 36.0808 215.652C36.0778 215.652 35.9298 215.633 35.8538 215.626C35.5018 215.595 35.0918 215.576 34.6418 215.55L33.9548 215.513C33.5848 215.497 33.2278 215.465 32.8988 215.437C32.5698 215.408 32.2688 215.38 32.0038 215.373C32.0038 215.373 31.9718 215.029 31.9818 214.958C32.1398 213.886 32.2218 212.833 32.2978 211.76C32.5538 207.721 32.5158 203.77 32.3838 199.079C32.2658 195.291 32.0578 191.283 31.7318 186.458C31.5698 184.115 31.3708 181.581 31.1338 178.683C31.6898 177.263 32.4338 176.349 33.3508 175.968C33.7208 175.814 34.0758 175.735 34.4078 175.735C35.5308 175.735 36.3948 176.601 36.9768 178.341C36.7168 181.363 36.5088 184.02 36.3408 186.462C36.0148 191.283 35.8058 195.294 35.6888 199.079C35.5528 203.77 35.5148 207.721 35.7708 211.76ZM33.9548 170.104C24.5538 170.104 16.8348 166.541 12.0038 163.548C9.83381 161.716 8.01781 159.611 6.61381 157.286C5.02181 154.675 3.87981 151.702 3.21581 148.447C2.11781 143.039 2.31381 136.779 3.81981 129.3C4.08481 127.931 4.41781 126.472 4.90481 124.571C5.30281 123.056 5.77081 121.495 6.29981 119.93C7.41381 116.668 8.62481 113.976 9.99781 111.704C17.9188 112.425 26.0498 112.755 34.0218 112.755C41.9788 112.755 50.0258 112.388 57.9438 111.673C58.1558 112.094 58.4218 112.58 58.6248 113.015C58.8938 113.584 59.1718 114.144 59.4248 114.73C59.7348 115.438 60.0388 116.175 60.3418 116.934C60.5358 117.418 60.7288 117.899 60.9248 118.412C61.4178 119.708 61.8738 121.018 62.2968 122.33C62.6898 123.543 63.0568 124.76 63.3858 125.969C63.4078 126.054 63.4238 126.13 63.4458 126.215C64.5118 130.221 65.1628 133.951 65.4268 137.513C65.5278 138.896 65.5848 140.262 65.5678 141.6C65.5338 143.558 65.3718 145.362 65.0968 147.073C64.9708 147.854 64.8278 148.629 64.6478 149.372C64.0468 151.957 63.1068 154.393 61.8518 156.615C61.7438 156.807 61.6078 157.006 61.4908 157.203C60.9808 158.05 60.4058 158.911 59.6848 159.831C59.6338 159.894 59.5708 159.957 59.5198 160.024C58.8588 160.847 58.1178 161.657 57.2298 162.495C57.0328 162.627 56.8308 162.739 56.6348 162.869C55.7458 163.451 54.8538 164.004 53.9558 164.516C47.4768 168.215 40.7658 170.104 33.9548 170.104ZM53.2088 165.674L52.6838 166C52.6588 166 52.5948 166 52.5788 165.978C52.5568 165.944 52.5668 165.896 52.6018 165.873C53.0218 165.57 53.4808 165.235 53.9488 164.89C54.6478 164.374 55.3948 163.818 56.2548 163.165C56.2768 163.165 56.3438 163.16 56.3588 163.175C56.3848 163.206 56.3818 163.254 56.3508 163.283C55.5498 163.982 54.7878 164.582 54.0158 165.12L53.2088 165.674ZM74.6098 223.485C69.2738 223.643 64.0178 222.937 60.0448 218.996C56.4888 215.468 56.6248 211.362 56.7008 206.532C56.7168 205.441 56.7328 204.311 56.7108 203.21C56.4548 191.056 56.3248 178.49 56.5808 165.763C57.2708 165.288 57.9348 164.795 58.5428 164.283C58.8148 164.042 59.1308 163.726 59.4378 163.435C59.3458 167.667 59.2768 171.758 59.2388 175.64C59.1718 183.048 59.2168 189.718 59.3238 195.32C59.4278 200.919 59.5928 205.45 59.7608 208.581C59.9248 211.71 60.0958 213.438 60.2258 213.435C60.3618 213.431 60.4438 211.701 60.5038 208.569C60.5448 205.437 60.6018 200.91 60.6718 195.314C60.7378 189.72 60.8328 183.058 60.9978 175.665C61.1168 171.141 61.2468 166.317 61.3808 161.318C62.3428 160.09 63.1828 158.857 63.8068 157.722C64.3068 156.829 64.7428 155.9 65.1478 154.951C65.1698 158.31 65.1978 161.748 65.2238 165.152C65.3598 182.201 65.5148 201.441 65.1798 204.026L65.0338 204.753L65.2528 204.985C65.5118 205.263 65.6058 205.368 73.2368 205.766C73.4648 205.782 73.7118 205.79 73.9418 205.8C71.4398 207.987 69.3488 211.153 69.0518 214.712C68.6908 218.961 70.8198 221.78 73.8728 223.197C74.1098 223.308 74.3598 223.393 74.6098 223.485C75.0488 223.653 75.5048 223.795 75.9738 223.909C75.5048 223.795 75.0488 223.653 74.6098 223.485ZM84.2208 223.273C82.6608 223.906 80.9588 224.244 79.2788 224.273C80.9588 224.244 82.6608 223.909 84.2208 223.273ZM105.657 228.654C103.866 229.913 101.826 230.836 99.7378 231.482C91.4238 234.06 86.7988 231.112 85.5058 227.591C84.8848 225.908 85.0308 224.111 85.9158 222.704C86.0088 222.551 86.0898 222.393 86.2038 222.254C86.8468 221.842 87.4478 221.371 87.9818 220.83C88.5988 221.486 89.4158 222.037 90.3868 222.459C92.7878 223.503 96.1598 223.709 100.017 222.435C101.282 222.017 102.594 221.441 103.945 220.685C106.388 219.318 108.902 217.255 110.788 214.794C110.962 215.914 112.174 219.531 110.304 223.454C109.732 224.655 108.849 225.883 107.58 227.079C107.014 227.611 106.394 228.138 105.657 228.654ZM107.372 229.448C108.434 228.603 109.342 227.651 110.111 226.635C110.905 225.589 111.541 224.475 112.022 223.329C112.427 222.369 112.734 221.387 112.92 220.41C112.94 220.138 112.958 219.866 112.968 219.593C112.974 219.408 112.977 219.22 112.99 219.037C113.353 218.439 113.604 217.831 114.192 217.408C114.138 217.712 114.135 217.987 114.123 218.259C114.059 219.36 114.258 220.596 114.799 221.599C114.888 221.852 115.008 222.103 115.125 222.352C115.461 223.057 115.91 223.738 116.473 224.368C117.902 225.968 120.028 227.246 122.753 227.768C122.366 229.374 121.506 230.786 120.468 231.804C119.288 232.981 117.881 233.633 116.654 233.954C115.416 234.276 114.359 234.286 113.642 234.247C112.917 234.209 112.512 234.146 112.49 234.222C112.474 234.272 112.844 234.475 113.584 234.656C114.322 234.835 115.451 234.978 116.833 234.763C118.206 234.551 119.861 233.947 121.304 232.684C122.6 231.561 123.714 229.925 124.233 227.971C124.604 227.999 124.989 228.024 125.382 228.021C124.856 230.675 123.148 232.9 121.18 234.164C120.181 234.829 119.102 235.234 118.061 235.458C117.014 235.667 116.005 235.696 115.094 235.608C113.268 235.427 111.867 234.813 110.965 234.317C110.061 233.814 109.608 233.441 109.551 233.503C109.52 233.538 109.88 234.016 110.75 234.667C111.614 235.306 113.041 236.098 115.005 236.433C115.986 236.594 117.09 236.635 118.264 236.464C119.434 236.279 120.68 235.882 121.835 235.183C124.151 233.826 126.229 231.346 126.907 228.179L126.204 228.002C126.91 227.977 127.653 227.908 128.402 227.781C125.594 239.884 107.53 240.709 107.372 229.448ZM120.228 225.152C119.323 224.683 118.536 224.124 117.884 223.495C117.258 222.893 116.761 222.229 116.407 221.517C116.254 221.113 116.08 220.679 115.951 220.271C115.54 218.553 115.951 216.67 117.438 214.839C117.438 214.835 119.329 215.152 119.488 215.171C119.741 215.196 120 215.18 120.253 215.19C121.291 215.234 122.341 215.184 123.385 214.996C127.368 214.276 131.234 211.992 133.572 209.05C144.619 210.531 140.807 221.198 132.79 224.738C132.075 225.06 131.326 225.342 130.566 225.576C130.31 225.661 130.048 225.737 129.782 225.81C126.628 226.658 123.17 226.676 120.228 225.152ZM130.766 237.749C128.419 234.803 129.364 230.353 131.139 227.132C134.916 225.964 138.349 223.937 140.475 220.665C141.307 223.653 144.438 226.3 148.272 227.035C148.402 228.497 148.023 229.983 147.431 231.246C146.83 232.504 145.954 233.583 144.996 234.471C143.069 236.24 140.822 237.293 138.934 237.749C137.004 238.166 135.372 237.875 134.337 237.515C133.287 237.155 132.778 236.772 132.727 236.848C132.699 236.876 133.129 237.378 134.189 237.898C135.233 238.411 136.967 238.884 139.101 238.562C141.212 238.189 143.616 237.208 145.821 235.361C146.906 234.43 147.931 233.27 148.675 231.839C149.367 230.482 149.766 228.872 149.709 227.217C150.358 227.259 151.015 227.243 151.683 227.161C148.624 238.812 135.422 243.592 130.766 237.749ZM156.258 234.803C150.974 232.564 153.591 227.888 153.758 226.823C153.771 226.787 153.783 226.749 153.8 226.714C158.507 225.278 162.834 220.973 164.467 214.105C166.868 217.325 171.212 218.61 175.21 216.648C177.671 229.391 164.106 238.12 156.258 234.803ZM185.542 203.918C188.288 203.51 190.939 206.471 191.885 208.781C193.267 212.157 192.935 216.287 192.053 219.749C191.103 223.468 188.873 227.12 185.102 228.487C183.283 229.141 181.312 229.103 179.556 228.252C178.801 227.885 178.253 227.412 177.789 226.864C177.565 226.206 177.171 225.554 177.01 224.902C176.887 224.396 176.833 223.886 176.795 223.377C177.225 221.463 177.342 219.378 177.048 217.139C177.099 216.87 177.156 216.604 177.238 216.351C177.402 215.829 177.614 215.297 177.852 214.776C179.373 213.327 180.509 211.495 181.388 209.596C182.138 207.974 183.065 204.776 183.065 204.776C183.065 204.776 184.264 204.105 185.542 203.918ZM180.942 195.412C184.084 201.454 180.076 212.021 174.802 214.962C163.103 221.489 158.209 194.064 169.313 190.246C172.79 189.049 176.903 190.613 179.332 193.168C179.968 193.835 180.519 194.589 180.942 195.412ZM183.347 189.67C185.195 189.192 186.925 188.487 188.292 187.838C188.428 187.772 188.348 187.582 188.206 187.621C186.159 188.173 184.125 188.604 182.018 188.847C180.638 189.009 179.146 188.902 177.779 189.173C176.941 188.707 176.109 188.474 175.463 188.402C179.139 187.749 183.859 186.547 189.174 184.564C190.449 184.786 191.638 185.153 192.717 185.636C191.752 186.146 191.158 186.506 191.214 186.667C191.274 186.854 192.312 186.683 193.777 186.164C194.024 186.304 194.261 186.446 194.492 186.595C189.749 188.392 186.055 189.237 183.347 189.67ZM175.062 187.091C178.174 185.791 181.307 184.415 185.602 184.32C182.568 185.348 179.481 186.211 176.346 186.864C175.938 186.95 175.504 187.025 175.062 187.091ZM194.58 192.773C195.952 192.33 197.548 192.03 199.079 191.98C199.18 192.246 199.268 192.507 199.348 192.77C197.602 192.507 196.007 192.552 194.58 192.773ZM195.324 202.852C194.011 203.313 192.569 203.374 191.126 202.788C189.032 201.948 188.244 199.878 188.778 197.752C189.19 196.139 190.265 194.975 191.616 194.115C194.258 193.538 196.956 193.165 199.544 193.5C200.37 197.506 198.563 200.501 195.324 202.852ZM201.236 195.07C201.056 196.497 200.531 197.872 199.708 199.167C200.699 196.804 200.721 194.504 199.841 192.131C199.484 191.157 199.079 190.189 198.541 189.3C196.555 186.036 192.91 184.181 189.228 183.561C188.838 183.495 188.288 183.422 188.152 183.412C183.179 182.871 177.077 184.21 172.075 187.525C171.079 187.68 170.075 187.867 169.133 188.145C170.29 187.497 171.344 186.611 172.372 185.725C185.026 178.914 192.904 181.087 197.428 185.406C199.209 187.114 200.408 189.325 201.018 191.704C201.313 192.836 201.379 193.972 201.236 195.07ZM202.48 193.627C202.47 193.188 202.438 192.742 202.372 192.292C206.947 193.308 210.99 197.933 210.357 203.371C210.262 203.346 210.164 203.324 210.075 203.301C209.715 198.809 206.662 195.317 202.48 193.627ZM204.283 210.587C200.942 210.809 200.825 206.772 203.198 205.044C205.52 204.488 207.629 204.715 209.398 205.455C209.297 206.105 209.133 206.746 208.895 207.382C207.75 209.145 206.004 210.473 204.283 210.587ZM214.732 216.933C215.852 214.497 215.412 211.034 214.274 208.908C212.603 205.753 208.668 203.754 205.118 204.105C208.067 203.187 211.932 204.538 213.9 206.851C215.728 208.993 216.212 211.928 215.637 214.63C215.459 215.471 215.156 216.252 214.732 216.933Z" fill="rgb(215,98,37)" fill-rule="nonzero" />
			</g>
			<g style="mix-blend-mode:normal">
				<path id="Path 1982" d="M178.098 154.874C176.643 155.398 175.042 155.143 173.909 154.292C172.986 153.59 172.482 152.552 172.312 151.764C172.22 151.369 172.195 151.03 172.198 150.796C172.198 150.56 172.208 150.426 172.208 150.426C172.208 150.426 172.15 150.546 172.077 150.776C172.002 151.009 171.929 151.359 171.923 151.806C171.904 152.679 172.28 154.026 173.441 154.915C174.915 156.009 176.968 155.854 178.098 154.874Z" fill="rgb(215,98,37)" fill-rule="nonzero" />
			</g>
			<g style="mix-blend-mode:normal">
				<path id="Path 1983" d="M139.022 153.254C139.095 152.817 139.085 152.463 139.057 152.226C139.032 151.983 139 151.856 139 151.856C139 151.856 138.977 151.986 138.937 152.22C138.892 152.447 138.803 152.776 138.649 153.147C137.734 155.374 135.263 156.678 132.448 155.62C134.428 157.534 138.509 156.602 139.022 153.254Z" fill="rgb(215,98,37)" fill-rule="nonzero" />
			</g>
			<g style="mix-blend-mode:normal">
				<path id="Path 1984" d="M172.046 181.634C170.689 182.88 168.788 184.64 166.234 185.601C164.969 186.07 163.682 186.269 162.543 186.164C161.398 186.067 160.398 185.694 159.639 185.253C158.104 184.355 157.592 183.257 157.427 183.352C157.364 183.38 157.399 183.691 157.649 184.184C157.895 184.671 158.389 185.332 159.193 185.931C159.99 186.522 161.103 187.037 162.426 187.215C163.748 187.398 165.225 187.198 166.636 186.674C168.048 186.142 169.256 185.366 170.242 184.554C171.23 183.744 172.011 182.912 172.632 182.197C173.858 180.751 174.485 179.771 174.361 179.659C174.251 179.556 173.394 180.36 172.046 181.634Z" fill="rgb(215,98,37)" fill-rule="nonzero" />
			</g>
			<g style="mix-blend-mode:normal">
				<path id="Path 1985" d="M160.914 184.453C161.395 184.634 162.002 184.753 162.688 184.801C163.369 184.829 164.128 184.772 164.897 184.589C165.665 184.39 166.359 184.086 166.95 183.741C167.532 183.381 168.016 182.991 168.361 182.605C169.057 181.839 169.266 181.223 169.132 181.134C169.003 181.042 168.573 181.47 167.82 182.001C167.446 182.27 166.978 182.546 166.444 182.814C165.9 183.067 165.286 183.301 164.622 183.475C163.951 183.637 163.299 183.716 162.701 183.744C162.104 183.757 161.559 183.727 161.104 183.665C160.192 183.545 159.617 183.374 159.535 183.528C159.468 183.652 159.94 184.101 160.914 184.453Z" fill="rgb(215,98,37)" fill-rule="nonzero" />
			</g>
			<g style="mix-blend-mode:normal">
				<path id="Path 1986" d="M117.308 211.488C118.229 211.969 119.462 212.187 120.769 212.169C120.816 212.169 120.864 212.155 120.911 212.155C121.842 212.136 122.834 211.975 123.844 211.728C124.214 211.637 124.584 211.576 124.957 211.45C127.846 210.498 130.045 208.707 131.278 207.186C132.543 205.67 132.929 204.487 132.8 204.424C132.651 204.339 132.025 205.347 130.68 206.635C129.364 207.938 127.26 209.485 124.593 210.365C124.363 210.441 124.135 210.479 123.904 210.546C122.924 210.821 121.965 211.004 121.054 211.073C120.952 211.08 120.838 211.105 120.737 211.111C119.525 211.184 118.456 211.064 117.64 210.748C117.59 210.726 117.561 210.697 117.514 210.678C117.391 210.628 117.301 210.561 117.191 210.504C116.634 210.214 116.188 209.875 115.929 209.583C115.594 209.208 115.448 208.941 115.366 208.973C115.3 208.992 115.296 209.317 115.559 209.834C115.818 210.34 116.375 211.013 117.308 211.488Z" fill="rgb(215,98,37)" fill-rule="nonzero" />
			</g>
			<g style="mix-blend-mode:normal">
				<path id="Path 1987" d="M119.478 209.686C119.949 209.809 120.532 209.881 121.164 209.914C121.996 209.951 122.923 209.898 123.894 209.672C125.586 209.27 127.011 208.471 127.867 207.741C128.738 207.002 129.102 206.386 128.984 206.275C128.876 206.165 128.32 206.557 127.402 207.072C126.548 207.556 125.34 208.104 123.932 208.471C123.831 208.499 123.736 208.531 123.635 208.556C122.784 208.752 121.971 208.844 121.231 208.885C120.626 208.914 120.069 208.911 119.601 208.882C118.567 208.826 117.912 208.721 117.836 208.873C117.817 209.015 118.396 209.411 119.478 209.686Z" fill="rgb(215,98,37)" fill-rule="nonzero" />
			</g>
			<g style="mix-blend-mode:normal">
				<path id="Path 1988" d="M135.277 220.261C135.151 220.159 134.429 220.976 133.04 221.95C131.664 222.928 129.532 224.003 127.001 224.301C124.467 224.598 122.145 224.041 120.585 223.409C119.903 223.137 119.37 222.874 118.953 222.665C118.412 222.394 118.074 222.216 118.011 222.299C117.963 222.352 118.152 222.621 118.557 222.985C118.931 223.317 119.481 223.728 120.244 224.146C121.813 225.013 124.334 225.769 127.134 225.44C129.934 225.108 132.215 223.794 133.546 222.586C134.897 221.371 135.403 220.349 135.277 220.261Z" fill="rgb(215,98,37)" fill-rule="nonzero" />
			</g>
			<g style="mix-blend-mode:normal">
				<path id="Path 1989" d="M122.012 223.042C123.006 223.421 124.505 223.687 126.141 223.5C127.773 223.307 129.174 222.709 130.057 222.114C130.946 221.517 131.347 220.976 131.246 220.849C131.06 220.605 128.975 222.048 126.008 222.361C123.043 222.737 120.696 221.785 120.56 222.096C120.497 222.226 121.013 222.658 122.012 223.042Z" fill="rgb(215,98,37)" fill-rule="nonzero" />
			</g>
			<g style="mix-blend-mode:normal">
				<path id="Path 1990" d="M97.4982 218.755C94.8942 219.331 92.3982 218.776 90.8832 217.943C89.3262 217.119 88.6752 216.149 88.5132 216.266C88.4572 216.307 88.5422 216.595 88.8402 217.04C89.1242 217.499 89.6622 218.081 90.4592 218.638C92.0382 219.754 94.8152 220.524 97.7452 219.882C100.643 219.223 102.845 217.654 104.255 216.455C105.673 215.231 106.388 214.326 106.277 214.203C106.176 214.092 105.261 214.785 103.758 215.807C102.266 216.818 100.124 218.173 97.4982 218.755Z" fill="rgb(215,98,37)" fill-rule="nonzero" />
			</g>
			<g style="mix-blend-mode:normal">
				<path id="Path 1991" d="M92.658 217.395C93.171 217.601 93.813 217.765 94.531 217.867C95.258 217.955 96.068 217.971 96.903 217.863C97.745 217.752 98.52 217.535 99.2 217.265C99.874 216.987 100.446 216.665 100.893 216.335C101.782 215.684 102.167 215.101 102.054 214.984C101.955 214.868 101.396 215.209 100.478 215.633C99.564 216.063 98.261 216.532 96.758 216.731C95.255 216.917 93.876 216.794 92.882 216.614C91.896 216.431 91.269 216.247 91.187 216.402C91.123 216.529 91.639 216.99 92.658 217.395Z" fill="rgb(215,98,37)" fill-rule="nonzero" />
			</g>
			<g style="mix-blend-mode:normal">
				<path id="Path 1992" d="M81.7091 220.849C80.4781 221.213 78.6781 221.425 76.8311 220.922C74.9831 220.413 73.5501 219.302 72.6861 218.367C71.8041 217.429 71.4021 216.699 71.2411 216.772C71.1081 216.817 71.2501 217.704 72.0511 218.878C72.8321 220.037 74.3821 221.441 76.5241 222.03C78.6721 222.619 80.7191 222.21 81.9881 221.612C83.2781 221.011 83.8571 220.325 83.7621 220.207C83.6641 220.075 82.9421 220.497 81.7091 220.849Z" fill="rgb(215,98,37)" fill-rule="nonzero" />
			</g>
			<g style="mix-blend-mode:normal">
				<path id="Path 1993" d="M74.5438 218.765C75.1538 219.292 76.1698 219.84 77.3958 220.065C78.6208 220.284 79.7698 220.134 80.5218 219.86C81.2878 219.587 81.6668 219.243 81.6038 219.087C81.4868 218.813 79.7158 219.354 77.5998 218.936C75.4698 218.581 74.0308 217.436 73.7998 217.676C73.6948 217.784 73.9258 218.24 74.5438 218.765Z" fill="rgb(215,98,37)" fill-rule="nonzero" />
			</g>
			<g style="mix-blend-mode:normal">
				<path id="Path 1994" d="M128.738 185.627C128.668 185.728 129.491 186.489 131.149 187.18C132.781 187.872 135.315 188.395 138.051 187.907C140.791 187.421 142.993 186.064 144.29 184.852C145.612 183.634 146.122 182.634 146.007 182.555C145.871 182.44 145.147 183.238 143.777 184.222C142.426 185.209 140.348 186.332 137.852 186.778C135.353 187.225 133.018 186.876 131.411 186.415C129.792 185.955 128.836 185.462 128.738 185.627Z" fill="rgb(215,98,37)" fill-rule="nonzero" />
			</g>
			<g style="mix-blend-mode:normal">
				<path id="Path 1995" d="M133.202 185.658C134.075 185.933 135.372 186.097 136.773 185.895C138.175 185.689 139.374 185.171 140.137 184.662C140.905 184.149 141.259 183.686 141.161 183.554C140.981 183.307 139.133 184.418 136.609 184.76C134.088 185.152 132.012 184.586 131.899 184.901C131.851 185.041 132.319 185.383 133.202 185.658Z" fill="rgb(215,98,37)" fill-rule="nonzero" />
			</g>
			<g style="mix-blend-mode:normal">
				<path id="Path 1996" d="M147.115 223.544C148.19 223.997 149.475 224.274 150.842 224.234C153.597 224.127 155.818 222.741 156.998 221.476C158.206 220.194 158.519 219.118 158.383 219.059C158.241 218.976 157.684 219.862 156.445 220.881C155.23 221.899 153.195 222.997 150.797 223.086C148.403 223.165 146.308 222.21 145.027 221.276C143.721 220.34 143.104 219.502 142.958 219.603C142.835 219.663 143.227 220.71 144.515 221.906C145.157 222.501 146.036 223.095 147.115 223.544Z" fill="rgb(215,98,37)" fill-rule="nonzero" />
			</g>
			<g style="mix-blend-mode:normal">
				<path id="Path 1997" d="M149.718 222.26C151.183 222.362 152.467 221.884 153.236 221.363C154.018 220.843 154.327 220.337 154.226 220.226C154.116 220.096 153.638 220.359 152.869 220.641C152.1 220.925 150.996 221.195 149.794 221.118C148.583 221.039 147.532 220.618 146.814 220.229C146.087 219.853 145.652 219.527 145.514 219.656C145.413 219.739 145.65 220.283 146.352 220.9C147.041 221.52 148.251 222.165 149.718 222.26Z" fill="rgb(215,98,37)" fill-rule="nonzero" />
			</g>
			<g style="mix-blend-mode:normal">
				<path id="Path 1998" d="M177.744 209.242C177.364 209.947 176.836 210.748 176.093 211.466C175.359 212.187 174.387 212.804 173.265 213.152C172.148 213.497 170.999 213.525 170.034 213.263C169.066 213.007 168.269 212.498 167.694 211.978C166.536 210.913 166.286 209.866 166.105 209.916C166.036 209.932 166.001 210.21 166.115 210.694C166.232 211.172 166.526 211.852 167.108 212.542C167.694 213.219 168.576 213.902 169.737 214.275C170.895 214.657 172.284 214.657 173.603 214.25C174.926 213.836 176.051 213.079 176.852 212.203C177.659 211.333 178.168 210.39 178.484 209.577C179.101 207.926 179.012 206.829 178.864 206.812C178.703 206.784 178.494 207.818 177.744 209.242Z" fill="rgb(215,98,37)" fill-rule="nonzero" />
			</g>
			<g style="mix-blend-mode:normal">
				<path id="Path 1999" d="M168.968 212.024C169.484 212.305 170.312 212.507 171.217 212.41C172.122 212.311 172.891 211.944 173.337 211.562C173.796 211.179 173.947 210.825 173.837 210.701C173.631 210.487 172.546 211.137 171.094 211.27C169.645 211.451 168.465 211.021 168.294 211.298C168.218 211.432 168.443 211.742 168.968 212.024Z" fill="rgb(215,98,37)" fill-rule="nonzero" />
			</g>
			<g style="mix-blend-mode:normal">
				<path id="Path 2000" d="M102.955 227.509C101.377 228.378 99.3522 229.233 97.0332 229.695C94.0682 230.277 91.2342 230.224 89.4282 229.552C88.5172 229.23 87.8752 228.774 87.4732 228.406C87.0712 228.036 86.8782 227.784 86.7992 227.825C86.7392 227.857 86.7962 228.193 87.1342 228.701C87.4662 229.201 88.1302 229.837 89.1112 230.302C90.0892 230.77 91.3552 231.077 92.7522 231.147C94.1412 231.229 95.6852 231.137 97.2612 230.818C100.424 230.189 103.04 228.745 104.663 227.439C106.273 226.163 107.039 225.044 106.931 224.949C106.812 224.829 105.887 225.705 104.192 226.779C103.822 227.019 103.398 227.262 102.955 227.509Z" fill="rgb(215,98,37)" fill-rule="nonzero" />
			</g>
			<g style="mix-blend-mode:normal">
				<path id="Path 2001" d="M90.9746 229.144C92.0696 229.496 93.6986 229.695 95.4536 229.404C97.2066 229.103 98.6866 228.385 99.6076 227.699C99.6616 227.661 99.6936 227.625 99.7406 227.587C100.567 226.949 100.947 226.405 100.842 226.291C100.741 226.173 100.152 226.54 99.1876 227.005C98.7886 227.199 98.3046 227.402 97.7786 227.591C97.0356 227.863 96.1946 228.114 95.2646 228.271C93.6726 228.537 92.2056 228.48 91.1456 228.351C90.0826 228.223 89.4086 228.072 89.3456 228.233C89.2886 228.366 89.8706 228.796 90.9746 229.144Z" fill="rgb(215,98,37)" fill-rule="nonzero" />
			</g>
			<g style="mix-blend-mode:normal">
				<path id="Path 2002" d="M136.7 236.382C137.988 236.569 139.889 236.445 141.727 235.547C143.568 234.649 144.84 233.231 145.489 232.102C146.149 230.96 146.267 230.141 146.115 230.087C145.969 230.027 145.592 230.71 144.82 231.641C144.058 232.57 142.844 233.725 141.224 234.516C139.607 235.307 137.943 235.547 136.748 235.57C135.539 235.601 134.77 235.484 134.726 235.649C134.679 235.788 135.397 236.196 136.7 236.382Z" fill="rgb(215,98,37)" fill-rule="nonzero" />
			</g>
			<g style="mix-blend-mode:normal">
				<path id="Path 2003" d="M173.58 219.799C173.409 219.806 173.472 221.121 172.982 223.112C172.511 225.082 171.34 227.752 169.091 229.86C166.835 231.963 164.089 232.943 162.093 233.273C160.078 233.623 158.772 233.472 158.75 233.658C158.721 233.785 160.018 234.237 162.194 234.079C164.339 233.94 167.392 233.01 169.876 230.697C172.349 228.379 173.492 225.399 173.779 223.266C174.086 221.102 173.723 219.778 173.58 219.799Z" fill="rgb(215,98,37)" fill-rule="nonzero" />
			</g>
			<g style="mix-blend-mode:normal">
				<path id="Path 2004" d="M163.201 232.027C163.85 231.909 164.602 231.65 165.393 231.264C166.172 230.859 166.978 230.318 167.722 229.622C168.452 228.92 169.041 228.141 169.49 227.388C169.92 226.623 170.221 225.886 170.376 225.241C170.702 223.953 170.581 223.128 170.43 223.118C170.265 223.102 170.095 223.871 169.607 224.981C169.373 225.538 169.025 226.172 168.591 226.832C168.14 227.484 167.589 228.158 166.93 228.791C166.266 229.413 165.561 229.923 164.884 230.338C164.197 230.732 163.549 231.043 162.98 231.245C161.847 231.666 161.072 231.798 161.082 231.976C161.082 232.115 161.898 232.277 163.201 232.027Z" fill="rgb(215,98,37)" fill-rule="nonzero" />
			</g>
			<g style="mix-blend-mode:normal">
				<path id="Path 2005" d="M182.742 226.322C181.189 226.318 180.312 225.73 180.208 225.901C180.17 225.952 180.331 226.176 180.736 226.448C181.141 226.72 181.809 227.017 182.689 227.132C183.568 227.243 184.652 227.157 185.757 226.717C186.864 226.277 187.921 225.473 188.781 224.449C189.639 223.418 190.23 222.286 190.628 221.228C191.03 220.169 191.264 219.184 191.42 218.362C191.72 216.712 191.761 215.682 191.612 215.648C191.451 215.613 191.126 216.6 190.635 218.163C190.125 219.707 189.433 221.878 187.902 223.712C187.143 224.62 186.247 225.331 185.339 225.746C184.428 226.167 183.507 226.322 182.742 226.322Z" fill="rgb(215,98,37)" fill-rule="nonzero" />
			</g>
			<g style="mix-blend-mode:normal">
				<path id="Path 2006" d="M180.759 224.219C180.706 224.333 181.091 224.699 181.901 224.921C182.306 225.035 182.806 225.078 183.359 225.041C183.913 224.99 184.518 224.848 185.102 224.582C185.681 224.31 186.184 223.947 186.583 223.564C186.972 223.165 187.269 222.757 187.447 222.378C187.81 221.618 187.782 221.08 187.646 221.045C187.482 220.995 187.235 221.403 186.767 221.932C186.308 222.463 185.577 223.095 184.622 223.541C183.66 223.978 182.708 224.115 182.005 224.117C181.303 224.124 180.832 224.044 180.759 224.219Z" fill="rgb(215,98,37)" fill-rule="nonzero" />
			</g>
			<g style="mix-blend-mode:normal">
				<path id="Path 2007" d="M117.039 171.115C117.523 171.027 118.169 170.9 118.918 170.818C119.532 170.745 120.206 170.701 120.93 170.729C121.117 170.732 121.291 170.752 121.468 170.761C122.496 170.83 123.404 171.011 124.119 171.181C125.071 171.409 125.692 171.605 125.786 171.435C125.849 171.317 125.425 170.894 124.572 170.46C124.435 170.387 124.268 170.321 124.103 170.255C123.392 169.954 122.48 169.714 121.449 169.625C121.288 169.613 121.13 169.587 120.965 169.584C120.222 169.565 119.52 169.635 118.893 169.761C118.279 169.882 117.738 170.055 117.308 170.242C117.197 170.293 117.112 170.341 117.014 170.387C116.347 170.723 115.989 171.043 116.045 171.16C116.103 171.276 116.466 171.219 117.039 171.115Z" fill="rgb(215,98,37)" fill-rule="nonzero" />
			</g>
			<g style="mix-blend-mode:normal">
				<path id="Path 2008" d="M149.883 162.615C149.016 162.08 148.001 161.581 146.881 161.204C145.758 160.843 144.644 160.643 143.628 160.555C142.61 160.489 141.686 160.52 140.927 160.643C139.403 160.872 138.542 161.299 138.58 161.431C138.628 161.606 139.541 161.467 140.991 161.451C141.715 161.438 142.576 161.488 143.518 161.606C144.458 161.745 145.482 161.96 146.524 162.295C147.561 162.643 148.514 163.077 149.348 163.526C150.177 163.991 150.899 164.462 151.471 164.905C152.626 165.778 153.28 166.433 153.429 166.309C153.527 166.237 153.091 165.38 152.002 164.288C151.465 163.741 150.743 163.166 149.883 162.615Z" fill="rgb(215,98,37)" fill-rule="nonzero" />
			</g>
		</g>
	</g>
</svg>
