<svg viewBox="0 0 48.7116 39.8369" xmlns="http://www.w3.org/2000/svg" xmlns:xlink="http://www.w3.org/1999/xlink" width="48.711563" height="39.836914" fill="none" customFrame="#000000">
	<g style="mix-blend-mode:normal">
		<path id="Path 1026" d="M48.5897 19.9164C48.5152 19.6998 48.4649 19.4642 48.4718 19.2407C48.4892 18.7244 48.3142 18.2687 48.0508 17.846C47.8412 17.5081 47.7303 17.1443 47.6298 16.7701C47.5831 16.5968 47.4774 16.4374 47.3942 16.2728C47.3145 16.1186 47.2279 15.9662 47.1464 15.812C47.0841 15.6924 47.0373 15.5625 46.9611 15.4516C46.8259 15.2506 46.6804 15.0566 46.5262 14.8677C46.3651 14.6702 46.1901 14.4796 46.0185 14.2874C45.9527 14.2128 45.8851 14.1349 45.8141 14.0638C45.6824 13.9304 45.556 13.7918 45.4139 13.6705C45.1124 13.4124 44.811 13.1559 44.4939 12.9168C44.1093 12.6276 43.7541 12.2966 43.2742 12.1372C43.0039 12.0489 42.7423 11.912 42.5032 11.7578C42.2433 11.588 41.9661 11.4997 41.6629 11.4425C41.429 11.3974 41.2072 11.2952 40.9803 11.2172C40.8694 11.1791 40.762 11.1046 40.6511 11.0994C40.2665 11.0821 39.8801 11.0717 39.4955 11.0925C39.2772 11.1046 39.0658 11.1254 38.8544 11.0578C38.7002 11.0093 38.5426 11.0128 38.4092 11.1011C38.1545 11.2709 37.8894 11.2726 37.5949 11.2224C37.3627 11.1826 37.1046 11.1635 36.8793 11.2172C36.5224 11.3039 36.1829 11.4633 35.8346 11.5845C35.6665 11.6451 35.4967 11.7093 35.3218 11.7405C35.0134 11.7942 34.7258 11.886 34.4624 12.0575C34.1835 12.2377 33.8751 12.3521 33.539 12.3711C33.3068 12.3849 33.1214 12.4681 32.9776 12.6449C32.8425 12.8129 32.6658 12.9012 32.4457 12.9048C32.2014 12.9082 32.023 13.0139 31.9069 13.2235C31.796 13.4228 31.6193 13.5371 31.4062 13.6272C31.2416 13.6982 31.0649 13.7866 30.9453 13.9148C30.6404 14.2388 30.3667 14.5923 30.0756 14.9301C29.9664 15.0566 29.8573 15.1865 29.7291 15.2922C29.5368 15.4499 29.4068 15.6352 29.3306 15.8674C29.2821 16.013 29.1851 16.1429 29.1192 16.2832C29.0534 16.4218 28.9979 16.5639 28.9425 16.7077C28.8923 16.8428 28.8507 16.9814 28.7987 17.1166C28.6653 17.4666 28.499 17.8114 28.3985 18.17C28.324 18.4368 28.2495 18.6898 28.0901 18.9184C27.877 19.2199 27.8579 19.5335 27.9879 19.8766C28.1871 20.4015 28.2529 20.9386 28.0745 21.4844C28.052 21.5537 28.0347 21.6403 28.0554 21.7061C28.1559 22.0041 28.2495 22.309 28.3881 22.5915C28.4886 22.7924 28.5769 22.9865 28.6029 23.2118C28.6185 23.3468 28.6584 23.4889 28.7225 23.6102C28.965 24.0641 29.2232 24.5076 29.4727 24.9564C29.5143 25.0309 29.5489 25.1106 29.5783 25.1903C29.6667 25.4346 29.8313 25.6165 30.034 25.7845C30.1934 25.918 30.3528 26.0808 30.4429 26.2628C30.6733 26.7253 31.0493 27.0614 31.4755 27.3109C31.8722 27.5448 32.3054 27.7232 32.6987 27.9727C32.9464 28.1322 33.2132 28.2638 33.4731 28.4042C33.5632 28.4544 33.6551 28.5047 33.7521 28.5306C34.0708 28.6104 34.3914 28.6883 34.7154 28.7472C34.8315 28.768 34.9666 28.7559 35.0809 28.7195C35.3963 28.619 35.6978 28.6364 35.9957 28.7766C36.2002 28.8737 36.4081 28.8616 36.6264 28.8044C36.8291 28.7524 37.0405 28.7385 37.2484 28.7056C37.4442 28.6727 37.6469 28.6537 37.8357 28.5982C38.2307 28.4839 38.6119 28.321 39.0104 28.2274C39.6393 28.0785 40.1417 27.7372 40.6338 27.356C40.8781 27.1671 41.1414 27.0008 41.3926 26.8189C41.5607 26.6959 41.7236 26.5677 41.8829 26.436C42.0268 26.3165 42.1498 26.164 42.3092 26.067C42.6938 25.8348 42.9467 25.5091 43.1217 25.1106C43.1754 24.9876 43.2447 24.8646 43.3314 24.7623C43.4665 24.6029 43.5427 24.4331 43.5358 24.227C43.5289 24.0329 43.5913 23.858 43.7229 23.7141C43.9586 23.4525 44.0244 23.1442 44.0383 22.808C44.0469 22.5811 44.0902 22.3524 44.1439 22.1306C44.2635 21.6229 44.3362 21.124 44.0764 20.6319C43.9343 20.3651 43.8581 20.0827 43.8581 19.7778C43.8598 19.5145 43.7368 19.2996 43.5185 19.1489C43.2707 18.9774 43.1546 18.7521 43.1616 18.4558C43.1685 18.1873 43.049 17.9673 42.8341 17.8044C42.5049 17.5549 42.1706 17.3124 41.8327 17.0733C41.7426 17.0091 41.6404 16.9554 41.5364 16.9139C41.1847 16.7753 40.8296 16.6418 40.4744 16.5119C40.3843 16.479 40.2855 16.4669 40.1902 16.4478C40.0534 16.4201 39.9165 16.3871 39.7796 16.3751C39.5821 16.356 39.3811 16.356 39.1836 16.3456C38.9792 16.3352 38.7765 16.3196 38.5738 16.3092C38.4507 16.3023 38.3278 16.2849 38.2082 16.2971C37.9223 16.3282 37.6365 16.3646 37.354 16.4166C37.1635 16.453 36.9677 16.4928 36.7979 16.5778C36.5415 16.7043 36.2816 16.7961 35.9975 16.8394C35.8606 16.8601 35.722 16.9208 35.6024 16.9936C35.4379 17.0941 35.2854 17.2171 35.1364 17.3401C35.0515 17.4111 34.9735 17.4943 34.9129 17.5844C34.627 18.0088 34.3221 18.4177 33.9496 18.7746C33.7157 19.0033 33.5701 19.2736 33.5494 19.5993C33.532 19.8696 33.5303 20.1433 33.4991 20.4102C33.4298 20.9767 33.6429 21.4636 33.9219 21.9348C33.9998 22.0665 34.0708 22.1999 34.1367 22.335C34.5092 23.0905 35.0671 23.6015 35.9628 23.7038C36.3907 23.7505 36.8135 23.8389 37.2362 23.9203C37.4078 23.955 37.555 23.9342 37.7144 23.8649C37.8495 23.8042 38.0055 23.7627 38.1528 23.7627C38.3832 23.7627 38.5703 23.6951 38.7505 23.5599C39.1698 23.2463 39.5284 22.8739 39.8749 22.491C39.9927 22.3593 40.1053 22.2103 40.069 22.0319C39.991 21.649 39.8195 21.2921 39.4366 21.1413C39.0242 20.9785 38.5824 20.9005 38.1458 21.1101C38.0003 21.1811 37.8495 21.1811 37.6988 21.1136C37.4788 21.0165 37.2553 20.923 37.0353 20.8242C36.8412 20.7376 36.7875 20.6232 36.8412 20.4223C36.888 20.2439 36.9382 20.0637 36.985 19.8835C37.082 19.5127 37.3159 19.3412 37.7092 19.343C37.853 19.343 37.9968 19.3274 38.1372 19.3048C38.4681 19.2493 38.7938 19.1783 39.123 19.1246C39.3395 19.0899 39.5353 19.1489 39.7311 19.2493C39.9131 19.343 40.1227 19.388 40.3167 19.4642C40.4518 19.5161 40.6095 19.5595 40.7013 19.6565C40.8677 19.8332 41.0409 19.9892 41.2645 20.0931C41.4897 20.1971 41.6092 20.3738 41.6213 20.6163C41.6283 20.7307 41.6248 20.8468 41.6283 20.9611C41.6352 21.2279 41.6317 21.493 41.6525 21.7563C41.6716 21.985 41.6491 22.2068 41.5191 22.394C41.254 22.782 41.0946 23.2134 40.8989 23.6327C40.6754 24.1126 40.3843 24.5666 39.8489 24.7901C39.5094 24.9339 39.1594 25.0551 38.8666 25.289C38.825 25.3237 38.7678 25.3427 38.7141 25.3583C38.5183 25.4138 38.3641 25.5229 38.2411 25.6806C38.1146 25.8452 37.9397 25.918 37.73 25.9076C37.432 25.8937 37.1323 25.866 36.8343 25.866C36.6108 25.866 36.3769 25.8677 36.1638 25.9231C35.8346 26.0081 35.5227 25.989 35.2057 25.8954C35.003 25.8348 34.7985 25.7845 34.601 25.7136C34.2077 25.5715 33.785 25.4814 33.487 25.1556C33.4315 25.095 33.3432 25.0586 33.267 25.0188C33.014 24.8853 32.7628 24.7485 32.5064 24.622C32.243 24.492 32.0698 24.2963 31.978 24.0226C31.8497 23.6379 31.6176 23.3295 31.2537 23.1181C31.0822 23.016 30.9644 22.8617 30.9072 22.6712C30.8258 22.4026 30.7444 22.1341 30.6751 21.862C30.6491 21.765 30.6508 21.6628 30.6543 21.564C30.6751 20.9074 30.6924 20.2508 30.7305 19.5941C30.7392 19.4365 30.7912 19.2684 30.8691 19.1298C30.9852 18.9202 31.0788 18.7088 31.1255 18.4732C31.1533 18.3294 31.2173 18.1856 31.297 18.0608C31.4859 17.7646 31.6505 17.4474 31.9381 17.2188C31.9918 17.1772 32.023 17.1062 32.0611 17.0473C32.6207 16.1949 33.3155 15.4897 34.2597 15.0306C34.7379 14.7984 35.1901 14.5143 35.6613 14.27C35.7982 14.1989 35.9593 14.1591 36.1135 14.14C36.5519 14.0846 36.9919 14.0569 37.4303 14.0032C37.7352 13.9668 38.0401 13.9183 38.3278 14.0448C38.6344 14.1799 38.9463 14.2249 39.2772 14.1903C39.4608 14.1695 39.648 14.166 39.8316 14.1453C40.1262 14.1141 40.3739 14.1973 40.6026 14.3809C40.7256 14.4779 40.885 14.5351 41.0305 14.6061C41.1795 14.6789 41.332 14.7499 41.4827 14.821C41.6196 14.8851 41.7565 14.9474 41.8968 15.0081C42.0597 15.0791 42.2364 15.1259 42.3837 15.2177C42.7059 15.4152 43.0143 15.6318 43.3227 15.8484C43.463 15.9454 43.5913 16.0632 43.7247 16.1689C43.8113 16.2399 43.8893 16.33 43.988 16.3716C44.4038 16.5517 44.6533 16.8896 44.8127 17.2673C45.0223 17.7663 45.1575 18.2982 45.3359 18.8093C45.3914 18.9687 45.4901 19.1108 45.5715 19.2615C45.6305 19.3655 45.7292 19.4608 45.7517 19.5699C45.8193 19.8887 45.8696 20.2109 45.9042 20.5332C45.9267 20.7376 45.9077 20.9438 45.9077 21.15C45.996 21.9521 45.8609 22.7214 45.5473 23.4647C45.5023 23.5738 45.4728 23.6968 45.4693 23.8146C45.452 24.4055 45.1402 24.8802 44.8526 25.3653C44.7729 25.4987 44.6741 25.6234 44.5944 25.7568C44.2184 26.3857 43.8459 27.0146 43.4734 27.6453C43.3366 27.8775 43.1651 28.0733 42.9104 28.1841C42.621 28.3124 42.3958 28.5099 42.2052 28.7541C41.9783 29.0418 41.6906 29.2566 41.351 29.4108C41.2315 29.4627 41.1137 29.5321 41.0115 29.6135C40.8261 29.766 40.6164 29.863 40.3826 29.9219C40.1642 29.9774 39.939 30.0276 39.7346 30.1177C39.052 30.4122 38.3347 30.4469 37.6139 30.3706C37.186 30.3238 36.7754 30.3048 36.3665 30.4538C36.1967 30.5145 36.0234 30.5214 35.8537 30.4521C35.6405 30.3619 35.4257 30.3585 35.2022 30.4036C35.0757 30.4278 34.9475 30.4416 34.821 30.4642C34.601 30.5023 34.4 30.4625 34.2198 30.3325C33.9288 30.1246 33.5979 30.0674 33.2444 30.057C32.7004 30.0432 32.1893 29.863 31.6661 29.7452C31.453 29.6689 31.1619 29.5424 30.9453 29.4818C30.7218 29.4212 30.5243 29.3293 30.3563 29.1717C30.2645 29.0851 30.1535 29.0175 30.0479 28.9482C29.5541 28.6208 29.0361 28.3262 28.6462 27.8688C28.5873 27.8012 28.5111 27.7406 28.4297 27.7025C28.1247 27.5622 27.9653 27.3075 27.8181 27.0302C27.7003 26.8085 27.5634 26.5954 27.4282 26.384C27.1909 26.0132 26.9466 25.6477 26.7127 25.2751C26.6624 25.1955 26.6313 25.1019 26.6035 25.0101C26.3662 24.201 26.1271 23.3902 25.8984 22.5775C25.8638 22.4546 25.8586 22.3194 25.8672 22.1912C25.8793 22.0093 25.8534 21.843 25.7407 21.694C25.642 21.564 25.6247 21.422 25.6455 21.2643C25.6628 21.1223 25.6732 20.9716 25.6489 20.8312C25.5917 20.5037 25.6368 20.1936 25.7581 19.8869C25.8152 19.7431 25.869 19.5907 25.8793 19.44C25.9123 19.0154 25.9209 18.5893 25.9382 18.1648C25.9435 18.0782 25.9348 17.9898 25.9573 17.9084C26.0595 17.522 26.1617 17.1339 26.2848 16.7527C26.3454 16.5622 26.4338 16.3768 26.536 16.2053C26.711 15.9124 26.8582 15.6145 26.9016 15.2714C26.9449 14.9318 27.1008 14.646 27.3451 14.3947C27.4491 14.2856 27.5339 14.14 27.5773 13.9963C27.6604 13.7121 27.806 13.4765 28.0069 13.2582C28.2131 13.0347 28.4297 12.8129 28.5908 12.56C28.9165 12.0506 29.3982 11.7162 29.9353 11.4945C30.3216 11.3315 30.63 11.1271 30.883 10.8101C30.9817 10.6888 31.1186 10.571 31.2624 10.5156C31.6609 10.3596 31.9987 10.1153 32.3331 9.86411C32.4977 9.73938 32.6727 9.67349 32.8771 9.64236C33.0937 9.60941 33.3103 9.55054 33.5095 9.46387C33.9686 9.26636 34.4174 9.04288 34.8713 8.83148C34.9458 8.79688 35.0255 8.77777 35.1035 8.75006C35.2576 8.6929 35.4188 8.65128 35.5626 8.57678C35.8277 8.44165 36.0841 8.2944 36.3388 8.14194C36.4912 8.05188 36.6506 7.96179 36.7754 7.84048C37.0179 7.60831 37.283 7.41602 37.6035 7.30341C37.6798 7.27563 37.7612 7.24274 37.8218 7.1908C38.2671 6.80612 38.7505 6.45615 39.0363 5.92255C39.1368 5.7337 39.2477 5.5206 39.4158 5.39932C39.7848 5.13077 40.0551 4.78769 40.3427 4.44986C40.639 4.10162 40.9075 3.7482 41.0756 3.32544C41.1535 3.13141 41.2904 2.99283 41.4637 2.87152C41.5971 2.77625 41.7253 2.65494 41.8084 2.51981C41.9696 2.25647 42.1013 1.97754 42.2347 1.70032C42.4789 1.19958 42.5171 0.698883 42.2225 0.199951C42.148 0.0716858 42.0527 -0.0253296 41.8933 0.00588989C41.6144 0.0596008 41.3372 0.125397 41.1189 0.321198C40.9075 0.51178 40.7083 0.716217 40.4969 0.90683C40.3843 1.00729 40.263 1.10431 40.1348 1.18399C39.8333 1.36765 39.5197 1.53055 39.2235 1.72284C39.0779 1.81815 38.9567 1.95328 38.8337 2.078C38.676 2.23569 38.5305 2.40372 38.3763 2.5614C38.1805 2.75891 37.9812 2.95465 37.7837 3.15045C37.6867 3.24573 37.6018 3.36011 37.4927 3.43808C36.9781 3.79843 36.4618 4.15363 35.9386 4.49841C35.8311 4.56943 35.6925 4.60059 35.5626 4.62659C35.3772 4.66122 35.2334 4.74615 35.1 4.87781C34.6045 5.37158 34.0379 5.76312 33.3501 5.96759C33.066 6.05078 32.8182 6.19803 32.5809 6.37131C32.0732 6.73859 31.5275 7.0383 30.9055 7.18903C30.7634 7.22366 30.6317 7.30167 30.4914 7.34671C30.2939 7.41254 30.0946 7.50085 29.8902 7.51648C29.5541 7.54251 29.2405 7.60831 28.9564 7.78851C28.7502 7.91843 28.5284 7.9462 28.2893 7.87167C27.9133 7.75732 27.5409 7.76599 27.1684 7.9046C27.0921 7.93402 26.9899 7.95135 26.9154 7.92709C26.5897 7.8197 26.2536 7.83875 25.9209 7.82666C25.7251 7.8197 25.5519 7.87167 25.4098 8.00159C25.2088 8.18527 24.9819 8.21991 24.7237 8.13672C24.3079 8.00507 23.8869 8.03281 23.478 8.15585C23.0917 8.27188 22.7244 8.27707 22.3519 8.10211C22.2202 8.0397 22.0712 8.00507 21.9239 7.98431C21.4613 7.91498 20.9953 7.86127 20.5327 7.79544C20.4218 7.77985 20.3092 7.74692 20.2087 7.7002C20.0077 7.60657 19.7998 7.58231 19.5798 7.5737C19.41 7.565 19.2281 7.52863 19.0808 7.45065C18.8105 7.31207 18.542 7.25833 18.2474 7.32593C18.0603 7.36923 17.8784 7.35187 17.7052 7.26874C17.5111 7.1752 17.3084 7.15961 17.104 7.22717C16.8233 7.319 16.5894 7.25659 16.3555 7.08157C16.2238 6.98288 16.0488 6.89972 15.886 6.88239C15.4217 6.83731 14.9677 6.69876 14.4947 6.74203C14.4497 6.74722 14.4029 6.72644 14.3561 6.72818C13.7151 6.73688 13.107 6.45966 12.459 6.52374C12.4191 6.52722 12.3758 6.51682 12.3377 6.5047C11.8058 6.34879 11.2739 6.47522 10.7438 6.5116C10.5896 6.522 10.4319 6.54623 10.2829 6.52548C10.0317 6.48911 9.80992 6.54623 9.57945 6.63986C9.1862 6.80093 8.78769 6.95514 8.38054 7.07816C8.12413 7.15607 7.9041 7.26178 7.74643 7.47665C7.59224 7.68802 7.37915 7.81281 7.11752 7.84918C6.81604 7.89072 6.58737 8.04318 6.3829 8.25803C6.24951 8.40012 6.0901 8.52307 5.9359 8.64612C5.65004 8.87482 5.33992 9.07925 5.07655 9.33047C4.89638 9.50198 4.71793 9.65448 4.48924 9.75842C4.35754 9.81909 4.21895 9.89874 4.12714 10.0045C3.76155 10.4376 3.41331 10.8846 3.05469 11.3229C2.85716 11.5655 2.65791 11.8081 2.44482 12.0385C2.30273 12.1944 2.20226 12.359 2.17281 12.5669C2.1572 12.6743 2.14508 12.7956 2.09138 12.8857C1.89041 13.2184 1.68248 13.5458 1.459 13.8628C1.24071 14.173 0.987732 14.4571 0.925354 14.8504C0.887238 15.086 0.856079 15.339 0.746918 15.5469C0.559799 15.9073 0.429855 16.2728 0.357086 16.673C0.310318 16.926 0.199402 17.1685 0.242737 17.4354C0.251389 17.4839 0.246201 17.5411 0.225388 17.5844C0.100677 17.8425 0.0833588 18.1145 0.107605 18.3917C0.111053 18.4402 0.0919952 18.4905 0.0902863 18.5407C0.0816193 18.7746 0.0781403 19.0103 0.0694733 19.2442C0.059082 19.4936 0.0486908 19.7414 0.0348053 19.9909C0.0278931 20.1053 -0.0171509 20.2265 0.00712585 20.3322C0.117996 20.8087 0.183838 21.299 0.490479 21.7166C0.606567 21.8742 0.648148 22.0821 0.72438 22.2657C0.788498 22.4217 0.849121 22.5811 0.920151 22.7352C1.02412 22.9518 1.1402 23.1632 1.24416 23.3798C1.46074 23.8337 1.64786 24.3067 2.08444 24.6185C2.42749 24.8646 2.65271 25.1764 2.70123 25.6009C2.72896 25.8417 2.86755 26.0236 3.07547 26.1657C3.20885 26.2541 3.34399 26.3615 3.43237 26.4897C3.62814 26.7755 3.88283 26.9749 4.19467 27.1307C4.33676 27.2 4.4771 27.33 4.54814 27.4669C4.70927 27.7822 4.95355 27.9727 5.29141 28.0802C5.4196 28.12 5.55995 28.1789 5.6535 28.269C5.89433 28.5029 6.18365 28.593 6.50766 28.6467C6.72943 28.6848 6.9581 28.7646 7.15042 28.8789C7.39299 29.0244 7.6338 29.1163 7.91969 29.092C8.13797 29.0712 8.33548 29.1301 8.52261 29.2392C8.61098 29.2912 8.70627 29.3484 8.80327 29.3588C9.20177 29.4004 9.60027 29.4281 9.99873 29.4576C10.0542 29.4611 10.1114 29.4472 10.1685 29.4437C10.3123 29.4316 10.4562 29.4108 10.5982 29.4108C10.9707 29.4108 11.312 29.3224 11.6135 29.1041C11.7642 28.9932 11.9375 28.9378 12.1228 28.9707C12.5248 29.0418 12.8869 28.943 13.2386 28.7628C13.5314 28.6121 13.8433 28.5428 14.1759 28.5515C14.3353 28.5549 14.4947 28.5359 14.6541 28.5185C14.9677 28.4873 15.2224 28.3539 15.4043 28.0958C15.5395 27.9034 15.7196 27.7631 15.9518 27.7007C16.4681 27.5622 16.8441 27.2382 17.1871 26.8604C17.2685 26.7721 17.3639 26.689 17.4695 26.6318C17.6532 26.5295 17.7849 26.3927 17.8663 26.2056C17.9442 26.0254 18.0603 25.8729 18.2353 25.7725C18.4606 25.6442 18.6078 25.4519 18.736 25.2336C18.8278 25.076 18.9457 24.92 19.0877 24.8039C19.3251 24.6133 19.4498 24.3864 19.4533 24.0919C19.455 23.8926 19.533 23.7263 19.6543 23.5669C19.7444 23.4491 19.8258 23.307 19.8483 23.1649C19.9575 22.4805 20.2572 21.8846 20.6869 21.344C20.7926 21.2123 20.8445 21.0634 20.7874 20.9074C20.6834 20.6215 20.7094 20.3374 20.7527 20.0463C20.8064 19.6825 20.8134 19.3256 20.7129 18.9583C20.5587 18.3969 20.4599 17.8217 20.3248 17.2569C20.2849 17.0837 20.2243 16.9104 20.1429 16.7527C20.0701 16.6072 20.0146 16.4686 20.0476 16.3075C20.1048 16.0216 20.0164 15.7894 19.8102 15.5798C19.5105 15.2784 19.2194 14.9699 19.0773 14.5524C19.0288 14.412 18.8816 14.3012 18.7724 14.1834C18.6702 14.0724 18.5558 13.972 18.4536 13.8594C18.2977 13.6879 18.1487 13.5094 17.9962 13.3327C17.8385 13.1508 17.6688 12.9757 17.525 12.7835C17.3968 12.6084 17.2478 12.4629 17.0312 12.4248C16.5773 12.3452 16.1372 12.2308 15.7214 12.0333C15.4545 12.0107 15.141 11.8721 14.9366 11.711C14.7078 11.5291 14.4601 11.4875 14.1933 11.6435C14.072 11.7144 13.9368 11.7318 13.8086 11.666C13.4015 11.4546 12.9961 11.4875 12.5681 11.6192C12.2528 11.7144 11.9098 11.8098 11.584 11.6816C11.2791 11.5603 11.0487 11.6123 10.8356 11.8409C10.7281 11.9571 10.5844 12.0489 10.425 12.0107C10.0161 11.9172 9.62971 11.9691 9.24681 12.1182C9.0233 12.1337 8.75652 12.2498 8.61098 12.4127C8.40652 12.6414 8.16051 12.8199 7.89716 12.9827C7.56451 13.1889 7.24918 13.4228 6.93559 13.6584C6.72943 13.8143 6.53711 13.9876 6.34828 14.1643C6.22351 14.2821 6.11089 14.4103 6.00694 14.5455C5.87354 14.7222 5.74707 14.9059 5.62753 15.0912C5.51662 15.2628 5.37456 15.4308 5.32431 15.6214C5.18398 16.1394 4.96394 16.6246 4.74738 17.1114C4.63823 17.3557 4.562 17.6017 4.60704 17.8703C4.73351 18.6326 4.86174 19.3949 4.98647 20.1572C5.02805 20.4084 5.13373 20.6215 5.30351 20.8156C5.53568 21.0789 5.71416 21.3752 5.8562 21.6974C5.93419 21.8759 6.0676 22.0388 6.20445 22.1843C6.44354 22.4373 6.70515 22.6729 6.95465 22.9189C7.32196 23.2776 7.71872 23.5686 8.26965 23.6033C8.49315 23.6171 8.71146 23.702 8.93323 23.7436C9.14807 23.7817 9.36636 23.8199 9.58467 23.8372C9.89307 23.8614 10.2015 23.8597 10.5098 23.8822C10.7334 23.8995 10.9308 23.8631 11.1284 23.7488C11.2549 23.6743 11.4143 23.6258 11.5615 23.6223C11.8405 23.6136 12.0778 23.5253 12.3169 23.3936C12.5335 23.2758 12.7778 23.2065 13.0099 23.1164C13.2161 23.0385 13.4344 22.9865 13.6215 22.8773C13.7445 22.8063 13.8537 22.6729 13.9091 22.5429C14.0079 22.3194 14.1482 22.141 14.3319 21.9799C14.4705 21.8568 14.6021 21.713 14.687 21.5537C14.7996 21.3405 14.9244 21.1413 15.1133 20.9888C15.3957 20.7636 15.465 20.4829 15.3991 20.1399C15.3645 19.9528 15.3939 19.7535 15.3991 19.5595C15.4026 19.4295 15.4355 19.2979 15.4217 19.1714C15.3472 18.494 15.0145 17.9604 14.4653 17.548C14.1811 17.3348 13.897 17.12 13.6111 16.9087C13.554 16.8653 13.4933 16.8238 13.4292 16.7926C13.0411 16.6037 12.6409 16.4444 12.2008 16.4114C11.9496 16.3924 11.6966 16.3837 11.4454 16.3577C11.1422 16.3265 10.9049 16.4236 10.6779 16.6246C10.418 16.8567 10.1426 17.0992 9.82724 17.2413C9.24509 17.503 8.94881 17.9274 8.85872 18.5217C8.82062 18.7729 8.90724 18.9323 9.14633 19.0449C9.2988 19.1159 9.45645 19.18 9.60892 19.2529C9.80124 19.3446 9.99355 19.3619 10.1911 19.2805C10.3505 19.2165 10.5081 19.2216 10.6762 19.2563C10.7992 19.2805 10.9343 19.2927 11.0574 19.2701C11.3623 19.2147 11.6152 19.2961 11.8456 19.4867C12.0172 19.6305 12.0674 19.7951 11.9791 19.9978C11.8907 20.2039 11.7434 20.3616 11.5373 20.4622C11.0487 20.7029 10.548 20.8918 10.0091 21.0114C9.2728 21.176 9.44606 21.1431 8.83275 20.8935C8.60406 20.8 8.44464 20.6544 8.38054 20.4153C8.33377 20.2421 8.22116 20.1208 8.06348 20.0238C7.67192 19.7847 7.47095 19.4295 7.41205 18.9843C7.38777 18.7972 7.33409 18.6118 7.26997 18.4351C7.20934 18.2653 7.1591 18.1006 7.21454 17.9222C7.35487 17.4804 7.49348 17.0403 7.63725 16.6003C7.72911 16.3196 7.90584 16.0978 8.15186 15.9229C8.39442 15.7531 8.64044 15.5868 8.86565 15.3961C9.03371 15.2541 9.22256 15.1692 9.427 15.093C9.63489 15.015 9.83762 14.9128 10.0282 14.7984C10.1911 14.7014 10.3522 14.6182 10.5462 14.6304C10.9534 14.6564 11.3328 14.5576 11.6949 14.3878C12.0518 14.2215 12.4347 14.1695 12.8228 14.1556C12.958 14.1522 13.126 14.1817 13.2265 14.2613C13.5002 14.4762 13.8034 14.5351 14.1378 14.5212C14.4012 14.5125 14.6455 14.5732 14.8793 14.6945C15.0058 14.7603 15.1444 14.8123 15.2831 14.84C15.6157 14.9041 15.8825 15.0618 16.1164 15.2974C16.3572 15.5382 16.6015 15.7773 16.8631 15.9939C17.0745 16.1689 17.2252 16.3681 17.3327 16.6159C17.4141 16.8064 17.5267 16.9918 17.6566 17.1564C17.8195 17.3626 17.9113 17.5809 17.9494 17.8391C18.0257 18.3588 18.1348 18.8751 18.2145 19.3949C18.237 19.5456 18.2405 19.7119 18.1955 19.8523C18.1036 20.1502 18.0638 20.4483 18.0482 20.7567C18.0413 20.9143 17.998 21.0928 17.9113 21.2245C17.7225 21.5052 17.622 21.8066 17.5475 22.1289C17.5111 22.2865 17.4331 22.4373 17.3639 22.588C17.2772 22.7733 17.1507 22.9449 17.0918 23.1389C16.9619 23.5738 16.676 23.851 16.2723 24.0468C16.1216 24.1178 15.9969 24.2356 15.853 24.324C15.7214 24.4055 15.5828 24.4782 15.4424 24.5492C15.3073 24.6185 15.1531 24.6602 15.0336 24.7485C14.8395 24.8906 14.6299 24.9807 14.3977 25.0448C14.2123 25.095 14.0373 25.1868 13.8571 25.2579C13.7116 25.315 13.5643 25.3739 13.4136 25.4207C13.1503 25.5039 12.8748 25.5559 12.6201 25.6599C12.1991 25.8313 11.7694 25.8972 11.3207 25.8348C11.0937 25.8036 10.8928 25.847 10.7143 25.989C10.5012 26.1622 10.2552 26.1796 9.99701 26.1276C9.90694 26.1086 9.8203 26.0704 9.73021 26.0531C9.46339 26.0028 9.19659 25.9231 8.92804 25.918C8.35454 25.9041 7.85211 25.665 7.32716 25.4952C7.10364 25.4225 6.89749 25.3029 6.67746 25.2197C6.48338 25.1452 6.32919 25.0309 6.20619 24.8698C6.11781 24.752 6.02426 24.6376 5.91684 24.5371C5.50623 24.1508 5.08694 23.7713 4.67461 23.3867C4.45804 23.1857 4.2484 22.9796 4.04051 22.7716C3.87592 22.6053 3.76675 22.4113 3.69917 22.1878C3.65758 22.0561 3.59348 21.9244 3.51207 21.8118C3.3804 21.6299 3.33189 21.4427 3.40465 21.2297C3.49127 20.975 3.44276 20.7394 3.30762 20.5072C3.23485 20.3824 3.17247 20.2456 3.14131 20.1053C3.04947 19.7102 2.96631 19.3117 2.90222 18.9132C2.87968 18.766 2.88834 18.5979 2.93684 18.4576C3.00964 18.2479 3.03387 18.0435 3.03041 17.8252C3.02693 17.5653 3.04947 17.3054 3.07719 17.0473C3.09453 16.8775 3.15341 16.7147 3.17595 16.5466C3.20714 16.3023 3.29549 16.0909 3.46703 15.9124C3.67667 15.6941 3.79449 15.4308 3.89149 15.1519C3.97812 14.9006 4.09247 14.6581 4.19817 14.4155C4.26399 14.2682 4.34543 14.1279 4.40431 13.9772C4.48924 13.7589 4.63649 13.5943 4.8063 13.4349C4.9397 13.3084 5.04018 13.149 5.15627 13.0052C5.22556 12.9204 5.29141 12.8303 5.36415 12.7471C5.58072 12.5011 5.8302 12.2741 6.00694 12.0021C6.22525 11.6694 6.49379 11.4286 6.87495 11.2952C7.16257 11.1947 7.41205 11.0284 7.65114 10.8395C7.81921 10.7079 8.02364 10.6039 8.22807 10.5346C8.67334 10.3856 9.16367 10.3925 9.59506 10.1829C9.64877 10.1569 9.71635 10.1569 9.77698 10.1517C10.4406 10.1066 11.1024 10.0408 11.766 10.027C12.2355 10.0165 12.7067 10.0858 13.178 10.1084C13.5938 10.1292 14.0096 10.1517 14.4254 10.1413C14.6715 10.1344 14.8967 10.1552 15.1046 10.2851C15.29 10.4012 15.4892 10.4376 15.7075 10.4358C15.8496 10.4341 15.9986 10.4549 16.1302 10.5C16.4161 10.6004 16.6951 10.7166 16.9723 10.8395C17.1888 10.9348 17.4089 10.9781 17.6462 10.9677C17.9356 10.9539 18.192 11.0423 18.4276 11.2034C18.8573 11.4997 19.2939 11.7838 19.7149 12.0887C19.8639 12.1961 19.9783 12.3503 20.1099 12.4837C20.2156 12.5912 20.304 12.7332 20.4322 12.7973C20.8411 13.0052 21.0542 13.331 21.1633 13.7537C21.2014 13.8992 21.2725 14.0586 21.3817 14.1574C21.6623 14.412 21.9031 14.6841 22.0331 15.0393C22.0504 15.0912 22.0972 15.1311 22.118 15.1831C22.1682 15.3112 22.2323 15.4412 22.2531 15.5764C22.2774 15.7565 22.3276 15.9194 22.4489 16.058C22.6031 16.2312 22.6516 16.4322 22.636 16.6592C22.61 17.0975 22.7053 17.5203 22.8664 17.924C22.96 18.1544 22.9773 18.3727 22.934 18.6135C22.8976 18.8284 22.9063 19.0519 22.8959 19.2701C22.889 19.4105 22.8803 19.5491 22.8734 19.6894C22.8647 19.8748 22.837 20.0602 22.8526 20.2439C22.8734 20.4864 22.8318 20.7064 22.7417 20.9334C22.6759 21.0997 22.6308 21.2955 22.6499 21.4705C22.6897 21.8326 22.6516 22.1774 22.5563 22.5273C22.4887 22.7733 22.4662 23.0298 22.416 23.2793C22.3952 23.3867 22.383 23.5062 22.3276 23.5963C22.1006 23.9584 21.9742 24.3517 21.8962 24.7641C21.8477 25.0135 21.7316 25.2284 21.5254 25.3913C21.373 25.5125 21.3106 25.6719 21.2708 25.8573C21.243 25.9838 21.1685 26.1051 21.0957 26.2159C20.9849 26.384 20.8497 26.5364 20.7389 26.7046C20.6141 26.8917 20.4963 27.0875 20.2814 27.181C19.9869 27.3109 19.7963 27.5292 19.6612 27.8047C19.5729 27.9866 19.4308 28.1183 19.2523 28.2223C19.0565 28.3401 18.859 28.4631 18.6858 28.6121C18.3081 28.9378 17.9425 29.2774 17.4973 29.52C17.4539 29.5442 17.4227 29.5893 17.3777 29.6152C17.0018 29.8387 16.6448 30.1142 16.2411 30.2684C15.8271 30.4243 15.4667 30.6548 15.1271 30.9025C14.6957 31.2196 14.2158 31.3946 13.7133 31.5453C13.6007 31.58 13.4846 31.6129 13.3807 31.6665C13.1693 31.774 12.951 31.8295 12.7137 31.8208C12.4364 31.8139 12.2303 31.9334 12.0432 32.1326C11.8456 32.3405 11.6308 32.545 11.3865 32.6957C11.04 32.9106 10.671 33.0908 10.3695 33.3731C10.3123 33.4268 10.2344 33.4632 10.1599 33.4962C9.92599 33.6036 9.7718 33.7786 9.64185 33.9934C9.54135 34.158 9.39235 34.2948 9.26416 34.4421C9.17577 34.5443 9.06145 34.6362 9.00079 34.7523C8.87779 34.9862 8.6976 35.1594 8.48969 35.324C8.30605 35.4713 8.12241 35.6376 7.99072 35.8282C7.83131 36.0586 7.71524 36.3202 7.59918 36.5767C7.5108 36.7689 7.39816 36.9301 7.23878 37.0756C7.12791 37.1761 7.04648 37.3199 6.9893 37.4585C6.91827 37.6335 6.89749 37.8293 6.83339 38.0095C6.77966 38.1584 6.71901 38.3196 6.61507 38.4339C6.27896 38.7961 6.42278 39.2812 6.60643 39.5687C6.76927 39.8269 7.12962 39.8997 7.54546 39.7836C7.73431 39.7316 7.97859 39.6554 8.16917 39.6155C8.47237 39.5497 8.64044 39.3816 8.6976 39.0802C8.72878 38.9156 8.79289 38.7527 8.87431 38.6037C9.02159 38.3317 9.26587 38.1636 9.56215 38.0527C9.87053 37.9384 10.1616 37.7964 10.3487 37.5001C10.4094 37.4065 10.5393 37.3563 10.6381 37.2835C10.7507 37.1986 10.8841 37.1311 10.9724 37.0254C11.1319 36.8313 11.3138 36.6754 11.5442 36.5784C12.083 36.3496 12.5318 36.0066 12.9545 35.6151C13.0966 35.4834 13.2698 35.3448 13.4535 35.3015C13.9316 35.1871 14.3509 34.9741 14.7581 34.7141C15.0457 34.5305 15.3627 34.3919 15.6677 34.2342C15.931 34.0991 16.1961 33.9657 16.4577 33.8288C16.8649 33.614 17.272 33.3974 17.6792 33.1843C17.719 33.1617 17.7623 33.1462 17.8074 33.1323C18.1539 33.0197 18.4952 32.8881 18.8486 32.8031C19.2021 32.7182 19.5642 32.6576 19.9263 32.6316C20.2018 32.6126 20.4339 32.5433 20.647 32.3717C20.7475 32.2903 20.8879 32.2401 21.0195 32.2106C21.2534 32.1552 21.4925 32.1101 21.7316 32.0876C22.2011 32.0443 22.6724 31.9854 23.1419 31.994C23.8263 32.0027 24.5089 32.0581 25.1915 32.1118C25.3544 32.1257 25.5311 32.1777 25.6645 32.2643C25.8932 32.4116 26.1063 32.4272 26.3662 32.3561C26.6139 32.2868 26.9068 32.195 27.1337 32.2608C27.5721 32.3891 28.0104 32.493 28.4626 32.5536C28.8299 32.6645 29.2492 32.7563 29.6321 32.6784C30.0894 32.5865 30.5399 32.5606 30.9921 32.6905C31.0441 32.7061 31.1047 32.7061 31.1602 32.7061C31.3542 32.7096 31.5205 32.7702 31.6695 32.8932C31.7302 32.9434 31.8064 32.9989 31.8809 33.011C32.2309 33.063 32.5774 33.1826 32.936 33.1028C33.3363 33.0128 33.688 33.0752 34.0345 33.3038C34.355 33.5152 34.7188 33.588 35.1121 33.4771C35.2369 33.4407 35.3841 33.4754 35.521 33.4805C35.7497 33.4927 35.9784 33.5117 36.2088 33.5204C36.3561 33.5256 36.5051 33.5221 36.6541 33.5186C36.8273 33.5152 37.0041 33.5204 37.1756 33.4996C37.633 33.4459 38.0869 33.4009 38.5391 33.5395C38.721 33.5949 38.896 33.5602 39.0554 33.4598C39.4245 33.2259 39.8351 33.1202 40.2647 33.0803C40.6442 33.0457 40.9855 32.9244 41.3129 32.739C41.5572 32.6039 41.8206 32.4999 42.0718 32.3734C42.2277 32.2972 42.3802 32.2141 42.5257 32.1205C42.8601 31.9057 43.1789 31.6665 43.5237 31.4691C44.0608 31.1589 44.5546 30.8107 44.9115 30.2979C45.1246 29.9895 45.3481 29.688 45.6651 29.4662C45.7102 29.435 45.7483 29.3917 45.7812 29.3466C46.048 28.9967 46.3218 28.6519 46.573 28.2916C46.9333 27.7735 47.1742 27.1966 47.4236 26.6231C47.5103 26.4221 47.6385 26.2385 47.7355 26.041C47.7979 25.9145 47.8672 25.7776 47.8811 25.6407C47.8984 25.4398 47.94 25.2561 48.0612 25.0915C48.1964 24.9062 48.2536 24.6982 48.283 24.4731C48.3038 24.3188 48.3575 24.1611 48.432 24.0226C48.5256 23.8475 48.5672 23.6726 48.5706 23.4768C48.5741 23.1926 48.6104 22.9085 48.6295 22.6226C48.6416 22.4442 48.6815 22.257 48.6451 22.0873C48.5689 21.7234 48.581 21.3682 48.6642 21.0131C48.7508 20.6389 48.7144 20.2802 48.5897 19.9164Z" fill="rgb(255,220,1)" fill-rule="nonzero" />
	</g>
</svg>
