<svg viewBox="0 0 29.194 39.166" xmlns="http://www.w3.org/2000/svg" xmlns:xlink="http://www.w3.org/1999/xlink" width="29.194000" height="39.166016" fill="none" customFrame="#000000">
	<defs>
		<filter id="pixso_custom_mask_type_outline">
			<feColorMatrix type="matrix" values="0 0 0 0 1 0 0 0 0 1 0 0 0 0 1 0 0 0 1 0 " />
		</filter>
	</defs>
	<mask id="mask_27" width="29.194000" height="39.165741" x="0.000000" y="0.000000" maskUnits="userSpaceOnUse">
		<g filter="url(#pixso_custom_mask_type_outline)">
			<g>
				<rect id="Rectangle 84" width="29.194000" height="39.165741" x="0.000000" y="0.000000" fill="rgb(255,255,255)" />
			</g>
		</g>
	</mask>
	<g id="Group 103">
		<g id="Group 102" mask="url(#mask_27)">
			<g style="mix-blend-mode:normal">
				<path id="Path 1082" d="M21.309 22.3814L21.309 39.134L29.194 36.2438L29.194 19.4915L21.309 22.3814ZM19.2238 22.0647C17.7664 24.6322 16.5991 26.503 16.5836 26.5284C16.4878 26.6812 16.32 26.7743 16.1397 26.7743C15.959 26.7743 15.7912 26.6812 15.6957 26.5284C15.6754 26.4958 13.731 23.3788 11.7226 19.6596L8.67677 18.6829L8.67677 35.4508L20.2621 39.1657L20.2621 22.3976L19.2238 22.0647ZM0 20.8032L0 37.583L7.6295 35.4361L7.6295 18.6563L0 20.8032ZM16.1397 0C11.7447 0 8.16914 3.57529 8.16914 7.97021C8.16914 9.80213 9.61547 13.4842 12.352 18.6183C13.8713 21.4694 15.4062 24.0435 16.1397 25.2502C16.6434 24.421 17.5259 22.9459 18.5217 21.1795C18.9749 20.3754 19.452 19.51 19.927 18.6183C22.6635 13.4842 24.1099 9.80213 24.1099 7.97021C24.1099 3.57529 20.5343 0 16.1397 0ZM16.1396 11.5398C14.1712 11.5398 12.57 9.93833 12.57 7.97021C12.57 6.00183 14.1712 4.40061 16.1396 4.40061C18.1078 4.40061 19.709 6.00183 19.709 7.97021C19.709 9.93833 18.1078 11.5398 16.1396 11.5398Z" fill="rgb(255,211,52)" fill-rule="nonzero" />
			</g>
		</g>
	</g>
</svg>
