<svg viewBox="0 0 33.6226 33.6709" xmlns="http://www.w3.org/2000/svg" xmlns:xlink="http://www.w3.org/1999/xlink" width="33.622643" height="33.670898" fill="none" customFrame="#000000">
	<defs>
		<filter id="pixso_custom_mask_type_outline">
			<feColorMatrix type="matrix" values="0 0 0 0 1 0 0 0 0 1 0 0 0 0 1 0 0 0 1 0 " />
		</filter>
	</defs>
	<mask id="mask_26" width="33.622643" height="33.670895" x="0.000000" y="0.000000" maskUnits="userSpaceOnUse">
		<g filter="url(#pixso_custom_mask_type_outline)">
			<g>
				<rect id="Rectangle 85" width="33.622643" height="33.670895" x="0.000000" y="0.000000" fill="rgb(255,255,255)" />
			</g>
		</g>
	</mask>
	<g id="Group 105">
		<g id="Group 104" mask="url(#mask_26)">
			<g style="mix-blend-mode:normal">
				<path id="Path 1083" d="M9.25119 24.3714L14.5548 22.9519L10.6719 19.069L9.25119 24.3714ZM30.476 8.99084L15.8942 23.5727C15.8165 23.6493 15.721 23.6964 15.6209 23.7141L12.1645 24.6412L8.66571 25.5789C8.58205 25.6013 8.49252 25.6025 8.40417 25.5789C8.13321 25.5071 7.97304 25.229 8.04486 24.9581L9.90858 18.0041L9.93799 17.9016L9.99339 17.7991L24.6329 3.14771L30.476 8.99084ZM33.1396 6.32729L31.1946 8.27225L25.3516 2.42911L27.2965 0.484161C27.6181 0.161373 28.0434 0 28.4675 0C28.8916 0 29.3157 0.161373 29.6385 0.484161L33.1396 3.98533C33.4612 4.30695 33.6226 4.73218 33.6226 5.15629C33.6226 5.5804 33.4612 6.00451 33.1396 6.32729Z" fill="rgb(255,211,52)" fill-rule="nonzero" />
			</g>
			<g style="mix-blend-mode:normal">
				<path id="Path 1084" d="M29.5949 15.8696L29.5949 31.1253C29.5949 31.8227 29.3075 32.4589 28.8457 32.9218C28.3851 33.3824 27.7501 33.6711 27.0491 33.6711L2.5458 33.6711C1.8472 33.6711 1.2111 33.3848 0.750459 32.9242C0.289862 32.4624 3.05176e-05 31.8239 3.05176e-05 31.1253L3.05176e-05 6.6219C3.05176e-05 5.92334 0.286329 5.28839 0.746926 4.82656C1.20756 4.36597 1.8472 4.07617 2.5458 4.07617L17.8015 4.07617L17.8015 6.19073L2.5458 6.19073C2.42682 6.19073 2.3196 6.2391 2.24184 6.31445C2.16529 6.39222 2.11463 6.50412 2.11463 6.6219L2.11463 31.1253C2.11463 31.2431 2.16176 31.3514 2.23831 31.4292C2.31606 31.5046 2.42682 31.5564 2.5458 31.5564L27.0491 31.5564C27.1658 31.5564 27.2741 31.507 27.3519 31.4292C27.4273 31.3527 27.4792 31.2454 27.4792 31.1253L27.4792 15.8696L29.5949 15.8696Z" fill="rgb(255,211,52)" fill-rule="nonzero" />
			</g>
		</g>
	</g>
</svg>
