<svg viewBox="0 0 30 39.0654" xmlns="http://www.w3.org/2000/svg" xmlns:xlink="http://www.w3.org/1999/xlink" width="30.000000" height="39.065430" fill="none" customFrame="#000000">
	<defs>
		<filter id="pixso_custom_mask_type_outline">
			<feColorMatrix type="matrix" values="0 0 0 0 1 0 0 0 0 1 0 0 0 0 1 0 0 0 1 0 " />
		</filter>
	</defs>
	<mask id="mask_25" width="30.000004" height="39.065907" x="0.000000" y="0.000000" maskUnits="userSpaceOnUse">
		<g filter="url(#pixso_custom_mask_type_outline)">
			<g>
				<rect id="Rectangle 83" width="30.000004" height="39.065907" x="0.000000" y="0.000000" fill="rgb(255,255,255)" />
			</g>
		</g>
	</mask>
	<g id="Group 101">
		<g id="Group 100" mask="url(#mask_25)">
			<g style="mix-blend-mode:normal">
				<path id="Path 1079" d="M14.5039 27.4781L11.3349 23.7939L8.83863 28.1177L1.58503 30.4733C0.38082 30.8644 -0.278355 32.1576 0.112716 33.3619C0.503964 34.5667 1.79815 35.2258 3.00265 34.8337L10.9146 32.2587C11.5721 32.0447 12.1271 31.595 12.4728 30.9961L14.5039 27.4781Z" fill="rgb(255,211,52)" fill-rule="nonzero" />
			</g>
			<g style="mix-blend-mode:normal">
				<path id="Path 1080" d="M26.9627 20.3941C27.5178 20.3941 28.0596 20.3377 28.5828 20.2303C29.654 20.0106 30.2697 18.8781 29.8847 17.8546C29.5739 17.0284 28.708 16.5627 27.8426 16.7368C27.525 16.8006 27.1953 16.8306 26.8575 16.8227C24.4923 16.7679 22.5669 14.848 22.5056 12.483C22.484 10.8357 21.4228 9.32349 19.8622 8.79547L16.2025 7.55719C15.0797 7.12372 13.843 6.9339 12.5639 7.05444C8.14975 7.47052 4.89728 11.4106 5.32559 15.8235C5.37891 16.3726 5.48642 16.9034 5.64224 17.4109C5.96432 18.46 7.15054 18.9703 8.13556 18.4865C8.91959 18.1013 9.31662 17.2034 9.05795 16.3691C8.9697 16.0844 8.90894 15.7867 8.87903 15.4786C8.64157 13.0316 10.4392 10.8475 12.8862 10.61C13.0111 10.598 13.1351 10.5917 13.2584 10.59L10.5239 18.6826C10.1216 19.8732 10.3775 21.1878 11.1971 22.1406L17.2596 29.1887L17.2596 36.7726C17.2596 38.0392 18.2863 39.066 19.5529 39.066C20.8194 39.066 21.8462 38.0392 21.8462 36.7728L21.8466 28.7144C21.8467 27.9233 21.563 27.1584 21.047 26.5585L17.7173 22.6874L19.9104 16.2056C21.2722 18.7011 23.9197 20.3941 26.9627 20.3941Z" fill="rgb(255,211,52)" fill-rule="nonzero" />
			</g>
			<g style="mix-blend-mode:normal">
				<path id="Path 1081" d="M23.8259 3.79963C23.8259 5.89811 22.1249 7.59925 20.0264 7.59925C17.928 7.59925 16.2268 5.89811 16.2268 3.79963C16.2268 1.70116 17.928 0 20.0264 0C22.1249 0 23.8259 1.70116 23.8259 3.79963Z" fill="rgb(255,211,52)" fill-rule="nonzero" />
			</g>
		</g>
	</g>
</svg>
