<svg width="56" height="56" viewBox="0 0 56 56" fill="none" xmlns="http://www.w3.org/2000/svg">
<mask id="mask0_2117_1964" style="mask-type:alpha" maskUnits="userSpaceOnUse" x="0" y="0" width="56" height="56">
<rect y="0.75" width="55.2666" height="54.73" fill="#D9D9D9"/>
</mask>
<g mask="url(#mask0_2117_1964)">
<path d="M27.6759 53.9484C27.7932 54.1022 27.9348 54.2646 27.9914 54.3119C28.1731 54.4657 28.0679 54.5065 27.4534 54.5186C27.1579 54.5272 26.8875 54.5186 26.851 54.4979C26.798 54.47 26.8424 54.3934 27.1135 54.07C27.2917 53.8554 27.4455 53.678 27.4534 53.678C27.4612 53.678 27.5628 53.7989 27.6759 53.9484ZM31.962 53.9126C32.075 54.0786 32.1644 54.2353 32.1644 54.2646C32.1644 54.329 31.9462 54.397 31.6794 54.4142L31.5012 54.4249L31.4483 54.0214C31.424 53.7989 31.4004 53.5242 31.4004 53.4147V53.2122L31.5821 53.4147C31.6794 53.5242 31.8532 53.7502 31.962 53.9126ZM23.4663 53.7867C23.4255 54.0579 23.3733 54.3162 23.349 54.3612C23.296 54.4657 23.1787 54.4657 22.9569 54.3648C22.7423 54.2689 22.7301 54.1545 22.904 53.8998C23.0857 53.6372 23.4785 53.2251 23.5107 53.2609C23.5271 53.2781 23.5064 53.5156 23.4663 53.7867ZM35.1041 52.7515C35.1928 52.9304 35.2257 53.1522 35.1649 53.1522C35.1084 53.1522 34.6555 52.8688 34.5504 52.768C34.4331 52.6506 34.4652 52.602 34.6913 52.5526C34.9181 52.5054 35.0032 52.5455 35.1041 52.7515ZM20.3363 52.5612L20.4579 52.6099L20.2025 52.813C20.0616 52.9218 19.8756 53.0541 19.7861 53.1078C19.6409 53.1929 19.6288 53.1972 19.6288 53.1285C19.6288 53.0305 19.8591 52.5376 19.9235 52.4968C19.9765 52.4603 20.1546 52.4882 20.3363 52.5612ZM38.2949 51.2634C38.5897 51.4824 38.9495 51.8708 38.986 52.0118C39.0061 52.0933 38.986 52.1334 38.9009 52.2064C38.7599 52.3308 38.4845 52.4117 38.4001 52.3602C38.335 52.3151 38.3192 52.275 38.2341 51.9223C38.2055 51.8093 38.1332 51.5997 38.0681 51.4502C37.9994 51.2992 37.9472 51.1583 37.9472 51.1347C37.9472 51.0495 38.0603 51.0896 38.2949 51.2634ZM17.0203 51.1389C17.0039 51.1905 16.9395 51.3529 16.8751 51.4981C16.81 51.6476 16.7334 51.8823 16.7012 52.0204C16.624 52.3516 16.5675 52.4074 16.3814 52.3473C16.2155 52.2901 16.0459 52.1699 15.9894 52.0568C15.9043 51.8987 16.2198 51.5382 16.7213 51.2112C17.0082 51.0252 17.0568 51.013 17.0203 51.1389ZM13.8338 49.8447C14.0363 50.3062 14.052 50.4221 13.9189 50.3813C13.7816 50.3384 13.1906 50.0544 13.1062 49.99C13.0375 49.937 13.0411 49.922 13.1906 49.6938C13.2801 49.5614 13.3888 49.4119 13.4418 49.3583L13.5305 49.266L13.5956 49.3547C13.6278 49.4033 13.7365 49.6215 13.8338 49.8447ZM41.7197 49.4398C41.8856 49.6788 42.0309 49.9256 42.0309 49.9735C42.0309 50.0458 41.2382 50.3384 41.1051 50.3126C41.0321 50.3019 41.0321 50.2847 41.1573 49.9778C41.3476 49.5164 41.4972 49.1894 41.5215 49.1894C41.5294 49.1894 41.6188 49.3024 41.7197 49.4398ZM11.1288 47.8637C11.2461 47.9811 11.1002 48.235 10.8863 48.2801C10.7324 48.3159 10.6516 48.2307 10.6516 48.0283C10.6516 47.9238 10.6716 47.883 10.7446 47.8551C10.8741 47.8022 11.0723 47.8058 11.1288 47.8637ZM44.3317 47.8423C44.4132 47.8952 44.4211 47.9238 44.4011 48.049C44.3803 48.1907 44.2916 48.2994 44.1986 48.2994C44.1743 48.2994 44.0934 48.2629 44.0248 48.2186C43.9196 48.1585 43.891 48.1134 43.891 48.0133C43.891 47.8022 43.9561 47.7249 44.1056 47.7528C44.1786 47.77 44.2794 47.8101 44.3317 47.8423ZM8.53251 45.6516C8.68991 45.6946 8.78291 45.7604 8.93673 45.9213C9.19571 46.1961 9.37385 46.435 9.34524 46.4636C9.31733 46.4951 8.82369 46.3349 8.58903 46.2175C8.3787 46.1109 8.22488 45.97 8.05103 45.716L7.93012 45.5372L8.1283 45.5665C8.23704 45.5815 8.41947 45.618 8.53251 45.6516ZM47.3687 45.3633C47.3687 45.3998 46.9523 45.8977 46.8271 46.0065C46.7584 46.0723 46.6332 46.156 46.5524 46.2004C46.4186 46.269 45.6502 46.5609 45.6016 46.5609C45.4964 46.5609 46.0787 45.9335 46.342 45.7675C46.6776 45.5536 47.3687 45.2825 47.3687 45.3633ZM49.8276 42.2698C49.8354 42.4365 49.8233 42.586 49.799 42.6096C49.7267 42.6819 48.9862 42.2333 48.9862 42.1117C48.9862 42.0881 49.0635 42.0716 49.1601 42.0688C49.2531 42.0688 49.4026 42.0395 49.492 42.0116C49.7911 41.9107 49.8154 41.9307 49.8276 42.2698ZM3.2956 37.8099C3.36857 37.8907 3.50236 37.9873 3.58678 38.0316C3.75705 38.1211 3.76492 38.1382 3.66762 38.2176C3.38503 38.4373 3.06523 38.4931 3.0731 38.32C3.0731 38.2706 3.07739 38.1017 3.08169 37.9479C3.08526 37.7898 3.10601 37.6646 3.12175 37.6646C3.13821 37.6646 3.21905 37.729 3.2956 37.8099ZM52.0432 38.3393C52.0111 38.4201 51.8207 38.4816 51.6877 38.4523C51.6111 38.433 51.5417 38.3715 51.4773 38.2584C51.3679 38.081 51.3722 38.0281 51.4938 38.0281C51.5704 38.0281 51.8494 37.7369 51.971 37.5301C52.0397 37.4171 52.0397 37.4257 52.0518 37.8499C52.0554 38.0889 52.0518 38.3114 52.0432 38.3393ZM53.5034 33.1439C53.5521 33.1918 53.6043 33.264 53.6208 33.3048C53.653 33.4107 53.1801 34.8179 53.0706 34.931C53.0184 34.9832 52.9776 34.3279 52.9976 33.7255C53.0098 33.2576 53.0219 33.1718 53.0906 33.0952C53.1879 32.99 53.3618 33.0101 53.5034 33.1439ZM2.02214 33.0702C2.09082 33.1231 2.09869 33.1918 2.11085 33.7913C2.11872 34.154 2.10728 34.5218 2.09082 34.6112L2.05434 34.7736L1.98136 34.6598C1.86403 34.4853 1.55282 33.5524 1.55282 33.3814C1.55282 33.1231 1.83613 32.9371 2.02214 33.0702ZM1.41117 27.1021C1.65799 27.3089 1.69018 27.502 1.52492 27.8383C1.37897 28.1416 1.37897 28.4564 1.5285 28.7848C1.6537 29.0638 1.66228 29.1768 1.56069 29.2648C1.4963 29.3263 1.22516 29.4551 1.16506 29.4551C1.1529 29.4551 1.14861 28.9493 1.15648 28.3319C1.17293 27.0449 1.20083 26.9204 1.41117 27.1021ZM53.9885 27.0534C54.0894 27.155 54.0894 27.1622 54.0615 27.5671C54.045 27.7939 54.0207 28.2747 54.0049 28.6388C53.9763 29.3464 53.9685 29.3743 53.7581 29.3743C53.5192 29.3743 53.4948 29.1475 53.6809 28.7204L53.8068 28.4321L53.7417 28.0758C53.6451 27.5464 53.6165 27.1386 53.673 27.0377C53.7381 26.9204 53.859 26.9247 53.9885 27.0534ZM53.4469 22.2701L53.7502 23.0263L53.6243 23.1229C53.3496 23.3254 53.2044 23.3576 53.0871 23.2402C53.0262 23.1758 53.0219 23.0986 53.042 22.4604C53.0663 21.8244 53.0992 21.4653 53.1314 21.4974C53.1393 21.506 53.2809 21.8494 53.4469 22.2701ZM2.05004 22.2894C2.05863 23.0542 2.01427 23.2681 1.86046 23.2681C1.76316 23.2681 1.43192 23.0091 1.43192 22.9326C1.43192 22.909 1.55282 22.5777 1.70235 22.1936C1.90052 21.6878 1.98566 21.5103 2.00998 21.5547C2.03001 21.5912 2.05004 21.9224 2.05004 22.2894ZM52.0962 17.7851C52.1484 17.8502 52.2092 18.6579 52.1606 18.6579C52.1448 18.6579 52.0275 18.5492 51.9102 18.4161C51.7886 18.2823 51.6433 18.1607 51.5904 18.1493C51.4652 18.1171 51.4695 18.092 51.6269 17.9425C51.8537 17.7286 52.0068 17.6756 52.0962 17.7851ZM3.40935 17.8144C3.49377 17.8574 3.5832 17.9346 3.6111 17.9833C3.65975 18.0598 3.65546 18.077 3.57104 18.1285C3.5181 18.165 3.3607 18.2988 3.22334 18.4319L2.96793 18.6708V18.2501C2.96793 17.9747 2.98439 17.8102 3.01658 17.7765C3.08956 17.7036 3.24337 17.7164 3.40935 17.8144ZM46.3456 9.65645C46.4629 9.69007 46.6332 9.76948 46.7176 9.83959C46.9036 9.98912 47.3086 10.4828 47.2721 10.5185C47.2234 10.5665 46.3578 9.93188 46.1396 9.68578C46.0508 9.58419 46.0666 9.58419 46.3456 9.65645ZM9.39818 9.56845C9.39818 9.63713 9.03403 9.97696 8.78291 10.1429C8.56471 10.2882 7.73982 10.628 7.73982 10.5743C7.73982 10.5064 8.43951 9.8074 8.57258 9.74158C8.75859 9.65215 9.18355 9.52839 9.30875 9.52409C9.3574 9.5198 9.39818 9.54055 9.39818 9.56845ZM44.3481 7.89435C44.5098 8.03601 44.3603 8.26637 44.1013 8.26637C44.0169 8.26637 43.9275 8.24563 43.8996 8.21773C43.8223 8.14046 43.8387 7.87361 43.9196 7.82496C44.0083 7.77702 44.2551 7.8178 44.3481 7.89435ZM11.2053 7.98235C11.2783 8.2256 11.254 8.26637 11.0437 8.26637C10.6917 8.26637 10.4413 8.0961 10.5829 7.95016C10.6473 7.88648 10.995 7.78132 11.0966 7.79276C11.1288 7.79706 11.1774 7.88219 11.2053 7.98235ZM41.6553 5.83894C41.8856 5.94983 42.0716 6.04569 42.0716 6.06287C42.0716 6.15086 41.6431 6.81048 41.5866 6.81048C41.5415 6.81048 41.02 5.70229 41.02 5.61C41.02 5.56493 41.2589 5.65364 41.6553 5.83894ZM14.0484 5.60571C14.0441 5.71445 13.5748 6.79045 13.5305 6.79045C13.5061 6.79045 13.3645 6.63735 13.2236 6.44705L12.9603 6.10293L13.0697 6.04569C13.1306 6.0135 13.3609 5.89259 13.5834 5.77455C14.0198 5.53989 14.0484 5.53345 14.0484 5.60571ZM38.7599 3.73344C38.9939 3.87867 39.0712 4.04465 38.9824 4.21421C38.893 4.38877 38.5696 4.69927 38.2949 4.87812C38.1611 4.96326 38.0402 5.03122 38.0195 5.03122C37.9551 5.03122 37.9916 4.85237 38.1332 4.49751C38.2098 4.29934 38.3107 4.03249 38.355 3.90657C38.4244 3.70554 38.4845 3.6204 38.5575 3.61611C38.5696 3.61611 38.6584 3.66762 38.7599 3.73344ZM16.6562 4.01961C16.7413 4.25427 16.8629 4.55761 16.923 4.69926C17.0568 4.99116 17.0647 5.03122 16.976 5.03122C16.8422 5.03122 16.0137 4.40022 15.9808 4.27144C15.9529 4.16484 16.0459 3.91087 16.1511 3.79783C16.2276 3.71699 16.4787 3.56317 16.4988 3.58821C16.5031 3.59107 16.5753 3.78495 16.6562 4.01961ZM29.8393 3.55172C33.8993 4.00459 36.8913 4.99116 40.2516 6.98362C41.9829 8.01168 43.3086 9.02616 44.6558 10.3483C45.97 11.6425 46.6532 12.4108 47.5511 13.6085C49.8075 16.6211 51.2062 19.6574 51.8737 22.9855C52.3995 25.6054 52.4761 29.0302 52.0762 31.7566C51.6068 34.9589 50.3169 38.2105 48.323 41.2232C47.2234 42.8808 46.1918 44.1342 44.7931 45.5128C43.8187 46.4758 43.0582 47.1311 42.0309 47.8952C37.9351 50.9401 33.3206 52.5977 28.5451 52.7315C26.891 52.7766 24.8292 52.6506 23.4699 52.4203C19.1795 51.692 15.3784 49.9005 11.8042 46.9244C10.3118 45.6838 9.17926 44.4819 7.9058 42.7992C4.96612 38.918 3.42151 35.092 2.92358 30.4667C2.81841 29.5038 2.77835 27.341 2.84273 26.3616C3.06952 23.0306 3.91444 19.9328 5.34172 17.2035C7.65898 12.7757 11.2783 8.94531 15.3419 6.62877C16.1432 6.17161 17.9826 5.2666 18.5692 5.03551C20.6518 4.22637 23.3611 3.65689 25.9774 3.47875C26.5877 3.43725 29.2648 3.4902 29.8393 3.55172ZM20.2476 3.29632C20.3728 3.40935 20.4415 3.49878 20.4214 3.52668C20.385 3.58821 20.0573 3.59107 19.9478 3.53527C19.847 3.47875 19.6445 3.00943 19.6974 2.9522C19.7375 2.91571 20.0373 3.10172 20.2476 3.29632ZM35.1563 3.21476C35.0354 3.5181 34.9746 3.57533 34.7686 3.57533C34.3236 3.57533 34.3801 3.41365 34.9546 3.0545C35.2579 2.8642 35.2858 2.88781 35.1563 3.21476ZM32.1201 1.89766C32.168 1.94202 32.1601 1.9828 32.0636 2.14019C31.9376 2.36269 31.4004 2.98439 31.3639 2.9522C31.3553 2.94146 31.376 2.68964 31.4161 2.39917C31.5091 1.73097 31.5377 1.69019 31.8489 1.77961C31.9663 1.8161 32.0872 1.86904 32.1201 1.89766ZM27.9141 1.73955C27.9828 1.75601 28.0393 1.77961 28.0393 1.79965C28.0393 1.85259 27.4698 2.52723 27.4333 2.5165C27.3682 2.49146 26.8667 1.8719 26.8667 1.8161C26.8667 1.7882 26.8996 1.75171 26.9397 1.74384C27.0491 1.71594 27.7724 1.71165 27.9141 1.73955ZM23.3082 1.75601C23.3533 1.77961 23.4055 1.86547 23.4255 1.9506C23.4785 2.14734 23.5672 2.88352 23.5428 2.91213C23.5185 2.93288 23.0499 2.4142 22.8718 2.16809C22.8031 2.07079 22.7544 1.96992 22.7666 1.94202C22.7909 1.8719 23.0657 1.71952 23.1587 1.71594C23.1994 1.71594 23.2681 1.73526 23.3082 1.75601ZM24.9057 0.870309C22.6092 1.09281 20.9587 1.43621 18.9005 2.11944C15.4149 3.27628 12.3658 5.02765 9.53912 7.48942C8.9167 8.03172 7.81709 9.11201 7.22257 9.76304C4.26643 12.9889 2.11515 16.8064 0.942565 20.9036C0.42102 22.738 0.157744 24.2196 0.0525764 25.941C0.000350369 26.8796 0.0246748 30.0983 0.0933556 30.7493C0.554089 35.0555 1.90052 38.8086 4.29863 42.4766C6.12654 45.2717 8.73498 48.049 11.3956 50.0265C15.2489 52.8939 19.7947 54.7297 24.4407 55.2913C25.6333 55.4365 26.22 55.4687 27.5542 55.4687C29.2491 55.473 30.4496 55.3642 32.0514 55.0738C36.633 54.2324 41.0887 52.1656 44.8253 49.1451C45.6867 48.4447 47.951 46.2132 48.6951 45.319C51.7764 41.6317 53.9842 37.03 54.789 32.613C55.0681 31.0648 55.1489 30.0096 55.1489 27.7767C55.1489 26.0583 55.141 25.8601 54.9715 24.5337C54.4134 20.2233 52.5083 15.6746 49.6938 11.9258C46.8958 8.20199 43.305 5.26874 39.172 3.33638C36.0141 1.85688 32.8799 1.04773 29.4351 0.825952C28.367 0.757272 25.8036 0.780881 24.9057 0.870309Z" fill="#FFD334"/>
<path d="M26.7251 3.96365C26.3696 4.03663 26.0619 4.11747 25.9811 4.1604L25.8838 4.20976L25.9811 4.30348C26.2766 4.58536 27.3962 5.35372 27.5135 5.35372C27.5944 5.35372 28.0107 5.06326 28.5123 4.65547C28.6983 4.50881 28.905 4.35928 28.9694 4.3228C29.1268 4.24195 29.1111 4.18186 28.905 4.11318C28.553 3.99156 27.6144 3.89068 27.5421 3.96795C27.5014 4.00443 27.6351 4.08528 27.789 4.12176C27.8576 4.13249 27.9177 4.15753 27.9177 4.16469C27.9177 4.17327 27.8247 4.30348 27.7074 4.453L27.4978 4.71986L27.3597 4.56175C27.2832 4.47661 27.1945 4.35928 27.158 4.30706C27.0971 4.21763 27.0971 4.20976 27.2223 4.10459C27.2953 4.04879 27.3518 3.98726 27.3518 3.96795C27.3518 3.93861 26.8704 3.93432 26.7251 3.96365Z" fill="#FFD334"/>
<path d="M14.262 42.553C14.4359 42.7483 14.481 42.9336 14.5332 43.747C14.6548 45.5134 14.7922 45.8447 15.5927 46.2939C15.8675 46.4478 15.9526 46.5164 15.9848 46.6123C16.0864 46.8963 15.997 47.1675 15.8031 47.1675C15.6614 47.1675 15.4268 47.038 15.1442 46.8033C14.6062 46.354 14.1776 45.522 13.9795 44.5454C13.9022 44.1663 13.8743 42.8442 13.9387 42.5451C13.9795 42.3469 14.076 42.3469 14.262 42.553ZM7.4605 25.9451L7.62648 26.144L7.3074 26.496C6.53474 27.3452 6.36876 27.5913 6.36518 27.8832C6.36518 28.1379 6.48609 28.4004 6.88244 28.9849C7.35963 29.6939 7.4004 29.7791 7.31885 29.9372C7.21439 30.1389 7.14142 30.1275 6.89031 29.8721C6.7694 29.7433 6.48609 29.3956 6.26789 29.1001C6.04968 28.8082 5.85509 28.5664 5.83935 28.5664C5.7907 28.5664 5.5682 28.8333 5.49523 28.9699C5.41868 29.1159 5.443 29.2246 5.62472 29.5938C5.8186 29.9887 5.95238 30.1675 6.28792 30.4866C6.65207 30.83 6.98331 31.016 7.15358 30.976C7.31527 30.9366 8.01853 30.2241 8.18022 29.9415C8.2489 29.8191 8.30613 29.6703 8.30613 29.6131C8.30613 29.5573 8.2167 29.387 8.09937 29.2175C7.98634 29.0558 7.9012 28.9177 7.91336 28.9055C7.92553 28.8934 8.16019 28.874 8.43491 28.8605C9.05375 28.8333 9.15105 28.8698 9.30057 29.1838C9.35352 29.3019 9.39787 29.4314 9.39787 29.4764C9.39787 29.6252 9.20757 29.8434 8.73038 30.2448C8.03499 30.8264 7.79603 31.0561 7.66297 31.2743L7.54134 31.4732L7.79246 31.6563C7.92982 31.7515 8.2489 31.9425 8.50001 32.0792C9.07808 32.3911 9.38142 32.5978 9.63611 32.8525C9.83857 33.055 10.0732 33.4027 10.0325 33.4435C10.0203 33.4542 9.59604 33.241 9.09024 32.9691C8.58086 32.6987 7.95414 32.3675 7.69945 32.2301C7.44476 32.0963 7.09706 31.8824 6.92322 31.7565C6.42528 31.4038 5.74992 30.7857 5.41081 30.3779C5.24054 30.1718 5.07885 29.9851 5.04666 29.9686C4.91716 29.8971 4.5895 30.5546 4.64602 30.7778C4.69037 30.9645 4.88497 31.202 5.3779 31.6799C6.53903 32.8032 7.89333 33.608 9.11027 33.8999C9.38571 33.9643 9.62395 34.0416 9.64469 34.0695C9.69263 34.146 9.73341 34.5338 9.70121 34.5874C9.66043 34.6561 9.51878 34.6389 9.13102 34.5259C8.33833 34.2998 7.32743 33.8384 6.49396 33.3218C5.87583 32.9377 5.32138 32.5041 4.79196 31.9876L4.29474 31.4982L4.32265 30.8515C4.34268 30.3285 4.367 30.1511 4.44427 29.9329C4.56518 29.5759 5.32567 28.1865 5.70986 27.6163C6.07758 27.0705 6.89889 25.9623 7.06415 25.7877C7.20581 25.6382 7.20581 25.6382 7.4605 25.9451ZM15.7909 9.11186C15.8796 9.20415 15.9082 9.26997 15.9082 9.38729C15.9082 9.56901 15.8231 9.66488 15.459 9.89167C15.152 10.0855 14.9617 10.3245 14.8408 10.6686C14.5654 11.4205 14.4767 12.0966 14.5167 13.0381L14.5454 13.624L14.262 13.8794L13.9795 14.1298L13.9508 13.956C13.89 13.5468 13.8779 12.7827 13.9229 12.3463C14.0195 11.4456 14.2377 10.6321 14.574 9.94461C14.7965 9.48316 15.0225 9.20415 15.2694 9.07966C15.5119 8.96233 15.6493 8.97092 15.7909 9.11186ZM23.1748 4.54959C21.6667 4.81215 19.7093 5.38234 18.2777 5.98187C17.1738 6.4426 15.831 7.07289 15.4024 7.33188L15.1599 7.47854L15.7866 7.50215C16.5471 7.53434 16.9313 7.6345 17.5537 7.96288L17.9665 8.18109L18.1082 8.02298C18.1847 7.93498 18.3829 7.68816 18.541 7.46995C18.9009 6.9849 19.2121 6.65222 19.5233 6.41756C19.9804 6.07845 19.9518 6.16788 19.2242 7.26749C18.2291 8.77918 17.9823 9.21631 17.5659 10.248C17.3355 10.8139 17.2146 10.9913 17.0522 11.0077C16.9678 11.0163 16.8948 10.9913 16.814 10.9183C16.7088 10.8303 16.6966 10.7981 16.6966 10.5635C16.7009 10.2437 16.8218 9.96822 17.259 9.31718L17.5659 8.85645L17.3963 8.70263C16.7288 8.12099 15.3946 7.86988 14.6827 8.19826C14.0038 8.50947 13.4822 9.42307 13.1424 10.8947C13.005 11.5014 12.9356 11.922 12.7947 12.998C12.7296 13.5189 12.6609 14.029 12.6409 14.1298L12.6123 14.3116L12.2488 14.3409C12.0464 14.3559 11.331 14.3881 10.6513 14.4089C9.30487 14.4539 9.08237 14.4818 8.5365 14.7079C8.07147 14.8982 7.81678 15.0599 7.71948 15.2252C7.64651 15.3511 7.63864 15.4276 7.64293 16.03C7.6508 16.9157 7.76813 17.7892 8.02282 18.7837C8.0958 19.072 8.27752 19.5077 8.32187 19.5077C8.39055 19.5077 8.70606 19.3625 8.97291 19.2087C9.28412 19.0312 9.48658 18.9783 9.53953 19.0634C9.55527 19.087 9.5753 19.2044 9.58746 19.326C9.60821 19.5249 9.59962 19.5528 9.49445 19.6486C9.35352 19.7831 8.21313 20.3576 7.49699 20.661C6.85382 20.9314 5.8837 21.2626 5.52814 21.3313C5.32996 21.3721 5.26057 21.3721 5.2248 21.3356C5.18831 21.2991 5.2205 21.2433 5.38219 21.0938C5.66121 20.8341 6.13053 20.563 6.90676 20.2188L7.5578 19.9284L7.55351 19.7467C7.54993 19.6486 7.46479 19.2215 7.36392 18.8009C7.12497 17.8172 7.03196 17.3235 6.94683 16.5845C6.91105 16.2561 6.86598 15.9892 6.85382 15.9892C6.76511 15.9935 5.87941 17.6676 5.41438 18.72C4.6546 20.4428 3.88624 23.1392 3.69164 24.7897C3.60293 25.5566 3.69593 25.8685 4.34268 26.9488C4.5895 27.3523 4.78767 27.7079 4.78767 27.7322C4.78767 27.7616 4.66677 27.9926 4.51653 28.2466C3.70023 29.6539 3.59506 29.9415 3.60293 30.8107C3.60722 31.4489 3.7081 31.9876 4.06008 33.2768C4.35484 34.3485 4.53727 34.9416 4.75548 35.5618C5.10317 36.5398 5.75421 38.0165 6.31224 39.0796C6.66781 39.7592 6.80589 39.9774 6.85382 39.9445C6.87457 39.9324 6.89031 39.8193 6.89031 39.6949C6.89031 39.1318 7.1128 38.113 7.38395 37.4341L7.54993 37.0177L7.4326 36.9283C7.1128 36.6779 6.70859 36.3123 6.3566 35.9496C5.78641 35.3715 5.81073 35.3386 6.49038 35.7793C6.98331 36.0991 7.53347 36.4018 8.58515 36.9405C9.28412 37.301 9.59175 37.5192 9.5474 37.6366C9.51091 37.7289 9.40145 37.7239 8.84771 37.6044C8.58873 37.5471 8.29755 37.5028 8.20097 37.5028C8.03499 37.5028 8.01495 37.515 7.96201 37.6323C7.79246 38.0444 7.63077 38.9658 7.56996 39.8844L7.52131 40.5877L7.78387 40.8352C8.26106 41.291 9.07808 41.6315 9.8629 41.7081C10.1097 41.7281 10.5905 41.7481 10.9346 41.7531C11.8439 41.7574 12.2567 41.7975 12.354 41.8984C12.4384 41.9792 12.467 42.1159 12.6931 43.3657C12.8226 44.0926 13.1059 45.2258 13.2998 45.8167C13.9308 47.7012 14.9982 48.3758 16.5471 47.8707C17.0043 47.7212 17.5094 47.4708 17.5659 47.3721C17.6267 47.2555 17.5902 47.151 17.2425 46.427C16.9313 45.7803 16.7975 45.4125 16.7975 45.2144C16.7975 44.9754 17.1252 44.7572 17.3198 44.8581C17.3799 44.8903 17.4486 45.047 17.5702 45.4397C17.8735 46.4034 18.1039 46.8477 19.1226 48.4617C19.7858 49.5126 19.8545 49.6343 19.7823 49.6343C19.6528 49.6343 18.913 49.0405 18.5367 48.6341C18.4194 48.506 18.2212 48.295 18.1039 48.1698L17.8857 47.9401L17.6918 48.0567C17.1173 48.413 16.5428 48.5833 15.8152 48.6112C15.3137 48.6341 15.3016 48.6341 15.366 48.7121C15.5727 48.9374 18.4594 50.2324 19.7293 50.6688C21.1244 51.1502 23.765 51.8177 23.8666 51.7161C23.911 51.6718 22.9323 50.7417 21.9336 49.8761C20.2273 48.4001 19.7701 47.8915 19.2929 46.9414C18.9331 46.2245 18.9331 46.2174 18.9044 44.8066L18.8801 43.5596L18.3664 43.2283C17.6267 42.759 16.8462 42.1738 15.9934 41.4498C15.5849 41.1021 15.2329 40.8181 15.2164 40.8181C15.1964 40.8181 15.2372 40.9676 15.3059 41.1507C15.6979 42.2017 15.9039 43.3771 15.8596 44.3365C15.8353 44.8023 15.7666 45.0198 15.5684 45.2544C15.3423 45.5256 15.3459 45.5492 15.2408 43.815C15.152 42.3956 15.1234 42.2546 14.8809 42.0393C14.4724 41.6802 13.518 41.384 11.743 41.0613C9.52307 40.6564 7.88904 40.0833 7.81249 39.6741C7.7803 39.516 7.84468 39.403 7.96201 39.403C8.01853 39.403 8.28181 39.501 8.54008 39.6212C9.17537 39.9131 9.59604 40.0426 10.813 40.3123C12.7375 40.7372 13.704 41.0041 14.5818 41.3439C14.8079 41.4333 15.0061 41.5049 15.0268 41.5049C15.0955 41.5049 15.0547 41.3518 14.946 41.1786C14.5575 40.5684 13.5831 40.1155 11.3224 39.501C9.62824 39.0395 8.81122 38.7405 8.70606 38.5502C8.62951 38.4042 8.71464 38.3713 9.20757 38.3713C9.55956 38.3713 9.68476 38.3563 9.7656 38.3076C9.87864 38.2304 10.2185 37.6366 10.4123 37.1673C10.5783 36.763 10.5583 36.6979 10.2142 36.4912C9.90725 36.3066 9.48229 36.1235 8.60089 35.8051C7.5256 35.4123 7.19007 35.2342 6.5469 34.7119C6.06542 34.3206 5.59253 33.8141 5.64904 33.7575C5.66121 33.7468 6.21495 33.9965 6.87814 34.3206C7.54134 34.6432 8.30971 35.0081 8.58873 35.1283C9.06591 35.3343 9.24405 35.4037 10.1455 35.7192C10.5984 35.8773 10.9625 36.0791 11.072 36.225C11.1406 36.3173 11.1564 36.3946 11.1528 36.6457C11.1485 37.0299 11.0598 37.3805 10.813 38.0086C10.5418 38.6997 10.5461 38.6632 10.6799 38.7269C10.74 38.7598 10.9303 38.8163 11.0963 38.8578C11.7996 39.0266 13.005 39.4795 13.9473 39.9295C14.2377 40.0669 14.5167 40.1964 14.5697 40.2164C14.6584 40.2522 14.6627 40.2472 14.6105 40.1756C14.5775 40.1305 14.3429 39.8236 14.0846 39.4967C13.5058 38.7598 13.1016 38.1746 12.6488 37.4169C11.1328 34.8657 10.1984 31.7737 10.0611 28.8161L10.0325 28.2423H8.71035C7.98205 28.2423 7.32743 28.2295 7.25446 28.2187C7.12139 28.1894 6.97115 28.0077 6.97115 27.871C6.97115 27.753 7.21439 27.7129 8.18451 27.6764C9.45439 27.6278 9.86648 27.5956 9.94374 27.5391C10.0081 27.494 10.0525 27.2028 10.1863 25.958C10.2957 24.9263 10.4696 24.0299 10.7765 22.9324C10.8659 22.6184 11.0033 22.0954 11.0841 21.7813C11.2337 21.2068 11.2337 21.1982 11.1564 21.141C11.1042 21.1052 11.0355 21.0938 10.9546 21.1088C10.5662 21.1904 8.7869 21.8371 7.95414 22.1977C7.41185 22.4309 6.77727 22.7958 6.34444 23.1185C5.98458 23.3853 5.11534 24.256 4.83632 24.6237C4.58592 24.9585 4.58163 25.0079 4.82845 25.5137C5.00588 25.885 5.20405 26.1397 5.31351 26.1397C5.40222 26.1397 5.43513 26.0624 5.43513 25.8364C5.43513 24.809 6.88673 23.5112 8.75041 22.8645C8.98936 22.7829 9.24835 22.7228 9.42577 22.7107C9.71337 22.6906 9.71695 22.6949 9.74557 22.8001C9.80209 23.0347 9.55527 23.2165 8.62951 23.6092C7.9985 23.8804 7.73952 24.0084 7.73952 24.0657C7.73952 24.0857 7.92553 24.2968 8.14802 24.5421C8.58515 25.0201 9.24405 25.8643 9.34493 26.0839C9.40574 26.2041 9.40574 26.2334 9.34135 26.3951C9.30487 26.496 9.20328 26.6899 9.11886 26.8315C8.93642 27.1298 8.83555 27.1878 8.42704 27.1878C8.16019 27.1914 7.98205 27.122 7.98205 27.0168C7.98205 26.9889 8.09151 26.7864 8.22529 26.5639C8.54008 26.0388 8.54008 25.9701 8.25748 25.586C7.97847 25.2104 7.41614 24.5343 7.26233 24.3883C7.145 24.2753 7.13713 24.2753 7.01622 24.3368C6.65565 24.5257 6.02107 25.533 5.6004 26.5926C5.50739 26.8272 5.40222 27.0533 5.37432 27.0984C5.32138 27.1663 5.31351 27.1663 5.20405 27.0576C4.94578 26.8143 4.5573 26.0431 4.35913 25.3921C4.20961 24.8863 4.20532 24.5379 4.35126 24.2266C4.63386 23.62 5.51597 22.7228 6.33657 22.1977C6.91105 21.8371 7.67942 21.4894 9.27625 20.8827C10.0446 20.5923 10.6556 20.3126 10.979 20.1058C11.2616 19.9241 11.4597 19.8597 11.6336 19.8919C11.7108 19.9091 11.8117 19.9005 11.8561 19.8754C11.9004 19.8518 12.0221 19.6658 12.1315 19.4591C12.6123 18.5211 13.3771 17.3278 13.8657 16.7426C14.1247 16.4307 14.2341 16.2733 14.1934 16.2733C14.1812 16.2733 14.0038 16.3455 13.797 16.4392C13.2433 16.6768 12.4992 16.9772 11.7144 17.2677C10.7765 17.6204 10.6513 17.6762 10.6513 17.7485C10.6513 17.7807 10.7686 18.1205 10.9139 18.4975C11.0598 18.8731 11.1771 19.2129 11.1771 19.2451C11.1771 19.4591 10.7643 19.1278 10.1577 18.4253C9.98023 18.2221 9.79422 18.0404 9.74128 18.0282C9.69263 18.0153 9.48229 18.0518 9.27267 18.109C8.87633 18.2178 8.46782 18.2464 8.46782 18.1691C8.46782 18.0811 8.63308 17.8937 8.82339 17.7735C9.14676 17.5668 9.78206 17.3235 11.4397 16.7662C13.146 16.196 13.9873 15.8927 14.4359 15.6859C14.7235 15.5578 14.7879 15.4849 14.8773 15.1887C14.9095 15.0756 14.8973 15.0756 14.4445 15.2209C13.9473 15.3833 12.467 15.7954 11.1042 16.1516C9.87077 16.4714 9.00153 16.734 8.55224 16.9157C8.38698 16.9844 8.22887 17.0416 8.19667 17.0416C8.07934 17.0416 8.01066 16.7619 8.03499 16.382C8.04286 16.1881 8.05931 16.0229 8.06718 16.0143C8.07505 16.0064 8.37481 15.9492 8.73038 15.8927C10.255 15.643 12.2124 15.2617 13.2032 15.0241C14.0481 14.8209 14.7314 14.5012 14.9417 14.2064C15.059 14.0419 15.1277 13.5918 15.2007 12.4922C15.2651 11.5178 15.3545 10.8346 15.4268 10.7452C15.5362 10.6157 15.8031 10.9956 15.8517 11.3519C15.924 11.862 15.5806 14.1463 15.3423 14.793C15.2937 14.9175 15.2615 15.0349 15.2729 15.0434C15.2937 15.0685 15.6214 14.8002 16.1708 14.3151C17.0486 13.5425 18.3264 12.626 18.5975 12.5774C18.6741 12.5602 18.7471 12.5323 18.7628 12.5087C18.775 12.4879 18.7549 12.2011 18.7184 11.8727C18.5288 10.2844 18.8801 9.1927 19.964 7.98291C20.3968 7.50215 20.9227 7.03283 22.1561 6.02265C23.1462 5.2135 23.8745 4.57034 23.8745 4.50237C23.8745 4.44871 23.6763 4.46159 23.1748 4.54959Z" fill="#FFD334"/>
<path d="M41.1656 42.5008C41.2106 42.7998 41.1534 44.1591 41.084 44.5505C40.8665 45.7202 40.312 46.6087 39.568 46.9822C39.3176 47.1059 39.176 47.1381 39.0794 47.0866C38.8612 46.9693 39.0865 46.6495 39.6453 46.2818C40.0209 46.0357 40.1833 45.8375 40.3321 45.4361C40.4544 45.1206 40.4859 44.8381 40.531 43.722C40.5624 42.9493 40.5839 42.744 40.6404 42.6624C40.6998 42.5652 41.0396 42.3148 41.1055 42.3148C41.1212 42.3148 41.1498 42.3999 41.1656 42.5008ZM50.0211 28.9342C50.4253 29.3548 50.6285 29.666 50.7007 29.9694C50.866 30.6769 50.9025 31.3001 50.7852 31.5176C50.6313 31.8166 49.9731 32.4161 49.2291 32.9377C48.4679 33.4757 47.178 34.1739 46.4068 34.4658C46.014 34.6153 45.5647 34.7248 45.5003 34.6883C45.4724 34.6719 45.4645 34.5667 45.4796 34.4021C45.5003 34.1095 45.5819 33.9843 45.7471 33.9843C46.0054 33.9843 46.8467 33.681 47.4985 33.354C47.8254 33.1874 48.6582 32.6343 49.1282 32.2666C49.8873 31.6714 50.4825 31.0246 50.4825 30.7857C50.4825 30.531 50.1506 29.9014 50.0211 29.9014C49.9681 29.9014 49.8637 30.0295 49.4387 30.6125C49.1805 30.9717 48.5738 31.5583 48.1774 31.8381C47.7897 32.1085 47.0571 32.5084 46.1149 32.9699C45.3637 33.334 45.1447 33.4184 45.1447 33.3498C45.1447 33.2968 45.6019 32.8525 45.8323 32.6787C46.1714 32.4233 46.62 32.1407 47.0535 31.9017C47.5708 31.6227 47.6638 31.5455 47.628 31.4253C47.5464 31.1462 47.1944 30.7978 46.3581 30.164C46.0505 29.9293 45.7872 29.7025 45.7715 29.6625C45.7385 29.5616 45.8201 29.1924 45.8967 29.0708C46.0018 28.9105 46.1835 28.8361 46.5277 28.8168C46.8711 28.7975 47.2874 28.8361 47.2874 28.8891C47.2874 28.9105 47.203 29.0472 47.1021 29.1967C46.806 29.6303 46.8031 29.6539 47.0206 29.9572C47.2753 30.3135 47.9793 31.0332 48.0766 31.0332C48.1774 31.0332 48.4801 30.8558 48.7355 30.6404C49.1404 30.2963 49.496 29.6904 49.6777 29.0193C49.7263 28.8361 49.77 28.6866 49.7786 28.6866C49.7821 28.6866 49.8959 28.7975 50.0211 28.9342ZM39.7376 9.05034C39.9043 9.12045 40.2806 9.51536 40.4859 9.84017C40.7821 10.2923 41.0482 11.1895 41.1369 12.0351C41.2135 12.7312 41.1734 13.8029 41.064 14.0011C41.0325 14.0569 41.0124 14.0483 40.9101 13.9396C40.7406 13.7578 40.6962 13.564 40.6555 12.7798C40.5954 11.691 40.4215 10.8503 40.1468 10.3202C40.0581 10.1499 39.7419 9.8187 39.5365 9.67347C39.3019 9.51536 39.2647 9.43452 39.3384 9.26568C39.3698 9.18841 39.4342 9.09469 39.4872 9.05892C39.6009 8.98166 39.5809 8.98166 39.7376 9.05034ZM31.194 4.4895C31.194 4.50238 31.2576 4.59038 31.3392 4.68767C31.5044 4.893 31.9945 5.29865 32.9196 5.99476C34.2796 7.01996 35.4636 8.1768 35.8922 8.89223C36.325 9.61338 36.4752 10.4254 36.4065 11.6631L36.3736 12.249L36.4824 12.3427C36.5432 12.3957 36.7814 12.5602 37.0168 12.714C37.5104 13.0338 38.286 13.6491 38.9778 14.2708C39.4872 14.728 39.7504 14.9261 39.7948 14.8853C39.8062 14.8703 39.7791 14.7637 39.7304 14.6478C39.6252 14.3967 39.4757 13.6641 39.3784 12.9573C39.2933 12.3062 39.2775 11.1573 39.3584 11.0163C39.4271 10.8861 39.5637 10.7366 39.6531 10.6879C39.7991 10.6114 39.8356 10.826 39.9686 12.5116C40.0781 13.9031 40.1139 14.0376 40.4744 14.3688C40.9073 14.7637 41.4088 14.9147 44.0931 15.4448C45.5375 15.731 46.2694 15.9334 46.8711 16.2196C47.1866 16.3656 47.2631 16.455 47.2231 16.6167C47.163 16.8556 46.9562 16.8556 46.1277 16.6124C45.4238 16.4099 43.9593 16.0422 42.4347 15.6859C41.8888 15.5578 41.2178 15.3912 40.9388 15.3146C40.2319 15.1121 40.2119 15.1121 40.2119 15.2209C40.2119 15.4319 40.7334 15.7718 41.534 16.0873C42.067 16.2926 42.6422 16.4786 43.6853 16.7834C45.4681 17.2999 46.2572 17.5868 46.5362 17.8215C46.6686 17.9345 46.6858 17.9667 46.6486 18.0368C46.625 18.0797 46.5599 18.1412 46.499 18.1734C46.4068 18.2221 46.3459 18.2178 45.9811 18.1327C45.7557 18.0797 45.5203 18.0325 45.4567 18.0196C45.3594 18.0032 45.2785 18.0683 44.7484 18.6063C44.2183 19.1443 43.8391 19.4676 43.794 19.4226C43.7811 19.4154 43.9192 19.0591 44.0974 18.6385C44.2712 18.2142 44.4164 17.8422 44.4164 17.8057C44.4164 17.7163 44.1947 17.6075 43.5265 17.3643C42.6823 17.061 41.7966 16.6939 41.2621 16.4271C41.0074 16.3012 40.7935 16.2003 40.7892 16.2089C40.7849 16.2132 40.8901 16.3541 41.0239 16.5187C41.715 17.36 42.439 18.4081 42.8361 19.1364C42.9691 19.3754 43.1272 19.6486 43.1916 19.751C43.3133 19.9455 43.3011 19.9455 43.7096 19.8919C43.9106 19.864 43.9106 19.864 44.2955 20.1509C44.757 20.4943 45.197 20.7168 46.034 21.0194C47.8898 21.7005 48.3355 21.8929 48.9451 22.29C50.0898 23.0305 50.8989 24.0321 50.9554 24.7768C50.9883 25.1896 50.7902 25.8364 50.4103 26.5604C49.7671 27.7773 48.2704 30.1024 48.1324 30.1024C48.0766 30.1024 47.8133 29.8198 47.8133 29.7626C47.8133 29.739 47.9793 29.5001 48.181 29.2332C48.5695 28.7159 48.9937 28.0356 49.071 27.8095C49.1311 27.6235 49.091 27.5677 48.42 26.9167C47.8011 26.3171 47.6351 26.1118 47.6759 25.9945C47.7203 25.8686 47.8619 25.7355 47.9471 25.7355C47.9907 25.7355 48.2905 25.9945 48.6782 26.3701C49.3586 27.0297 49.4995 27.1384 49.6126 27.0941C49.6734 27.074 49.6777 27.034 49.6576 26.8351C49.5883 26.2735 49.2699 25.6382 48.7033 24.9507C48.3033 24.4613 48.0515 24.2588 47.9306 24.3247C47.8533 24.3604 47.0971 25.3599 46.7659 25.8485C46.6171 26.0667 46.5999 26.1118 46.6486 26.1719C46.6772 26.2077 46.8267 26.3744 46.9762 26.5403C47.4985 27.1177 47.4856 27.1663 46.806 27.1835L46.3209 27.1985L46.1306 26.8995C46.0254 26.7392 45.8845 26.5039 45.8158 26.3787L45.6942 26.1562L45.8809 25.9129C45.9811 25.7834 46.3331 25.3642 46.6607 24.9864C47.2631 24.2882 47.4012 24.0936 47.3561 23.9805C47.3282 23.904 46.9448 23.7094 46.5155 23.552C46.3381 23.4833 46.0591 23.3703 45.9009 23.2973C45.4681 23.0949 45.2742 22.8151 45.4767 22.6871C45.6091 22.6055 47.648 23.3617 48.1409 23.6772C49.051 24.256 49.8107 25.3391 49.7378 25.9451C49.722 26.0875 49.7299 26.1397 49.7671 26.1397C49.9116 26.1397 50.6034 25.2383 50.6034 25.048C50.6034 24.8305 49.9452 24.0127 49.3293 23.4704C48.4529 22.6949 47.0249 21.9952 44.9823 21.3356C44.3313 21.126 43.9035 21.0173 43.8706 21.053C43.8591 21.0602 43.9078 21.2347 43.9765 21.4336C44.6103 23.2973 44.9916 25.2383 45.0847 27.1177L45.1118 27.6278L45.6427 27.6528C45.9367 27.6643 46.5234 27.685 46.9448 27.6965C47.7811 27.7258 48.2468 27.7687 48.3062 27.8303C48.367 27.8903 48.3062 28.0327 48.1889 28.11C48.108 28.1615 47.9142 28.1822 47.1537 28.2101C46.0791 28.2466 45.149 28.3067 45.1118 28.3403C45.1004 28.3518 45.0761 28.6587 45.0603 29.0193C44.9466 31.255 44.4536 33.3176 43.5472 35.3844C42.9691 36.6979 41.9575 38.3155 40.85 39.7099C40.7163 39.8809 40.6197 40.0261 40.6283 40.0383C40.6404 40.0497 40.8257 39.981 41.0439 39.8887C42.1113 39.4323 42.9899 39.1318 43.9886 38.8771C44.3442 38.7877 44.6518 38.6997 44.6754 38.6747C44.6997 38.6511 44.6146 38.4414 44.425 38.0615C44.033 37.276 43.8706 36.7831 43.887 36.4025C43.8949 36.1485 44.2955 35.9181 45.3751 35.549C46.3045 35.2263 46.7173 35.0532 47.9957 34.4379C49.2728 33.8234 49.4759 33.7339 49.5031 33.7575C49.5317 33.7869 48.5537 34.7456 48.2983 34.9423C47.7088 35.3909 47.2717 35.5898 46.0018 35.9825C45.0675 36.273 44.7527 36.3989 44.6275 36.5241C44.5545 36.5971 44.5502 36.6293 44.5831 36.7631C44.6475 37.0006 45.1655 38.0279 45.31 38.2025C45.4839 38.4164 45.5647 38.4371 45.9167 38.3677C46.3409 38.2876 46.4382 38.2919 46.4382 38.3928C46.4382 38.4414 46.3896 38.5223 46.3288 38.5824C46.0827 38.8049 45.6133 38.9866 44.033 39.4645C41.2993 40.293 40.7735 40.504 40.3729 40.9247C40.1511 41.1579 40.0137 41.4011 40.0652 41.4541C40.0824 41.4691 40.3972 41.3811 40.7692 41.2559C41.6342 40.9612 42.0512 40.8431 43.3655 40.5147C44.8936 40.1348 45.7715 39.8766 46.3982 39.6219C47.1379 39.3193 47.0971 39.3257 47.183 39.5203C47.2517 39.6698 47.2553 39.6906 47.1944 39.7829C47.1179 39.9002 46.3817 40.2693 45.8559 40.4511C45.1562 40.6965 44.5345 40.846 43.0621 41.1214C41.7522 41.369 40.9831 41.5829 40.4544 41.8497C39.9844 42.0887 39.9686 42.1287 39.8878 43.3657C39.8356 44.1706 39.7304 45.2745 39.7061 45.2995C39.6732 45.3317 39.5194 45.1292 39.4185 44.9196C39.2604 44.5869 39.2239 44.147 39.3019 43.4716C39.3784 42.812 39.5609 41.8662 39.714 41.3561C39.8713 40.8224 39.8713 40.8031 39.7819 40.8503C39.7376 40.8753 39.5072 41.0771 39.2604 41.3046C38.2345 42.2575 37.4539 42.8764 36.6004 43.4229C36.2885 43.6254 36.1719 43.722 36.1883 43.7663C36.2284 43.908 36.2885 44.5841 36.2885 44.9518C36.2885 45.987 36.0216 46.779 35.3785 47.644C35.0673 48.0646 34.2016 48.931 33.3767 49.6464C32.4917 50.4191 31.5695 51.2518 31.3149 51.5108L31.1367 51.6961H31.2791C31.5781 51.6961 32.8351 51.4336 33.7409 51.186C35.4393 50.7138 36.8029 50.1844 38.6537 49.2665C39.5723 48.8137 39.7218 48.7242 39.6696 48.6756C39.6531 48.6599 39.3899 48.6305 39.0865 48.6155C38.3189 48.5747 38.0399 48.4896 37.4904 48.1304L37.1778 47.9237L36.5189 48.5905C35.9165 49.205 35.4393 49.5935 35.2898 49.5935C35.2168 49.5935 35.2583 49.5205 35.6904 48.906C37.0891 46.9164 37.3967 46.3462 37.5627 45.4283C37.6349 45.0369 37.7122 44.9024 37.866 44.9024C37.9991 44.9024 38.2216 45.0119 38.2659 45.097C38.4155 45.3803 38.1608 46.1408 37.6843 46.8477L37.4654 47.1632L37.7086 47.3492C38.2101 47.7377 38.8647 47.9473 39.5837 47.9516C39.9686 47.9559 40.0044 47.9473 40.292 47.8106C41.4045 47.2769 41.9947 45.9298 42.5034 42.7762C42.6372 41.947 42.6572 41.8662 42.7352 41.8497C42.7824 41.8383 43.2324 41.8132 43.7375 41.7896C45.2986 41.7167 45.78 41.6229 46.5799 41.2237C47.1909 40.9204 47.4327 40.7329 47.5665 40.4747C47.7603 40.1069 47.6888 39.3107 47.3683 38.2111C47.2832 37.9149 47.1301 37.5028 47.0893 37.4534C47.0735 37.4384 46.8639 37.4577 46.62 37.4985C45.8888 37.628 45.7428 37.6366 45.6506 37.5708C45.5733 37.5107 45.5733 37.5064 45.7028 37.389C45.7758 37.3211 46.0219 37.1758 46.2486 37.0664C47.736 36.3424 48.1324 36.1356 48.6024 35.8287C48.8929 35.6384 49.1404 35.4803 49.1604 35.4803C49.3414 35.4803 48.6382 36.2293 47.9428 36.7745C47.5622 37.0735 47.5708 37.0134 47.7933 37.5793C48.0365 38.2068 48.161 38.8135 48.2418 39.7464L48.2704 40.0705L49.0424 38.5144C50.1427 36.3066 50.333 35.8409 50.9712 33.7618C51.5142 32.0112 51.5542 31.8166 51.5492 31.0332C51.5492 30.0338 51.4047 29.5895 50.8216 28.7682C50.4539 28.2466 50.3852 28.11 50.4131 27.9347C50.4253 27.8539 50.6034 27.5355 50.8259 27.1878C51.4562 26.2041 51.5578 25.9129 51.5213 25.1896C51.4534 23.9763 50.8052 21.3163 50.2121 19.811C49.6534 18.3995 48.7555 16.5766 48.4328 16.1917C48.2905 16.0214 48.2747 16.0551 48.1975 16.7426C48.1252 17.3815 47.9907 18.0647 47.7897 18.8695C47.716 19.1722 47.6516 19.5163 47.6516 19.6336C47.6516 19.8196 47.668 19.8561 47.7847 19.9649C47.8619 20.0335 48.1452 20.1759 48.4801 20.3126C49.1311 20.5751 49.4072 20.7461 49.7263 21.0809C50.029 21.3971 50.034 21.4766 49.7471 21.3635C49.629 21.3163 48.8886 21.0602 48.1002 20.7976C46.6772 20.3169 46.1027 20.0865 45.8401 19.8876C45.5847 19.6894 45.4839 19.4183 45.5933 19.2172C45.6305 19.1514 45.6627 19.1407 45.7586 19.16C45.8809 19.1851 45.961 19.2323 46.4826 19.6014C46.7344 19.7789 46.7545 19.7831 46.8103 19.7188C46.8911 19.625 46.9927 19.3052 47.2832 18.2142C47.5743 17.1182 47.6516 16.6811 47.6516 16.0787C47.6516 15.5042 47.608 15.3912 47.3161 15.2059C46.2808 14.5419 45.7428 14.4046 44.0129 14.3516C43.6001 14.3409 43.0986 14.3194 42.8919 14.3073L42.5241 14.283L42.4962 14.0376C42.2251 11.55 41.8574 10.0047 41.3108 9.09899C40.7492 8.16607 39.92 7.81337 38.9098 8.08094C38.6465 8.15319 37.9268 8.47585 37.8174 8.57816C37.6757 8.70693 37.7236 8.89223 38.1078 9.68206C38.5285 10.5556 38.5693 10.7008 38.4155 10.8825C38.3597 10.9505 38.2545 11.0278 38.1858 11.0614C38.0635 11.1086 38.052 11.1043 37.9311 10.972C37.8496 10.8861 37.7122 10.6114 37.5662 10.248C37.1177 9.14406 36.8708 8.70264 36.0216 7.51861C35.4078 6.65652 35.1932 6.32528 35.2211 6.28093C35.3055 6.14428 36.1919 6.90835 36.7943 7.6388C36.9796 7.86273 37.1663 8.08094 37.215 8.12529L37.3044 8.20184L37.9182 7.88634C38.5693 7.5551 38.776 7.49786 39.5029 7.43777L39.827 7.40844L39.4228 7.20311C38.7832 6.88331 37.2558 6.19579 36.6162 5.94539C35.083 5.33871 33.7044 4.94236 32.144 4.64761C31.7227 4.57034 31.3349 4.49809 31.2862 4.48521C31.2347 4.47305 31.194 4.47305 31.194 4.4895Z" fill="#FFD334"/>
<path d="M32.847 7.78554C34.0804 8.92593 34.4975 9.62848 34.2306 10.1264C34.0725 10.4212 33.9516 10.316 33.5588 9.54764C33.2233 8.89231 32.9686 8.50097 32.7869 8.36289C32.661 8.26631 32.6374 8.26202 32.5157 8.31138C32.3619 8.37148 32.0464 8.56107 31.5335 8.90089C31.0398 9.22498 30.4331 9.53261 30.0654 9.64136C29.3493 9.85956 28.7426 9.57268 28.4922 8.90089C28.4071 8.67839 28.3062 8.22982 28.3305 8.20621C28.3384 8.19334 28.4357 8.25343 28.5487 8.3307C28.8642 8.56107 29.184 8.73563 29.4509 8.83221C30.0897 9.06687 30.813 8.73563 31.869 7.71973C32.0872 7.51011 32.2854 7.33983 32.3133 7.33554C32.3376 7.33554 32.5765 7.53801 32.847 7.78554ZM23.203 7.75621C23.3812 7.97585 23.7732 8.2749 24.2826 8.58181C25.2084 9.13555 25.3257 9.13126 26.1227 8.52458C26.3695 8.33928 26.6035 8.18547 26.6442 8.18547C26.7051 8.18547 26.7129 8.20908 26.6886 8.39509C26.6521 8.66337 26.4582 9.16775 26.2965 9.41099C26.1184 9.67784 25.9646 9.76298 25.6455 9.76298C25.1884 9.76298 24.8085 9.60487 23.6237 8.92593C23.2961 8.73849 22.924 8.5489 22.7945 8.50097C22.3052 8.3307 22.1514 8.46091 21.5247 9.58412C21.0718 10.4011 20.9831 10.4906 20.8779 10.2395C20.8006 10.0534 20.8092 9.73365 20.8979 9.50042C21.0639 9.05471 21.6255 8.36719 22.4225 7.63459L22.7988 7.28832L22.924 7.42497C22.9884 7.50224 23.1143 7.65176 23.203 7.75621ZM24.0966 5.10842C23.5264 5.65787 23.2553 5.89682 21.8523 7.05796C20.1861 8.43944 19.6159 9.19278 19.3612 10.3482C19.3004 10.6151 19.2281 12.1482 19.2725 12.1482C19.2847 12.1482 19.4463 12.0473 19.6324 11.9178C20.1138 11.5945 20.5824 11.3877 21.5533 11.0651C23.3891 10.4505 25.0796 10.1178 26.6399 10.0577L27.3196 10.0341L27.2953 9.84668C27.2831 9.74581 27.2631 9.22498 27.2466 8.68698C27.2187 7.74119 27.2223 7.70756 27.3032 7.62744C27.3683 7.56233 27.7846 7.42926 27.8211 7.46575C27.8247 7.47433 27.8454 8.04453 27.8612 8.73849L27.8898 10.0005L28.0958 10.0212C28.2089 10.0341 28.5487 10.062 28.8478 10.0856C30.0125 10.1751 31.4519 10.4505 32.5887 10.7939C32.8556 10.874 33.4014 11.0679 33.7978 11.226C34.1977 11.3798 34.76 11.5909 35.0512 11.6911C35.3424 11.7891 35.5971 11.8899 35.6214 11.9093C35.6414 11.93 35.6901 11.9457 35.7309 11.9457C35.836 11.9457 35.8596 11.7361 35.8317 11.0808C35.791 10.1543 35.5649 9.49183 35.0312 8.73849C34.6592 8.21337 34.0804 7.68753 32.427 6.36614C32.0264 6.04635 31.4319 5.56129 31.1042 5.28585C30.7808 5.0147 30.4453 4.74356 30.3602 4.68775C29.9846 4.43235 29.5353 4.6391 28.3548 5.6128C28.1366 5.79165 27.9585 5.94976 27.9585 5.96479C27.9585 6.01773 28.4478 6.4384 28.739 6.63299C29.3822 7.0644 30.4739 7.5144 30.6957 7.43356C30.7529 7.41281 30.8252 7.357 30.8581 7.30764C30.9103 7.2268 30.906 7.20748 30.7608 7.04937C30.5383 6.80183 30.0532 6.44984 29.6247 6.23164C29.4222 6.12719 29.2441 6.02202 29.2319 6.00127C29.2076 5.96479 29.7986 5.45612 29.8629 5.45612C29.9159 5.45612 31.2659 6.57147 31.4726 6.78681L31.6544 6.97211L31.5335 7.09802C31.424 7.21106 30.8982 7.59596 30.2714 8.01877L30.0125 8.19334L29.7055 7.9551C29.2927 7.63459 28.7304 7.23109 28.1645 6.84261C27.4892 6.38116 27.57 6.36185 26.3001 7.31623C25.5117 7.91003 25.1075 8.18547 25.0224 8.18547C24.8814 8.18547 23.5464 7.24754 23.4942 7.11376C23.4821 7.07727 23.4864 7.01288 23.51 6.97211C23.6073 6.7911 25.0553 5.59777 25.1805 5.59777C25.2771 5.59777 25.6577 5.77091 25.9167 5.93688C26.0254 6.00557 26.0576 6.04205 26.0175 6.05422C25.1154 6.33824 24.7884 6.49849 24.4321 6.85478C24.1853 7.09802 24.1574 7.14166 24.1574 7.28403C24.1574 7.445 24.2218 7.53801 24.3678 7.59166C24.4972 7.63459 24.7841 7.5144 25.4717 7.11376C26.1992 6.69738 26.612 6.42194 26.8989 6.16725L27.0728 6.01415L26.7773 5.73871C26.3087 5.3066 25.7664 4.97464 25.1197 4.72853C24.978 4.67559 24.8206 4.61549 24.7641 4.59403C24.6711 4.55755 24.6182 4.59403 24.0966 5.10842Z" fill="#FFD334"/>
<path d="M12.5068 9.55183C12.0374 9.90811 11.209 10.66 10.5858 11.2832C9.45762 12.4193 7.71484 14.441 7.79568 14.5219C7.80355 14.5305 8.04251 14.4575 8.32581 14.3516C9.2108 14.0332 9.94697 13.8902 11.1968 13.8065C12.0825 13.7492 12.1755 13.7342 12.2034 13.6276C12.2156 13.5832 12.2521 13.1232 12.2886 12.6131C12.3937 11.0607 12.4581 10.6042 12.6763 9.83156C12.745 9.58831 12.7936 9.38728 12.7858 9.3744C12.7736 9.36581 12.6484 9.44737 12.5068 9.55183Z" fill="#FFD334"/>
<path d="M42.3791 9.79859C42.5938 10.5097 42.759 11.4197 42.9007 12.6732C42.9858 13.433 43.0302 13.6354 43.1275 13.6884C43.1718 13.7127 43.4508 13.7485 43.742 13.7699C45.4039 13.8858 46.354 14.084 47.1388 14.4768C47.2884 14.5533 47.4093 14.5941 47.4093 14.5705C47.4093 14.4532 45.9176 12.754 44.9668 11.7911C44.094 10.9068 42.3834 9.35718 42.2783 9.35718C42.2575 9.35718 42.3062 9.55535 42.3791 9.79859Z" fill="#FFD334"/>
<path d="M29.2897 12.2133C32.1607 12.5124 34.9222 13.6807 37.2595 15.5766C37.8261 16.038 39.1804 17.4002 39.6175 17.9468C41.2308 19.9729 42.2539 22.1807 42.7554 24.704C42.9536 25.6862 43.0101 26.2929 43.0301 27.595C43.0709 30.0138 42.7676 31.8053 41.9827 33.8185C40.5268 37.5423 37.5349 40.7731 33.9764 42.4766C31.8695 43.4824 29.6738 43.9396 27.2557 43.8795C25.1166 43.8266 23.2923 43.4138 21.4286 42.566C19.5441 41.7082 18.3308 40.8583 16.8592 39.3873C15.512 38.0402 14.5619 36.7059 13.7614 35.0554C11.6301 30.6563 11.5579 25.6097 13.5632 21.2027C14.182 19.8383 15.1851 18.2988 16.1595 17.2034C18.3229 14.7717 21.3635 13.0618 24.7038 12.3951C25.2819 12.2777 26.0667 12.169 26.5439 12.1325C26.9803 12.0989 28.7152 12.1518 29.2897 12.2133ZM27.4253 10.6079C27.2836 10.721 27.0854 10.7618 26.3614 10.834C25.6095 10.907 25.0315 10.9878 24.4613 11.1009C18.1734 12.3464 13.3042 16.83 11.5214 23.022C11.1572 24.2962 10.866 25.893 10.7931 27.0484C10.7773 27.2916 10.7444 27.5306 10.7244 27.5757C10.7001 27.6186 10.5992 27.7402 10.4983 27.8454C10.3967 27.9513 10.3202 28.0436 10.3323 28.0521C10.3402 28.0607 10.4253 28.0965 10.5183 28.1373C10.7365 28.2339 10.7566 28.2997 10.8138 29.0509C10.9912 31.489 11.5858 33.6775 12.6575 35.8124C13.066 36.633 13.2598 36.9685 13.79 37.7648C14.861 39.3788 16.03 40.6043 17.7084 41.8656C20.2639 43.7944 23.0984 44.8661 26.4222 45.1651C27.2271 45.2388 27.3888 45.2753 27.4939 45.3883C27.587 45.4892 27.6921 45.4935 27.7851 45.3912C27.8903 45.2782 28.0885 45.2388 28.9863 45.1451C29.9686 45.0449 30.7813 44.9061 31.5583 44.7165C35.6062 43.7214 39.3342 41.0006 41.615 37.382C43.1067 35.0039 44.0975 32.1408 44.2957 29.6211C44.3486 28.9214 44.3486 26.9032 44.2957 26.3015C44.0696 23.814 43.1839 21.1211 41.8819 18.9412C41.1579 17.7371 40.4303 16.8107 39.3464 15.7218C38.4285 14.801 37.7689 14.2595 36.7544 13.587C34.1868 11.885 31.9217 11.1416 28.2215 10.7939C27.8982 10.7618 27.7651 10.7167 27.6635 10.6079C27.5748 10.5099 27.5505 10.5099 27.4253 10.6079Z" fill="#FFD334"/>
<path d="M28.7062 13.5231C29.3215 13.5761 30.2758 13.7327 30.9025 13.8858C33.1547 14.4367 35.3382 15.605 36.9601 17.1296C39.4547 19.4712 40.9671 22.4387 41.4486 25.9379C41.5373 26.5846 41.5695 28.336 41.5051 29.0621C41.2462 32.0963 40.1179 34.9379 38.2535 37.2802C37.6025 38.093 36.3899 39.2248 35.3503 39.981C33.5875 41.2637 31.5006 42.0757 29.192 42.3827C28.5445 42.4685 26.7695 42.4764 26.1593 42.3998C25.1641 42.2739 24.1697 42.0643 23.3405 41.8046C21.9211 41.356 20.3236 40.4954 19.0823 39.5002C18.52 39.0516 17.077 37.6115 16.6477 37.0706C15.0587 35.0767 13.9427 32.2944 13.6193 29.5164C13.5342 28.776 13.522 27.0039 13.5993 26.2806C13.7889 24.457 14.2503 22.8637 15.0387 21.2862C15.7298 19.8961 16.3851 18.9782 17.5298 17.7928C18.5607 16.7254 19.3449 16.0829 20.3765 15.4676C22.1758 14.3916 24.2663 13.7005 26.2401 13.5267C26.8182 13.478 28.136 13.4737 28.7062 13.5231ZM26.5835 12.7948C24.0481 12.9443 21.529 13.7978 19.3656 15.2416C18.6659 15.7066 18.1687 16.1187 17.3674 16.8999C16.0253 18.2091 15.2126 19.2687 14.5172 20.5987C13.0327 23.4618 12.4832 26.6004 12.8996 29.8391C13.3281 33.168 14.8119 36.2851 17.1006 38.6717C19.2318 40.8946 22.0706 42.4363 24.9259 42.9171C25.7586 43.0594 26.3331 43.0981 27.4728 43.0981C29.863 43.0959 31.6945 42.711 33.5267 41.8296C35.1722 41.0376 36.4542 40.1305 37.7041 38.8814C39.4347 37.1472 40.7082 35.096 41.4765 32.8117C42.5118 29.7389 42.5282 26.1067 41.5209 23.0132C40.2718 19.1914 37.5946 16.0421 34.1091 14.2915C33.086 13.7771 31.9413 13.3564 30.987 13.1425C29.7135 12.8592 27.9264 12.7183 26.5835 12.7948Z" fill="#FFD334"/>
<path d="M31.2373 29.0794C31.2738 29.1195 31.2939 29.2333 31.2903 29.3699C31.286 29.8271 30.9304 30.4502 30.3237 31.0562C29.7936 31.5942 29.1834 31.9705 28.7548 32.0277C28.5402 32.0556 28.435 31.9619 28.435 31.7394C28.435 31.5426 28.5445 31.4325 28.9609 31.2057C29.6684 30.8215 30.1864 30.2921 30.5341 29.6003C30.8052 29.0594 30.8453 29.0108 31.027 29.0108C31.1243 29.0108 31.2051 29.0344 31.2373 29.0794ZM24.1654 28.9979C24.2219 29.0623 24.3628 29.2969 24.4802 29.528C24.7148 29.993 25.0303 30.418 25.2936 30.6319C25.3902 30.7128 25.6856 30.9152 25.9446 31.0855C26.2029 31.255 26.4576 31.4575 26.5105 31.5262C26.7001 31.793 26.5957 32.1643 26.3324 32.1643C25.8716 32.1643 24.8972 31.421 24.3592 30.6648C24.141 30.3536 23.7447 29.5931 23.6639 29.3291C23.6274 29.2011 23.6309 29.1603 23.6882 29.0708C23.8212 28.8698 24.0151 28.8405 24.1654 28.9979ZM38.7472 28.8126C39.4139 28.8934 39.9319 29.156 40.0972 29.4915C40.1823 29.6618 40.1902 29.7348 40.1902 30.345C40.1902 31.122 40.1136 31.5498 39.8224 32.4484C39.4705 33.5308 39.0541 34.3442 38.4803 35.064C37.7076 36.0305 35.6129 38.2261 34.7715 38.9537C34.1005 39.5325 33.2026 40.0219 32.2039 40.3502C31.4441 40.5956 30.9869 40.6729 30.3724 40.6493C29.8265 40.6278 29.5597 40.5513 29.2563 40.3331C28.4393 39.7393 28.1725 37.7776 28.508 34.8136C28.5845 34.1182 28.7105 33.3663 28.787 33.108C28.8636 32.8519 28.953 32.7753 29.6684 32.3547C30.7602 31.7079 31.1365 31.3037 31.6988 30.1833C32.0179 29.5445 32.0908 29.4357 32.2404 29.3542C32.4428 29.254 35.8068 28.8205 36.7733 28.7718C37.4608 28.7396 38.31 28.7568 38.7472 28.8126ZM18.8598 28.8333C20.3314 28.9578 22.2645 29.2247 22.6687 29.3585C22.9076 29.4357 22.9921 29.5445 23.3727 30.2728C23.7239 30.9388 23.8699 31.1456 24.2784 31.5705C24.6626 31.9705 24.9781 32.2051 25.6084 32.5528C26.2394 32.9005 26.3166 32.9735 26.3767 33.2575C26.5549 34.0688 26.7452 36.067 26.7452 37.0943C26.7452 37.9393 26.5749 38.8936 26.2959 39.5969C26.1385 39.9897 26.0455 40.1471 25.8395 40.3653C25.2364 40.997 23.5744 40.7988 21.7751 39.8802C20.8007 39.3787 20.2584 38.943 18.7789 37.4377C16.6999 35.3265 16.1748 34.6683 15.6368 33.5029C15.1553 32.4591 14.9328 31.5133 14.9292 30.5031C14.9292 29.4507 15.0466 29.1689 15.5559 28.9857C16.2592 28.7353 17.1978 28.691 18.8598 28.8333ZM28.1803 26.0217C28.508 26.1347 28.7627 26.3014 29.0217 26.5847C29.5919 27.1986 29.697 28.3919 29.2442 29.1281C29.1104 29.3463 28.8235 29.6368 28.6132 29.7748C27.97 30.1833 27.0521 30.1705 26.3975 29.7469C25.7822 29.3463 25.4796 28.7761 25.4753 28.0199C25.471 27.4175 25.5805 27.0934 25.936 26.6692C26.2837 26.2485 26.7166 25.9981 27.2102 25.9215C27.4327 25.8894 27.9299 25.9409 28.1803 26.0217ZM24.8042 15.1437C26.0655 15.3354 26.5227 16.0143 26.7044 17.9703C26.8053 19.027 26.5992 21.8773 26.3567 22.8445C26.2759 23.1629 26.175 23.2652 25.6327 23.5392C24.448 24.1423 23.8577 24.6917 23.3684 25.6626C23.0937 26.2034 23.0572 26.3658 23.1867 26.4703C23.4049 26.6491 23.5866 26.5318 23.8534 26.0389C24.1203 25.5567 24.3185 25.2827 24.6461 24.9629C25.1763 24.4413 25.7865 24.0893 26.2236 24.0486C26.4175 24.0292 26.4662 24.0407 26.5384 24.113C26.6479 24.2224 26.6522 24.437 26.5427 24.5701C26.5027 24.6273 26.288 24.764 26.0655 24.882C25.3501 25.2576 24.9416 25.674 24.5331 26.4381C24.4115 26.6606 24.2741 26.8881 24.2255 26.9396C24.1246 27.0448 24.0437 27.0448 23.3519 26.9038C22.8747 26.8072 22.6165 26.8072 21.7952 26.9081C19.9072 27.1428 18.1236 27.2351 16.9997 27.1578C15.9322 27.0855 15.5838 26.9761 15.1474 26.5683L14.8849 26.3208L14.9128 25.4515C14.9571 24.138 15.0136 23.786 15.3091 22.9647C15.5316 22.3537 15.7784 21.8565 16.1097 21.3607C16.4939 20.7862 16.8537 20.3448 17.9662 19.1035C18.4956 18.5126 19.0658 17.878 19.2318 17.6884C19.895 16.9437 20.7564 16.2969 21.7708 15.7797C23.0164 15.1437 23.7726 14.987 24.8042 15.1437ZM31.2538 15.06C31.9935 15.2095 32.641 15.4513 33.4981 15.8927C34.5498 16.4307 34.8288 16.6654 36.2596 18.1899C38.0067 20.0501 38.1083 20.1588 38.4317 20.5623C39.5391 21.9459 40.2553 23.8783 40.251 25.4794C40.2474 26.4467 40.0571 26.7708 39.3574 27.004C38.5969 27.2601 36.5064 27.2601 34.3473 27.004C32.9601 26.8437 32.196 26.7049 32.083 26.6048C32.0465 26.5726 31.9692 26.4381 31.9127 26.3136C31.5285 25.473 31.4276 25.2741 31.2781 25.0523C30.9304 24.5422 30.3195 24.0292 29.7249 23.7538C29.3615 23.5792 29.2034 23.5599 29.0946 23.6687C28.8922 23.8711 29.0138 24.0529 29.5675 24.397C30.2951 24.8413 30.8288 25.4279 31.173 26.1519C31.4842 26.8072 31.4563 27.1106 31.0799 27.1106C30.8775 27.1106 30.8088 27.0333 30.5663 26.5447C30.4611 26.3336 30.3073 26.0582 30.2229 25.938C29.976 25.5774 29.511 25.1653 29.0617 24.9135C28.8435 24.7897 28.6296 24.651 28.5845 24.6023C28.5123 24.5229 28.5123 24.51 28.581 24.1666C28.7469 23.3782 28.7469 23.3653 28.6296 22.2171C28.4679 20.5916 28.435 19.8726 28.4558 18.4439C28.4715 17.1826 28.4758 17.1297 28.581 16.7577C28.8521 15.8033 29.305 15.1816 29.8709 14.9941C30.097 14.9176 30.7237 14.9512 31.2538 15.06ZM25.5318 14.2551C23.2267 14.5949 21.3666 15.3633 19.5673 16.7169C17.2665 18.4525 15.5438 20.94 14.7389 23.6816C13.7116 27.1986 14.1566 31.6027 15.8507 34.6919C16.4817 35.8409 17.1449 36.718 18.1522 37.7289C19.2075 38.7878 19.895 39.3186 21.1041 39.9897C23.1824 41.1508 24.6504 41.5307 27.198 41.5743C29.159 41.6101 30.5298 41.4248 31.9292 40.944C34.6993 39.9854 37.4043 37.7454 39.014 35.0804C40.3361 32.9005 41.0802 29.767 40.9063 27.1385C40.7689 25.0716 40.344 23.3696 39.5477 21.7113C38.8402 20.2353 38.084 19.1314 37.0766 18.0962C35.8397 16.8263 34.4682 15.8927 32.6889 15.1072C31.3912 14.5348 30.2915 14.2916 28.508 14.1743C27.3633 14.097 26.4297 14.1213 25.5318 14.2551Z" fill="#FFD334"/>
<path d="M30.7851 15.7109C30.1706 15.7795 29.6326 16.3619 29.3049 17.3234C28.945 18.3837 29.0345 20.1794 29.5031 21.2068C29.8593 21.978 30.5261 22.9166 31.2544 23.6685C31.889 24.3239 32.4105 24.7596 33.1467 25.2503C34.5132 26.1639 35.5405 26.5038 36.9192 26.5038C37.8091 26.5038 38.3672 26.4057 38.8966 26.1596C39.4711 25.8971 39.6084 25.6903 39.6371 25.0479C39.6814 24.0041 39.2207 22.7463 38.3028 21.3799C37.9708 20.8905 37.5466 20.4212 37.3398 20.316C36.9764 20.1308 36.2402 20.1136 35.7065 20.276C34.9217 20.5192 33.6239 22.0266 33.6196 22.7056C33.6196 23.0003 33.943 23.3652 34.4202 23.5998C34.6305 23.705 34.74 23.7286 35.0068 23.7451C35.4354 23.7651 35.65 23.6642 35.7995 23.3738C35.8882 23.1992 35.8961 23.1391 35.8882 22.7184C35.8847 22.2534 35.8847 22.2534 36.0013 22.1318C36.0986 22.0352 36.1551 22.0145 36.3089 22.0145C36.4098 22.0145 36.5436 22.0395 36.6079 22.0717C36.794 22.1676 37.0165 22.4516 37.1946 22.8193C37.3484 23.1391 37.3606 23.1921 37.3606 23.4911C37.3563 23.8753 37.2711 24.0849 36.9886 24.4004C36.5471 24.8941 35.8482 24.9749 34.7679 24.6637C33.3163 24.2387 31.8604 22.9939 31.1936 21.5909C30.7651 20.6967 30.6356 19.6049 30.8702 18.8523C31.052 18.2664 31.5814 17.7605 32.075 17.7005C32.4427 17.6604 33.0702 17.8736 33.3041 18.1197C33.4458 18.2706 33.4987 18.4159 33.4987 18.662C33.4987 18.8365 33.478 18.8845 33.3728 18.9904C33.2562 19.1077 33.2397 19.1106 33.0215 19.0869C32.8956 19.0741 32.7096 19.0462 32.6087 19.0311C32.1394 18.9496 31.816 19.2 31.6787 19.7587C31.5656 20.203 31.9698 21.0236 32.4027 21.2468C32.7547 21.4199 33.1746 21.3713 33.757 21.0808C34.6792 20.6237 35.0433 20.1179 35.1606 19.127C35.2214 18.6148 35.1928 18.2985 35.0591 17.9659C34.8287 17.4043 34.2671 16.8956 33.3327 16.4134C32.314 15.8926 31.4118 15.6422 30.7851 15.7109Z" fill="#FFD334"/>
<path d="M36.0549 18.9818C35.9297 19.1506 35.7236 19.5033 35.7236 19.552C35.7236 19.5963 35.8245 19.5756 36.2209 19.4626C36.3825 19.4146 36.4913 19.3617 36.4913 19.3295C36.4913 19.2615 36.2452 18.8881 36.1887 18.8731C36.1643 18.8645 36.1035 18.9131 36.0549 18.9818Z" fill="#FFD334"/>
<path d="M23.3654 15.7431C22.4554 15.957 21.0689 16.6889 20.4944 17.2676C20.0616 17.7005 19.8835 18.2263 19.9285 18.961C19.9729 19.7509 20.1303 20.1308 20.5953 20.5665C21.275 21.2068 22.1886 21.4972 22.7022 21.2347C23.1837 20.9957 23.5107 20.1393 23.3332 19.5971C23.1794 19.1313 23.022 19.0462 22.3467 19.0548C22.0712 19.0591 21.813 19.0419 21.7679 19.0226C21.5905 18.9246 21.5132 18.5611 21.627 18.3436C21.7235 18.1605 21.9382 17.9831 22.2372 17.8421C22.4876 17.7248 22.557 17.7076 22.8639 17.7076C23.1386 17.7076 23.2402 17.7284 23.3733 17.797C23.6566 17.9466 23.8991 18.2306 24.1016 18.6384C24.2833 18.9975 24.2876 19.0312 24.3119 19.4583C24.3363 19.992 24.2669 20.5836 24.1381 20.9678C24.0043 21.352 23.6487 22.0266 23.3611 22.4309C22.6822 23.3895 21.5132 24.2623 20.4379 24.6186C19.3941 24.9628 18.6265 24.9027 18.1085 24.4326C17.6148 23.9805 17.5426 23.4339 17.8781 22.7507C18.1249 22.2491 18.4762 21.9708 18.796 22.0309C19.0507 22.0796 19.1802 22.3429 19.1845 22.8229C19.1845 23.2479 19.2367 23.3974 19.4349 23.5684C19.6531 23.7537 19.9364 23.8224 20.2355 23.758C20.6604 23.6643 21.1855 23.3008 21.3515 22.981C21.5783 22.5367 21.295 21.9415 20.4379 21.0808C19.7096 20.3447 19.3619 20.1794 18.517 20.1751C17.9547 20.1751 17.7808 20.2309 17.4653 20.5235C17.0776 20.8827 16.3614 21.9372 16.0059 22.682C15.6295 23.4661 15.4636 24.2917 15.5208 25.0672C15.5687 25.6825 15.7268 25.9 16.3414 26.1883C16.8594 26.4308 17.3036 26.5152 18.052 26.5152C19.0915 26.5195 20.0008 26.3013 20.9838 25.8205C22.4311 25.108 24.0043 23.7007 24.9143 22.3107C25.1812 21.9007 25.6219 21.0043 25.7514 20.5987C25.9174 20.09 25.941 19.9197 25.9653 19.1234C25.9939 17.9952 25.8644 17.2869 25.5167 16.661C25.335 16.3326 24.9751 15.9412 24.7283 15.7946C24.5623 15.6987 24.498 15.6858 24.1173 15.6787C23.8183 15.6701 23.5958 15.6901 23.3654 15.7431Z" fill="#FFD334"/>
<path d="M18.8644 19.002C18.6462 19.2539 18.5933 19.3454 18.662 19.3862C18.7593 19.4477 19.3459 19.593 19.386 19.5694C19.4547 19.5243 19.1148 18.8611 19.0218 18.8611C19.0061 18.8611 18.9331 18.9255 18.8644 19.002Z" fill="#FFD334"/>
<path d="M27.1536 26.6691C26.8224 26.7714 26.4825 27.0897 26.3044 27.4696C26.2157 27.6599 26.1992 27.7536 26.1992 28.0606C26.1992 28.4004 26.2071 28.4412 26.3452 28.688C26.7694 29.4635 27.7882 29.5937 28.4271 28.9534C28.7025 28.6758 28.7876 28.4326 28.7876 27.9196C28.7876 27.5762 28.7755 27.5147 28.6782 27.3451C28.5286 27.0897 28.2375 26.8479 27.9706 26.7456C27.7038 26.6455 27.3396 26.6133 27.1536 26.6691Z" fill="#FFD334"/>
<path d="M17.0849 29.4958C16.2357 29.5852 15.8029 29.7905 15.5646 30.2276C15.4473 30.4387 15.443 30.4666 15.4473 30.9323C15.4473 31.5068 15.5281 31.8459 15.8072 32.5377C16.3573 33.8835 17.3804 35.3587 17.922 35.5898C18.1158 35.6749 18.8077 35.7071 19.1232 35.647C19.5796 35.5619 19.9158 35.3587 20.441 34.8378C21.1571 34.1267 21.3953 33.6975 21.3589 33.1594C21.3431 32.8647 21.2501 32.7238 20.9146 32.4676C20.255 31.9704 19.503 32.0641 19.2405 32.6701C19.184 32.7917 19.1675 32.9291 19.1754 33.221C19.1797 33.5644 19.1718 33.6288 19.091 33.7461C18.965 33.9321 18.7468 34.013 18.5329 33.9493C18.2818 33.8706 18.0715 33.6531 17.8776 33.2646C17.7073 32.9205 17.7073 32.9176 17.7073 32.4719C17.7073 32.0792 17.7195 31.9998 17.8003 31.8502C17.9384 31.5905 18.1888 31.3637 18.4879 31.2228C18.7468 31.0969 18.779 31.0926 19.2648 31.0926C19.7334 31.0926 19.7985 31.1055 20.1541 31.2271C20.7286 31.4253 21.5413 31.8459 21.9534 32.1536C22.427 32.5041 23.1911 33.2725 23.4622 33.6738C24.0481 34.5259 24.388 35.647 24.2828 36.4068C24.1376 37.4914 23.4093 38.1131 22.5443 37.8906C21.816 37.7053 21.4161 37.2846 21.5778 36.8639C21.6665 36.6293 21.8203 36.5649 22.2889 36.5692C22.7461 36.5692 22.9364 36.5284 23.1024 36.3875C23.3649 36.1635 23.4093 35.7722 23.2276 35.1898C23.1181 34.8293 22.9364 34.5989 22.6652 34.4579C22.1272 34.1868 21.4969 34.4057 20.7286 35.1369C20.0325 35.7965 19.8915 36.1235 19.9194 37.022C19.9316 37.5278 19.9438 37.5836 20.0568 37.8269C20.2306 38.1896 20.4574 38.4286 20.9146 38.7319C21.6057 39.1891 22.3783 39.5282 23.2354 39.755C23.8013 39.9045 24.4288 39.9131 24.7722 39.7757C25.2086 39.5969 25.5849 39.1569 25.7752 38.5953C26.0098 37.8949 26.042 36.5119 25.836 35.7429C25.4919 34.4451 24.7557 33.2489 23.571 32.0641C22.2002 30.6934 20.6799 29.7948 19.3092 29.553C18.8928 29.4807 17.5621 29.4471 17.0849 29.4958Z" fill="#FFD334"/>
<path d="M18.8969 36.4468C18.6222 36.5927 18.6057 36.6736 18.7996 36.9361C18.8804 37.0499 18.9613 37.1393 18.9777 37.1393C19.0264 37.1393 19.2768 36.4604 19.2525 36.3946C19.2167 36.3023 19.1437 36.3137 18.8969 36.4468Z" fill="#FFD334"/>
<path d="M36.2971 29.4758C35.1932 29.6447 34.3483 29.9523 33.4097 30.5346C31.0402 31.9991 29.4147 34.1819 29.1114 36.3103C28.8932 37.8348 29.3582 39.3423 30.1588 39.6899C31.267 40.175 34.3962 39.0389 34.9507 37.9507C35.1567 37.5508 35.2175 36.8912 35.0959 36.3747C35.0115 36.0263 34.7926 35.6185 34.5257 35.3223C34.0936 34.8458 33.3574 34.4044 32.9203 34.3607C32.6334 34.3314 32.3179 34.4659 32.1319 34.7049C31.9302 34.9545 31.7563 35.3666 31.732 35.6421C31.7113 35.8488 31.7234 35.9132 31.8164 36.1078C31.8772 36.2287 31.9946 36.3782 32.0711 36.4426C32.2092 36.5478 32.2492 36.5521 32.7551 36.5728C33.4097 36.5964 33.4626 36.6286 33.4905 37.0042C33.5027 37.2031 33.4905 37.2647 33.4097 37.3806C33.1106 37.8263 32.3301 38.0681 31.7964 37.8864C30.9186 37.583 30.5587 36.4469 30.915 35.1169C31.0237 34.7006 31.4201 33.9064 31.7113 33.5151C32.3952 32.5929 33.3696 31.8246 34.4084 31.3917C35.2497 31.0412 36.119 30.9796 36.6126 31.2351C36.8065 31.3359 37.1506 31.6986 37.2594 31.9226C37.5062 32.4119 37.3402 33.191 36.8838 33.689C36.6126 33.9837 36.3458 34.0574 36.0989 33.9036C35.933 33.802 35.8843 33.6332 35.8843 33.1231C35.8843 32.6659 35.8486 32.565 35.6017 32.354C35.2619 32.0678 34.8942 32.0635 34.3197 32.3461C33.6808 32.6616 33.5113 33.1553 33.8182 33.802C33.9799 34.1411 34.2346 34.4659 34.6996 34.9224C35.3227 35.5247 35.5896 35.6299 36.5718 35.6657L37.1986 35.6914L37.5548 35.303C38.0156 34.8007 38.1773 34.594 38.5171 34.0731C38.8769 33.5237 39.2368 32.7918 39.4192 32.2452C39.5602 31.816 39.6253 31.4168 39.6618 30.7013L39.6775 30.3451L39.4107 30.0975C39.1073 29.8156 38.8004 29.6575 38.2989 29.5316C37.8582 29.4229 36.8351 29.395 36.2971 29.4758Z" fill="#FFD334"/>
<path d="M35.7637 36.2895C35.7637 36.3425 35.9905 36.932 36.0427 37.0136C36.0913 37.0901 36.2122 37.0178 36.3503 36.8147C36.4591 36.6544 36.4634 36.6501 36.3861 36.5693C36.253 36.4198 35.7637 36.2001 35.7637 36.2895Z" fill="#FFD334"/>
<path d="M3.46598 26.9316C3.41733 27.0533 3.4252 28.5134 3.47814 28.5664C3.57115 28.6587 3.95104 27.9919 3.95104 27.7365C3.95104 27.5591 3.71638 27.0533 3.57115 26.9245C3.49817 26.8587 3.49459 26.8587 3.46598 26.9316Z" fill="#FFD334"/>
<path d="M51.5056 27.2837C51.4369 27.3896 51.3396 27.5828 51.291 27.7166C51.2022 27.9555 51.2022 27.9627 51.2709 28.153C51.3718 28.4198 51.5499 28.7675 51.6472 28.8891L51.7281 28.9914L51.756 28.8333C51.8011 28.5987 51.7524 27.4819 51.6837 27.2723L51.6308 27.0898L51.5056 27.2837Z" fill="#FFD334"/>
<path d="M7.82129 41.6072C7.82129 41.6351 8.55317 42.5208 9.31295 43.4058C9.70071 43.8622 10.3117 44.5261 10.6723 44.8824C11.5293 45.7388 12.8429 46.8878 12.9001 46.832C12.9123 46.8234 12.8429 46.6052 12.7541 46.3541C12.4186 45.4161 12.2405 44.5862 12.1274 43.4058C12.0344 42.4314 12.0509 42.485 11.8491 42.4557C11.7597 42.4443 11.3834 42.4149 11.0157 42.3956C9.74578 42.3141 9.23998 42.201 8.41152 41.8254C7.91 41.5943 7.82129 41.5629 7.82129 41.6072Z" fill="#FFD334"/>
<path d="M46.9123 41.7532C46.2977 42.0651 45.5573 42.2618 44.6394 42.3512C44.3968 42.3749 44.0048 42.4113 43.7701 42.4364C43.1112 42.5008 43.1112 42.5008 43.0547 42.7834C43.0261 42.9129 42.986 43.2326 42.9617 43.4873C42.8479 44.6392 42.6462 45.4898 42.2177 46.6087C42.1611 46.7618 42.1247 46.8835 42.1404 46.8835C42.2177 46.8835 42.8365 46.3619 43.4754 45.761C44.1786 45.0928 45.4285 43.8114 46.0996 43.0595C46.6819 42.4113 47.3287 41.57 47.2399 41.5872C47.2321 41.5908 47.0861 41.6637 46.9123 41.7532Z" fill="#FFD334"/>
<path d="M34.174 45.9299C34.2584 46.0959 34.2219 46.4078 34.081 46.7026C33.9186 47.0546 33.45 47.6441 32.8311 48.2908L32.2774 48.8653L31.9984 48.607C31.4439 48.0855 30.5668 47.4903 30.2191 47.4108C29.9437 47.3407 29.5151 47.3772 29.3134 47.4795C29.2239 47.5267 28.9857 47.6848 28.7789 47.8301C28.5729 47.9767 28.399 48.0969 28.3826 48.0969C28.3425 48.0969 28.3626 47.8709 28.4234 47.6333C28.5085 47.305 28.6623 47.0224 28.8598 46.8113C29.3012 46.3506 29.6768 46.367 30.7084 46.88C30.9631 47.0095 31.3187 47.2041 31.4968 47.3171C32.3217 47.8344 32.4991 47.8594 32.8554 47.5196C33.1058 47.2806 33.2353 47.0825 33.5794 46.4185C33.7411 46.1088 33.8985 45.8205 33.935 45.7847C34.008 45.6988 34.0767 45.7396 34.174 45.9299ZM21.4194 45.8612C21.4759 45.9914 21.5331 46.141 21.5488 46.1968C21.6054 46.3799 21.8565 46.86 22.079 47.1912C22.3494 47.5997 22.5884 47.8301 22.7136 47.7936C22.8917 47.7421 23.3245 47.5267 23.8218 47.2449C24.5536 46.8321 25.1761 46.5316 25.4308 46.4758C25.7462 46.4078 25.9287 46.4679 26.2234 46.7469C26.5468 47.0588 26.7571 47.4838 26.7779 47.8637L26.7936 48.1456L26.4173 47.8387C25.6776 47.2363 25.2898 47.1511 24.6989 47.4502C24.2904 47.6569 23.9427 47.9195 23.3846 48.4446C23.1421 48.6757 22.9282 48.8653 22.9117 48.8653C22.8552 48.8653 21.8722 47.843 21.6218 47.5267C21.3063 47.1275 21.0273 46.6747 20.9386 46.4157C20.8735 46.2333 20.8735 46.1925 20.9221 46.0723C20.983 45.9342 21.2298 45.6309 21.2863 45.6309C21.302 45.6309 21.3628 45.7353 21.4194 45.8612ZM19.4462 44.2809C19.3489 45.1501 19.6244 46.3463 20.0973 47.1311C20.5215 47.8344 20.8778 48.2028 22.2364 49.3346C22.637 49.6702 23.2838 50.2253 23.6722 50.5644C24.7919 51.5424 24.8284 51.5667 25.1925 51.4702C25.5481 51.3764 26.8015 50.6861 27.1013 50.4192L27.21 50.3212L26.9067 50.035C26.3529 49.5056 25.1725 48.8009 24.6667 48.6965C24.4764 48.6557 24.4363 48.66 24.3433 48.7158C24.2625 48.7687 24.2381 48.8209 24.2381 48.9311C24.2381 49.0513 24.2746 49.1085 24.4728 49.3031C24.598 49.4283 24.8691 49.6258 25.0673 49.7431C25.2691 49.8605 25.5402 50.0221 25.6733 50.1037L25.9165 50.2489L25.7992 50.3427C25.7341 50.3899 25.5924 50.475 25.4837 50.5279L25.2855 50.6202L25.0995 50.5279C24.8484 50.407 24.2381 49.9456 23.8661 49.5979L23.5706 49.3182L23.6558 49.2051C23.7531 49.0721 24.5815 48.3445 24.8327 48.1699C25.0022 48.0562 25.0065 48.0562 25.136 48.122C25.3055 48.2071 25.6733 48.4575 26.6484 49.1322C27.0726 49.4283 27.469 49.6909 27.5255 49.7195C27.6149 49.7596 27.6507 49.7474 27.8246 49.6301C28.1608 49.4033 28.9328 48.8138 29.337 48.474C29.5516 48.2994 29.782 48.1306 29.8549 48.1012C29.9723 48.0497 29.9966 48.0533 30.1948 48.1778C30.6999 48.4897 31.4196 49.0513 31.5534 49.2387C31.602 49.311 31.5898 49.3346 31.4317 49.5013C31.2014 49.7317 30.34 50.3813 30.0896 50.5115C29.9437 50.5845 29.8592 50.6009 29.7662 50.5802C29.6246 50.5523 29.2526 50.3577 29.2526 50.3133C29.2526 50.2976 29.4386 50.176 29.6689 50.0379C30.4573 49.5614 30.8336 49.2416 30.8945 49.0041C30.9345 48.8374 30.7893 48.7329 30.5704 48.7651C30.1826 48.8288 29.475 49.1772 28.6781 49.7023C28.1808 50.0307 28.0392 50.148 28.0392 50.2404C28.0392 50.3985 28.8118 50.9601 29.5838 51.365C29.9723 51.5667 30.1382 51.5667 30.4452 51.3528C31.0275 50.9515 33.5673 48.7566 34.1453 48.1542C34.7556 47.5153 35.2414 46.8156 35.4796 46.229C35.5812 45.9743 35.6091 45.8205 35.6456 45.3805C35.6942 44.7895 35.6742 44.2 35.5969 44.1106C35.5361 44.0376 35.4961 44.0505 34.8329 44.3574C33.9429 44.7702 32.5113 45.2824 31.6177 45.5049C30.7285 45.7282 29.43 45.9099 28.5164 45.9421L27.8453 45.9657L27.8289 47.3536C27.8246 48.1134 27.801 48.7523 27.7845 48.7687C27.7645 48.7888 27.6471 48.7651 27.5219 48.7201L27.2909 48.6392L27.2787 47.3007L27.2708 45.9657L26.6319 45.9421C25.8593 45.9099 24.97 45.7968 24.0564 45.6108C22.9117 45.3762 21.986 45.0693 20.3841 44.3939C19.9356 44.2029 19.5471 44.0376 19.5192 44.0254C19.4906 44.014 19.4627 44.0977 19.4462 44.2809Z" fill="#FFD334"/>
<path d="M27.4134 50.7947C27.349 50.8312 27.2031 50.9314 27.09 51.0173C26.8024 51.2476 25.9375 52.0317 25.9375 52.0675C25.9375 52.1211 26.3174 52.1612 26.8067 52.1612C27.2882 52.1612 27.2918 52.1612 27.2796 52.0675C27.2682 51.9909 27.4013 51.664 27.5107 51.4973C27.5629 51.4165 27.7568 51.7405 27.7933 51.9752L27.8219 52.1612L28.141 52.1569C28.5252 52.1526 29.0145 52.0718 29.1118 52.0031C29.1762 51.9587 29.1519 51.9308 28.9094 51.7563C28.7563 51.6468 28.4773 51.4336 28.287 51.2712C27.9071 50.9572 27.5951 50.7261 27.5587 50.7261C27.5472 50.7304 27.4821 50.7583 27.4134 50.7947Z" fill="#FFD334"/>
</g>
</svg>
